<svg xmlns="http://www.w3.org/2000/svg" version="1.1" xmlns:xlink="http://www.w3.org/1999/xlink" xmlns:svgjs="http://svgjs.dev/svgjs" viewBox="0 -0.31539999999999946 1760.57275390625 179.340790625"><style>text.label { fill:gray; }</style><rect width="51.974609375" height="26.341796875" x="1.9423828125" y="0" fill="white" stroke="black"></rect><text x="12.61328125" y="17.3779296875" font-family="Helvetica" font-size="12" svgjs:data="{&quot;leading&quot;:&quot;1.3&quot;}"><tspan dy="0" x="12.61328125" svgjs:data="{&quot;newLined&quot;:true}">Client</tspan></text><rect width="55.859375" height="26.341796875" x="0" y="76.341796875" fill="white" stroke="black"></rect><text x="10.0234375" y="93.7197265625" font-family="Helvetica" font-size="12" svgjs:data="{&quot;leading&quot;:&quot;1.3&quot;}"><tspan dy="0" x="10.0234375" svgjs:data="{&quot;newLined&quot;:true}">Server</tspan></text><rect width="58.54296875" height="26.341796875" x="103.9169921875" y="0" fill="white" stroke="black"></rect><text x="113.4931640625" y="17.3779296875" font-family="Helvetica" font-size="12" svgjs:data="{&quot;leading&quot;:&quot;1.3&quot;}"><tspan dy="0" x="113.4931640625" svgjs:data="{&quot;newLined&quot;:true}">Source</tspan></text><rect width="48.130859375" height="26.341796875" x="109.123046875" y="76.341796875" fill="white" stroke="black"></rect><text x="120.4345703125" y="93.7197265625" font-family="Helvetica" font-size="12" svgjs:data="{&quot;leading&quot;:&quot;1.3&quot;}"><tspan dy="0" x="120.4345703125" svgjs:data="{&quot;newLined&quot;:true}">Filter</tspan></text><rect width="43.28515625" height="26.341796875" x="111.5458984375" y="152.68359375" fill="white" stroke="black"></rect><text x="121.6650390625" y="170.0615234375" font-family="Helvetica" font-size="12" svgjs:data="{&quot;leading&quot;:&quot;1.3&quot;}"><tspan dy="0" x="121.6650390625" svgjs:data="{&quot;newLined&quot;:true}">Sink</tspan></text><rect width="54.91015625" height="26.341796875" x="212.4599609375" y="0" fill="white" stroke="black"></rect><text x="222.6416015625" y="17.3779296875" font-family="Helvetica" font-size="12" svgjs:data="{&quot;leading&quot;:&quot;1.3&quot;}"><tspan dy="0" x="222.6416015625" svgjs:data="{&quot;newLined&quot;:true}">Writer</tspan></text><rect width="59.80859375" height="26.341796875" x="210.0107421875" y="152.68359375" fill="white" stroke="black"></rect><text x="219.3759765625" y="170.0615234375" font-family="Helvetica" font-size="12" svgjs:data="{&quot;leading&quot;:&quot;1.3&quot;}"><tspan dy="0" x="219.3759765625" svgjs:data="{&quot;newLined&quot;:true}">Reader</tspan></text><rect width="59.66796875" height="26.341796875" x="325.7958984375" y="0" fill="white" stroke="black"></rect><text x="335.1845703125" y="17.3779296875" font-family="Helvetica" font-size="12" svgjs:data="{&quot;leading&quot;:&quot;1.3&quot;}"><tspan dy="0" x="335.1845703125" svgjs:data="{&quot;newLined&quot;:true}">Sender</tspan></text><rect width="71.62109375" height="26.341796875" x="319.8193359375" y="152.68359375" fill="white" stroke="black"></rect><text x="330.2158203125" y="170.0615234375" font-family="Helvetica" font-size="12" svgjs:data="{&quot;leading&quot;:&quot;1.3&quot;}"><tspan dy="0" x="330.2158203125" svgjs:data="{&quot;newLined&quot;:true}">Recipient</tspan></text><rect width="101.36328125" height="26.341796875" x="435.4638671875" y="0" fill="white" stroke="black"></rect><text x="445.9033203125" y="17.3779296875" font-family="Helvetica" font-size="12" svgjs:data="{&quot;leading&quot;:&quot;1.3&quot;}"><tspan dy="0" x="445.9033203125" svgjs:data="{&quot;newLined&quot;:true}">Business Logic</tspan></text><path d="M476.12369110220016 79.30755748430235C476.0916911022002 75.97325748430235 496.14899110220017 76.44545748430235 496.16769110220014 79.20475748430235C496.09159110220014 83.64165748430236 476.02449110220016 83.44805748430235 476.12369110220016 79.30755748430235ZM476.15309110220016 79.95365748430235C478.30379110220014 83.01395748430235 493.54779110220016 83.32595748430235 496.15309110220016 79.95365748430235V99.95365748430235C489.61989110220014 102.62205748430236 482.96659110220014 102.88945748430235 476.15309110220016 99.95365748430235Z " fill="white" stroke="black"></path><svg width="2" height="0" style="opacity: 0; position: absolute; left: -100%; top: -100%; overflow: hidden;" focusable="false" aria-hidden="true"><path d="M345.8842828125 0L355.7220828125 10.5449L365.55988281249995 -0.30739999999999945M345.6298828125 -0.31539999999999946H365.6298828125V19.6846H345.6298828125Z "></path></svg><text x="499.9379212669002" y="93.7197265625" font-family="Helvetica" font-size="11" svgjs:data="{&quot;leading&quot;:&quot;1.3&quot;}"><tspan dy="0" x="499.9379212669002" svgjs:data="{&quot;newLined&quot;:true}">Shared</tspan></text><rect width="69.423828125" height="26.341796875" x="451.43359375" y="152.68359375" fill="white" stroke="black"></rect><text x="462.1962890625" y="170.0615234375" font-family="Helvetica" font-size="12" svgjs:data="{&quot;leading&quot;:&quot;1.3&quot;}"><tspan dy="0" x="462.1962890625" svgjs:data="{&quot;newLined&quot;:true}">Analytics</tspan></text><rect width="59.708984375" height="26.341796875" x="656.49853515625" y="0" fill="white" stroke="black"></rect><text x="666.88037109375" y="17.3779296875" font-family="Helvetica" font-size="12" svgjs:data="{&quot;leading&quot;:&quot;1.3&quot;}"><tspan dy="0" x="666.88037109375" svgjs:data="{&quot;newLined&quot;:true}">Service</tspan></text><path d="M666.6106141373283 82.60179111091618L707.6638141373282 82.64979111091618C710.3263141373283 87.10149111091619 710.5192141373283 91.73079111091619 707.6638141373282 96.42299111091619C694.1886141373283 96.43749111091618 682.6373141373283 96.18609111091618 667.3241141373283 96.38449111091617C661.2404141373283 96.38149111091619 662.0302141373282 82.59179111091618 666.6440141373283 82.63259111091618C670.8781141373283 82.53279111091618 670.9361141373283 96.32879111091619 667.3217141373283 96.37879111091618 " fill="white" stroke="black"></path><text x="730.731965362111" y="93.7197265625" font-family="Helvetica" font-size="11" svgjs:data="{&quot;leading&quot;:&quot;1.3&quot;}"><tspan dy="0" x="730.731965362111" svgjs:data="{&quot;newLined&quot;:true}">ESB</tspan></text><rect width="90.576171875" height="26.341796875" x="571.12548828125" y="152.68359375" fill="white" stroke="black"></rect><text x="581.36279296875" y="170.0615234375" font-family="Helvetica" font-size="12" svgjs:data="{&quot;leading&quot;:&quot;1.3&quot;}"><tspan dy="0" x="581.36279296875" svgjs:data="{&quot;newLined&quot;:true}">Microservice</tspan></text><rect width="89.181640625" height="26.341796875" x="711.70166015625" y="152.68359375" fill="white" stroke="black"></rect><text x="721.17138671875" y="170.0615234375" font-family="Helvetica" font-size="12" svgjs:data="{&quot;leading&quot;:&quot;1.3&quot;}"><tspan dy="0" x="721.17138671875" svgjs:data="{&quot;newLined&quot;:true}">Nanoservice</tspan></text><rect width="66.611328125" height="26.341796875" x="859.66357421875" y="0" fill="white" stroke="black"></rect><text x="868.89501953125" y="17.3779296875" font-family="Helvetica" font-size="12" svgjs:data="{&quot;leading&quot;:&quot;1.3&quot;}"><tspan dy="0" x="868.89501953125" svgjs:data="{&quot;newLined&quot;:true}">Browser</tspan></text><path d="M884.3830882812499 94.5889953125C889.8565882812499 96.3478953125 895.3300882812499 96.3439953125 900.8035882812499 94.5776953125M885.0863882812499 84.0806953125C890.7013882812499 85.53869531250001 896.1313882812499 85.4486953125 901.2373882812499 84.1536953125M883.31228828125 89.5085953125C889.8893882812499 91.2204953125 896.29408828125 90.8068953125 902.6261882812499 89.4972953125M902.6261882812499 89.4972953125C902.6261882812499 95.0200953125 898.5179882812499 99.1283953125 892.9950882812499 99.1283953125C887.4722882812499 99.1283953125 883.3332882812499 95.02019531250001 883.3332882812499 89.4972953125C883.3332882812499 83.97449531250001 887.4722882812499 79.8969953125 892.9950882812499 79.8969953125C898.5179882812499 79.8969953125 902.6261882812499 83.97449531250001 902.6261882812499 89.4972953125Z " fill="white" stroke="black"></path><text x="910.49895859375" y="93.7197265625" font-family="Helvetica" font-size="11" svgjs:data="{&quot;leading&quot;:&quot;1.3&quot;}"><tspan dy="0" x="910.49895859375" svgjs:data="{&quot;newLined&quot;:true}">API</tspan></text><rect width="84.171875" height="26.341796875" x="850.88330078125" y="152.68359375" fill="white" stroke="black"></rect><text x="860.18798828125" y="170.0615234375" font-family="Helvetica" font-size="12" svgjs:data="{&quot;leading&quot;:&quot;1.3&quot;}"><tspan dy="0" x="860.18798828125" svgjs:data="{&quot;newLined&quot;:true}">Web Server</tspan></text><rect width="97.689453125" height="26.341796875" x="987.50439453125" y="0" fill="white" stroke="black"></rect><text x="997.55615234375" y="17.3779296875" font-family="Helvetica" font-size="12" svgjs:data="{&quot;leading&quot;:&quot;1.3&quot;}"><tspan dy="0" x="997.55615234375" svgjs:data="{&quot;newLined&quot;:true}">Writer Thread</tspan></text><path d="M1028.27897109375 97.9363453125L1024.34387109375 97.99784531249999M1028.37127109375 95.15404531249999L1024.43617109375 95.2155453125M1028.37127109375 92.3102453125L1024.43617109375 92.3717453125M1028.37127109375 89.46654531249999L1024.43617109375 89.5280453125M1028.37127109375 86.6228453125L1024.43617109375 86.6843453125M1028.37127109375 83.77914531249999L1024.43617109375 83.8406453125M1028.40207109375 80.9968453125L1024.46697109375 81.0583453125M1048.35437109375 97.9670453125L1044.41927109375 98.0285453125M1048.35437109375 95.1540453125L1044.41927109375 95.2155453125M1048.35437109375 92.3102453125L1044.41927109375 92.3717453125M1048.35437109375 89.4665453125L1044.41927109375 89.5280453125M1048.35437109375 86.6228453125L1044.41927109375 86.6843453125M1048.35437109375 83.7791453125L1044.41927109375 83.8406453125M1048.35437109375 80.9661453125L1044.41927109375 81.0276453125M1044.81897109375 97.5059453125L1044.88047109375 101.44104531250001M1041.97527109375 97.5059453125L1042.03677109375 101.44104531250001M1039.13147109375 97.5059453125L1039.19297109375 101.44104531250001M1036.28777109375 97.5059453125L1036.34927109375 101.44104531250001M1033.44407109375 97.5059453125L1033.50557109375 101.44104531250001M1030.60037109375 97.5059453125L1030.66187109375 101.44104531250001M1027.75657109375 97.5059453125L1027.81807109375 101.44104531250001M1044.84977109375 77.5843453125L1044.91127109375 81.5194453125M1042.00607109375 77.5843453125L1042.06757109375 81.5194453125M1039.16227109375 77.5843453125L1039.22377109375 81.5194453125M1036.31857109375 77.5843453125L1036.38007109375 81.5194453125M1033.47487109375 77.5843453125L1033.53637109375 81.5194453125M1030.63117109375 77.5843453125L1030.69267109375 81.5194453125M1027.78737109375 77.5843453125L1027.84887109375 81.5194453125M1026.48647109375 79.5705453125H1046.48647109375V99.5705453125H1026.48647109375Z " fill="none" stroke="black"></path><text x="1055.0866718749999" y="93.7197265625" font-family="Helvetica" font-size="11" svgjs:data="{&quot;leading&quot;:&quot;1.3&quot;}"><tspan dy="0" x="1055.0866718749999" svgjs:data="{&quot;newLined&quot;:true}">Buffer</tspan></text><rect width="102.587890625" height="26.341796875" x="985.05517578125" y="152.68359375" fill="white" stroke="black"></rect><text x="994.29052734375" y="170.0615234375" font-family="Helvetica" font-size="12" svgjs:data="{&quot;leading&quot;:&quot;1.3&quot;}"><tspan dy="0" x="994.29052734375" svgjs:data="{&quot;newLined&quot;:true}">Reader Thread</tspan></text><rect width="114.212890625" height="26.341796875" x="1238.521484375" y="0" fill="white" stroke="black"></rect><text x="1247.8193359375" y="17.3779296875" font-family="Helvetica" font-size="12" svgjs:data="{&quot;leading&quot;:&quot;1.3&quot;}"><tspan dy="0" x="1247.8193359375" svgjs:data="{&quot;newLined&quot;:true}">Producer Thread</tspan></text><path d="M1303.3816796875 84.47639531249999C1302.2104796875 84.5702953125 1301.0440796875 84.65389531249998 1299.9577796875 85.02039531249999M1299.9180796875 84.35819531249999L1302.7074796875002 84.2436953125M1297.7367796875 86.73629531249999L1300.0103796875 83.52269531249999L1304.9652796875 84.0407953125M1299.2010796875002 82.92189531249998L1305.5561796875002 84.13639531249999M1299.7694796875 82.74699531249999L1297.5295796875 87.10989531249999M1289.0312796875 91.71189531249999L1286.1863796875 92.18609531249999M1290.9342796875 94.2034953125L1288.1209796875 95.72079531249999M1293.3049796875 95.97369531249998L1291.9457796875001 98.50249531249999M1296.2763796875001 96.10009531249999L1296.4976796875 99.00819531249999M1298.9948796875 94.93049531249999L1300.6385796875002 97.26959531249999M1300.6701796875002 92.84419531249999L1303.8627796875 94.48789531249999M1301.3023796875 90.44179531249999L1305.0323796875 90.94759531249998M1301.1759796875 87.34409531249999L1304.5582796875 86.8066953125M1301.2941796875 89.47039531249999C1301.2941796875 93.30479531249999 1298.6802796875002 96.15709531249999 1295.1661796875 96.15709531249999C1291.6521796875002 96.15709531249999 1289.0186796875 93.30479531249999 1289.0186796875 89.47039531249999C1289.0186796875 85.63599531249999 1291.6521796875002 82.80509531249999 1295.1661796875 82.80509531249999C1298.6801796875002 82.80509531249999 1301.2941796875 85.63599531249999 1301.2941796875 89.47039531249999ZM1304.9925796875 89.49729531249999C1304.9925796875 95.02009531249999 1300.8843796875 99.12839531249999 1295.3614796875002 99.12839531249999C1289.8386796875002 99.12839531249999 1285.6996796875 95.0201953125 1285.6996796875 89.49729531249999C1285.6996796875 83.9743953125 1289.8386796875002 79.8969953125 1295.3614796875002 79.8969953125C1300.8843796875 79.8969953125 1304.9925796875 83.97449531249998 1304.9925796875 89.49729531249999Z " fill="white" stroke="black"></path><text x="1310.21148046875" y="93.7197265625" font-family="Helvetica" font-size="11" svgjs:data="{&quot;leading&quot;:&quot;1.3&quot;}"><tspan dy="0" x="1310.21148046875" svgjs:data="{&quot;newLined&quot;:true}">Buffer</tspan></text><rect width="120.845703125" height="26.341796875" x="1137.64306640625" y="152.68359375" fill="white" stroke="black"></rect><text x="1145.83544921875" y="170.0615234375" font-family="Helvetica" font-size="12" svgjs:data="{&quot;leading&quot;:&quot;1.3&quot;}"><tspan dy="0" x="1145.83544921875" svgjs:data="{&quot;newLined&quot;:true}">Consumer Thread</tspan></text><rect width="169.40234375" height="26.341796875" x="1308.48876953125" y="152.68359375" fill="white" stroke="black"></rect><text x="1316.58837890625" y="170.0615234375" font-family="Helvetica" font-size="12" svgjs:data="{&quot;leading&quot;:&quot;1.3&quot;}"><tspan dy="0" x="1316.58837890625" svgjs:data="{&quot;newLined&quot;:true}">Another Consumer Thread</tspan></text><rect width="71.43359375" height="26.341796875" x="1531.20751953125" y="0" fill="white" stroke="black"></rect><text x="1540.63525390625" y="17.3779296875" font-family="Helvetica" font-size="12" svgjs:data="{&quot;leading&quot;:&quot;1.3&quot;}"><tspan dy="0" x="1540.63525390625" svgjs:data="{&quot;newLined&quot;:true}">Producer</tspan></text><path d="M1572.38106640625 83.4814953125L1576.90766640625 79.5573953125M1556.88666640625 83.4814953125L1560.8218664062501 79.7000953125L1576.90776640625 79.5573953125L1576.96196640625 96.1476953125L1572.38116640625 99.4679953125M1556.88666640625 83.4815953125H1572.38116640625V99.4679953125H1556.88666640625Z " fill="white" stroke="black"></path><text x="1582.112409375" y="93.7197265625" font-family="Helvetica" font-size="11" svgjs:data="{&quot;leading&quot;:&quot;1.3&quot;}"><tspan dy="0" x="1582.112409375" svgjs:data="{&quot;newLined&quot;:true}">Space</tspan></text><rect width="78.06640625" height="26.341796875" x="1527.89111328125" y="152.68359375" fill="white" stroke="black"></rect><text x="1536.21337890625" y="170.0615234375" font-family="Helvetica" font-size="12" svgjs:data="{&quot;leading&quot;:&quot;1.3&quot;}"><tspan dy="0" x="1536.21337890625" svgjs:data="{&quot;newLined&quot;:true}">Consumer</tspan></text><rect width="52.865234375" height="26.341796875" x="1681.83251953125" y="0" fill="white" stroke="black"></rect><text x="1691.35498046875" y="17.3779296875" font-family="Helvetica" font-size="12" svgjs:data="{&quot;leading&quot;:&quot;1.3&quot;}"><tspan dy="0" x="1691.35498046875" svgjs:data="{&quot;newLined&quot;:true}">Miner</tspan></text><path d="M1687.97678671875 96.7262453125V99.57194531249999H1699.44748671875V79.57194531249999H1687.97678671875V81.3223453125M1687.97678671875 83.2462453125V85.7580453125M1687.97678671875 87.6285453125V89.7662453125M1687.97678671875 91.9841453125V94.4566453125M1713.86048671875 86.1356453125H1716.85358671875C1718.3647867187499 86.1356453125 1719.5813867187499 87.3522453125 1719.5813867187499 88.8634453125V89.9668453125C1719.5813867187499 91.4780453125 1718.3647867187499 92.6947453125 1716.85358671875 92.6947453125H1713.86048671875C1712.34928671875 92.6947453125 1711.13258671875 91.4781453125 1711.13258671875 89.9668453125V88.8634453125C1711.13258671875 87.3522453125 1712.34918671875 86.1356453125 1713.86048671875 86.1356453125ZM1699.3910867187499 86.0170453125H1702.38418671875C1703.89538671875 86.0170453125 1705.11198671875 87.2336453125 1705.11198671875 88.7448453125V89.8482453125C1705.11198671875 91.3594453125 1703.89538671875 92.5760453125 1702.38418671875 92.5760453125H1699.3910867187499C1697.87988671875 92.5760453125 1696.66328671875 91.3594453125 1696.66328671875 89.8482453125V88.7448453125C1696.66328671875 87.2336453125 1697.87988671875 86.0170453125 1699.3910867187499 86.0170453125ZM1702.26758671875 79.4534453125H1713.73998671875V99.4534453125H1702.26758671875ZM1717.03348671875 79.4534453125H1728.55348671875V99.4534453125H1717.03348671875Z " fill="none" stroke="black"></path><rect width="104.615234375" height="26.341796875" x="1655.95751953125" y="152.68359375" fill="white" stroke="black"></rect><text x="1665.85498046875" y="170.0615234375" font-family="Helvetica" font-size="12" svgjs:data="{&quot;leading&quot;:&quot;1.3&quot;}"><tspan dy="0" x="1665.85498046875" svgjs:data="{&quot;newLined&quot;:true}">Smart Contract</tspan></text><path d="M229.9150390625 79.5126953125H245.7572390625L245.7020390625 83.7246953125L249.9150390625 83.6944953125V99.5126953125H229.9150390625ZM245.7880390625 79.5336953125L249.9140390625 83.6376953125 " fill="white" stroke="black"></path><path d="M345.8842828125 79.8280953125L355.7220828125 90.3729953125L365.55988281249995 79.5206953125M345.6298828125 79.5126953125H365.6298828125V99.5126953125H345.6298828125Z " fill="white" stroke="black"></path><g><polyline points="25.9296875,26.341796875 25.9296875,51.341796875 25.9296875,76.341796875" stroke-width="0.25" stroke="black" fill="none" marker-end="url(#SvgjsMarker1000)"></polyline><polyline points="29.9296875,76.341796875 29.9296875,51.341796875 29.9296875,26.341796875" stroke-width="0.25" stroke="black" fill="none" stroke-dasharray="2" marker-end="url(#SvgjsMarker1001)"></polyline></g><defs><marker markerWidth="40" markerHeight="30" refX="20" refY="15" viewBox="0 0 40 30" orient="auto" id="SvgjsMarker1000"><path d="m 0 0 l 20 15 l -20 15 a 7.5 1 90 0 0 0 -30 z" fill="black" stroke-width="0.1" stroke="black"></path></marker><marker markerWidth="40" markerHeight="30" refX="20" refY="15" viewBox="0 0 40 30" orient="auto" id="SvgjsMarker1001"><path d="m 0 0 l 20 15 l -20 15 a 7.5 1 90 0 0 0 -30 z" fill="black" stroke-width="0.1" stroke="black"></path></marker><marker markerWidth="100" markerHeight="40" refX="50" refY="20" viewBox="0 0 100 40" orient="auto" id="SvgjsMarker1002"><path d="m 0 0 l 20 20 l -20 20 a 10 1 90 0 0 0 -40 z m 19.96 4.4 l 15.5 15.63 l -15.43 15.23 a 10 1 90 0 0 -0.07 -30.79 z m 16.12 5.51 l 10.34 10.12 l -10.27 10.2 a 10 1 90 0 0 -0.07 -20.32 z" fill="black" stroke-width="0.1" stroke="black"></path></marker><marker markerWidth="100" markerHeight="40" refX="50" refY="20" viewBox="0 0 100 40" orient="auto" id="SvgjsMarker1003"><path d="m 0 0 l 20 20 l -20 20 a 10 1 90 0 0 0 -40 z m 19.96 4.4 l 15.5 15.63 l -15.43 15.23 a 10 1 90 0 0 -0.07 -30.79 z m 16.12 5.51 l 10.34 10.12 l -10.27 10.2 a 10 1 90 0 0 -0.07 -20.32 z" fill="black" stroke-width="0.1" stroke="black"></path></marker><marker markerWidth="40" markerHeight="30" refX="20" refY="15" viewBox="0 0 40 30" orient="auto" id="SvgjsMarker1004"><path d="m 0 0 l 20 15 l -20 15 a 7.5 1 90 0 0 0 -30 z" fill="black" stroke-width="0.1" stroke="black"></path></marker><marker markerWidth="40" markerHeight="30" refX="20" refY="15" viewBox="0 0 40 30" orient="auto" id="SvgjsMarker1005"><path d="m 0 0 l 20 15 l -20 15 a 7.5 1 90 0 0 0 -30 z" fill="black" stroke-width="0.1" stroke="black"></path></marker><marker markerWidth="40" markerHeight="30" refX="20" refY="15" viewBox="0 0 40 30" orient="auto" id="SvgjsMarker1006"><path d="m 0 0 l 20 15 l -20 15 a 7.5 1 90 0 0 0 -30 z" fill="black" stroke-width="0.1" stroke="black"></path></marker><marker markerWidth="40" markerHeight="30" refX="20" refY="15" viewBox="0 0 40 30" orient="auto" id="SvgjsMarker1007"><path d="m 0 0 l 20 15 l -20 15 a 7.5 1 90 0 0 0 -30 z" fill="black" stroke-width="0.1" stroke="black"></path></marker><marker markerWidth="40" markerHeight="30" refX="20" refY="15" viewBox="0 0 40 30" orient="auto" id="SvgjsMarker1008"><path d="m 0 0 l 20 15 l -20 15 a 7.5 1 90 0 0 0 -30 z" fill="black" stroke-width="0.1" stroke="black"></path></marker><marker markerWidth="40" markerHeight="30" refX="20" refY="15" viewBox="0 0 40 30" orient="auto" id="SvgjsMarker1009"><path d="m 0 0 l 20 15 l -20 15 a 7.5 1 90 0 0 0 -30 z" fill="black" stroke-width="0.1" stroke="black"></path></marker><marker markerWidth="40" markerHeight="30" refX="20" refY="15" viewBox="0 0 40 30" orient="auto" id="SvgjsMarker1010"><path d="m 0 0 l 20 15 l -20 15 a 7.5 1 90 0 0 0 -30 z" fill="black" stroke-width="0.1" stroke="black"></path></marker><marker markerWidth="40" markerHeight="30" refX="20" refY="15" viewBox="0 0 40 30" orient="auto" id="SvgjsMarker1011"><path d="m 0 0 l 20 15 l -20 15 a 7.5 1 90 0 0 0 -30 z" fill="black" stroke-width="0.1" stroke="black"></path></marker><marker markerWidth="40" markerHeight="30" refX="20" refY="15" viewBox="0 0 40 30" orient="auto" id="SvgjsMarker1012"><path d="m 0 0 l 20 15 l -20 15 a 7.5 1 90 0 0 0 -30 z" fill="black" stroke-width="0.1" stroke="black"></path></marker><marker markerWidth="40" markerHeight="30" refX="20" refY="15" viewBox="0 0 40 30" orient="auto" id="SvgjsMarker1013"><path d="m 0 0 l 20 15 l -20 15 a 7.5 1 90 0 0 0 -30 z" fill="black" stroke-width="0.1" stroke="black"></path></marker><marker markerWidth="40" markerHeight="30" refX="20" refY="15" viewBox="0 0 40 30" orient="auto" id="SvgjsMarker1014"><path d="m 0 0 l 20 15 l -20 15 a 7.5 1 90 0 0 0 -30 z" fill="black" stroke-width="0.1" stroke="black"></path></marker><marker markerWidth="40" markerHeight="30" refX="20" refY="15" viewBox="0 0 40 30" orient="auto" id="SvgjsMarker1015"><path d="m 0 0 l 20 15 l -20 15 a 7.5 1 90 0 0 0 -30 z" fill="black" stroke-width="0.1" stroke="black"></path></marker><marker markerWidth="40" markerHeight="30" refX="20" refY="15" viewBox="0 0 40 30" orient="auto" id="SvgjsMarker1016"><path d="m 0 0 l 20 15 l -20 15 a 7.5 1 90 0 0 0 -30 z" fill="black" stroke-width="0.1" stroke="black"></path></marker><marker markerWidth="40" markerHeight="30" refX="20" refY="15" viewBox="0 0 40 30" orient="auto" id="SvgjsMarker1017"><path d="m 0 0 l 20 15 l -20 15 a 7.5 1 90 0 0 0 -30 z" fill="black" stroke-width="0.1" stroke="black"></path></marker><marker markerWidth="40" markerHeight="30" refX="20" refY="15" viewBox="0 0 40 30" orient="auto" id="SvgjsMarker1018"><path d="m 0 0 l 20 15 l -20 15 a 7.5 1 90 0 0 0 -30 z" fill="black" stroke-width="0.1" stroke="black"></path></marker><marker markerWidth="40" markerHeight="30" refX="20" refY="15" viewBox="0 0 40 30" orient="auto" id="SvgjsMarker1019"><path d="m 0 0 l 20 15 l -20 15 a 7.5 1 90 0 0 0 -30 z" fill="black" stroke-width="0.1" stroke="black"></path></marker><marker markerWidth="40" markerHeight="30" refX="20" refY="15" viewBox="0 0 40 30" orient="auto" id="SvgjsMarker1020"><path d="m 0 0 l 20 15 l -20 15 a 7.5 1 90 0 0 0 -30 z" fill="black" stroke-width="0.1" stroke="black"></path></marker><marker markerWidth="40" markerHeight="30" refX="20" refY="15" viewBox="0 0 40 30" orient="auto" id="SvgjsMarker1021"><path d="m 0 0 l 20 15 l -20 15 a 7.5 1 90 0 0 0 -30 z" fill="black" stroke-width="0.1" stroke="black"></path></marker><marker markerWidth="40" markerHeight="30" refX="20" refY="15" viewBox="0 0 40 30" orient="auto" id="SvgjsMarker1022"><path d="m 0 0 l 20 15 l -20 15 a 7.5 1 90 0 0 0 -30 z" fill="black" stroke-width="0.1" stroke="black"></path></marker><marker markerWidth="40" markerHeight="30" refX="20" refY="15" viewBox="0 0 40 30" orient="auto" id="SvgjsMarker1023"><path d="m 0 0 l 20 15 l -20 15 a 7.5 1 90 0 0 0 -30 z" fill="black" stroke-width="0.1" stroke="black"></path></marker></defs><g><polyline points="133.1884765625,26.341796875 133.1884765625,51.341796875 133.1884765625,76.341796875" stroke-width="0.25" stroke="black" fill="none" marker-end="url(#SvgjsMarker1002)"></polyline></g><g><polyline points="133.1884765625,102.68359375 133.1884765625,127.68359375 133.1884765625,152.68359375" stroke-width="0.25" stroke="black" fill="none" marker-end="url(#SvgjsMarker1003)"></polyline></g><g><polyline points="239.9150390625,26.341796875 239.9150390625,51.341796875 239.9150390625,79.5126953125" stroke-width="0.25" stroke="black" fill="none" marker-end="url(#SvgjsMarker1004)"></polyline></g><g><polyline points="239.9150390625,99.5126953125 239.9150390625,127.68359375 239.9150390625,152.68359375" stroke-width="0.25" stroke="black" fill="none" marker-end="url(#SvgjsMarker1005)"></polyline></g><g><polyline points="355.6298828125,26.341796875 355.6298828125,51.341796875 355.6298828125,79.5126953125" stroke-width="0.25" stroke="black" fill="none" marker-end="url(#SvgjsMarker1006)"></polyline></g><g><polyline points="355.6298828125,99.5126953125 355.6298828125,127.68359375 355.6298828125,152.68359375" stroke-width="0.25" stroke="black" fill="none" marker-end="url(#SvgjsMarker1007)"></polyline></g><g><polyline points="486.1455078125,26.341796875 486.1455078125,51.341796875 486.1455078125,79.5126953125" stroke-width="0.25" stroke="black" fill="none" marker-end="url(#SvgjsMarker1008)"></polyline></g><g><polyline points="486.1455078125,99.5126953125 486.1455078125,127.68359375 486.1455078125,152.68359375" stroke-width="0.25" stroke="black" fill="none" marker-end="url(#SvgjsMarker1009)"></polyline></g><g><polyline points="686.35302734375,26.341796875 686.35302734375,51.341796875 686.35302734375,83.5126953125" stroke-width="0.25" stroke="black" fill="none" marker-end="url(#SvgjsMarker1010)"></polyline></g><g><polyline points="675.3593977482323,95.5126953125 616.41357421875,127.68359375 616.41357421875,152.68359375" stroke-width="0.25" stroke="black" fill="none" marker-end="url(#SvgjsMarker1011)"></polyline></g><g><polyline points="697.3466569392677,95.5126953125 756.29248046875,127.68359375 756.29248046875,152.68359375" stroke-width="0.25" stroke="black" fill="none" marker-end="url(#SvgjsMarker1012)"></polyline></g><g><polyline points="892.96923828125,26.341796875 892.96923828125,51.341796875 892.96923828125,79.5126953125" stroke-width="0.25" stroke="black" fill="none" marker-end="url(#SvgjsMarker1013)"></polyline></g><g><polyline points="892.96923828125,99.5126953125 892.96923828125,127.68359375 892.96923828125,152.68359375" stroke-width="0.25" stroke="black" fill="none" marker-end="url(#SvgjsMarker1014)"></polyline></g><g><polyline points="1036.34912109375,26.341796875 1036.34912109375,51.341796875 1036.34912109375,79.5126953125" stroke-width="0.25" stroke="black" fill="none" marker-end="url(#SvgjsMarker1015)"></polyline></g><g><polyline points="1036.34912109375,99.5126953125 1036.34912109375,127.68359375 1036.34912109375,152.68359375" stroke-width="0.25" stroke="black" fill="none" marker-end="url(#SvgjsMarker1016)"></polyline></g><g><polyline points="1295.6279296875,26.341796875 1295.6279296875,51.341796875 1295.6279296875,79.5126953125" stroke-width="0.25" stroke="black" fill="none" marker-end="url(#SvgjsMarker1017)"></polyline></g><g><polyline points="1285.6279296875,93.42517085139504 1198.06591796875,127.68359375 1198.06591796875,152.68359375" stroke-width="0.25" stroke="black" fill="none" marker-end="url(#SvgjsMarker1018)"></polyline></g><g><polyline points="1305.6279296875,93.42517085139504 1393.18994140625,127.68359375 1393.18994140625,152.68359375" stroke-width="0.25" stroke="black" fill="none" marker-end="url(#SvgjsMarker1019)"></polyline></g><g><polyline points="1566.92431640625,26.341796875 1566.92431640625,51.341796875 1566.92431640625,79.5126953125" stroke-width="0.25" stroke="black" fill="none" marker-end="url(#SvgjsMarker1020)"></polyline><text x="1564.32421875" y="59.13427734375" font-family="Helvetica" font-size="10" class="label" transform="matrix(6.123233995736766e-17,1,-1,6.123233995736766e-17,1623.91259765625,-1513.40283203125)" svgjs:data="{&quot;leading&quot;:&quot;1.3&quot;}"><tspan dy="0" x="1564.32421875" svgjs:data="{&quot;newLined&quot;:true}">in</tspan></text></g><g><polyline points="1566.92431640625,99.5126953125 1566.92431640625,127.68359375 1566.92431640625,152.68359375" stroke-width="0.25" stroke="black" fill="none" marker-end="url(#SvgjsMarker1021)"></polyline><text x="1562.2119140625" y="132.30517578125" font-family="Helvetica" font-size="10" class="label" transform="matrix(6.123233995736766e-17,1,-1,6.123233995736766e-17,1698.49169921875,-1441.64013671875)" svgjs:data="{&quot;leading&quot;:&quot;1.3&quot;}"><tspan dy="0" x="1562.2119140625" svgjs:data="{&quot;newLined&quot;:true}">out</tspan></text></g><g><polyline points="1708.26513671875,26.341796875 1708.26513671875,51.341796875 1708.26513671875,79.5126953125" stroke-width="0.25" stroke="black" fill="none" marker-end="url(#SvgjsMarker1022)"></polyline></g><g><polyline points="1708.26513671875,99.5126953125 1708.26513671875,127.68359375 1708.26513671875,152.68359375" stroke-width="0.25" stroke="black" fill="none" marker-end="url(#SvgjsMarker1023)"></polyline></g></svg>