<svg xmlns="http://www.w3.org/2000/svg" version="1.1" xmlns:xlink="http://www.w3.org/1999/xlink" xmlns:svgjs="http://svgjs.dev/svgjs" viewBox="0.34304999999999986 -14.692 333.40688515625004 333.717390625"><style>text.label { fill:gray; }</style><rect width="95.85546875" height="26.341796875" x="69.7734375" y="0" fill="white" stroke="black"></rect><text x="80.130859375" y="17.3779296875" font-family="Helvetica" font-size="12" svgjs:data="{&quot;leading&quot;:&quot;1.3&quot;}"><tspan dy="0" x="80.130859375" svgjs:data="{&quot;newLined&quot;:true}">UserInterface</tspan></text><path d="M258.2370921875 91.418096875C263.7105921875 93.176996875 269.1840921875 93.173096875 274.65759218750003 91.406796875M258.94039218750004 80.909796875C264.55539218750005 82.36779687500001 269.9853921875 82.277796875 275.09139218750005 80.982796875M257.1662921875 86.337696875C263.74339218750004 88.049596875 270.1480921875 87.635996875 276.48019218750005 86.326396875M276.48019218750005 86.326396875C276.48019218750005 91.849196875 272.37199218750004 95.957496875 266.84909218750005 95.957496875C261.32629218750003 95.957496875 257.1872921875 91.84929687500001 257.1872921875 86.326396875C257.1872921875 80.80359687500001 261.32629218750003 76.726096875 266.84909218750005 76.726096875C272.37199218750004 76.726096875 276.48019218750005 80.80359687500001 276.48019218750005 86.326396875Z " fill="white" stroke="black"></path><svg width="2" height="0" style="opacity: 0; position: absolute; left: -100%; top: -100%; overflow: hidden;" focusable="false" aria-hidden="true"><path d="M109.115021875 0C114.588521875 1.7589 120.062021875 1.755 125.535521875 -0.0113M109.818321875 -10.5083C115.43332187499999 -9.0503 120.863321875 -9.1403 125.96932187499999 -10.4353M108.044221875 -5.0804C114.62132187499999 -3.3685 121.026021875 -3.7821 127.358121875 -5.0917M127.358121875 -5.0917C127.358121875 0.4310999999999998 123.249921875 4.5394 117.72702187499999 4.5394C112.204221875 4.5394 108.06522187499999 0.4311999999999996 108.06522187499999 -5.0917C108.06522187499999 -10.6145 112.204221875 -14.692 117.72702187499999 -14.692C123.249921875 -14.692 127.358121875 -10.6145 127.358121875 -5.0916999999999994Z "></path></svg><text x="274.72161484375005" y="90.548828125" font-family="Helvetica" font-size="11" svgjs:data="{&quot;leading&quot;:&quot;1.3&quot;}"><tspan dy="0" x="274.72161484375005" svgjs:data="{&quot;newLined&quot;:true}">ConnectAPI</tspan></text><rect width="52.841796875" height="26.341796875" x="240.40234375" y="146.341796875" fill="white" stroke="black"></rect><text x="250.9287109375" y="163.7197265625" font-family="Helvetica" font-size="12" svgjs:data="{&quot;leading&quot;:&quot;1.3&quot;}"><tspan dy="0" x="250.9287109375" svgjs:data="{&quot;newLined&quot;:true}">Stripe</tspan></text><path d="M1.4138499999999983 237.75989375C6.887349999999998 239.51879375000001 12.360849999999997 239.51489375 17.83435 237.74859375M2.1171499999999988 227.25159375C7.732149999999999 228.70959375 13.162149999999999 228.61959375 18.26815 227.32459375M0.34304999999999986 232.67949375C6.92015 234.39139375 13.32485 233.97779375 19.656950000000002 232.66819375M19.656950000000002 232.66819375C19.656950000000002 238.19099375 15.54875 242.29929375 10.02585 242.29929375C4.50305 242.29929375 0.36405000000000065 238.19109375 0.36405000000000065 232.66819375C0.36405000000000065 227.14539375 4.503050000000001 223.06789375 10.02585 223.06789375C15.54875 223.06789375 19.656950000000002 227.14539375 19.656950000000002 232.66819375Z " fill="white" stroke="black"></path><text x="25.622982031250004" y="236.890625" font-family="Helvetica" font-size="11" svgjs:data="{&quot;leading&quot;:&quot;1.3&quot;}"><tspan dy="0" x="25.622982031250004" svgjs:data="{&quot;newLined&quot;:true}">REST</tspan></text><rect width="67.34375" height="26.341796875" x="104.73974609375" y="292.68359375" fill="white" stroke="black"></rect><text x="114.84912109375" y="310.0615234375" font-family="Helvetica" font-size="12" svgjs:data="{&quot;leading&quot;:&quot;1.3&quot;}"><tspan dy="0" x="114.84912109375" svgjs:data="{&quot;newLined&quot;:true}">Firebase</tspan></text><path d="M258.2370921875 237.75989375C263.7105921875 239.51879375000001 269.1840921875 239.51489375 274.65759218750003 237.74859375M258.94039218750004 227.25159375C264.55539218750005 228.70959375 269.9853921875 228.61959375 275.09139218750005 227.32459375M257.1662921875 232.67949375C263.74339218750004 234.39139375 270.1480921875 233.97779375 276.48019218750005 232.66819375M276.48019218750005 232.66819375C276.48019218750005 238.19099375 272.37199218750004 242.29929375 266.84909218750005 242.29929375C261.32629218750003 242.29929375 257.1872921875 238.19109375 257.1872921875 232.66819375C257.1872921875 227.14539375 261.32629218750003 223.06789375 266.84909218750005 223.06789375C272.37199218750004 223.06789375 276.48019218750005 227.14539375 276.48019218750005 232.66819375Z " fill="white" stroke="black"></path><text x="277.51092148437505" y="236.890625" font-family="Helvetica" font-size="11" svgjs:data="{&quot;leading&quot;:&quot;1.3&quot;}"><tspan dy="0" x="277.51092148437505" svgjs:data="{&quot;newLined&quot;:true}">StripeAPI</tspan></text><path d="M109.115021875 91.418096875C114.588521875 93.176996875 120.062021875 93.173096875 125.535521875 91.406796875M109.818321875 80.909796875C115.43332187499999 82.36779687500001 120.863321875 82.277796875 125.96932187499999 80.982796875M108.044221875 86.337696875C114.62132187499999 88.049596875 121.026021875 87.635996875 127.358121875 86.326396875M127.358121875 86.326396875C127.358121875 91.849196875 123.249921875 95.957496875 117.72702187499999 95.957496875C112.204221875 95.957496875 108.06522187499999 91.84929687500001 108.06522187499999 86.326396875C108.06522187499999 80.80359687500001 112.204221875 76.726096875 117.72702187499999 76.726096875C123.249921875 76.726096875 127.358121875 80.80359687500001 127.358121875 86.326396875Z " fill="white" stroke="black"></path><text x="123.76482773437499" y="90.548828125" font-family="Helvetica" font-size="11" svgjs:data="{&quot;leading&quot;:&quot;1.3&quot;}"><tspan dy="0" x="123.76482773437499" svgjs:data="{&quot;newLined&quot;:true}">TransportAPI</tspan></text><rect width="145.40234375" height="26.341796875" x="45" y="146.341796875" fill="white" stroke="black"></rect><text x="56.099609375" y="163.7197265625" font-family="Helvetica" font-size="12" svgjs:data="{&quot;leading&quot;:&quot;1.3&quot;}"><tspan dy="0" x="56.099609375" svgjs:data="{&quot;newLined&quot;:true}">Swiss Public Transport</tspan></text><g><polyline points="165.62890625,25.438999848202123 266.8232421875,51.341796875 266.8232421875,76.341796875" stroke-width="0.25" stroke="black" fill="none" marker-end="url(#SvgjsMarker1000)"></polyline></g><defs><marker markerWidth="40" markerHeight="30" refX="20" refY="15" viewBox="0 0 40 30" orient="auto" id="SvgjsMarker1000"><path d="m 0 0 l 20 15 l -20 15 a 7.5 1 90 0 0 0 -30 z" fill="black" stroke-width="0.1" stroke="black"></path></marker><marker markerWidth="40" markerHeight="30" refX="20" refY="15" viewBox="0 0 40 30" orient="auto" id="SvgjsMarker1001"><path d="m 0 0 l 20 15 l -20 15 a 7.5 1 90 0 0 0 -30 z" fill="black" stroke-width="0.1" stroke="black"></path></marker><marker markerWidth="40" markerHeight="30" refX="20" refY="15" viewBox="0 0 40 30" orient="auto" id="SvgjsMarker1002"><path d="m 0 0 l 20 15 l -20 15 a 7.5 1 90 0 0 0 -30 z" fill="black" stroke-width="0.1" stroke="black"></path></marker><marker markerWidth="40" markerHeight="30" refX="20" refY="15" viewBox="0 0 40 30" orient="auto" id="SvgjsMarker1003"><path d="m 0 0 l 20 15 l -20 15 a 7.5 1 90 0 0 0 -30 z" fill="black" stroke-width="0.1" stroke="black"></path></marker><marker markerWidth="40" markerHeight="30" refX="20" refY="15" viewBox="0 0 40 30" orient="auto" id="SvgjsMarker1004"><path d="m 0 0 l 20 15 l -20 15 a 7.5 1 90 0 0 0 -30 z" fill="black" stroke-width="0.1" stroke="black"></path></marker><marker markerWidth="40" markerHeight="30" refX="20" refY="15" viewBox="0 0 40 30" orient="auto" id="SvgjsMarker1005"><path d="m 0 0 l 20 15 l -20 15 a 7.5 1 90 0 0 0 -30 z" fill="black" stroke-width="0.1" stroke="black"></path></marker><marker markerWidth="40" markerHeight="30" refX="20" refY="15" viewBox="0 0 40 30" orient="auto" id="SvgjsMarker1006"><path d="m 0 0 l 20 15 l -20 15 a 7.5 1 90 0 0 0 -30 z" fill="black" stroke-width="0.1" stroke="black"></path></marker><marker markerWidth="40" markerHeight="30" refX="20" refY="15" viewBox="0 0 40 30" orient="auto" id="SvgjsMarker1007"><path d="m 0 0 l 20 15 l -20 15 a 7.5 1 90 0 0 0 -30 z" fill="black" stroke-width="0.1" stroke="black"></path></marker></defs><g><polyline points="266.8232421875,96.341796875 266.8232421875,121.341796875 266.8232421875,146.341796875" stroke-width="0.25" stroke="black" fill="none" marker-end="url(#SvgjsMarker1001)"></polyline></g><g><polyline points="80.53879806585309,26.341796875 10,51.341796875 10,86.341796875 10,121.341796875 10,159.5126953125 10,197.68359375 10,222.68359375" stroke-width="0.25" stroke="black" fill="none" marker-end="url(#SvgjsMarker1002)"></polyline></g><g><polyline points="10,242.68359375 10,267.68359375 104.73974609375,295.8453846793342" stroke-width="0.25" stroke="black" fill="none" marker-end="url(#SvgjsMarker1003)"></polyline></g><g><polyline points="266.8232421875,172.68359375 266.8232421875,197.68359375 266.8232421875,222.68359375" stroke-width="0.25" stroke="black" fill="none" marker-end="url(#SvgjsMarker1004)"></polyline></g><g><polyline points="266.8232421875,242.68359375 266.8232421875,267.68359375 172.08349609375,295.8453846793342" stroke-width="0.25" stroke="black" fill="none" marker-end="url(#SvgjsMarker1005)"></polyline></g><g><polyline points="117.701171875,26.341796875 117.701171875,51.341796875 117.701171875,76.341796875" stroke-width="0.25" stroke="black" fill="none" marker-end="url(#SvgjsMarker1006)"></polyline></g><g><polyline points="117.701171875,96.341796875 117.701171875,121.341796875 117.701171875,146.341796875" stroke-width="0.25" stroke="black" fill="none" marker-end="url(#SvgjsMarker1007)"></polyline></g></svg>