<svg xmlns="http://www.w3.org/2000/svg" version="1.1" xmlns:xlink="http://www.w3.org/1999/xlink" xmlns:svgjs="http://svgjs.dev/svgjs" viewBox="0 0 1205 310"><rect width="100" height="40" x="770" y="0" fill="white" stroke="black"></rect><text x="790.640625" y="26.20703125" svgjs:data="{&quot;leading&quot;:&quot;1.3&quot;}"><tspan dy="0" x="790.640625" svgjs:data="{&quot;newLined&quot;:true}">Product</tspan></text><rect width="190" height="40" x="200" y="90" fill="white" stroke="black"></rect><text x="230.44140625" y="116.20703125" svgjs:data="{&quot;leading&quot;:&quot;1.3&quot;}"><tspan dy="0" x="230.44140625" svgjs:data="{&quot;newLined&quot;:true}">Required Feature</tspan></text><rect width="270" height="40" x="0" y="180" fill="white" stroke="black"></rect><text x="43.14453125" y="206.20703125" svgjs:data="{&quot;leading&quot;:&quot;1.3&quot;}"><tspan dy="0" x="43.14453125" svgjs:data="{&quot;newLined&quot;:true}">Alternative Sub Feature1</tspan></text><rect width="270" height="40" x="320" y="180" fill="white" stroke="black"></rect><text x="363.14453125" y="206.20703125" svgjs:data="{&quot;leading&quot;:&quot;1.3&quot;}"><tspan dy="0" x="363.14453125" svgjs:data="{&quot;newLined&quot;:true}">Alternative Sub Feature1</tspan></text><rect width="190" height="40" x="725" y="180" fill="white" stroke="black"></rect><text x="757.171875" y="206.20703125" svgjs:data="{&quot;leading&quot;:&quot;1.3&quot;}"><tspan dy="0" x="757.171875" svgjs:data="{&quot;newLined&quot;:true}">Optional Feature</tspan></text><rect width="230" height="40" x="695" y="270" fill="white" stroke="black"></rect><text x="729.16015625" y="296.20703125" svgjs:data="{&quot;leading&quot;:&quot;1.3&quot;}"><tspan dy="0" x="729.16015625" svgjs:data="{&quot;newLined&quot;:true}">Required Sub Feature</tspan></text><rect width="230" height="40" x="975" y="270" fill="white" stroke="black"></rect><text x="1010.890625" y="296.20703125" svgjs:data="{&quot;leading&quot;:&quot;1.3&quot;}"><tspan dy="0" x="1010.890625" svgjs:data="{&quot;newLined&quot;:true}">Optional Sub Feature</tspan></text><rect width="190" height="40" x="1005" y="90" fill="white" stroke="black"></rect><text x="1030.8203125" y="116.20703125" svgjs:data="{&quot;leading&quot;:&quot;1.3&quot;}"><tspan dy="0" x="1030.8203125" svgjs:data="{&quot;newLined&quot;:true}">Combined Feature</tspan></text><rect width="150" height="40" x="1025" y="180" fill="white" stroke="black"></rect><text x="1050.58984375" y="206.20703125" svgjs:data="{&quot;leading&quot;:&quot;1.3&quot;}"><tspan dy="0" x="1050.58984375" svgjs:data="{&quot;newLined&quot;:true}">Sub Feature1</tspan></text><rect width="150" height="40" x="465" y="270" fill="white" stroke="black"></rect><text x="490.58984375" y="296.20703125" svgjs:data="{&quot;leading&quot;:&quot;1.3&quot;}"><tspan dy="0" x="490.58984375" svgjs:data="{&quot;newLined&quot;:true}">Sub Feature2</tspan></text><polygon points="366.1111111111111,140 295,131 223.88888888888889,140" fill="white" stroke="black"></polygon><polygon points="1100,140 1052.5,131 1005,140" fill="black" stroke="black"></polygon><polyline points="223.88888888888889,140 135,155 135,180" stroke="black" fill="none"></polyline><polyline points="366.1111111111111,140 455,155 455,180" stroke="black" fill="none"></polyline><polyline points="770,24.285714285714285 295,65 295,90" stroke="black" fill="none" marker-end="url(#SvgjsMarker1000)"></polyline><defs><marker markerWidth="14" markerHeight="14" refX="7" refY="7" viewBox="0 0 14 14" orient="auto" id="SvgjsMarker1000"><circle r="5" cx="7" cy="7" fill="black" stroke-width="2" stroke="black"></circle></marker><marker markerWidth="14" markerHeight="14" refX="7" refY="7" viewBox="0 0 14 14" orient="auto" id="SvgjsMarker1001"><circle r="5" cx="7" cy="7" fill="black" stroke-width="2" stroke="black"></circle></marker><marker markerWidth="14" markerHeight="14" refX="7" refY="7" viewBox="0 0 14 14" orient="auto" id="SvgjsMarker1002"><circle r="5" cx="7" cy="7" fill="white" stroke-width="2" stroke="black"></circle></marker><marker markerWidth="14" markerHeight="14" refX="7" refY="7" viewBox="0 0 14 14" orient="auto" id="SvgjsMarker1003"><circle r="5" cx="7" cy="7" fill="white" stroke-width="2" stroke="black"></circle></marker><marker markerWidth="14" markerHeight="14" refX="7" refY="7" viewBox="0 0 14 14" orient="auto" id="SvgjsMarker1004"><polygon points="0,14 7,7 0,0 2,7" fill="black" stroke-width="1" stroke="black"></polygon></marker><marker markerWidth="14" markerHeight="14" refX="7" refY="7" viewBox="0 0 14 14" orient="auto" id="SvgjsMarker1005"><polygon points="0,14 7,7 0,0 2,7" fill="black" stroke-width="1" stroke="black"></polygon></marker><marker markerWidth="14" markerHeight="14" refX="7" refY="7" viewBox="0 0 14 14" orient="auto" id="SvgjsMarker1006"><polygon points="14,0 7,7 14,14 12,7" fill="black" stroke-width="1" stroke="black"></polygon></marker></defs><polyline points="815.5555555555555,220 810,245 810,270" stroke="black" fill="none" marker-end="url(#SvgjsMarker1001)"></polyline><polyline points="882.2222222222222,220 960,245 1032.2222222222222,270" stroke="black" fill="none" marker-end="url(#SvgjsMarker1002)"></polyline><polyline points="820,40 820,65 820,110 820,155 820,180" stroke="black" fill="none" marker-end="url(#SvgjsMarker1003)"></polyline><polyline points="1100,140 1100,155 1100,180" stroke="black" fill="none"></polyline><polyline points="1005,140 625,155 625,200 625,245 577.7777777777778,270" stroke="black" fill="none"></polyline><polyline points="870,28.035714285714285 1100,65 1100,90" stroke="black" fill="none"></polyline><polyline points="1100,220 1100,245 1094.4444444444443,270" stroke="black" fill="none" stroke-dasharray="4" marker-end="url(#SvgjsMarker1004)"></polyline><polyline points="455,220 455,245 502.22222222222223,270" stroke="black" fill="none" stroke-dasharray="4" marker-end="url(#SvgjsMarker1005)" marker-start="url(#SvgjsMarker1006)"></polyline></svg>