<?xml version="1.0" encoding="UTF-8" standalone="no"?><svg xmlns="http://www.w3.org/2000/svg" xmlns:xlink="http://www.w3.org/1999/xlink" contentScriptType="application/ecmascript" contentStyleType="text/css" height="1087px" preserveAspectRatio="none" style="width:2372px;height:1087px;" version="1.1" viewBox="0 0 2372 1087" width="2372px" zoomAndPan="magnify"><defs/><g><text fill="#000000" font-family="Courier" font-size="14" font-weight="bold" lengthAdjust="spacingAndGlyphs" textLength="208" x="1081" y="22.9951">Basic functionality of app</text><rect fill="#DDDDDD" height="1042.4453" style="stroke: #383838; stroke-width: 1.0;" width="1272" x="4" y="34.2969"/><text fill="#000000" font-family="Courier" font-size="13" font-weight="bold" lengthAdjust="spacingAndGlyphs" textLength="112" x="584" y="46.3638">User Interface</text><line style="stroke: #383838; stroke-width: 1.0; stroke-dasharray: 5.0,5.0;" x1="27" x2="27" y1="132.7266" y2="994.4453"/><line style="stroke: #383838; stroke-width: 1.0; stroke-dasharray: 5.0,5.0;" x1="355" x2="355" y1="132.7266" y2="994.4453"/><line style="stroke: #383838; stroke-width: 1.0; stroke-dasharray: 5.0,5.0;" x1="423" x2="423" y1="132.7266" y2="994.4453"/><line style="stroke: #383838; stroke-width: 1.0; stroke-dasharray: 5.0,5.0;" x1="605" x2="605" y1="132.7266" y2="994.4453"/><line style="stroke: #383838; stroke-width: 1.0; stroke-dasharray: 5.0,5.0;" x1="681" x2="681" y1="132.7266" y2="994.4453"/><line style="stroke: #383838; stroke-width: 1.0; stroke-dasharray: 5.0,5.0;" x1="753" x2="753" y1="132.7266" y2="994.4453"/><line style="stroke: #383838; stroke-width: 1.0; stroke-dasharray: 5.0,5.0;" x1="861" x2="861" y1="132.7266" y2="994.4453"/><line style="stroke: #383838; stroke-width: 1.0; stroke-dasharray: 5.0,5.0;" x1="981" x2="981" y1="132.7266" y2="994.4453"/><line style="stroke: #383838; stroke-width: 1.0; stroke-dasharray: 5.0,5.0;" x1="1081" x2="1081" y1="132.7266" y2="994.4453"/><line style="stroke: #383838; stroke-width: 1.0; stroke-dasharray: 5.0,5.0;" x1="1173" x2="1173" y1="132.7266" y2="994.4453"/><line style="stroke: #383838; stroke-width: 1.0; stroke-dasharray: 5.0,5.0;" x1="1249" x2="1249" y1="132.7266" y2="994.4453"/><line style="stroke: #383838; stroke-width: 1.0; stroke-dasharray: 5.0,5.0;" x1="1765" x2="1765" y1="132.7266" y2="994.4453"/><line style="stroke: #383838; stroke-width: 1.0; stroke-dasharray: 5.0,5.0;" x1="1869" x2="1869" y1="132.7266" y2="994.4453"/><line style="stroke: #383838; stroke-width: 1.0; stroke-dasharray: 5.0,5.0;" x1="1961" x2="1961" y1="132.7266" y2="994.4453"/><line style="stroke: #383838; stroke-width: 1.0; stroke-dasharray: 5.0,5.0;" x1="2041" x2="2041" y1="132.7266" y2="994.4453"/><line style="stroke: #383838; stroke-width: 1.0; stroke-dasharray: 5.0,5.0;" x1="2113" x2="2113" y1="132.7266" y2="994.4453"/><line style="stroke: #383838; stroke-width: 1.0; stroke-dasharray: 5.0,5.0;" x1="2233" x2="2233" y1="132.7266" y2="994.4453"/><text fill="#000000" font-family="Courier" font-size="14" lengthAdjust="spacingAndGlyphs" textLength="32" x="8" y="129.4248">user</text><ellipse cx="27" cy="63.4297" fill="#4C4C4C" rx="8" ry="8" style="stroke: #383838; stroke-width: 2.0;"/><path d="M27,71.4297 L27,98.4297 M14,79.4297 L40,79.4297 M27,98.4297 L14,113.4297 M27,98.4297 L40,113.4297 " fill="none" style="stroke: #383838; stroke-width: 2.0;"/><text fill="#000000" font-family="Courier" font-size="14" lengthAdjust="spacingAndGlyphs" textLength="32" x="8" y="1006.4404">user</text><ellipse cx="27" cy="1019.7422" fill="#4C4C4C" rx="8" ry="8" style="stroke: #383838; stroke-width: 2.0;"/><path d="M27,1027.7422 L27,1054.7422 M14,1035.7422 L40,1035.7422 M27,1054.7422 L14,1069.7422 M27,1054.7422 L40,1069.7422 " fill="none" style="stroke: #383838; stroke-width: 2.0;"/><rect fill="#F8F8F8" height="30.2969" style="stroke: #383838; stroke-width: 1.5;" width="54" x="328" y="101.4297"/><text fill="#000000" font-family="Courier" font-size="14" lengthAdjust="spacingAndGlyphs" textLength="40" x="335" y="121.4248">Login</text><rect fill="#F8F8F8" height="30.2969" style="stroke: #383838; stroke-width: 1.5;" width="54" x="328" y="993.4453"/><text fill="#000000" font-family="Courier" font-size="14" lengthAdjust="spacingAndGlyphs" textLength="40" x="335" y="1013.4404">Login</text><rect fill="#F8F8F8" height="30.2969" style="stroke: #383838; stroke-width: 1.5;" width="62" x="392" y="101.4297"/><text fill="#000000" font-family="Courier" font-size="14" lengthAdjust="spacingAndGlyphs" textLength="48" x="399" y="121.4248">Search</text><rect fill="#F8F8F8" height="30.2969" style="stroke: #383838; stroke-width: 1.5;" width="62" x="392" y="993.4453"/><text fill="#000000" font-family="Courier" font-size="14" lengthAdjust="spacingAndGlyphs" textLength="48" x="399" y="1013.4404">Search</text><rect fill="#F8F8F8" height="30.2969" style="stroke: #383838; stroke-width: 1.5;" width="86" x="562" y="101.4297"/><text fill="#000000" font-family="Courier" font-size="14" lengthAdjust="spacingAndGlyphs" textLength="72" x="569" y="121.4248">Filtering</text><rect fill="#F8F8F8" height="30.2969" style="stroke: #383838; stroke-width: 1.5;" width="86" x="562" y="993.4453"/><text fill="#000000" font-family="Courier" font-size="14" lengthAdjust="spacingAndGlyphs" textLength="72" x="569" y="1013.4404">Filtering</text><rect fill="#F8F8F8" height="30.2969" style="stroke: #383838; stroke-width: 1.5;" width="46" x="658" y="101.4297"/><text fill="#000000" font-family="Courier" font-size="14" lengthAdjust="spacingAndGlyphs" textLength="32" x="665" y="121.4248">Info</text><rect fill="#F8F8F8" height="30.2969" style="stroke: #383838; stroke-width: 1.5;" width="46" x="658" y="993.4453"/><text fill="#000000" font-family="Courier" font-size="14" lengthAdjust="spacingAndGlyphs" textLength="32" x="665" y="1013.4404">Info</text><rect fill="#F8F8F8" height="30.2969" style="stroke: #383838; stroke-width: 1.5;" width="78" x="714" y="101.4297"/><text fill="#000000" font-family="Courier" font-size="14" lengthAdjust="spacingAndGlyphs" textLength="64" x="721" y="121.4248">Location</text><rect fill="#F8F8F8" height="30.2969" style="stroke: #383838; stroke-width: 1.5;" width="78" x="714" y="993.4453"/><text fill="#000000" font-family="Courier" font-size="14" lengthAdjust="spacingAndGlyphs" textLength="64" x="721" y="1013.4404">Location</text><rect fill="#F8F8F8" height="30.2969" style="stroke: #383838; stroke-width: 1.5;" width="118" x="802" y="101.4297"/><text fill="#000000" font-family="Courier" font-size="14" lengthAdjust="spacingAndGlyphs" textLength="104" x="809" y="121.4248">Subscriptions</text><rect fill="#F8F8F8" height="30.2969" style="stroke: #383838; stroke-width: 1.5;" width="118" x="802" y="993.4453"/><text fill="#000000" font-family="Courier" font-size="14" lengthAdjust="spacingAndGlyphs" textLength="104" x="809" y="1013.4404">Subscriptions</text><rect fill="#F8F8F8" height="30.2969" style="stroke: #383838; stroke-width: 1.5;" width="102" x="930" y="101.4297"/><text fill="#000000" font-family="Courier" font-size="14" lengthAdjust="spacingAndGlyphs" textLength="88" x="937" y="121.4248">Preferences</text><rect fill="#F8F8F8" height="30.2969" style="stroke: #383838; stroke-width: 1.5;" width="102" x="930" y="993.4453"/><text fill="#000000" font-family="Courier" font-size="14" lengthAdjust="spacingAndGlyphs" textLength="88" x="937" y="1013.4404">Preferences</text><rect fill="#F8F8F8" height="30.2969" style="stroke: #383838; stroke-width: 1.5;" width="78" x="1042" y="101.4297"/><text fill="#000000" font-family="Courier" font-size="14" lengthAdjust="spacingAndGlyphs" textLength="64" x="1049" y="121.4248">Bookings</text><rect fill="#F8F8F8" height="30.2969" style="stroke: #383838; stroke-width: 1.5;" width="78" x="1042" y="993.4453"/><text fill="#000000" font-family="Courier" font-size="14" lengthAdjust="spacingAndGlyphs" textLength="64" x="1049" y="1013.4404">Bookings</text><rect fill="#F8F8F8" height="30.2969" style="stroke: #383838; stroke-width: 1.5;" width="86" x="1130" y="101.4297"/><text fill="#000000" font-family="Courier" font-size="14" lengthAdjust="spacingAndGlyphs" textLength="72" x="1137" y="121.4248">Transport</text><rect fill="#F8F8F8" height="30.2969" style="stroke: #383838; stroke-width: 1.5;" width="86" x="1130" y="993.4453"/><text fill="#000000" font-family="Courier" font-size="14" lengthAdjust="spacingAndGlyphs" textLength="72" x="1137" y="1013.4404">Transport</text><rect fill="#F8F8F8" height="30.2969" style="stroke: #383838; stroke-width: 1.5;" width="46" x="1226" y="101.4297"/><text fill="#000000" font-family="Courier" font-size="14" lengthAdjust="spacingAndGlyphs" textLength="32" x="1233" y="121.4248">Mode</text><rect fill="#F8F8F8" height="30.2969" style="stroke: #383838; stroke-width: 1.5;" width="46" x="1226" y="993.4453"/><text fill="#000000" font-family="Courier" font-size="14" lengthAdjust="spacingAndGlyphs" textLength="32" x="1233" y="1013.4404">Mode</text><text fill="#000000" font-family="Courier" font-size="14" lengthAdjust="spacingAndGlyphs" textLength="96" x="1714" y="129.4248">TransportAPI</text><ellipse cx="1765" cy="100.4297" fill="#F8F8F8" rx="12" ry="12" style="stroke: #383838; stroke-width: 2.0;"/><line style="stroke: #383838; stroke-width: 2.0;" x1="1753" x2="1777" y1="114.4297" y2="114.4297"/><text fill="#000000" font-family="Courier" font-size="14" lengthAdjust="spacingAndGlyphs" textLength="96" x="1714" y="1006.4404">TransportAPI</text><ellipse cx="1765" cy="1025.7422" fill="#F8F8F8" rx="12" ry="12" style="stroke: #383838; stroke-width: 2.0;"/><line style="stroke: #383838; stroke-width: 2.0;" x1="1753" x2="1777" y1="1039.7422" y2="1039.7422"/><text fill="#000000" font-family="Courier" font-size="14" lengthAdjust="spacingAndGlyphs" textLength="80" x="1826" y="129.4248">ConnectAPI</text><ellipse cx="1869" cy="100.4297" fill="#F8F8F8" rx="12" ry="12" style="stroke: #383838; stroke-width: 2.0;"/><line style="stroke: #383838; stroke-width: 2.0;" x1="1857" x2="1881" y1="114.4297" y2="114.4297"/><text fill="#000000" font-family="Courier" font-size="14" lengthAdjust="spacingAndGlyphs" textLength="80" x="1826" y="1006.4404">ConnectAPI</text><ellipse cx="1869" cy="1025.7422" fill="#F8F8F8" rx="12" ry="12" style="stroke: #383838; stroke-width: 2.0;"/><line style="stroke: #383838; stroke-width: 2.0;" x1="1857" x2="1881" y1="1039.7422" y2="1039.7422"/><text fill="#000000" font-family="Courier" font-size="14" lengthAdjust="spacingAndGlyphs" textLength="72" x="1922" y="129.4248">StripeAPI</text><ellipse cx="1961" cy="100.4297" fill="#F8F8F8" rx="12" ry="12" style="stroke: #383838; stroke-width: 2.0;"/><line style="stroke: #383838; stroke-width: 2.0;" x1="1949" x2="1973" y1="114.4297" y2="114.4297"/><text fill="#000000" font-family="Courier" font-size="14" lengthAdjust="spacingAndGlyphs" textLength="72" x="1922" y="1006.4404">StripeAPI</text><ellipse cx="1961" cy="1025.7422" fill="#F8F8F8" rx="12" ry="12" style="stroke: #383838; stroke-width: 2.0;"/><line style="stroke: #383838; stroke-width: 2.0;" x1="1949" x2="1973" y1="1039.7422" y2="1039.7422"/><rect fill="#F8F8F8" height="30.2969" style="stroke: #383838; stroke-width: 1.5;" width="62" x="2010" y="101.4297"/><text fill="#000000" font-family="Courier" font-size="14" lengthAdjust="spacingAndGlyphs" textLength="48" x="2017" y="121.4248">Stripe</text><rect fill="#F8F8F8" height="30.2969" style="stroke: #383838; stroke-width: 1.5;" width="62" x="2010" y="993.4453"/><text fill="#000000" font-family="Courier" font-size="14" lengthAdjust="spacingAndGlyphs" textLength="48" x="2017" y="1013.4404">Stripe</text><text fill="#000000" font-family="Courier" font-size="14" lengthAdjust="spacingAndGlyphs" textLength="56" x="2082" y="129.4248">RESTAPI</text><ellipse cx="2113" cy="100.4297" fill="#F8F8F8" rx="12" ry="12" style="stroke: #383838; stroke-width: 2.0;"/><line style="stroke: #383838; stroke-width: 2.0;" x1="2101" x2="2125" y1="114.4297" y2="114.4297"/><text fill="#000000" font-family="Courier" font-size="14" lengthAdjust="spacingAndGlyphs" textLength="56" x="2082" y="1006.4404">RESTAPI</text><ellipse cx="2113" cy="1025.7422" fill="#F8F8F8" rx="12" ry="12" style="stroke: #383838; stroke-width: 2.0;"/><line style="stroke: #383838; stroke-width: 2.0;" x1="2101" x2="2125" y1="1039.7422" y2="1039.7422"/><text fill="#000000" font-family="Courier" font-size="14" lengthAdjust="spacingAndGlyphs" textLength="64" x="2198" y="129.4248">Firebase</text><path d="M2215,80.4297 C2215,70.4297 2233,70.4297 2233,70.4297 C2233,70.4297 2251,70.4297 2251,80.4297 L2251,106.4297 C2251,116.4297 2233,116.4297 2233,116.4297 C2233,116.4297 2215,116.4297 2215,106.4297 L2215,80.4297 " fill="#7F7F7F" style="stroke: #000000; stroke-width: 1.5;"/><path d="M2215,80.4297 C2215,90.4297 2233,90.4297 2233,90.4297 C2233,90.4297 2251,90.4297 2251,80.4297 " fill="none" style="stroke: #000000; stroke-width: 1.5;"/><text fill="#000000" font-family="Courier" font-size="14" lengthAdjust="spacingAndGlyphs" textLength="64" x="2198" y="1006.4404">Firebase</text><path d="M2215,1019.7422 C2215,1009.7422 2233,1009.7422 2233,1009.7422 C2233,1009.7422 2251,1009.7422 2251,1019.7422 L2251,1045.7422 C2251,1055.7422 2233,1055.7422 2233,1055.7422 C2233,1055.7422 2215,1055.7422 2215,1045.7422 L2215,1019.7422 " fill="#7F7F7F" style="stroke: #000000; stroke-width: 1.5;"/><path d="M2215,1019.7422 C2215,1029.7422 2233,1029.7422 2233,1029.7422 C2233,1029.7422 2251,1029.7422 2251,1019.7422 " fill="none" style="stroke: #000000; stroke-width: 1.5;"/><polygon fill="#383838" points="343,159.8594,353,163.8594,343,167.8594,347,163.8594" style="stroke: #383838; stroke-width: 1.0;"/><line style="stroke: #383838; stroke-width: 1.0;" x1="27" x2="349" y1="163.8594" y2="163.8594"/><text fill="#000000" font-family="Courier" font-size="13" lengthAdjust="spacingAndGlyphs" textLength="304" x="34" y="158.7935">User inputs authentication credentials</text><polygon fill="#383838" points="2221,188.9922,2231,192.9922,2221,196.9922,2225,192.9922" style="stroke: #383838; stroke-width: 1.0;"/><line style="stroke: #383838; stroke-width: 1.0;" x1="355" x2="2227" y1="192.9922" y2="192.9922"/><text fill="#000000" font-family="Courier" font-size="13" lengthAdjust="spacingAndGlyphs" textLength="160" x="362" y="187.9263">Begin Authentication</text><polygon fill="#383838" points="366,218.125,356,222.125,366,226.125,362,222.125" style="stroke: #383838; stroke-width: 1.0;"/><line style="stroke: #383838; stroke-width: 1.0;" x1="360" x2="2232" y1="222.125" y2="222.125"/><text fill="#000000" font-family="Courier" font-size="13" lengthAdjust="spacingAndGlyphs" textLength="248" x="372" y="217.0591">User successfully authenticated</text><polygon fill="#383838" points="411,247.2578,421,251.2578,411,255.2578,415,251.2578" style="stroke: #383838; stroke-width: 1.0;"/><line style="stroke: #383838; stroke-width: 1.0;" x1="27" x2="417" y1="251.2578" y2="251.2578"/><text fill="#000000" font-family="Courier" font-size="13" lengthAdjust="spacingAndGlyphs" textLength="248" x="34" y="246.1919">User browses through categories</text><polygon fill="#383838" points="411,276.3906,421,280.3906,411,284.3906,415,280.3906" style="stroke: #383838; stroke-width: 1.0;"/><line style="stroke: #383838; stroke-width: 1.0;" x1="27" x2="417" y1="280.3906" y2="280.3906"/><text fill="#000000" font-family="Courier" font-size="13" lengthAdjust="spacingAndGlyphs" textLength="176" x="34" y="275.3247">User clicks on Grocery</text><polygon fill="#383838" points="2221,305.5234,2231,309.5234,2221,313.5234,2225,309.5234" style="stroke: #383838; stroke-width: 1.0;"/><line style="stroke: #383838; stroke-width: 1.0;" x1="423" x2="2227" y1="309.5234" y2="309.5234"/><text fill="#000000" font-family="Courier" font-size="13" lengthAdjust="spacingAndGlyphs" textLength="224" x="430" y="304.4575">GET sub category Supermarket</text><polygon fill="#383838" points="38,334.6563,28,338.6563,38,342.6563,34,338.6563" style="stroke: #383838; stroke-width: 1.0;"/><line style="stroke: #383838; stroke-width: 1.0;" x1="32" x2="2232" y1="338.6563" y2="338.6563"/><text fill="#000000" font-family="Courier" font-size="13" lengthAdjust="spacingAndGlyphs" textLength="160" x="44" y="333.5903">Display sub category</text><polygon fill="#383838" points="669,363.7891,679,367.7891,669,371.7891,673,367.7891" style="stroke: #383838; stroke-width: 1.0;"/><line style="stroke: #383838; stroke-width: 1.0;" x1="27" x2="675" y1="367.7891" y2="367.7891"/><text fill="#000000" font-family="Courier" font-size="13" lengthAdjust="spacingAndGlyphs" textLength="240" x="34" y="362.7231">User clicks on additional info</text><polygon fill="#383838" points="2101,392.9219,2111,396.9219,2101,400.9219,2105,396.9219" style="stroke: #383838; stroke-width: 1.0;"/><line style="stroke: #383838; stroke-width: 1.0;" x1="681" x2="2107" y1="396.9219" y2="396.9219"/><text fill="#000000" font-family="Courier" font-size="13" lengthAdjust="spacingAndGlyphs" textLength="280" x="688" y="391.856">GET https://example.com/summer-sale</text><polygon fill="#383838" points="38,422.0547,28,426.0547,38,430.0547,34,426.0547" style="stroke: #383838; stroke-width: 1.0;"/><line style="stroke: #383838; stroke-width: 1.0; stroke-dasharray: 2.0,2.0;" x1="32" x2="2112" y1="426.0547" y2="426.0547"/><text fill="#000000" font-family="Courier" font-size="13" lengthAdjust="spacingAndGlyphs" textLength="96" x="44" y="420.9888">Display link</text><polygon fill="#383838" points="741,451.1875,751,455.1875,741,459.1875,745,455.1875" style="stroke: #383838; stroke-width: 1.0;"/><line style="stroke: #383838; stroke-width: 1.0;" x1="27" x2="747" y1="455.1875" y2="455.1875"/><text fill="#000000" font-family="Courier" font-size="13" lengthAdjust="spacingAndGlyphs" textLength="224" x="34" y="450.1216">Directions button is clicked</text><polygon fill="#383838" points="2221,480.3203,2231,484.3203,2221,488.3203,2225,484.3203" style="stroke: #383838; stroke-width: 1.0;"/><line style="stroke: #383838; stroke-width: 1.0;" x1="753" x2="2227" y1="484.3203" y2="484.3203"/><text fill="#000000" font-family="Courier" font-size="13" lengthAdjust="spacingAndGlyphs" textLength="184" x="760" y="479.2544">POST coordinate_request</text><line style="stroke: #383838; stroke-width: 1.0;" x1="2233" x2="2275" y1="513.4531" y2="513.4531"/><line style="stroke: #383838; stroke-width: 1.0;" x1="2275" x2="2275" y1="513.4531" y2="526.4531"/><line style="stroke: #383838; stroke-width: 1.0;" x1="2234" x2="2275" y1="526.4531" y2="526.4531"/><polygon fill="#383838" points="2244,522.4531,2234,526.4531,2244,530.4531,2240,526.4531" style="stroke: #383838; stroke-width: 1.0;"/><text fill="#000000" font-family="Courier" font-size="13" lengthAdjust="spacingAndGlyphs" textLength="120" x="2240" y="508.3872">GET coordinates</text><polygon fill="#383838" points="2124,551.5859,2114,555.5859,2124,559.5859,2120,555.5859" style="stroke: #383838; stroke-width: 1.0;"/><line style="stroke: #383838; stroke-width: 1.0;" x1="2118" x2="2232" y1="555.5859" y2="555.5859"/><text fill="#000000" font-family="Courier" font-size="13" lengthAdjust="spacingAndGlyphs" textLength="96" x="2130" y="550.52">GET Maps API</text><polygon fill="#383838" points="38,580.7188,28,584.7188,38,588.7188,34,584.7188" style="stroke: #383838; stroke-width: 1.0;"/><line style="stroke: #383838; stroke-width: 1.0; stroke-dasharray: 2.0,2.0;" x1="32" x2="2112" y1="584.7188" y2="584.7188"/><text fill="#000000" font-family="Courier" font-size="13" lengthAdjust="spacingAndGlyphs" textLength="128" x="44" y="579.6528">Display location</text><polygon fill="#383838" points="411,609.8516,421,613.8516,411,617.8516,415,613.8516" style="stroke: #383838; stroke-width: 1.0;"/><line style="stroke: #383838; stroke-width: 1.0;" x1="27" x2="417" y1="613.8516" y2="613.8516"/><text fill="#000000" font-family="Courier" font-size="13" lengthAdjust="spacingAndGlyphs" textLength="216" x="34" y="608.7856">User selects transportation</text><line style="stroke: #383838; stroke-width: 1.0;" x1="423" x2="465" y1="642.9844" y2="642.9844"/><line style="stroke: #383838; stroke-width: 1.0;" x1="465" x2="465" y1="642.9844" y2="655.9844"/><line style="stroke: #383838; stroke-width: 1.0;" x1="424" x2="465" y1="655.9844" y2="655.9844"/><polygon fill="#383838" points="434,651.9844,424,655.9844,434,659.9844,430,655.9844" style="stroke: #383838; stroke-width: 1.0;"/><text fill="#000000" font-family="Courier" font-size="13" lengthAdjust="spacingAndGlyphs" textLength="168" x="430" y="637.9185">Return sub categories</text><polygon fill="#383838" points="1161,681.1172,1171,685.1172,1161,689.1172,1165,685.1172" style="stroke: #383838; stroke-width: 1.0;"/><line style="stroke: #383838; stroke-width: 1.0;" x1="27" x2="1167" y1="685.1172" y2="685.1172"/><text fill="#000000" font-family="Courier" font-size="13" lengthAdjust="spacingAndGlyphs" textLength="160" x="34" y="680.0513">User clicks on train</text><polygon fill="#383838" points="616,710.25,606,714.25,616,718.25,612,714.25" style="stroke: #383838; stroke-width: 1.0;"/><line style="stroke: #383838; stroke-width: 1.0;" x1="610" x2="1172" y1="714.25" y2="714.25"/><text fill="#000000" font-family="Courier" font-size="13" lengthAdjust="spacingAndGlyphs" textLength="280" x="622" y="709.1841">Filtering called to display results</text><polygon fill="#383838" points="38,739.3828,28,743.3828,38,747.3828,34,743.3828" style="stroke: #383838; stroke-width: 1.0;"/><line style="stroke: #383838; stroke-width: 1.0;" x1="32" x2="604" y1="743.3828" y2="743.3828"/><text fill="#000000" font-family="Courier" font-size="13" lengthAdjust="spacingAndGlyphs" textLength="208" x="44" y="738.3169">Relevant results displayed</text><polygon fill="#383838" points="1161,768.5156,1171,772.5156,1161,776.5156,1165,772.5156" style="stroke: #383838; stroke-width: 1.0;"/><line style="stroke: #383838; stroke-width: 1.0;" x1="27" x2="1167" y1="772.5156" y2="772.5156"/><text fill="#000000" font-family="Courier" font-size="13" lengthAdjust="spacingAndGlyphs" textLength="192" x="34" y="767.4497">User clicks on locations</text><polygon fill="#383838" points="1753,797.6484,1763,801.6484,1753,805.6484,1757,801.6484" style="stroke: #383838; stroke-width: 1.0;"/><line style="stroke: #383838; stroke-width: 1.0;" x1="1173" x2="1759" y1="801.6484" y2="801.6484"/><text fill="#000000" font-family="Courier" font-size="13" lengthAdjust="spacingAndGlyphs" textLength="360" x="1180" y="796.5825">GET http://transport.opendata.ch/v1/locations</text><polygon fill="#383838" points="38,826.7813,28,830.7813,38,834.7813,34,830.7813" style="stroke: #383838; stroke-width: 1.0;"/><line style="stroke: #383838; stroke-width: 1.0; stroke-dasharray: 2.0,2.0;" x1="32" x2="1764" y1="830.7813" y2="830.7813"/><text fill="#000000" font-family="Courier" font-size="13" lengthAdjust="spacingAndGlyphs" textLength="160" x="44" y="825.7153">Return /v1/locations</text><polygon fill="#383838" points="1753,855.9141,1763,859.9141,1753,863.9141,1757,859.9141" style="stroke: #383838; stroke-width: 1.0;"/><line style="stroke: #383838; stroke-width: 1.0;" x1="1173" x2="1759" y1="859.9141" y2="859.9141"/><text fill="#000000" font-family="Courier" font-size="13" lengthAdjust="spacingAndGlyphs" textLength="568" x="1180" y="854.8481">GET http://transport.opendata.ch/v1/connections?from=Lausanne&amp;to=Genève</text><polygon fill="#383838" points="38,885.0469,28,889.0469,38,893.0469,34,889.0469" style="stroke: #383838; stroke-width: 1.0;"/><line style="stroke: #383838; stroke-width: 1.0; stroke-dasharray: 2.0,2.0;" x1="32" x2="1764" y1="889.0469" y2="889.0469"/><text fill="#000000" font-family="Courier" font-size="13" lengthAdjust="spacingAndGlyphs" textLength="184" x="44" y="883.981">Return /v1 /connections</text><polygon fill="#383838" points="1161,914.1797,1171,918.1797,1161,922.1797,1165,918.1797" style="stroke: #383838; stroke-width: 1.0;"/><line style="stroke: #383838; stroke-width: 1.0;" x1="27" x2="1167" y1="918.1797" y2="918.1797"/><text fill="#000000" font-family="Courier" font-size="13" lengthAdjust="spacingAndGlyphs" textLength="200" x="34" y="913.1138">User clicks station board</text><polygon fill="#383838" points="1753,943.3125,1763,947.3125,1753,951.3125,1757,947.3125" style="stroke: #383838; stroke-width: 1.0;"/><line style="stroke: #383838; stroke-width: 1.0;" x1="1173" x2="1759" y1="947.3125" y2="947.3125"/><text fill="#000000" font-family="Courier" font-size="13" lengthAdjust="spacingAndGlyphs" textLength="384" x="1180" y="942.2466">GET http://transport.opendata.ch/v1/stationboard</text><polygon fill="#383838" points="38,972.4453,28,976.4453,38,980.4453,34,976.4453" style="stroke: #383838; stroke-width: 1.0;"/><line style="stroke: #383838; stroke-width: 1.0; stroke-dasharray: 2.0,2.0;" x1="32" x2="1764" y1="976.4453" y2="976.4453"/><text fill="#000000" font-family="Courier" font-size="13" lengthAdjust="spacingAndGlyphs" textLength="184" x="44" y="971.3794">Return /v1/stationboard</text></g></svg>