<?xml version="1.0" encoding="UTF-8" standalone="no"?><svg xmlns="http://www.w3.org/2000/svg" xmlns:xlink="http://www.w3.org/1999/xlink" contentScriptType="application/ecmascript" contentStyleType="text/css" height="1074px" preserveAspectRatio="none" style="width:950px;height:1074px;" version="1.1" viewBox="0 0 950 1074" width="950px" zoomAndPan="magnify"><defs/><g><rect fill="#F8F8F8" height="36.4883" style="stroke: #383838; stroke-width: 1.5;" width="111" x="235" y="239.5"/><rect fill="#F8F8F8" height="5" style="stroke: #383838; stroke-width: 1.5;" width="10" x="230" y="244.5"/><rect fill="#F8F8F8" height="5" style="stroke: #383838; stroke-width: 1.5;" width="10" x="230" y="265.9883"/><text fill="#000000" font-family="sans-serif" font-size="14" lengthAdjust="spacingAndGlyphs" textLength="91" x="245" y="263.0352">UserInterface</text><rect fill="#F8F8F8" height="36.4883" style="stroke: #383838; stroke-width: 1.5;" width="76" x="389.5" y="518"/><rect fill="#F8F8F8" height="5" style="stroke: #383838; stroke-width: 1.5;" width="10" x="384.5" y="523"/><rect fill="#F8F8F8" height="5" style="stroke: #383838; stroke-width: 1.5;" width="10" x="384.5" y="544.4883"/><text fill="#000000" font-family="sans-serif" font-size="14" lengthAdjust="spacingAndGlyphs" textLength="56" x="399.5" y="541.5352">RESTAPI</text><ellipse cx="179.5" cy="536" fill="#F8F8F8" rx="8" ry="8" style="stroke: #383838; stroke-width: 2.0;"/><rect fill="#F8F8F8" height="36.4883" style="stroke: #383838; stroke-width: 1.5;" width="78" x="456.5" y="666"/><rect fill="#F8F8F8" height="5" style="stroke: #383838; stroke-width: 1.5;" width="10" x="451.5" y="671"/><rect fill="#F8F8F8" height="5" style="stroke: #383838; stroke-width: 1.5;" width="10" x="451.5" y="692.4883"/><text fill="#000000" font-family="sans-serif" font-size="14" lengthAdjust="spacingAndGlyphs" textLength="58" x="466.5" y="689.5352">Firebase</text><ellipse cx="412.5" cy="684" fill="#F8F8F8" rx="8" ry="8" style="stroke: #383838; stroke-width: 2.0;"/><rect fill="#F8F8F8" height="36.4883" style="stroke: #383838; stroke-width: 1.5;" width="60" x="294.5" y="518"/><rect fill="#F8F8F8" height="5" style="stroke: #383838; stroke-width: 1.5;" width="10" x="289.5" y="523"/><rect fill="#F8F8F8" height="5" style="stroke: #383838; stroke-width: 1.5;" width="10" x="289.5" y="544.4883"/><text fill="#000000" font-family="sans-serif" font-size="14" lengthAdjust="spacingAndGlyphs" textLength="40" x="304.5" y="541.5352">Stripe</text><ellipse cx="509.5" cy="536" fill="#F8F8F8" rx="8" ry="8" style="stroke: #383838; stroke-width: 2.0;"/><rect fill="#F8F8F8" height="36.4883" style="stroke: #383838; stroke-width: 1.5;" width="113" x="583" y="518"/><rect fill="#F8F8F8" height="5" style="stroke: #383838; stroke-width: 1.5;" width="10" x="578" y="523"/><rect fill="#F8F8F8" height="5" style="stroke: #383838; stroke-width: 1.5;" width="10" x="578" y="544.4883"/><text fill="#000000" font-family="sans-serif" font-size="14" lengthAdjust="spacingAndGlyphs" textLength="93" x="593" y="541.5352">LocalGuideDB</text><ellipse cx="654.5" cy="257.5" fill="#F8F8F8" rx="8" ry="8" style="stroke: #383838; stroke-width: 2.0;"/><rect fill="#F8F8F8" height="36.4883" style="stroke: #383838; stroke-width: 1.5;" width="71" x="129" y="239.5"/><rect fill="#F8F8F8" height="5" style="stroke: #383838; stroke-width: 1.5;" width="10" x="124" y="244.5"/><rect fill="#F8F8F8" height="5" style="stroke: #383838; stroke-width: 1.5;" width="10" x="124" y="265.9883"/><text fill="#000000" font-family="sans-serif" font-size="14" lengthAdjust="spacingAndGlyphs" textLength="51" x="139" y="263.0352">WebAPI</text><path d="M6,614 L6,754.4844 A0,0 0 0 0 6,754.4844 L353,754.4844 A0,0 0 0 0 353,754.4844 L353,624 L343,614 L183.5,614 L179.5,545.27 L175.5,614 L6,614 A0,0 0 0 0 6,614 " fill="#ECECEC" style="stroke: #383838; stroke-width: 1.0;"/><path d="M343,614 L343,624 L353,624 L343,614 " fill="#ECECEC" style="stroke: #383838; stroke-width: 1.0;"/><text fill="#000000" font-family="sans-serif" font-size="13" lengthAdjust="spacingAndGlyphs" textLength="71" x="12" y="631.5684">operations:</text><line style="stroke: #383838; stroke-width: 1.0; stroke-dasharray: 1.0,2.0;" x1="7" x2="352" y1="634.3105" y2="634.3105"/><text fill="#000000" font-family="sans-serif" font-size="13" lengthAdjust="spacingAndGlyphs" textLength="130" x="12" y="650.8789">getcategories(string)</text><text fill="#000000" font-family="sans-serif" font-size="13" lengthAdjust="spacingAndGlyphs" textLength="108" x="12" y="666.1895">getsubcategories</text><text fill="#000000" font-family="sans-serif" font-size="13" lengthAdjust="spacingAndGlyphs" textLength="59" x="12" y="681.5">getFilters</text><text fill="#000000" font-family="sans-serif" font-size="13" lengthAdjust="spacingAndGlyphs" textLength="326" x="12" y="696.8105">getUserPreference(subscription_id,shop_id,offer_id)</text><text fill="#000000" font-family="sans-serif" font-size="13" lengthAdjust="spacingAndGlyphs" textLength="74" x="12" y="712.1211">getLocation</text><text fill="#000000" font-family="sans-serif" font-size="13" lengthAdjust="spacingAndGlyphs" textLength="121" x="12" y="727.4316">getTransactionLink</text><text fill="#000000" font-family="sans-serif" font-size="13" lengthAdjust="spacingAndGlyphs" textLength="95" x="12" y="742.7422">getExternalURL</text><path d="M354,814 L354,1062.3477 A0,0 0 0 0 354,1062.3477 L471,1062.3477 A0,0 0 0 0 471,1062.3477 L471,824 L461,814 L416.5,814 L412.5,693.1 L408.5,814 L354,814 A0,0 0 0 0 354,814 " fill="#ECECEC" style="stroke: #383838; stroke-width: 1.0;"/><path d="M461,814 L461,824 L471,824 L461,814 " fill="#ECECEC" style="stroke: #383838; stroke-width: 1.0;"/><text fill="#000000" font-family="sans-serif" font-size="13" lengthAdjust="spacingAndGlyphs" textLength="71" x="360" y="831.5684">operations:</text><line style="stroke: #383838; stroke-width: 1.0; stroke-dasharray: 1.0,2.0;" x1="355" x2="470" y1="834.3105" y2="834.3105"/><text fill="#000000" font-family="sans-serif" font-size="13" lengthAdjust="spacingAndGlyphs" textLength="90" x="360" y="850.8789">storeStripeKey</text><text fill="#000000" font-family="sans-serif" font-size="13" lengthAdjust="spacingAndGlyphs" textLength="49" x="360" y="866.1895">getData</text><text fill="#000000" font-family="sans-serif" font-size="13" lengthAdjust="spacingAndGlyphs" textLength="72" x="360" y="881.5">updateData</text><text fill="#000000" font-family="sans-serif" font-size="13" lengthAdjust="spacingAndGlyphs" textLength="57" x="360" y="896.8105">saveData</text><text fill="#000000" font-family="sans-serif" font-size="13" lengthAdjust="spacingAndGlyphs" textLength="67" x="360" y="912.1211">deleteData</text><line style="stroke: #383838; stroke-width: 1.0;" x1="355" x2="470" y1="918.8633" y2="918.8633"/><text fill="#000000" font-family="sans-serif" font-size="13" lengthAdjust="spacingAndGlyphs" textLength="68" x="360" y="935.4316">properties:</text><line style="stroke: #383838; stroke-width: 1.0; stroke-dasharray: 1.0,2.0;" x1="355" x2="470" y1="942.1738" y2="942.1738"/><text fill="#000000" font-family="sans-serif" font-size="13" lengthAdjust="spacingAndGlyphs" textLength="54" x="360" y="958.7422">category</text><text fill="#000000" font-family="sans-serif" font-size="13" lengthAdjust="spacingAndGlyphs" textLength="30" x="360" y="974.0527">filter</text><text fill="#000000" font-family="sans-serif" font-size="13" lengthAdjust="spacingAndGlyphs" textLength="96" x="360" y="989.3633">usercredentials</text><text fill="#000000" font-family="sans-serif" font-size="13" lengthAdjust="spacingAndGlyphs" textLength="35" x="360" y="1004.6738">mode</text><text fill="#000000" font-family="sans-serif" font-size="13" lengthAdjust="spacingAndGlyphs" textLength="58" x="360" y="1019.9844">transport</text><text fill="#000000" font-family="sans-serif" font-size="13" lengthAdjust="spacingAndGlyphs" textLength="86" x="360" y="1035.2949">subscriptions</text><text fill="#000000" font-family="sans-serif" font-size="13" lengthAdjust="spacingAndGlyphs" textLength="0" x="364" y="1050.6055"/><path d="M381,57 L381,458.4531 A0,0 0 0 0 381,458.4531 L501.62,458.4531 L509.09,526.82 L509.62,458.4531 L610,458.4531 A0,0 0 0 0 610,458.4531 L610,67 L600,57 L381,57 A0,0 0 0 0 381,57 " fill="#ECECEC" style="stroke: #383838; stroke-width: 1.0;"/><path d="M600,57 L600,67 L610,67 L600,57 " fill="#ECECEC" style="stroke: #383838; stroke-width: 1.0;"/><text fill="#000000" font-family="sans-serif" font-size="13" lengthAdjust="spacingAndGlyphs" textLength="71" x="387" y="74.5684">operations:</text><line style="stroke: #383838; stroke-width: 1.0; stroke-dasharray: 1.0,2.0;" x1="382" x2="609" y1="77.3105" y2="77.3105"/><text fill="#000000" font-family="sans-serif" font-size="13" lengthAdjust="spacingAndGlyphs" textLength="99" x="387" y="93.8789">createCustomer</text><text fill="#000000" font-family="sans-serif" font-size="13" lengthAdjust="spacingAndGlyphs" textLength="146" x="387" y="109.1895">createCheckoutSession</text><text fill="#000000" font-family="sans-serif" font-size="13" lengthAdjust="spacingAndGlyphs" textLength="101" x="387" y="124.5">createPortalLink</text><text fill="#000000" font-family="sans-serif" font-size="13" lengthAdjust="spacingAndGlyphs" textLength="141" x="387" y="139.8105">handleWebhookEvents</text><text fill="#000000" font-family="sans-serif" font-size="13" lengthAdjust="spacingAndGlyphs" textLength="92" x="387" y="155.1211">onUserDeleted</text><text fill="#000000" font-family="sans-serif" font-size="13" lengthAdjust="spacingAndGlyphs" textLength="154" x="387" y="170.4316">onCustomerDataDeleted</text><text fill="#000000" font-family="sans-serif" font-size="13" lengthAdjust="spacingAndGlyphs" textLength="119" x="387" y="185.7422">setPaymentMethod</text><text fill="#000000" font-family="sans-serif" font-size="13" lengthAdjust="spacingAndGlyphs" textLength="115" x="387" y="201.0527">setInvoiceSettings</text><line style="stroke: #383838; stroke-width: 1.0;" x1="382" x2="609" y1="207.7949" y2="207.7949"/><text fill="#000000" font-family="sans-serif" font-size="13" lengthAdjust="spacingAndGlyphs" textLength="45" x="387" y="224.3633">events:</text><line style="stroke: #383838; stroke-width: 1.0; stroke-dasharray: 1.0,2.0;" x1="382" x2="609" y1="231.1055" y2="231.1055"/><text fill="#000000" font-family="sans-serif" font-size="13" lengthAdjust="spacingAndGlyphs" textLength="104" x="387" y="247.6738">product.updated</text><text fill="#000000" font-family="sans-serif" font-size="13" lengthAdjust="spacingAndGlyphs" textLength="99" x="387" y="262.9844">product.deleted</text><text fill="#000000" font-family="sans-serif" font-size="13" lengthAdjust="spacingAndGlyphs" textLength="81" x="387" y="278.2949">price.created</text><text fill="#000000" font-family="sans-serif" font-size="13" lengthAdjust="spacingAndGlyphs" textLength="86" x="387" y="293.6055">price.updated</text><text fill="#000000" font-family="sans-serif" font-size="13" lengthAdjust="spacingAndGlyphs" textLength="81" x="387" y="308.916">price.deleted</text><text fill="#000000" font-family="sans-serif" font-size="13" lengthAdjust="spacingAndGlyphs" textLength="180" x="387" y="324.2266">checkout.session.completed</text><text fill="#000000" font-family="sans-serif" font-size="13" lengthAdjust="spacingAndGlyphs" textLength="192" x="387" y="339.5371">customer.subscription.created</text><text fill="#000000" font-family="sans-serif" font-size="13" lengthAdjust="spacingAndGlyphs" textLength="197" x="387" y="354.8477">customer.subscription.updated</text><text fill="#000000" font-family="sans-serif" font-size="13" lengthAdjust="spacingAndGlyphs" textLength="192" x="387" y="370.1582">customer.subscription.deleted</text><text fill="#000000" font-family="sans-serif" font-size="13" lengthAdjust="spacingAndGlyphs" textLength="76" x="387" y="385.4688">invoice.paid</text><text fill="#000000" font-family="sans-serif" font-size="13" lengthAdjust="spacingAndGlyphs" textLength="176" x="387" y="400.7793">invoice.payment_succeeded</text><text fill="#000000" font-family="sans-serif" font-size="13" lengthAdjust="spacingAndGlyphs" textLength="145" x="387" y="416.0898">invoice.payment_failed</text><text fill="#000000" font-family="sans-serif" font-size="13" lengthAdjust="spacingAndGlyphs" textLength="112" x="387" y="431.4004">invoice.upcoming</text><text fill="#000000" font-family="sans-serif" font-size="13" lengthAdjust="spacingAndGlyphs" textLength="208" x="387" y="446.7109">invoice.payment_action_required</text><path d="M698.5,126 L698.5,253.5 L663.79,257.5 L698.5,261.5 L698.5,388.9688 A0,0 0 0 0 698.5,388.9688 L938.5,388.9688 A0,0 0 0 0 938.5,388.9688 L938.5,136 L928.5,126 L698.5,126 A0,0 0 0 0 698.5,126 " fill="#ECECEC" style="stroke: #383838; stroke-width: 1.0;"/><path d="M928.5,126 L928.5,136 L938.5,136 L928.5,126 " fill="#ECECEC" style="stroke: #383838; stroke-width: 1.0;"/><text fill="#000000" font-family="sans-serif" font-size="13" lengthAdjust="spacingAndGlyphs" textLength="71" x="704.5" y="143.5684">operations:</text><line style="stroke: #383838; stroke-width: 1.0; stroke-dasharray: 1.0,2.0;" x1="699.5" x2="937.5" y1="146.3105" y2="146.3105"/><text fill="#000000" font-family="sans-serif" font-size="13" lengthAdjust="spacingAndGlyphs" textLength="105" x="704.5" y="162.8789">createUserSignIn</text><text fill="#000000" font-family="sans-serif" font-size="13" lengthAdjust="spacingAndGlyphs" textLength="171" x="704.5" y="178.1895">setAuthenticationproviders</text><text fill="#000000" font-family="sans-serif" font-size="13" lengthAdjust="spacingAndGlyphs" textLength="219" x="704.5" y="193.5">writeUserdata( userID, name,email)</text><text fill="#000000" font-family="sans-serif" font-size="13" lengthAdjust="spacingAndGlyphs" textLength="142" x="704.5" y="208.8105">storecategories(string)</text><text fill="#000000" font-family="sans-serif" font-size="13" lengthAdjust="spacingAndGlyphs" textLength="120" x="704.5" y="224.1211">storesubcategories</text><text fill="#000000" font-family="sans-serif" font-size="13" lengthAdjust="spacingAndGlyphs" textLength="71" x="704.5" y="239.4316">storeFilters</text><text fill="#000000" font-family="sans-serif" font-size="13" lengthAdjust="spacingAndGlyphs" textLength="86" x="704.5" y="254.7422">storeLocation</text><text fill="#000000" font-family="sans-serif" font-size="13" lengthAdjust="spacingAndGlyphs" textLength="107" x="704.5" y="270.0527">storeExternalURL</text><text fill="#000000" font-family="sans-serif" font-size="13" lengthAdjust="spacingAndGlyphs" textLength="117" x="704.5" y="285.3633">getGoogleMapsAPI</text><text fill="#000000" font-family="sans-serif" font-size="13" lengthAdjust="spacingAndGlyphs" textLength="123" x="704.5" y="300.6738">getGooglePlacesAPI</text><text fill="#000000" font-family="sans-serif" font-size="13" lengthAdjust="spacingAndGlyphs" textLength="98" x="704.5" y="315.9844">getBookingsAPI</text><text fill="#000000" font-family="sans-serif" font-size="13" lengthAdjust="spacingAndGlyphs" textLength="131" x="704.5" y="331.2949">storeUserCredentials</text><text fill="#000000" font-family="sans-serif" font-size="13" lengthAdjust="spacingAndGlyphs" textLength="150" x="704.5" y="346.6055">storeTransactionDetails</text><text fill="#000000" font-family="sans-serif" font-size="13" lengthAdjust="spacingAndGlyphs" textLength="132" x="704.5" y="361.916">storeUserPreferences</text><text fill="#000000" font-family="sans-serif" font-size="13" lengthAdjust="spacingAndGlyphs" textLength="146" x="704.5" y="377.2266">storeUserSubscriptions</text><path d="M284.95,275.55 C273.49,310.32 245.88,391.72 217.5,458 C208.55,478.91 196.77,502.25 188.71,517.69 " fill="none" id="UserInterface-&gt;iRESTAPI" style="stroke: #383838; stroke-width: 1.0;"/><path d="M192.9381,527.8014 A9,9 0 0 0 177.967 519.9295" fill="none" style="stroke: #383838; stroke-width: 1.5;"/><path d="M283.92,275.55 C266.69,323.14 225.03,460.09 276.5,554 C300.32,597.46 335.83,578.58 370.5,614 C385.48,629.31 397.54,650.91 404.83,665.85 " fill="none" id="UserInterface-&gt;iFirebase" style="stroke: #383838; stroke-width: 1.0;"/><path d="M415.4548,668.6069 A9,9 0 0 0 400.1241 675.7532" fill="none" style="stroke: #383838; stroke-width: 1.5;"/><path d="M188.62,529.85 C214.58,513.11 291.06,469.27 354,488 C373.72,493.87 393.08,506.9 406.98,517.9 " fill="none" id="iRESTAPI-RESTAPI" style="stroke: #383838; stroke-width: 1.0;"/><path d="M425.75,554.03 C422.91,581.67 417.32,636.05 414.39,664.56 " fill="none" id="RESTAPI-&gt;iFirebase" style="stroke: #383838; stroke-width: 1.0;"/><path d="M422.076,672.526 A9,9 0 0 0 405.2488 670.8094" fill="none" style="stroke: #383838; stroke-width: 1.5;"/><path d="M165.44,275.8 C168.12,325.15 175.78,466.36 178.51,516.81 " fill="none" id="WebAPI-&gt;iRESTAPI" style="stroke: #383838; stroke-width: 1.0;"/><path d="M187.3377,523.3273 A9,9 0 0 0 170.4481 524.2454" fill="none" style="stroke: #383838; stroke-width: 1.5;"/><path d="M421.58,684 C433.13,684 444.68,684 456.23,684 " fill="none" id="iFirebase-Firebase" style="stroke: #383838; stroke-width: 1.0;"/><path d="M334.77,554.03 C351.72,582.16 385.37,637.99 402.29,666.06 " fill="none" id="Stripe-&gt;iFirebase" style="stroke: #383838; stroke-width: 1.0;"/><path d="M413.166,667.7212 A9,9 0 0 0 398.6898 676.4698" fill="none" style="stroke: #383838; stroke-width: 1.5;"/><path d="M504.31,526.82 C497.17,515.24 483.12,495.91 465,488 C434.04,474.49 421.06,477.38 389,488 C371.11,493.93 354.15,506.95 342.12,517.94 " fill="none" id="iStripe-Stripe" style="stroke: #383838; stroke-width: 1.0;"/><path d="M582.73,545.71 C538.17,555.31 477.37,574.92 438.5,614 C424.84,627.73 418.25,649.33 415.14,664.7 " fill="none" id="LocalGuideDB-&gt;iFirebase" style="stroke: #383838; stroke-width: 1.0;"/><path d="M422.2973,672.9939 A9,9 0 0 0 405.629 670.1193" fill="none" style="stroke: #383838; stroke-width: 1.5;"/><path d="M290.73,239.27 C292.46,192.89 304.39,71 381,27 C425.13,1.65 565.87,1.65 610,27 C682.31,68.53 667.46,190.91 658.58,238.38 " fill="none" id="UserInterface-&gt;iLocalGuideDB" style="stroke: #383838; stroke-width: 1.0;"/><path d="M665.5059,246.9052 A9,9 0 0 0 648.9181 243.5973" fill="none" style="stroke: #383838; stroke-width: 1.5;"/><path d="M654.05,266.78 C651.98,304.96 643.32,464.57 640.44,517.71 " fill="none" id="iLocalGuideDB-LocalGuideDB" style="stroke: #383838; stroke-width: 1.0;"/><path d="M292.49,275.61 C297.66,313.04 314.7,403.18 363.5,458 C402.88,502.24 430.94,488.85 482.5,518 C485.54,519.72 488.72,521.62 491.78,523.51 " fill="none" id="UserInterface-&gt;iStripe" style="stroke: #383838; stroke-width: 1.0;"/><path d="M502.312,520.1698 A9,9 0 0 0 493.2498 534.4518" fill="none" style="stroke: #383838; stroke-width: 1.5;"/></g></svg>