<?xml version="1.0" encoding="UTF-8" standalone="no"?><svg xmlns="http://www.w3.org/2000/svg" xmlns:xlink="http://www.w3.org/1999/xlink" contentScriptType="application/ecmascript" contentStyleType="text/css" height="648px" preserveAspectRatio="none" style="width:1287px;height:648px;" version="1.1" viewBox="0 0 1287 648" width="1287px" zoomAndPan="magnify"><defs><filter height="300%" id="f16pb17e1b5ghx" width="300%" x="-1" y="-1"><feGaussianBlur result="blurOut" stdDeviation="2.0"/><feColorMatrix in="blurOut" result="blurOut2" type="matrix" values="0 0 0 0 0 0 0 0 0 0 0 0 0 0 0 0 0 0 .4 0"/><feOffset dx="4.0" dy="4.0" in="blurOut2" result="blurOut3"/><feBlend in="SourceGraphic" in2="blurOut3" mode="normal"/></filter></defs><g><polygon fill="#FFFFFF" filter="url(#f16pb17e1b5ghx)" points="861,554,871,544,1076,544,1076,626,1066,636,861,636,861,554" style="stroke: #000000; stroke-width: 1.5;"/><line style="stroke: #000000; stroke-width: 1.5;" x1="1066" x2="1075" y1="554" y2="545"/><line style="stroke: #000000; stroke-width: 1.5;" x1="861" x2="1066" y1="554" y2="554"/><line style="stroke: #000000; stroke-width: 1.5;" x1="1066" x2="1066" y1="554" y2="636"/><text fill="#000000" font-family="sans-serif" font-size="14" font-weight="bold" lengthAdjust="spacingAndGlyphs" textLength="79" x="925" y="570.5352">Web Server</text><polygon fill="#FFFFFF" filter="url(#f16pb17e1b5ghx)" points="30,42,40,32,891,32,891,477,881,487,30,487,30,42" style="stroke: #000000; stroke-width: 1.5;"/><line style="stroke: #000000; stroke-width: 1.5;" x1="881" x2="890" y1="42" y2="33"/><line style="stroke: #000000; stroke-width: 1.5;" x1="30" x2="881" y1="42" y2="42"/><line style="stroke: #000000; stroke-width: 1.5;" x1="881" x2="881" y1="42" y2="487"/><text fill="#000000" font-family="sans-serif" font-size="14" font-weight="bold" lengthAdjust="spacingAndGlyphs" textLength="162" x="375.5" y="58.5352">Android mobile device</text><polygon fill="#FFFFFF" filter="url(#f16pb17e1b5ghx)" points="62,98,72,88,851,88,851,445,841,455,62,455,62,98" style="stroke: #000000; stroke-width: 1.5;"/><line style="stroke: #000000; stroke-width: 1.5;" x1="841" x2="850" y1="98" y2="89"/><line style="stroke: #000000; stroke-width: 1.5;" x1="62" x2="841" y1="98" y2="98"/><line style="stroke: #000000; stroke-width: 1.5;" x1="841" x2="841" y1="98" y2="455"/><text fill="#000000" font-family="sans-serif" font-size="14" font-weight="bold" lengthAdjust="spacingAndGlyphs" textLength="117" x="394" y="114.5352">Local Guide APK</text><rect fill="#FFFFFF" filter="url(#f16pb17e1b5ghx)" height="295" style="stroke: #000000; stroke-width: 1.5;" width="741" x="86" y="136"/><rect fill="#FFFFFF" height="10" style="stroke: #000000; stroke-width: 1.5;" width="15" x="807" y="141"/><rect fill="#FFFFFF" height="2" style="stroke: #000000; stroke-width: 1.5;" width="4" x="805" y="143"/><rect fill="#FFFFFF" height="2" style="stroke: #000000; stroke-width: 1.5;" width="4" x="805" y="147"/><text fill="#000000" font-family="sans-serif" font-size="14" font-weight="bold" lengthAdjust="spacingAndGlyphs" textLength="95" x="409" y="162.5352">UserInterface</text><rect fill="#FFFFFF" filter="url(#f16pb17e1b5ghx)" height="87" style="stroke: #000000; stroke-width: 1.5;" width="209" x="594" y="179"/><rect fill="#FFFFFF" height="10" style="stroke: #000000; stroke-width: 1.5;" width="15" x="783" y="184"/><rect fill="#FFFFFF" height="2" style="stroke: #000000; stroke-width: 1.5;" width="4" x="781" y="186"/><rect fill="#FFFFFF" height="2" style="stroke: #000000; stroke-width: 1.5;" width="4" x="781" y="190"/><text fill="#000000" font-family="sans-serif" font-size="14" font-weight="bold" lengthAdjust="spacingAndGlyphs" textLength="58" x="669.5" y="205.5352">Services</text><rect fill="#FFFFFF" filter="url(#f16pb17e1b5ghx)" height="228" style="stroke: #000000; stroke-width: 1.5;" width="211" x="359" y="179"/><rect fill="#FFFFFF" height="10" style="stroke: #000000; stroke-width: 1.5;" width="15" x="550" y="184"/><rect fill="#FFFFFF" height="2" style="stroke: #000000; stroke-width: 1.5;" width="4" x="548" y="186"/><rect fill="#FFFFFF" height="2" style="stroke: #000000; stroke-width: 1.5;" width="4" x="548" y="190"/><text fill="#000000" font-family="sans-serif" font-size="14" font-weight="bold" lengthAdjust="spacingAndGlyphs" textLength="67" x="431" y="205.5352">Browsing</text><rect fill="#FFFFFF" filter="url(#f16pb17e1b5ghx)" height="228" style="stroke: #000000; stroke-width: 1.5;" width="225" x="110" y="179"/><rect fill="#FFFFFF" height="10" style="stroke: #000000; stroke-width: 1.5;" width="15" x="315" y="184"/><rect fill="#FFFFFF" height="2" style="stroke: #000000; stroke-width: 1.5;" width="4" x="313" y="186"/><rect fill="#FFFFFF" height="2" style="stroke: #000000; stroke-width: 1.5;" width="4" x="313" y="190"/><text fill="#000000" font-family="sans-serif" font-size="14" font-weight="bold" lengthAdjust="spacingAndGlyphs" textLength="83" x="181" y="205.5352">Personalize</text><polygon fill="#FFFFFF" filter="url(#f16pb17e1b5ghx)" points="1090,325,1100,315,1265,315,1265,397,1255,407,1090,407,1090,325" style="stroke: #000000; stroke-width: 1.5;"/><line style="stroke: #000000; stroke-width: 1.5;" x1="1255" x2="1264" y1="325" y2="316"/><line style="stroke: #000000; stroke-width: 1.5;" x1="1090" x2="1255" y1="325" y2="325"/><line style="stroke: #000000; stroke-width: 1.5;" x1="1255" x2="1255" y1="325" y2="407"/><text fill="#000000" font-family="sans-serif" font-size="14" font-weight="bold" lengthAdjust="spacingAndGlyphs" textLength="99" x="1124" y="341.5352">Google server</text><rect fill="#FEFECE" filter="url(#f16pb17e1b5ghx)" height="36.4883" style="stroke: #A80036; stroke-width: 1.5;" width="88" x="877" y="584"/><rect fill="#FEFECE" height="5" style="stroke: #A80036; stroke-width: 1.5;" width="10" x="872" y="589"/><rect fill="#FEFECE" height="5" style="stroke: #A80036; stroke-width: 1.5;" width="10" x="872" y="610.4883"/><text fill="#000000" font-family="sans-serif" font-size="14" lengthAdjust="spacingAndGlyphs" textLength="68" x="887" y="607.5352">Transport</text><rect fill="#FEFECE" filter="url(#f16pb17e1b5ghx)" height="36.4883" style="stroke: #A80036; stroke-width: 1.5;" width="60" x="1000" y="584"/><rect fill="#FEFECE" height="5" style="stroke: #A80036; stroke-width: 1.5;" width="10" x="995" y="589"/><rect fill="#FEFECE" height="5" style="stroke: #A80036; stroke-width: 1.5;" width="10" x="995" y="610.4883"/><text fill="#000000" font-family="sans-serif" font-size="14" lengthAdjust="spacingAndGlyphs" textLength="40" x="1010" y="607.5352">Stripe</text><rect fill="#FEFECE" filter="url(#f16pb17e1b5ghx)" height="36.4883" style="stroke: #A80036; stroke-width: 1.5;" width="83" x="703.5" y="214"/><rect fill="#FEFECE" height="5" style="stroke: #A80036; stroke-width: 1.5;" width="10" x="698.5" y="219"/><rect fill="#FEFECE" height="5" style="stroke: #A80036; stroke-width: 1.5;" width="10" x="698.5" y="240.4883"/><text fill="#000000" font-family="sans-serif" font-size="14" lengthAdjust="spacingAndGlyphs" textLength="63" x="713.5" y="237.5352">Bookings</text><rect fill="#FEFECE" filter="url(#f16pb17e1b5ghx)" height="36.4883" style="stroke: #A80036; stroke-width: 1.5;" width="58" x="610" y="214"/><rect fill="#FEFECE" height="5" style="stroke: #A80036; stroke-width: 1.5;" width="10" x="605" y="219"/><rect fill="#FEFECE" height="5" style="stroke: #A80036; stroke-width: 1.5;" width="10" x="605" y="240.4883"/><text fill="#000000" font-family="sans-serif" font-size="14" lengthAdjust="spacingAndGlyphs" textLength="38" x="620" y="237.5352">Mode</text><rect fill="#FEFECE" filter="url(#f16pb17e1b5ghx)" height="36.4883" style="stroke: #A80036; stroke-width: 1.5;" width="66" x="375" y="214"/><rect fill="#FEFECE" height="5" style="stroke: #A80036; stroke-width: 1.5;" width="10" x="370" y="219"/><rect fill="#FEFECE" height="5" style="stroke: #A80036; stroke-width: 1.5;" width="10" x="370" y="240.4883"/><text fill="#000000" font-family="sans-serif" font-size="14" lengthAdjust="spacingAndGlyphs" textLength="46" x="385" y="237.5352">Search</text><rect fill="#FEFECE" filter="url(#f16pb17e1b5ghx)" height="36.4883" style="stroke: #A80036; stroke-width: 1.5;" width="77" x="476.5" y="214"/><rect fill="#FEFECE" height="5" style="stroke: #A80036; stroke-width: 1.5;" width="10" x="471.5" y="219"/><rect fill="#FEFECE" height="5" style="stroke: #A80036; stroke-width: 1.5;" width="10" x="471.5" y="240.4883"/><text fill="#000000" font-family="sans-serif" font-size="14" lengthAdjust="spacingAndGlyphs" textLength="57" x="486.5" y="237.5352">Filtering</text><rect fill="#FEFECE" filter="url(#f16pb17e1b5ghx)" height="36.4883" style="stroke: #A80036; stroke-width: 1.5;" width="47" x="384.5" y="355"/><rect fill="#FEFECE" height="5" style="stroke: #A80036; stroke-width: 1.5;" width="10" x="379.5" y="360"/><rect fill="#FEFECE" height="5" style="stroke: #A80036; stroke-width: 1.5;" width="10" x="379.5" y="381.4883"/><text fill="#000000" font-family="sans-serif" font-size="14" lengthAdjust="spacingAndGlyphs" textLength="27" x="394.5" y="378.5352">Info</text><rect fill="#FEFECE" filter="url(#f16pb17e1b5ghx)" height="36.4883" style="stroke: #A80036; stroke-width: 1.5;" width="78" x="467" y="355"/><rect fill="#FEFECE" height="5" style="stroke: #A80036; stroke-width: 1.5;" width="10" x="462" y="360"/><rect fill="#FEFECE" height="5" style="stroke: #A80036; stroke-width: 1.5;" width="10" x="462" y="381.4883"/><text fill="#000000" font-family="sans-serif" font-size="14" lengthAdjust="spacingAndGlyphs" textLength="58" x="477" y="378.5352">Location</text><rect fill="#FEFECE" filter="url(#f16pb17e1b5ghx)" height="36.4883" style="stroke: #A80036; stroke-width: 1.5;" width="58" x="126" y="214"/><rect fill="#FEFECE" height="5" style="stroke: #A80036; stroke-width: 1.5;" width="10" x="121" y="219"/><rect fill="#FEFECE" height="5" style="stroke: #A80036; stroke-width: 1.5;" width="10" x="121" y="240.4883"/><text fill="#000000" font-family="sans-serif" font-size="14" lengthAdjust="spacingAndGlyphs" textLength="38" x="136" y="237.5352">Login</text><rect fill="#FEFECE" filter="url(#f16pb17e1b5ghx)" height="36.4883" style="stroke: #A80036; stroke-width: 1.5;" width="100" x="219" y="214"/><rect fill="#FEFECE" height="5" style="stroke: #A80036; stroke-width: 1.5;" width="10" x="214" y="219"/><rect fill="#FEFECE" height="5" style="stroke: #A80036; stroke-width: 1.5;" width="10" x="214" y="240.4883"/><text fill="#000000" font-family="sans-serif" font-size="14" lengthAdjust="spacingAndGlyphs" textLength="80" x="229" y="237.5352">Preferences</text><rect fill="#FEFECE" filter="url(#f16pb17e1b5ghx)" height="36.4883" style="stroke: #A80036; stroke-width: 1.5;" width="113" x="126.5" y="355"/><rect fill="#FEFECE" height="5" style="stroke: #A80036; stroke-width: 1.5;" width="10" x="121.5" y="360"/><rect fill="#FEFECE" height="5" style="stroke: #A80036; stroke-width: 1.5;" width="10" x="121.5" y="381.4883"/><text fill="#000000" font-family="sans-serif" font-size="14" lengthAdjust="spacingAndGlyphs" textLength="93" x="136.5" y="378.5352">Subscriptions</text><rect fill="#FEFECE" filter="url(#f16pb17e1b5ghx)" height="36.4883" style="stroke: #A80036; stroke-width: 1.5;" width="78" x="1107" y="355"/><rect fill="#FEFECE" height="5" style="stroke: #A80036; stroke-width: 1.5;" width="10" x="1102" y="360"/><rect fill="#FEFECE" height="5" style="stroke: #A80036; stroke-width: 1.5;" width="10" x="1102" y="381.4883"/><text fill="#000000" font-family="sans-serif" font-size="14" lengthAdjust="spacingAndGlyphs" textLength="58" x="1117" y="378.5352">Firebase</text><path d="M891.2879,233.8537 C892.2498,233.9634 893.2878,234.0849 894.3979,234.219 C896.6182,234.4871 899.127,234.8053 901.8919,235.1789 C912.9513,236.6734 928.1075,239.0556 945.285,242.6738 C979.64,249.91 1022.08,262.09 1056,282 C1088.4,301.01 1117.46,334.46 1133.32,354.79 " fill="none" id="a-f" style="stroke: #A80036; stroke-width: 1.0;"/><text fill="#000000" font-family="sans-serif" font-size="13" lengthAdjust="spacingAndGlyphs" textLength="40" x="1079" y="295.5684">HTTPS</text><path d="M891.0564,311.0374 C891.163,312.0701 891.2703,313.1095 891.3783,314.1555 C891.8102,318.3393 892.253,322.6276 892.705,327.0061 C894.5133,344.5202 896.4706,363.4775 898.4825,382.9625 C906.53,460.9025 915.45,547.285 919.19,583.51 " fill="none" id="a-b" style="stroke: #A80036; stroke-width: 1.0;"/><text fill="#000000" font-family="sans-serif" font-size="13" lengthAdjust="spacingAndGlyphs" textLength="40" x="912" y="378.0684">HTTPS</text><path d="M891.1603,238.2682 C891.2402,238.3221 891.3205,238.3763 891.4013,238.431 C892.0479,238.868 892.7253,239.3295 893.4311,239.815 C899.0778,243.6988 906.5469,249.1125 914.6363,255.72 C930.815,268.935 949.475,286.925 961,307 C1015.29,401.58 1026.91,536.55 1029.36,583.84 " fill="none" id="a-s" style="stroke: #A80036; stroke-width: 1.0;"/><text fill="#000000" font-family="sans-serif" font-size="13" lengthAdjust="spacingAndGlyphs" textLength="40" x="1022" y="378.0684">HTTPS</text><path d="M1137.28,391.06 C1115.78,433.13 1060.42,541.46 1038.82,583.74 " fill="none" id="f-s" style="stroke: #A80036; stroke-width: 1.0;"/><text fill="#000000" font-family="sans-serif" font-size="13" lengthAdjust="spacingAndGlyphs" textLength="40" x="1075" y="524.5684">HTTPS</text></g></svg>