<?xml version="1.0" encoding="UTF-8" standalone="no"?><svg xmlns="http://www.w3.org/2000/svg" xmlns:xlink="http://www.w3.org/1999/xlink" contentScriptType="application/ecmascript" contentStyleType="text/css" height="935px" preserveAspectRatio="none" style="width:2095px;height:935px;" version="1.1" viewBox="0 0 2095 935" width="2095px" zoomAndPan="magnify"><defs/><g><rect fill="#DDDDDD" height="920.9141" style="stroke: #383838; stroke-width: 1.0;" width="1252" x="77" y="4"/><text fill="#000000" font-family="Courier" font-size="13" font-weight="bold" lengthAdjust="spacingAndGlyphs" textLength="112" x="647" y="16.0669">User Interface</text><line style="stroke: #383838; stroke-width: 1.0; stroke-dasharray: 5.0,5.0;" x1="100" x2="100" y1="102.4297" y2="842.6172"/><line style="stroke: #383838; stroke-width: 1.0; stroke-dasharray: 5.0,5.0;" x1="284" x2="284" y1="102.4297" y2="842.6172"/><line style="stroke: #383838; stroke-width: 1.0; stroke-dasharray: 5.0,5.0;" x1="352" x2="352" y1="102.4297" y2="842.6172"/><line style="stroke: #383838; stroke-width: 1.0; stroke-dasharray: 5.0,5.0;" x1="436" x2="436" y1="102.4297" y2="842.6172"/><line style="stroke: #383838; stroke-width: 1.0; stroke-dasharray: 5.0,5.0;" x1="512" x2="512" y1="102.4297" y2="842.6172"/><line style="stroke: #383838; stroke-width: 1.0; stroke-dasharray: 5.0,5.0;" x1="584" x2="584" y1="102.4297" y2="842.6172"/><line style="stroke: #383838; stroke-width: 1.0; stroke-dasharray: 5.0,5.0;" x1="692" x2="692" y1="102.4297" y2="842.6172"/><line style="stroke: #383838; stroke-width: 1.0; stroke-dasharray: 5.0,5.0;" x1="812" x2="812" y1="102.4297" y2="842.6172"/><line style="stroke: #383838; stroke-width: 1.0; stroke-dasharray: 5.0,5.0;" x1="916" x2="916" y1="102.4297" y2="842.6172"/><line style="stroke: #383838; stroke-width: 1.0; stroke-dasharray: 5.0,5.0;" x1="1008" x2="1008" y1="102.4297" y2="842.6172"/><line style="stroke: #383838; stroke-width: 1.0; stroke-dasharray: 5.0,5.0;" x1="1302" x2="1302" y1="102.4297" y2="842.6172"/><line style="stroke: #383838; stroke-width: 1.0; stroke-dasharray: 5.0,5.0;" x1="1402" x2="1402" y1="102.4297" y2="842.6172"/><line style="stroke: #383838; stroke-width: 1.0; stroke-dasharray: 5.0,5.0;" x1="1536" x2="1536" y1="102.4297" y2="842.6172"/><line style="stroke: #383838; stroke-width: 1.0; stroke-dasharray: 5.0,5.0;" x1="2054" x2="2054" y1="102.4297" y2="842.6172"/><text fill="#000000" font-family="Courier" font-size="14" lengthAdjust="spacingAndGlyphs" textLength="32" x="81" y="99.1279">user</text><ellipse cx="100" cy="33.1328" fill="#4C4C4C" rx="8" ry="8" style="stroke: #383838; stroke-width: 2.0;"/><path d="M100,41.1328 L100,68.1328 M87,49.1328 L113,49.1328 M100,68.1328 L87,83.1328 M100,68.1328 L113,83.1328 " fill="none" style="stroke: #383838; stroke-width: 2.0;"/><text fill="#000000" font-family="Courier" font-size="14" lengthAdjust="spacingAndGlyphs" textLength="32" x="81" y="854.6123">user</text><ellipse cx="100" cy="867.9141" fill="#4C4C4C" rx="8" ry="8" style="stroke: #383838; stroke-width: 2.0;"/><path d="M100,875.9141 L100,902.9141 M87,883.9141 L113,883.9141 M100,902.9141 L87,917.9141 M100,902.9141 L113,917.9141 " fill="none" style="stroke: #383838; stroke-width: 2.0;"/><rect fill="#F8F8F8" height="30.2969" style="stroke: #383838; stroke-width: 1.5;" width="54" x="257" y="71.1328"/><text fill="#000000" font-family="Courier" font-size="14" lengthAdjust="spacingAndGlyphs" textLength="40" x="264" y="91.1279">Login</text><rect fill="#F8F8F8" height="30.2969" style="stroke: #383838; stroke-width: 1.5;" width="54" x="257" y="841.6172"/><text fill="#000000" font-family="Courier" font-size="14" lengthAdjust="spacingAndGlyphs" textLength="40" x="264" y="861.6123">Login</text><rect fill="#F8F8F8" height="30.2969" style="stroke: #383838; stroke-width: 1.5;" width="62" x="321" y="71.1328"/><text fill="#000000" font-family="Courier" font-size="14" lengthAdjust="spacingAndGlyphs" textLength="48" x="328" y="91.1279">Search</text><rect fill="#F8F8F8" height="30.2969" style="stroke: #383838; stroke-width: 1.5;" width="62" x="321" y="841.6172"/><text fill="#000000" font-family="Courier" font-size="14" lengthAdjust="spacingAndGlyphs" textLength="48" x="328" y="861.6123">Search</text><rect fill="#F8F8F8" height="30.2969" style="stroke: #383838; stroke-width: 1.5;" width="86" x="393" y="71.1328"/><text fill="#000000" font-family="Courier" font-size="14" lengthAdjust="spacingAndGlyphs" textLength="72" x="400" y="91.1279">Filtering</text><rect fill="#F8F8F8" height="30.2969" style="stroke: #383838; stroke-width: 1.5;" width="86" x="393" y="841.6172"/><text fill="#000000" font-family="Courier" font-size="14" lengthAdjust="spacingAndGlyphs" textLength="72" x="400" y="861.6123">Filtering</text><rect fill="#F8F8F8" height="30.2969" style="stroke: #383838; stroke-width: 1.5;" width="46" x="489" y="71.1328"/><text fill="#000000" font-family="Courier" font-size="14" lengthAdjust="spacingAndGlyphs" textLength="32" x="496" y="91.1279">Info</text><rect fill="#F8F8F8" height="30.2969" style="stroke: #383838; stroke-width: 1.5;" width="46" x="489" y="841.6172"/><text fill="#000000" font-family="Courier" font-size="14" lengthAdjust="spacingAndGlyphs" textLength="32" x="496" y="861.6123">Info</text><rect fill="#F8F8F8" height="30.2969" style="stroke: #383838; stroke-width: 1.5;" width="78" x="545" y="71.1328"/><text fill="#000000" font-family="Courier" font-size="14" lengthAdjust="spacingAndGlyphs" textLength="64" x="552" y="91.1279">Location</text><rect fill="#F8F8F8" height="30.2969" style="stroke: #383838; stroke-width: 1.5;" width="78" x="545" y="841.6172"/><text fill="#000000" font-family="Courier" font-size="14" lengthAdjust="spacingAndGlyphs" textLength="64" x="552" y="861.6123">Location</text><rect fill="#F8F8F8" height="30.2969" style="stroke: #383838; stroke-width: 1.5;" width="118" x="633" y="71.1328"/><text fill="#000000" font-family="Courier" font-size="14" lengthAdjust="spacingAndGlyphs" textLength="104" x="640" y="91.1279">Subscriptions</text><rect fill="#F8F8F8" height="30.2969" style="stroke: #383838; stroke-width: 1.5;" width="118" x="633" y="841.6172"/><text fill="#000000" font-family="Courier" font-size="14" lengthAdjust="spacingAndGlyphs" textLength="104" x="640" y="861.6123">Subscriptions</text><rect fill="#F8F8F8" height="30.2969" style="stroke: #383838; stroke-width: 1.5;" width="102" x="761" y="71.1328"/><text fill="#000000" font-family="Courier" font-size="14" lengthAdjust="spacingAndGlyphs" textLength="88" x="768" y="91.1279">Preferences</text><rect fill="#F8F8F8" height="30.2969" style="stroke: #383838; stroke-width: 1.5;" width="102" x="761" y="841.6172"/><text fill="#000000" font-family="Courier" font-size="14" lengthAdjust="spacingAndGlyphs" textLength="88" x="768" y="861.6123">Preferences</text><rect fill="#F8F8F8" height="30.2969" style="stroke: #383838; stroke-width: 1.5;" width="86" x="873" y="71.1328"/><text fill="#000000" font-family="Courier" font-size="14" lengthAdjust="spacingAndGlyphs" textLength="72" x="880" y="91.1279">Transport</text><rect fill="#F8F8F8" height="30.2969" style="stroke: #383838; stroke-width: 1.5;" width="86" x="873" y="841.6172"/><text fill="#000000" font-family="Courier" font-size="14" lengthAdjust="spacingAndGlyphs" textLength="72" x="880" y="861.6123">Transport</text><rect fill="#F8F8F8" height="30.2969" style="stroke: #383838; stroke-width: 1.5;" width="78" x="969" y="71.1328"/><text fill="#000000" font-family="Courier" font-size="14" lengthAdjust="spacingAndGlyphs" textLength="64" x="976" y="91.1279">Bookings</text><rect fill="#F8F8F8" height="30.2969" style="stroke: #383838; stroke-width: 1.5;" width="78" x="969" y="841.6172"/><text fill="#000000" font-family="Courier" font-size="14" lengthAdjust="spacingAndGlyphs" textLength="64" x="976" y="861.6123">Bookings</text><rect fill="#F8F8F8" height="30.2969" style="stroke: #383838; stroke-width: 1.5;" width="46" x="1279" y="71.1328"/><text fill="#000000" font-family="Courier" font-size="14" lengthAdjust="spacingAndGlyphs" textLength="32" x="1286" y="91.1279">Mode</text><rect fill="#F8F8F8" height="30.2969" style="stroke: #383838; stroke-width: 1.5;" width="46" x="1279" y="841.6172"/><text fill="#000000" font-family="Courier" font-size="14" lengthAdjust="spacingAndGlyphs" textLength="32" x="1286" y="861.6123">Mode</text><rect fill="#F8F8F8" height="30.2969" style="stroke: #383838; stroke-width: 1.5;" width="134" x="1335" y="71.1328"/><text fill="#000000" font-family="Courier" font-size="14" lengthAdjust="spacingAndGlyphs" textLength="120" x="1342" y="91.1279">Payment Gateway</text><rect fill="#F8F8F8" height="30.2969" style="stroke: #383838; stroke-width: 1.5;" width="134" x="1335" y="841.6172"/><text fill="#000000" font-family="Courier" font-size="14" lengthAdjust="spacingAndGlyphs" textLength="120" x="1342" y="861.6123">Payment Gateway</text><rect fill="#F8F8F8" height="30.2969" style="stroke: #383838; stroke-width: 1.5;" width="102" x="1485" y="71.1328"/><text fill="#000000" font-family="Courier" font-size="14" lengthAdjust="spacingAndGlyphs" textLength="88" x="1492" y="91.1279">ExternalAPI</text><rect fill="#F8F8F8" height="30.2969" style="stroke: #383838; stroke-width: 1.5;" width="102" x="1485" y="841.6172"/><text fill="#000000" font-family="Courier" font-size="14" lengthAdjust="spacingAndGlyphs" textLength="88" x="1492" y="861.6123">ExternalAPI</text><text fill="#000000" font-family="Courier" font-size="14" lengthAdjust="spacingAndGlyphs" textLength="64" x="2019" y="99.1279">Firebase</text><path d="M2036,50.1328 C2036,40.1328 2054,40.1328 2054,40.1328 C2054,40.1328 2072,40.1328 2072,50.1328 L2072,76.1328 C2072,86.1328 2054,86.1328 2054,86.1328 C2054,86.1328 2036,86.1328 2036,76.1328 L2036,50.1328 " fill="#7F7F7F" style="stroke: #000000; stroke-width: 1.5;"/><path d="M2036,50.1328 C2036,60.1328 2054,60.1328 2054,60.1328 C2054,60.1328 2072,60.1328 2072,50.1328 " fill="none" style="stroke: #000000; stroke-width: 1.5;"/><text fill="#000000" font-family="Courier" font-size="14" lengthAdjust="spacingAndGlyphs" textLength="64" x="2019" y="854.6123">Firebase</text><path d="M2036,867.9141 C2036,857.9141 2054,857.9141 2054,857.9141 C2054,857.9141 2072,857.9141 2072,867.9141 L2072,893.9141 C2072,903.9141 2054,903.9141 2054,903.9141 C2054,903.9141 2036,903.9141 2036,893.9141 L2036,867.9141 " fill="#7F7F7F" style="stroke: #000000; stroke-width: 1.5;"/><path d="M2036,867.9141 C2036,877.9141 2054,877.9141 2054,877.9141 C2054,877.9141 2072,877.9141 2072,867.9141 " fill="none" style="stroke: #000000; stroke-width: 1.5;"/><polygon fill="#383838" points="272,129.5625,282,133.5625,272,137.5625,276,133.5625" style="stroke: #383838; stroke-width: 1.0;"/><line style="stroke: #383838; stroke-width: 1.0;" x1="100" x2="278" y1="133.5625" y2="133.5625"/><text fill="#000000" font-family="Courier" font-size="13" lengthAdjust="spacingAndGlyphs" textLength="160" x="107" y="128.4966">User logins into app</text><polygon fill="#383838" points="111,158.6953,101,162.6953,111,166.6953,107,162.6953" style="stroke: #383838; stroke-width: 1.0;"/><line style="stroke: #383838; stroke-width: 1.0;" x1="105" x2="2053" y1="162.6953" y2="162.6953"/><text fill="#000000" font-family="Courier" font-size="13" lengthAdjust="spacingAndGlyphs" textLength="144" x="117" y="157.6294">User authenticated</text><polygon fill="#383838" points="996,187.8281,1006,191.8281,996,195.8281,1000,191.8281" style="stroke: #383838; stroke-width: 1.0;"/><line style="stroke: #383838; stroke-width: 1.0;" x1="100" x2="1002" y1="191.8281" y2="191.8281"/><text fill="#000000" font-family="Courier" font-size="13" lengthAdjust="spacingAndGlyphs" textLength="160" x="107" y="186.7622">Create a reservation</text><line style="stroke: #383838; stroke-width: 1.0;" x1="1008" x2="1050" y1="220.9609" y2="220.9609"/><line style="stroke: #383838; stroke-width: 1.0;" x1="1050" x2="1050" y1="220.9609" y2="233.9609"/><line style="stroke: #383838; stroke-width: 1.0;" x1="1009" x2="1050" y1="233.9609" y2="233.9609"/><polygon fill="#383838" points="1019,229.9609,1009,233.9609,1019,237.9609,1015,233.9609" style="stroke: #383838; stroke-width: 1.0;"/><text fill="#000000" font-family="Courier" font-size="13" lengthAdjust="spacingAndGlyphs" textLength="152" x="1015" y="215.895">Filter reservations</text><line style="stroke: #383838; stroke-width: 1.0;" x1="1008" x2="1050" y1="263.0938" y2="263.0938"/><line style="stroke: #383838; stroke-width: 1.0;" x1="1050" x2="1050" y1="263.0938" y2="276.0938"/><line style="stroke: #383838; stroke-width: 1.0;" x1="1009" x2="1050" y1="276.0938" y2="276.0938"/><polygon fill="#383838" points="1019,272.0938,1009,276.0938,1019,280.0938,1015,276.0938" style="stroke: #383838; stroke-width: 1.0;"/><text fill="#000000" font-family="Courier" font-size="13" lengthAdjust="spacingAndGlyphs" textLength="184" x="1015" y="258.0278">Create check-in request</text><polygon fill="#383838" points="1524,301.2266,1534,305.2266,1524,309.2266,1528,305.2266" style="stroke: #383838; stroke-width: 1.0;"/><line style="stroke: #383838; stroke-width: 1.0;" x1="1008" x2="1530" y1="305.2266" y2="305.2266"/><text fill="#000000" font-family="Courier" font-size="13" lengthAdjust="spacingAndGlyphs" textLength="224" x="1015" y="300.1606">Webhook for check-in request</text><polygon fill="#383838" points="1019,330.3594,1009,334.3594,1019,338.3594,1015,334.3594" style="stroke: #383838; stroke-width: 1.0;"/><line style="stroke: #383838; stroke-width: 1.0;" x1="1013" x2="1535" y1="334.3594" y2="334.3594"/><text fill="#000000" font-family="Courier" font-size="13" lengthAdjust="spacingAndGlyphs" textLength="176" x="1025" y="329.2935">Fetch check-in request</text><line style="stroke: #383838; stroke-width: 1.0;" x1="1536" x2="1578" y1="363.4922" y2="363.4922"/><line style="stroke: #383838; stroke-width: 1.0;" x1="1578" x2="1578" y1="363.4922" y2="376.4922"/><line style="stroke: #383838; stroke-width: 1.0;" x1="1537" x2="1578" y1="376.4922" y2="376.4922"/><polygon fill="#383838" points="1547,372.4922,1537,376.4922,1547,380.4922,1543,376.4922" style="stroke: #383838; stroke-width: 1.0;"/><text fill="#000000" font-family="Courier" font-size="13" lengthAdjust="spacingAndGlyphs" textLength="232" x="1543" y="358.4263">Check if check-in is possible</text><polygon fill="#383838" points="1019,401.625,1009,405.625,1019,409.625,1015,405.625" style="stroke: #383838; stroke-width: 1.0;"/><line style="stroke: #383838; stroke-width: 1.0;" x1="1013" x2="1535" y1="405.625" y2="405.625"/><text fill="#000000" font-family="Courier" font-size="13" lengthAdjust="spacingAndGlyphs" textLength="168" x="1025" y="400.5591">Move to Data_required</text><polygon fill="#383838" points="111,430.7578,101,434.7578,111,438.7578,107,434.7578" style="stroke: #383838; stroke-width: 1.0;"/><line style="stroke: #383838; stroke-width: 1.0;" x1="105" x2="1007" y1="434.7578" y2="434.7578"/><text fill="#000000" font-family="Courier" font-size="13" lengthAdjust="spacingAndGlyphs" textLength="232" x="117" y="429.6919">Send email asking for details</text><rect fill="#ECECEC" height="38" style="stroke: #383838; stroke-width: 1.0;" width="184" x="8" y="447.7578"/><text fill="#000000" font-family="Courier" font-size="13" lengthAdjust="spacingAndGlyphs" textLength="88" x="12" y="463.8247">End of flow</text><text fill="#000000" font-family="Courier" font-size="13" lengthAdjust="spacingAndGlyphs" textLength="176" x="12" y="478.9575">if user never responds</text><polygon fill="#383838" points="996,508.1563,1006,512.1563,996,516.1563,1000,512.1563" style="stroke: #383838; stroke-width: 1.0;"/><line style="stroke: #383838; stroke-width: 1.0;" x1="100" x2="1002" y1="512.1563" y2="512.1563"/><text fill="#000000" font-family="Courier" font-size="13" lengthAdjust="spacingAndGlyphs" textLength="184" x="107" y="507.0903">Fills out check-in form</text><line style="stroke: #383838; stroke-width: 1.0;" x1="1008" x2="1050" y1="541.2891" y2="541.2891"/><line style="stroke: #383838; stroke-width: 1.0;" x1="1050" x2="1050" y1="541.2891" y2="554.2891"/><line style="stroke: #383838; stroke-width: 1.0;" x1="1009" x2="1050" y1="554.2891" y2="554.2891"/><polygon fill="#383838" points="1019,550.2891,1009,554.2891,1019,558.2891,1015,554.2891" style="stroke: #383838; stroke-width: 1.0;"/><text fill="#000000" font-family="Courier" font-size="13" lengthAdjust="spacingAndGlyphs" textLength="280" x="1015" y="536.2231">Change check-in status to requested</text><polygon fill="#383838" points="1524,579.4219,1534,583.4219,1524,587.4219,1528,583.4219" style="stroke: #383838; stroke-width: 1.0;"/><line style="stroke: #383838; stroke-width: 1.0;" x1="1008" x2="1530" y1="583.4219" y2="583.4219"/><text fill="#000000" font-family="Courier" font-size="13" lengthAdjust="spacingAndGlyphs" textLength="224" x="1015" y="578.356">Webhook for check-in request</text><polygon fill="#383838" points="1019,608.5547,1009,612.5547,1019,616.5547,1015,612.5547" style="stroke: #383838; stroke-width: 1.0;"/><line style="stroke: #383838; stroke-width: 1.0;" x1="1013" x2="1535" y1="612.5547" y2="612.5547"/><text fill="#000000" font-family="Courier" font-size="13" lengthAdjust="spacingAndGlyphs" textLength="176" x="1025" y="607.4888">Fetch check-in request</text><line style="stroke: #383838; stroke-width: 1.0;" x1="1536" x2="1578" y1="641.6875" y2="641.6875"/><line style="stroke: #383838; stroke-width: 1.0;" x1="1578" x2="1578" y1="641.6875" y2="654.6875"/><line style="stroke: #383838; stroke-width: 1.0;" x1="1537" x2="1578" y1="654.6875" y2="654.6875"/><polygon fill="#383838" points="1547,650.6875,1537,654.6875,1547,658.6875,1543,654.6875" style="stroke: #383838; stroke-width: 1.0;"/><text fill="#000000" font-family="Courier" font-size="13" lengthAdjust="spacingAndGlyphs" textLength="504" x="1543" y="636.6216">Checks if information provided is valid, completes pre check-in</text><polygon fill="#383838" points="1019,679.8203,1009,683.8203,1019,687.8203,1015,683.8203" style="stroke: #383838; stroke-width: 1.0;"/><line style="stroke: #383838; stroke-width: 1.0;" x1="1013" x2="1535" y1="683.8203" y2="683.8203"/><text fill="#000000" font-family="Courier" font-size="13" lengthAdjust="spacingAndGlyphs" textLength="504" x="1025" y="678.7544">Send room access info and change check-in to Success or Denied.</text><rect fill="#ECECEC" height="53" style="stroke: #383838; stroke-width: 1.0;" width="240" x="1416" y="696.8203"/><text fill="#000000" font-family="Courier" font-size="13" lengthAdjust="spacingAndGlyphs" textLength="160" x="1420" y="712.8872">Room access info may</text><text fill="#000000" font-family="Courier" font-size="13" lengthAdjust="spacingAndGlyphs" textLength="232" x="1420" y="728.02">include QR codes, door codes,</text><text fill="#000000" font-family="Courier" font-size="13" lengthAdjust="spacingAndGlyphs" textLength="224" x="1420" y="743.1528">directions to the place etc.</text><polygon fill="#383838" points="111,772.3516,101,776.3516,111,780.3516,107,776.3516" style="stroke: #383838; stroke-width: 1.0;"/><line style="stroke: #383838; stroke-width: 1.0;" x1="105" x2="1007" y1="776.3516" y2="776.3516"/><text fill="#000000" font-family="Courier" font-size="13" lengthAdjust="spacingAndGlyphs" textLength="304" x="117" y="771.2856">Send email with confirmation or denial</text><rect fill="#ECECEC" height="38" style="stroke: #383838; stroke-width: 1.0;" width="176" x="12" y="789.3516"/><text fill="#000000" font-family="Courier" font-size="13" lengthAdjust="spacingAndGlyphs" textLength="152" x="16" y="805.4185">Follow instructions</text><text fill="#000000" font-family="Courier" font-size="13" lengthAdjust="spacingAndGlyphs" textLength="168" x="16" y="820.5513">to get access to room</text></g></svg>