<?xml version="1.0" encoding="UTF-8" standalone="no"?><svg xmlns="http://www.w3.org/2000/svg" xmlns:xlink="http://www.w3.org/1999/xlink" contentScriptType="application/ecmascript" contentStyleType="text/css" height="550px" preserveAspectRatio="none" style="width:1067px;height:550px;" version="1.1" viewBox="0 0 1067 550" width="1067px" zoomAndPan="magnify"><defs><filter height="300%" id="f1qwsbrilgxfyd" width="300%" x="-1" y="-1"><feGaussianBlur result="blurOut" stdDeviation="2.0"/><feColorMatrix in="blurOut" result="blurOut2" type="matrix" values="0 0 0 0 0 0 0 0 0 0 0 0 0 0 0 0 0 0 .4 0"/><feOffset dx="4.0" dy="4.0" in="blurOut2" result="blurOut3"/><feBlend in="SourceGraphic" in2="blurOut3" mode="normal"/></filter></defs><g><rect fill="#FFFFFF" filter="url(#f1qwsbrilgxfyd)" height="364" style="stroke: #000000; stroke-width: 1.5;" width="813" x="30" y="32"/><text fill="#000000" font-family="sans-serif" font-size="14" font-weight="bold" lengthAdjust="spacingAndGlyphs" textLength="117" x="378" y="47.5352">Local Guide APK</text><rect fill="#FFFFFF" filter="url(#f1qwsbrilgxfyd)" height="281" style="stroke: #000000; stroke-width: 1.5;" width="741" x="62" y="83"/><rect fill="#FFFFFF" height="10" style="stroke: #000000; stroke-width: 1.5;" width="15" x="783" y="88"/><rect fill="#FFFFFF" height="2" style="stroke: #000000; stroke-width: 1.5;" width="4" x="781" y="90"/><rect fill="#FFFFFF" height="2" style="stroke: #000000; stroke-width: 1.5;" width="4" x="781" y="94"/><text fill="#000000" font-family="sans-serif" font-size="14" font-weight="bold" lengthAdjust="spacingAndGlyphs" textLength="95" x="385" y="109.5352">UserInterface</text><rect fill="#FFFFFF" filter="url(#f1qwsbrilgxfyd)" height="87" style="stroke: #000000; stroke-width: 1.5;" width="209" x="570" y="126"/><rect fill="#FFFFFF" height="10" style="stroke: #000000; stroke-width: 1.5;" width="15" x="759" y="131"/><rect fill="#FFFFFF" height="2" style="stroke: #000000; stroke-width: 1.5;" width="4" x="757" y="133"/><rect fill="#FFFFFF" height="2" style="stroke: #000000; stroke-width: 1.5;" width="4" x="757" y="137"/><text fill="#000000" font-family="sans-serif" font-size="14" font-weight="bold" lengthAdjust="spacingAndGlyphs" textLength="58" x="645.5" y="152.5352">Services</text><rect fill="#FFFFFF" filter="url(#f1qwsbrilgxfyd)" height="214" style="stroke: #000000; stroke-width: 1.5;" width="211" x="335" y="126"/><rect fill="#FFFFFF" height="10" style="stroke: #000000; stroke-width: 1.5;" width="15" x="526" y="131"/><rect fill="#FFFFFF" height="2" style="stroke: #000000; stroke-width: 1.5;" width="4" x="524" y="133"/><rect fill="#FFFFFF" height="2" style="stroke: #000000; stroke-width: 1.5;" width="4" x="524" y="137"/><text fill="#000000" font-family="sans-serif" font-size="14" font-weight="bold" lengthAdjust="spacingAndGlyphs" textLength="67" x="407" y="152.5352">Browsing</text><rect fill="#FFFFFF" filter="url(#f1qwsbrilgxfyd)" height="214" style="stroke: #000000; stroke-width: 1.5;" width="225" x="86" y="126"/><rect fill="#FFFFFF" height="10" style="stroke: #000000; stroke-width: 1.5;" width="15" x="291" y="131"/><rect fill="#FFFFFF" height="2" style="stroke: #000000; stroke-width: 1.5;" width="4" x="289" y="133"/><rect fill="#FFFFFF" height="2" style="stroke: #000000; stroke-width: 1.5;" width="4" x="289" y="137"/><text fill="#000000" font-family="sans-serif" font-size="14" font-weight="bold" lengthAdjust="spacingAndGlyphs" textLength="83" x="157" y="152.5352">Personalize</text><rect fill="#FFFFFF" filter="url(#f1qwsbrilgxfyd)" height="103" style="stroke: #000000; stroke-width: 1.5;" width="145" x="883" y="245"/><text fill="#000000" font-family="sans-serif" font-size="14" font-weight="bold" lengthAdjust="spacingAndGlyphs" textLength="42" x="934.5" y="260.5352">Cloud</text><rect fill="#FFFFFF" filter="url(#f1qwsbrilgxfyd)" height="103" style="stroke: #000000; stroke-width: 1.5;" width="250" x="746" y="436"/><text fill="#000000" font-family="sans-serif" font-size="14" font-weight="bold" lengthAdjust="spacingAndGlyphs" textLength="30" x="856" y="451.5352">Web</text><rect fill="#FEFECE" filter="url(#f1qwsbrilgxfyd)" height="36.4883" style="stroke: #A80036; stroke-width: 1.5;" width="83" x="679.5" y="161"/><rect fill="#FEFECE" height="5" style="stroke: #A80036; stroke-width: 1.5;" width="10" x="674.5" y="166"/><rect fill="#FEFECE" height="5" style="stroke: #A80036; stroke-width: 1.5;" width="10" x="674.5" y="187.4883"/><text fill="#000000" font-family="sans-serif" font-size="14" lengthAdjust="spacingAndGlyphs" textLength="63" x="689.5" y="184.5352">Bookings</text><rect fill="#FEFECE" filter="url(#f1qwsbrilgxfyd)" height="36.4883" style="stroke: #A80036; stroke-width: 1.5;" width="58" x="586" y="161"/><rect fill="#FEFECE" height="5" style="stroke: #A80036; stroke-width: 1.5;" width="10" x="581" y="166"/><rect fill="#FEFECE" height="5" style="stroke: #A80036; stroke-width: 1.5;" width="10" x="581" y="187.4883"/><text fill="#000000" font-family="sans-serif" font-size="14" lengthAdjust="spacingAndGlyphs" textLength="38" x="596" y="184.5352">Mode</text><rect fill="#FEFECE" filter="url(#f1qwsbrilgxfyd)" height="36.4883" style="stroke: #A80036; stroke-width: 1.5;" width="66" x="351" y="161"/><rect fill="#FEFECE" height="5" style="stroke: #A80036; stroke-width: 1.5;" width="10" x="346" y="166"/><rect fill="#FEFECE" height="5" style="stroke: #A80036; stroke-width: 1.5;" width="10" x="346" y="187.4883"/><text fill="#000000" font-family="sans-serif" font-size="14" lengthAdjust="spacingAndGlyphs" textLength="46" x="361" y="184.5352">Search</text><rect fill="#FEFECE" filter="url(#f1qwsbrilgxfyd)" height="36.4883" style="stroke: #A80036; stroke-width: 1.5;" width="77" x="452.5" y="161"/><rect fill="#FEFECE" height="5" style="stroke: #A80036; stroke-width: 1.5;" width="10" x="447.5" y="166"/><rect fill="#FEFECE" height="5" style="stroke: #A80036; stroke-width: 1.5;" width="10" x="447.5" y="187.4883"/><text fill="#000000" font-family="sans-serif" font-size="14" lengthAdjust="spacingAndGlyphs" textLength="57" x="462.5" y="184.5352">Filtering</text><rect fill="#FEFECE" filter="url(#f1qwsbrilgxfyd)" height="36.4883" style="stroke: #A80036; stroke-width: 1.5;" width="47" x="360.5" y="288"/><rect fill="#FEFECE" height="5" style="stroke: #A80036; stroke-width: 1.5;" width="10" x="355.5" y="293"/><rect fill="#FEFECE" height="5" style="stroke: #A80036; stroke-width: 1.5;" width="10" x="355.5" y="314.4883"/><text fill="#000000" font-family="sans-serif" font-size="14" lengthAdjust="spacingAndGlyphs" textLength="27" x="370.5" y="311.5352">Info</text><rect fill="#FEFECE" filter="url(#f1qwsbrilgxfyd)" height="36.4883" style="stroke: #A80036; stroke-width: 1.5;" width="78" x="443" y="288"/><rect fill="#FEFECE" height="5" style="stroke: #A80036; stroke-width: 1.5;" width="10" x="438" y="293"/><rect fill="#FEFECE" height="5" style="stroke: #A80036; stroke-width: 1.5;" width="10" x="438" y="314.4883"/><text fill="#000000" font-family="sans-serif" font-size="14" lengthAdjust="spacingAndGlyphs" textLength="58" x="453" y="311.5352">Location</text><rect fill="#FEFECE" filter="url(#f1qwsbrilgxfyd)" height="36.4883" style="stroke: #A80036; stroke-width: 1.5;" width="58" x="102" y="161"/><rect fill="#FEFECE" height="5" style="stroke: #A80036; stroke-width: 1.5;" width="10" x="97" y="166"/><rect fill="#FEFECE" height="5" style="stroke: #A80036; stroke-width: 1.5;" width="10" x="97" y="187.4883"/><text fill="#000000" font-family="sans-serif" font-size="14" lengthAdjust="spacingAndGlyphs" textLength="38" x="112" y="184.5352">Login</text><rect fill="#FEFECE" filter="url(#f1qwsbrilgxfyd)" height="36.4883" style="stroke: #A80036; stroke-width: 1.5;" width="100" x="195" y="161"/><rect fill="#FEFECE" height="5" style="stroke: #A80036; stroke-width: 1.5;" width="10" x="190" y="166"/><rect fill="#FEFECE" height="5" style="stroke: #A80036; stroke-width: 1.5;" width="10" x="190" y="187.4883"/><text fill="#000000" font-family="sans-serif" font-size="14" lengthAdjust="spacingAndGlyphs" textLength="80" x="205" y="184.5352">Preferences</text><rect fill="#FEFECE" filter="url(#f1qwsbrilgxfyd)" height="36.4883" style="stroke: #A80036; stroke-width: 1.5;" width="113" x="102.5" y="288"/><rect fill="#FEFECE" height="5" style="stroke: #A80036; stroke-width: 1.5;" width="10" x="97.5" y="293"/><rect fill="#FEFECE" height="5" style="stroke: #A80036; stroke-width: 1.5;" width="10" x="97.5" y="314.4883"/><text fill="#000000" font-family="sans-serif" font-size="14" lengthAdjust="spacingAndGlyphs" textLength="93" x="112.5" y="311.5352">Subscriptions</text><rect fill="#FEFECE" filter="url(#f1qwsbrilgxfyd)" height="36.4883" style="stroke: #A80036; stroke-width: 1.5;" width="78" x="926" y="288"/><rect fill="#FEFECE" height="5" style="stroke: #A80036; stroke-width: 1.5;" width="10" x="921" y="293"/><rect fill="#FEFECE" height="5" style="stroke: #A80036; stroke-width: 1.5;" width="10" x="921" y="314.4883"/><text fill="#000000" font-family="sans-serif" font-size="14" lengthAdjust="spacingAndGlyphs" textLength="58" x="936" y="311.5352">Firebase</text><rect fill="#FEFECE" filter="url(#f1qwsbrilgxfyd)" height="36.4883" style="stroke: #A80036; stroke-width: 1.5;" width="60" x="893" y="479"/><rect fill="#FEFECE" height="5" style="stroke: #A80036; stroke-width: 1.5;" width="10" x="888" y="484"/><rect fill="#FEFECE" height="5" style="stroke: #A80036; stroke-width: 1.5;" width="10" x="888" y="505.4883"/><text fill="#000000" font-family="sans-serif" font-size="14" lengthAdjust="spacingAndGlyphs" textLength="40" x="903" y="502.5352">Stripe</text><rect fill="#FEFECE" filter="url(#f1qwsbrilgxfyd)" height="36.4883" style="stroke: #A80036; stroke-width: 1.5;" width="88" x="770" y="479"/><rect fill="#FEFECE" height="5" style="stroke: #A80036; stroke-width: 1.5;" width="10" x="765" y="484"/><rect fill="#FEFECE" height="5" style="stroke: #A80036; stroke-width: 1.5;" width="10" x="765" y="505.4883"/><text fill="#000000" font-family="sans-serif" font-size="14" lengthAdjust="spacingAndGlyphs" textLength="68" x="780" y="502.5352">Transport</text><path d="M843.0643,198.001 C843.1414,198.173 843.2189,198.3461 843.2968,198.52 C843.6085,199.2157 843.9269,199.9262 844.2514,200.6506 C849.4441,212.2406 856.2281,227.3825 863.0113,242.5225 C869.7944,257.6625 876.5766,272.8006 881.7655,284.3831 C882.0898,285.107 882.4079,285.817 882.7193,286.5123 C882.7972,286.6861 882.8747,286.859 882.9517,287.031 " fill="none" id="q-w" style="stroke: #A80036; stroke-width: 1.0;"/><path d="M843.4008,180.8891 C848.1374,181.4183 854.6688,182.1857 862.4508,183.197 C878.0147,185.2197 898.5806,188.2181 919.7938,192.2387 C962.22,200.28 1007.235,212.41 1020,229 C1055.875,275.615 1048.6825,341.0225 1032.1275,395.4313 C1023.85,422.6356 1013.2319,447.0903 1004.4862,465.0714 C1002.2998,469.5667 1000.2305,473.6574 998.344,477.2852 C997.8723,478.1922 997.4121,479.0703 996.9644,479.9185 C996.7405,480.3426 996.5198,480.7592 996.3022,481.1683 " fill="none" id="q-e" style="stroke: #A80036; stroke-width: 1.0;"/><path d="M898.0077,348.392 C898.176,349.386 898.3463,350.3917 898.5185,351.4082 C899.8956,359.5405 901.3906,368.3691 902.94,377.5187 C909.1375,414.1175 916.205,455.855 920.08,478.73 " fill="none" id="w-r" style="stroke: #A80036; stroke-width: 1.0;"/></g></svg>