<?xml version="1.0" encoding="UTF-8" standalone="no"?><svg xmlns="http://www.w3.org/2000/svg" xmlns:xlink="http://www.w3.org/1999/xlink" contentScriptType="application/ecmascript" contentStyleType="text/css" height="1531px" preserveAspectRatio="none" style="width:2448px;height:1531px;" version="1.1" viewBox="0 0 2448 1531" width="2448px" zoomAndPan="magnify"><defs/><g><text fill="#000000" font-family="Courier" font-size="14" font-weight="bold" lengthAdjust="spacingAndGlyphs" textLength="216" x="1115" y="22.9951">User operates all functions</text><rect fill="#DDDDDD" height="1486.1719" style="stroke: #383838; stroke-width: 1.0;" width="1524" x="4" y="34.2969"/><text fill="#000000" font-family="Courier" font-size="13" font-weight="bold" lengthAdjust="spacingAndGlyphs" textLength="112" x="710" y="46.3638">User Interface</text><line style="stroke: #383838; stroke-width: 1.0; stroke-dasharray: 5.0,5.0;" x1="27" x2="27" y1="132.7266" y2="1438.1719"/><line style="stroke: #383838; stroke-width: 1.0; stroke-dasharray: 5.0,5.0;" x1="355" x2="355" y1="132.7266" y2="1438.1719"/><line style="stroke: #383838; stroke-width: 1.0; stroke-dasharray: 5.0,5.0;" x1="553" x2="553" y1="132.7266" y2="1438.1719"/><line style="stroke: #383838; stroke-width: 1.0; stroke-dasharray: 5.0,5.0;" x1="857" x2="857" y1="132.7266" y2="1438.1719"/><line style="stroke: #383838; stroke-width: 1.0; stroke-dasharray: 5.0,5.0;" x1="933" x2="933" y1="132.7266" y2="1438.1719"/><line style="stroke: #383838; stroke-width: 1.0; stroke-dasharray: 5.0,5.0;" x1="1005" x2="1005" y1="132.7266" y2="1438.1719"/><line style="stroke: #383838; stroke-width: 1.0; stroke-dasharray: 5.0,5.0;" x1="1113" x2="1113" y1="132.7266" y2="1438.1719"/><line style="stroke: #383838; stroke-width: 1.0; stroke-dasharray: 5.0,5.0;" x1="1233" x2="1233" y1="132.7266" y2="1438.1719"/><line style="stroke: #383838; stroke-width: 1.0; stroke-dasharray: 5.0,5.0;" x1="1337" x2="1337" y1="132.7266" y2="1438.1719"/><line style="stroke: #383838; stroke-width: 1.0; stroke-dasharray: 5.0,5.0;" x1="1429" x2="1429" y1="132.7266" y2="1438.1719"/><line style="stroke: #383838; stroke-width: 1.0; stroke-dasharray: 5.0,5.0;" x1="1501" x2="1501" y1="132.7266" y2="1438.1719"/><line style="stroke: #383838; stroke-width: 1.0; stroke-dasharray: 5.0,5.0;" x1="1693" x2="1693" y1="132.7266" y2="1438.1719"/><line style="stroke: #383838; stroke-width: 1.0; stroke-dasharray: 5.0,5.0;" x1="1821" x2="1821" y1="132.7266" y2="1438.1719"/><line style="stroke: #383838; stroke-width: 1.0; stroke-dasharray: 5.0,5.0;" x1="2013" x2="2013" y1="132.7266" y2="1438.1719"/><text fill="#000000" font-family="Courier" font-size="14" lengthAdjust="spacingAndGlyphs" textLength="32" x="8" y="129.4248">user</text><ellipse cx="27" cy="63.4297" fill="#4C4C4C" rx="8" ry="8" style="stroke: #383838; stroke-width: 2.0;"/><path d="M27,71.4297 L27,98.4297 M14,79.4297 L40,79.4297 M27,98.4297 L14,113.4297 M27,98.4297 L40,113.4297 " fill="none" style="stroke: #383838; stroke-width: 2.0;"/><text fill="#000000" font-family="Courier" font-size="14" lengthAdjust="spacingAndGlyphs" textLength="32" x="8" y="1450.167">user</text><ellipse cx="27" cy="1463.4688" fill="#4C4C4C" rx="8" ry="8" style="stroke: #383838; stroke-width: 2.0;"/><path d="M27,1471.4688 L27,1498.4688 M14,1479.4688 L40,1479.4688 M27,1498.4688 L14,1513.4688 M27,1498.4688 L40,1513.4688 " fill="none" style="stroke: #383838; stroke-width: 2.0;"/><rect fill="#F8F8F8" height="30.2969" style="stroke: #383838; stroke-width: 1.5;" width="54" x="328" y="101.4297"/><text fill="#000000" font-family="Courier" font-size="14" lengthAdjust="spacingAndGlyphs" textLength="40" x="335" y="121.4248">Login</text><rect fill="#F8F8F8" height="30.2969" style="stroke: #383838; stroke-width: 1.5;" width="54" x="328" y="1437.1719"/><text fill="#000000" font-family="Courier" font-size="14" lengthAdjust="spacingAndGlyphs" textLength="40" x="335" y="1457.167">Login</text><rect fill="#F8F8F8" height="30.2969" style="stroke: #383838; stroke-width: 1.5;" width="62" x="522" y="101.4297"/><text fill="#000000" font-family="Courier" font-size="14" lengthAdjust="spacingAndGlyphs" textLength="48" x="529" y="121.4248">Search</text><rect fill="#F8F8F8" height="30.2969" style="stroke: #383838; stroke-width: 1.5;" width="62" x="522" y="1437.1719"/><text fill="#000000" font-family="Courier" font-size="14" lengthAdjust="spacingAndGlyphs" textLength="48" x="529" y="1457.167">Search</text><rect fill="#F8F8F8" height="30.2969" style="stroke: #383838; stroke-width: 1.5;" width="86" x="814" y="101.4297"/><text fill="#000000" font-family="Courier" font-size="14" lengthAdjust="spacingAndGlyphs" textLength="72" x="821" y="121.4248">Filtering</text><rect fill="#F8F8F8" height="30.2969" style="stroke: #383838; stroke-width: 1.5;" width="86" x="814" y="1437.1719"/><text fill="#000000" font-family="Courier" font-size="14" lengthAdjust="spacingAndGlyphs" textLength="72" x="821" y="1457.167">Filtering</text><rect fill="#F8F8F8" height="30.2969" style="stroke: #383838; stroke-width: 1.5;" width="46" x="910" y="101.4297"/><text fill="#000000" font-family="Courier" font-size="14" lengthAdjust="spacingAndGlyphs" textLength="32" x="917" y="121.4248">Info</text><rect fill="#F8F8F8" height="30.2969" style="stroke: #383838; stroke-width: 1.5;" width="46" x="910" y="1437.1719"/><text fill="#000000" font-family="Courier" font-size="14" lengthAdjust="spacingAndGlyphs" textLength="32" x="917" y="1457.167">Info</text><rect fill="#F8F8F8" height="30.2969" style="stroke: #383838; stroke-width: 1.5;" width="78" x="966" y="101.4297"/><text fill="#000000" font-family="Courier" font-size="14" lengthAdjust="spacingAndGlyphs" textLength="64" x="973" y="121.4248">Location</text><rect fill="#F8F8F8" height="30.2969" style="stroke: #383838; stroke-width: 1.5;" width="78" x="966" y="1437.1719"/><text fill="#000000" font-family="Courier" font-size="14" lengthAdjust="spacingAndGlyphs" textLength="64" x="973" y="1457.167">Location</text><rect fill="#F8F8F8" height="30.2969" style="stroke: #383838; stroke-width: 1.5;" width="118" x="1054" y="101.4297"/><text fill="#000000" font-family="Courier" font-size="14" lengthAdjust="spacingAndGlyphs" textLength="104" x="1061" y="121.4248">Subscriptions</text><rect fill="#F8F8F8" height="30.2969" style="stroke: #383838; stroke-width: 1.5;" width="118" x="1054" y="1437.1719"/><text fill="#000000" font-family="Courier" font-size="14" lengthAdjust="spacingAndGlyphs" textLength="104" x="1061" y="1457.167">Subscriptions</text><rect fill="#F8F8F8" height="30.2969" style="stroke: #383838; stroke-width: 1.5;" width="102" x="1182" y="101.4297"/><text fill="#000000" font-family="Courier" font-size="14" lengthAdjust="spacingAndGlyphs" textLength="88" x="1189" y="121.4248">Preferences</text><rect fill="#F8F8F8" height="30.2969" style="stroke: #383838; stroke-width: 1.5;" width="102" x="1182" y="1437.1719"/><text fill="#000000" font-family="Courier" font-size="14" lengthAdjust="spacingAndGlyphs" textLength="88" x="1189" y="1457.167">Preferences</text><rect fill="#F8F8F8" height="30.2969" style="stroke: #383838; stroke-width: 1.5;" width="86" x="1294" y="101.4297"/><text fill="#000000" font-family="Courier" font-size="14" lengthAdjust="spacingAndGlyphs" textLength="72" x="1301" y="121.4248">Transport</text><rect fill="#F8F8F8" height="30.2969" style="stroke: #383838; stroke-width: 1.5;" width="86" x="1294" y="1437.1719"/><text fill="#000000" font-family="Courier" font-size="14" lengthAdjust="spacingAndGlyphs" textLength="72" x="1301" y="1457.167">Transport</text><rect fill="#F8F8F8" height="30.2969" style="stroke: #383838; stroke-width: 1.5;" width="78" x="1390" y="101.4297"/><text fill="#000000" font-family="Courier" font-size="14" lengthAdjust="spacingAndGlyphs" textLength="64" x="1397" y="121.4248">Bookings</text><rect fill="#F8F8F8" height="30.2969" style="stroke: #383838; stroke-width: 1.5;" width="78" x="1390" y="1437.1719"/><text fill="#000000" font-family="Courier" font-size="14" lengthAdjust="spacingAndGlyphs" textLength="64" x="1397" y="1457.167">Bookings</text><rect fill="#F8F8F8" height="30.2969" style="stroke: #383838; stroke-width: 1.5;" width="46" x="1478" y="101.4297"/><text fill="#000000" font-family="Courier" font-size="14" lengthAdjust="spacingAndGlyphs" textLength="32" x="1485" y="121.4248">Mode</text><rect fill="#F8F8F8" height="30.2969" style="stroke: #383838; stroke-width: 1.5;" width="46" x="1478" y="1437.1719"/><text fill="#000000" font-family="Courier" font-size="14" lengthAdjust="spacingAndGlyphs" textLength="32" x="1485" y="1457.167">Mode</text><rect fill="#F8F8F8" height="30.2969" style="stroke: #383838; stroke-width: 1.5;" width="134" x="1626" y="101.4297"/><text fill="#000000" font-family="Courier" font-size="14" lengthAdjust="spacingAndGlyphs" textLength="120" x="1633" y="121.4248">Payment Gateway</text><rect fill="#F8F8F8" height="30.2969" style="stroke: #383838; stroke-width: 1.5;" width="134" x="1626" y="1437.1719"/><text fill="#000000" font-family="Courier" font-size="14" lengthAdjust="spacingAndGlyphs" textLength="120" x="1633" y="1457.167">Payment Gateway</text><rect fill="#F8F8F8" height="30.2969" style="stroke: #383838; stroke-width: 1.5;" width="102" x="1770" y="101.4297"/><text fill="#000000" font-family="Courier" font-size="14" lengthAdjust="spacingAndGlyphs" textLength="88" x="1777" y="121.4248">ExternalAPI</text><rect fill="#F8F8F8" height="30.2969" style="stroke: #383838; stroke-width: 1.5;" width="102" x="1770" y="1437.1719"/><text fill="#000000" font-family="Courier" font-size="14" lengthAdjust="spacingAndGlyphs" textLength="88" x="1777" y="1457.167">ExternalAPI</text><text fill="#000000" font-family="Courier" font-size="14" lengthAdjust="spacingAndGlyphs" textLength="64" x="1978" y="129.4248">Firebase</text><path d="M1995,80.4297 C1995,70.4297 2013,70.4297 2013,70.4297 C2013,70.4297 2031,70.4297 2031,80.4297 L2031,106.4297 C2031,116.4297 2013,116.4297 2013,116.4297 C2013,116.4297 1995,116.4297 1995,106.4297 L1995,80.4297 " fill="#7F7F7F" style="stroke: #000000; stroke-width: 1.5;"/><path d="M1995,80.4297 C1995,90.4297 2013,90.4297 2013,90.4297 C2013,90.4297 2031,90.4297 2031,80.4297 " fill="none" style="stroke: #000000; stroke-width: 1.5;"/><text fill="#000000" font-family="Courier" font-size="14" lengthAdjust="spacingAndGlyphs" textLength="64" x="1978" y="1450.167">Firebase</text><path d="M1995,1463.4688 C1995,1453.4688 2013,1453.4688 2013,1453.4688 C2013,1453.4688 2031,1453.4688 2031,1463.4688 L2031,1489.4688 C2031,1499.4688 2013,1499.4688 2013,1499.4688 C2013,1499.4688 1995,1499.4688 1995,1489.4688 L1995,1463.4688 " fill="#7F7F7F" style="stroke: #000000; stroke-width: 1.5;"/><path d="M1995,1463.4688 C1995,1473.4688 2013,1473.4688 2013,1473.4688 C2013,1473.4688 2031,1473.4688 2031,1463.4688 " fill="none" style="stroke: #000000; stroke-width: 1.5;"/><polygon fill="#383838" points="343,159.8594,353,163.8594,343,167.8594,347,163.8594" style="stroke: #383838; stroke-width: 1.0;"/><line style="stroke: #383838; stroke-width: 1.0;" x1="27" x2="349" y1="163.8594" y2="163.8594"/><text fill="#000000" font-family="Courier" font-size="13" lengthAdjust="spacingAndGlyphs" textLength="304" x="34" y="158.7935">User inputs authentication credentials</text><polygon fill="#383838" points="2001,188.9922,2011,192.9922,2001,196.9922,2005,192.9922" style="stroke: #383838; stroke-width: 1.0;"/><line style="stroke: #383838; stroke-width: 1.0;" x1="355" x2="2007" y1="192.9922" y2="192.9922"/><text fill="#000000" font-family="Courier" font-size="13" lengthAdjust="spacingAndGlyphs" textLength="160" x="362" y="187.9263">Begin Authentication</text><line style="stroke: #383838; stroke-width: 1.0;" x1="2013" x2="2055" y1="222.125" y2="222.125"/><line style="stroke: #383838; stroke-width: 1.0;" x1="2055" x2="2055" y1="222.125" y2="235.125"/><line style="stroke: #383838; stroke-width: 1.0;" x1="2014" x2="2055" y1="235.125" y2="235.125"/><polygon fill="#383838" points="2024,231.125,2014,235.125,2024,239.125,2020,235.125" style="stroke: #383838; stroke-width: 1.0;"/><text fill="#000000" font-family="Courier" font-size="13" lengthAdjust="spacingAndGlyphs" textLength="376" x="2020" y="217.0591">Pass credentials to Firebase Authentication SDK</text><line style="stroke: #383838; stroke-width: 1.0;" x1="2013" x2="2055" y1="264.2578" y2="264.2578"/><line style="stroke: #383838; stroke-width: 1.0;" x1="2055" x2="2055" y1="264.2578" y2="277.2578"/><line style="stroke: #383838; stroke-width: 1.0;" x1="2014" x2="2055" y1="277.2578" y2="277.2578"/><polygon fill="#383838" points="2024,273.2578,2014,277.2578,2024,281.2578,2020,277.2578" style="stroke: #383838; stroke-width: 1.0;"/><text fill="#000000" font-family="Courier" font-size="13" lengthAdjust="spacingAndGlyphs" textLength="224" x="2020" y="259.1919">Backend verifies credentials</text><polygon fill="#383838" points="366,302.3906,356,306.3906,366,310.3906,362,306.3906" style="stroke: #383838; stroke-width: 1.0;"/><line style="stroke: #383838; stroke-width: 1.0;" x1="360" x2="2012" y1="306.3906" y2="306.3906"/><text fill="#000000" font-family="Courier" font-size="13" lengthAdjust="spacingAndGlyphs" textLength="248" x="372" y="301.3247">User successfully authenticated</text><line style="stroke: #383838; stroke-width: 1.0;" x1="355" x2="397" y1="335.5234" y2="335.5234"/><line style="stroke: #383838; stroke-width: 1.0;" x1="397" x2="397" y1="335.5234" y2="348.5234"/><line style="stroke: #383838; stroke-width: 1.0;" x1="356" x2="397" y1="348.5234" y2="348.5234"/><polygon fill="#383838" points="366,344.5234,356,348.5234,366,352.5234,362,348.5234" style="stroke: #383838; stroke-width: 1.0;"/><text fill="#000000" font-family="Courier" font-size="13" lengthAdjust="spacingAndGlyphs" textLength="184" x="362" y="330.4575">Display welcome message</text><polygon fill="#383838" points="1489,373.6563,1499,377.6563,1489,381.6563,1493,377.6563" style="stroke: #383838; stroke-width: 1.0;"/><line style="stroke: #383838; stroke-width: 1.0;" x1="27" x2="1495" y1="377.6563" y2="377.6563"/><text fill="#000000" font-family="Courier" font-size="13" lengthAdjust="spacingAndGlyphs" textLength="176" x="34" y="372.5903">Selects traveller mode</text><polygon fill="#383838" points="2001,402.7891,2011,406.7891,2001,410.7891,2005,406.7891" style="stroke: #383838; stroke-width: 1.0;"/><line style="stroke: #383838; stroke-width: 1.0;" x1="1501" x2="2007" y1="406.7891" y2="406.7891"/><text fill="#000000" font-family="Courier" font-size="13" lengthAdjust="spacingAndGlyphs" textLength="192" x="1508" y="401.7231">Request send to database</text><line style="stroke: #383838; stroke-width: 1.0;" x1="2013" x2="2055" y1="435.9219" y2="435.9219"/><line style="stroke: #383838; stroke-width: 1.0;" x1="2055" x2="2055" y1="435.9219" y2="448.9219"/><line style="stroke: #383838; stroke-width: 1.0;" x1="2014" x2="2055" y1="448.9219" y2="448.9219"/><polygon fill="#383838" points="2024,444.9219,2014,448.9219,2024,452.9219,2020,448.9219" style="stroke: #383838; stroke-width: 1.0;"/><text fill="#000000" font-family="Courier" font-size="13" lengthAdjust="spacingAndGlyphs" textLength="304" x="2020" y="430.856">Add user mode to relevant column in db</text><line style="stroke: #383838; stroke-width: 1.0;" x1="2013" x2="2055" y1="478.0547" y2="478.0547"/><line style="stroke: #383838; stroke-width: 1.0;" x1="2055" x2="2055" y1="478.0547" y2="491.0547"/><line style="stroke: #383838; stroke-width: 1.0;" x1="2014" x2="2055" y1="491.0547" y2="491.0547"/><polygon fill="#383838" points="2024,487.0547,2014,491.0547,2024,495.0547,2020,491.0547" style="stroke: #383838; stroke-width: 1.0;"/><text fill="#000000" font-family="Courier" font-size="13" lengthAdjust="spacingAndGlyphs" textLength="184" x="2020" y="472.9888">Save column information</text><polygon fill="#383838" points="38,516.1875,28,520.1875,38,524.1875,34,520.1875" style="stroke: #383838; stroke-width: 1.0;"/><line style="stroke: #383838; stroke-width: 1.0;" x1="32" x2="2012" y1="520.1875" y2="520.1875"/><text fill="#000000" font-family="Courier" font-size="13" lengthAdjust="spacingAndGlyphs" textLength="256" x="44" y="515.1216">Display relevant screens to user</text><polygon fill="#383838" points="541,545.3203,551,549.3203,541,553.3203,545,549.3203" style="stroke: #383838; stroke-width: 1.0;"/><line style="stroke: #383838; stroke-width: 1.0;" x1="27" x2="547" y1="549.3203" y2="549.3203"/><text fill="#000000" font-family="Courier" font-size="13" lengthAdjust="spacingAndGlyphs" textLength="232" x="34" y="544.2544">User browses through category</text><polygon fill="#383838" points="921,574.4531,931,578.4531,921,582.4531,925,578.4531" style="stroke: #383838; stroke-width: 1.0;"/><line style="stroke: #383838; stroke-width: 1.0;" x1="27" x2="927" y1="578.4531" y2="578.4531"/><text fill="#000000" font-family="Courier" font-size="13" lengthAdjust="spacingAndGlyphs" textLength="240" x="34" y="573.3872">User clicks on additional info</text><polygon fill="#383838" points="1809,603.5859,1819,607.5859,1809,611.5859,1813,607.5859" style="stroke: #383838; stroke-width: 1.0;"/><line style="stroke: #383838; stroke-width: 1.0;" x1="933" x2="1815" y1="607.5859" y2="607.5859"/><text fill="#000000" font-family="Courier" font-size="13" lengthAdjust="spacingAndGlyphs" textLength="432" x="940" y="602.52">The links are opened in the browser using relevant API</text><polygon fill="#383838" points="38,632.7188,28,636.7188,38,640.7188,34,636.7188" style="stroke: #383838; stroke-width: 1.0;"/><line style="stroke: #383838; stroke-width: 1.0;" x1="32" x2="1820" y1="636.7188" y2="636.7188"/><text fill="#000000" font-family="Courier" font-size="13" lengthAdjust="spacingAndGlyphs" textLength="232" x="44" y="631.6528">Results are displayed to user</text><polygon fill="#383838" points="993,661.8516,1003,665.8516,993,669.8516,997,665.8516" style="stroke: #383838; stroke-width: 1.0;"/><line style="stroke: #383838; stroke-width: 1.0;" x1="27" x2="999" y1="665.8516" y2="665.8516"/><text fill="#000000" font-family="Courier" font-size="13" lengthAdjust="spacingAndGlyphs" textLength="224" x="34" y="660.7856">Directions button is clicked</text><polygon fill="#383838" points="2001,690.9844,2011,694.9844,2001,698.9844,2005,694.9844" style="stroke: #383838; stroke-width: 1.0;"/><line style="stroke: #383838; stroke-width: 1.0;" x1="1005" x2="2007" y1="694.9844" y2="694.9844"/><text fill="#000000" font-family="Courier" font-size="13" lengthAdjust="spacingAndGlyphs" textLength="240" x="1012" y="689.9185">Sends requests for coordinates</text><polygon fill="#383838" points="1016,720.1172,1006,724.1172,1016,728.1172,1012,724.1172" style="stroke: #383838; stroke-width: 1.0;"/><line style="stroke: #383838; stroke-width: 1.0; stroke-dasharray: 2.0,2.0;" x1="1010" x2="2012" y1="724.1172" y2="724.1172"/><text fill="#000000" font-family="Courier" font-size="13" lengthAdjust="spacingAndGlyphs" textLength="168" x="1022" y="719.0513">Coordinates retrieved</text><polygon fill="#383838" points="1809,749.25,1819,753.25,1809,757.25,1813,753.25" style="stroke: #383838; stroke-width: 1.0;"/><line style="stroke: #383838; stroke-width: 1.0;" x1="1005" x2="1815" y1="753.25" y2="753.25"/><text fill="#000000" font-family="Courier" font-size="13" lengthAdjust="spacingAndGlyphs" textLength="128" x="1012" y="748.1841">Request Maps API</text><polygon fill="#383838" points="38,778.3828,28,782.3828,38,786.3828,34,782.3828" style="stroke: #383838; stroke-width: 1.0;"/><line style="stroke: #383838; stroke-width: 1.0;" x1="32" x2="1820" y1="782.3828" y2="782.3828"/><text fill="#000000" font-family="Courier" font-size="13" lengthAdjust="spacingAndGlyphs" textLength="128" x="44" y="777.3169">Display Location</text><polygon fill="#383838" points="541,807.5156,551,811.5156,541,815.5156,545,811.5156" style="stroke: #383838; stroke-width: 1.0;"/><line style="stroke: #383838; stroke-width: 1.0;" x1="27" x2="547" y1="811.5156" y2="811.5156"/><text fill="#000000" font-family="Courier" font-size="13" lengthAdjust="spacingAndGlyphs" textLength="216" x="34" y="806.4497">User selects transportation</text><line style="stroke: #383838; stroke-width: 1.0;" x1="553" x2="595" y1="840.6484" y2="840.6484"/><line style="stroke: #383838; stroke-width: 1.0;" x1="595" x2="595" y1="840.6484" y2="853.6484"/><line style="stroke: #383838; stroke-width: 1.0;" x1="554" x2="595" y1="853.6484" y2="853.6484"/><polygon fill="#383838" points="564,849.6484,554,853.6484,564,857.6484,560,853.6484" style="stroke: #383838; stroke-width: 1.0;"/><text fill="#000000" font-family="Courier" font-size="13" lengthAdjust="spacingAndGlyphs" textLength="168" x="560" y="835.5825">Return sub categories</text><polygon fill="#383838" points="541,878.7813,551,882.7813,541,886.7813,545,882.7813" style="stroke: #383838; stroke-width: 1.0;"/><line style="stroke: #383838; stroke-width: 1.0;" x1="27" x2="547" y1="882.7813" y2="882.7813"/><text fill="#000000" font-family="Courier" font-size="13" lengthAdjust="spacingAndGlyphs" textLength="400" x="34" y="877.7153">user clicks on bus, adds filter offers for tickets</text><polygon fill="#383838" points="845,907.9141,855,911.9141,845,915.9141,849,911.9141" style="stroke: #383838; stroke-width: 1.0;"/><line style="stroke: #383838; stroke-width: 1.0;" x1="553" x2="851" y1="911.9141" y2="911.9141"/><text fill="#000000" font-family="Courier" font-size="13" lengthAdjust="spacingAndGlyphs" textLength="280" x="560" y="906.8481">Filtering called to display results</text><polygon fill="#383838" points="38,937.0469,28,941.0469,38,945.0469,34,941.0469" style="stroke: #383838; stroke-width: 1.0;"/><line style="stroke: #383838; stroke-width: 1.0;" x1="32" x2="856" y1="941.0469" y2="941.0469"/><text fill="#000000" font-family="Courier" font-size="13" lengthAdjust="spacingAndGlyphs" textLength="168" x="44" y="935.981">Display ticket offers</text><polygon fill="#383838" points="1325,966.1797,1335,970.1797,1325,974.1797,1329,970.1797" style="stroke: #383838; stroke-width: 1.0;"/><line style="stroke: #383838; stroke-width: 1.0;" x1="27" x2="1331" y1="970.1797" y2="970.1797"/><text fill="#000000" font-family="Courier" font-size="13" lengthAdjust="spacingAndGlyphs" textLength="304" x="34" y="965.1138">Selects offer, request for valid route</text><polygon fill="#383838" points="38,995.3125,28,999.3125,38,1003.3125,34,999.3125" style="stroke: #383838; stroke-width: 1.0;"/><line style="stroke: #383838; stroke-width: 1.0;" x1="32" x2="1336" y1="999.3125" y2="999.3125"/><text fill="#000000" font-family="Courier" font-size="13" lengthAdjust="spacingAndGlyphs" textLength="200" x="44" y="994.2466">Display applicable routes</text><polygon fill="#383838" points="1417,1024.4453,1427,1028.4453,1417,1032.4453,1421,1028.4453" style="stroke: #383838; stroke-width: 1.0;"/><line style="stroke: #383838; stroke-width: 1.0;" x1="27" x2="1423" y1="1028.4453" y2="1028.4453"/><text fill="#000000" font-family="Courier" font-size="13" lengthAdjust="spacingAndGlyphs" textLength="200" x="34" y="1023.3794">User clicks on buy ticket</text><polygon fill="#383838" points="1681,1053.5781,1691,1057.5781,1681,1061.5781,1685,1057.5781" style="stroke: #383838; stroke-width: 1.0;"/><line style="stroke: #383838; stroke-width: 1.0;" x1="1429" x2="1687" y1="1057.5781" y2="1057.5781"/><text fill="#000000" font-family="Courier" font-size="13" lengthAdjust="spacingAndGlyphs" textLength="240" x="1436" y="1052.5122">Transaction initiated for user</text><polygon fill="#383838" points="2001,1082.7109,2011,1086.7109,2001,1090.7109,2005,1086.7109" style="stroke: #383838; stroke-width: 1.0;"/><line style="stroke: #383838; stroke-width: 1.0;" x1="1693" x2="2007" y1="1086.7109" y2="1086.7109"/><text fill="#000000" font-family="Courier" font-size="13" lengthAdjust="spacingAndGlyphs" textLength="296" x="1700" y="1081.645">Details stored under relevant user id</text><polygon fill="#383838" points="38,1111.8438,28,1115.8438,38,1119.8438,34,1115.8438" style="stroke: #383838; stroke-width: 1.0;"/><line style="stroke: #383838; stroke-width: 1.0;" x1="32" x2="1692" y1="1115.8438" y2="1115.8438"/><text fill="#000000" font-family="Courier" font-size="13" lengthAdjust="spacingAndGlyphs" textLength="168" x="44" y="1110.7778">Transaction succesful</text><polygon fill="#383838" points="1221,1140.9766,1231,1144.9766,1221,1148.9766,1225,1144.9766" style="stroke: #383838; stroke-width: 1.0;"/><line style="stroke: #383838; stroke-width: 1.0;" x1="27" x2="1227" y1="1144.9766" y2="1144.9766"/><text fill="#000000" font-family="Courier" font-size="13" lengthAdjust="spacingAndGlyphs" textLength="192" x="34" y="1139.9106">Sync preferences enabled</text><polygon fill="#383838" points="2001,1170.1094,2011,1174.1094,2001,1178.1094,2005,1174.1094" style="stroke: #383838; stroke-width: 1.0;"/><line style="stroke: #383838; stroke-width: 1.0;" x1="1233" x2="2007" y1="1174.1094" y2="1174.1094"/><text fill="#000000" font-family="Courier" font-size="13" lengthAdjust="spacingAndGlyphs" textLength="208" x="1240" y="1169.0435">Wishlist saved in database</text><polygon fill="#383838" points="1244,1199.2422,1234,1203.2422,1244,1207.2422,1240,1203.2422" style="stroke: #383838; stroke-width: 1.0;"/><line style="stroke: #383838; stroke-width: 1.0; stroke-dasharray: 2.0,2.0;" x1="1238" x2="2012" y1="1203.2422" y2="1203.2422"/><text fill="#000000" font-family="Courier" font-size="13" lengthAdjust="spacingAndGlyphs" textLength="120" x="1250" y="1198.1763">Save successful</text><line style="stroke: #383838; stroke-width: 1.0;" x1="2013" x2="2055" y1="1232.375" y2="1232.375"/><line style="stroke: #383838; stroke-width: 1.0;" x1="2055" x2="2055" y1="1232.375" y2="1245.375"/><line style="stroke: #383838; stroke-width: 1.0;" x1="2014" x2="2055" y1="1245.375" y2="1245.375"/><polygon fill="#383838" points="2024,1241.375,2014,1245.375,2024,1249.375,2020,1245.375" style="stroke: #383838; stroke-width: 1.0;"/><text fill="#000000" font-family="Courier" font-size="13" lengthAdjust="spacingAndGlyphs" textLength="416" x="2020" y="1227.3091">notifies shop owner through firebase cloud messaging</text><polygon fill="#383838" points="38,1270.5078,28,1274.5078,38,1278.5078,34,1274.5078" style="stroke: #383838; stroke-width: 1.0;"/><line style="stroke: #383838; stroke-width: 1.0;" x1="32" x2="2012" y1="1274.5078" y2="1274.5078"/><text fill="#000000" font-family="Courier" font-size="13" lengthAdjust="spacingAndGlyphs" textLength="328" x="44" y="1269.4419">Alert generation activated for new offers</text><polygon fill="#383838" points="1101,1299.6406,1111,1303.6406,1101,1307.6406,1105,1303.6406" style="stroke: #383838; stroke-width: 1.0;"/><line style="stroke: #383838; stroke-width: 1.0;" x1="27" x2="1107" y1="1303.6406" y2="1303.6406"/><text fill="#000000" font-family="Courier" font-size="13" lengthAdjust="spacingAndGlyphs" textLength="344" x="34" y="1298.5747">browses through monthly subscription offers</text><polygon fill="#383838" points="1101,1328.7734,1111,1332.7734,1101,1336.7734,1105,1332.7734" style="stroke: #383838; stroke-width: 1.0;"/><line style="stroke: #383838; stroke-width: 1.0;" x1="27" x2="1107" y1="1332.7734" y2="1332.7734"/><text fill="#000000" font-family="Courier" font-size="13" lengthAdjust="spacingAndGlyphs" textLength="248" x="34" y="1327.7075">Selects subscription for a shop</text><polygon fill="#383838" points="1681,1357.9063,1691,1361.9063,1681,1365.9063,1685,1361.9063" style="stroke: #383838; stroke-width: 1.0;"/><line style="stroke: #383838; stroke-width: 1.0;" x1="1113" x2="1687" y1="1361.9063" y2="1361.9063"/><text fill="#000000" font-family="Courier" font-size="13" lengthAdjust="spacingAndGlyphs" textLength="184" x="1120" y="1356.8403">Payment process started</text><polygon fill="#383838" points="2001,1387.0391,2011,1391.0391,2001,1395.0391,2005,1391.0391" style="stroke: #383838; stroke-width: 1.0;"/><line style="stroke: #383838; stroke-width: 1.0;" x1="1693" x2="2007" y1="1391.0391" y2="1391.0391"/><text fill="#000000" font-family="Courier" font-size="13" lengthAdjust="spacingAndGlyphs" textLength="280" x="1700" y="1385.9731">Details stored under subscriptionid</text><polygon fill="#383838" points="38,1416.1719,28,1420.1719,38,1424.1719,34,1420.1719" style="stroke: #383838; stroke-width: 1.0;"/><line style="stroke: #383838; stroke-width: 1.0;" x1="32" x2="1692" y1="1420.1719" y2="1420.1719"/><text fill="#000000" font-family="Courier" font-size="13" lengthAdjust="spacingAndGlyphs" textLength="184" x="44" y="1415.106">Subscribed successfully</text></g></svg>