<?xml version="1.0" encoding="UTF-8" standalone="no"?><svg xmlns="http://www.w3.org/2000/svg" xmlns:xlink="http://www.w3.org/1999/xlink" contentScriptType="application/ecmascript" contentStyleType="text/css" height="400px" preserveAspectRatio="none" style="width:1293px;height:400px;" version="1.1" viewBox="0 0 1293 400" width="1293px" zoomAndPan="magnify"><defs><filter height="300%" id="fq3ratqtzo71y" width="300%" x="-1" y="-1"><feGaussianBlur result="blurOut" stdDeviation="2.0"/><feColorMatrix in="blurOut" result="blurOut2" type="matrix" values="0 0 0 0 0 0 0 0 0 0 0 0 0 0 0 0 0 0 .4 0"/><feOffset dx="4.0" dy="4.0" in="blurOut2" result="blurOut3"/><feBlend in="SourceGraphic" in2="blurOut3" mode="normal"/></filter></defs><g><rect fill="#FFFFFF" filter="url(#fq3ratqtzo71y)" height="195" style="stroke: #000000; stroke-width: 1.5;" width="163" x="22" y="194"/><rect fill="#FFFFFF" height="10" style="stroke: #000000; stroke-width: 1.5;" width="15" x="165" y="199"/><rect fill="#FFFFFF" height="2" style="stroke: #000000; stroke-width: 1.5;" width="4" x="163" y="201"/><rect fill="#FFFFFF" height="2" style="stroke: #000000; stroke-width: 1.5;" width="4" x="163" y="205"/><text fill="#000000" font-family="sans-serif" font-size="14" font-weight="bold" lengthAdjust="spacingAndGlyphs" textLength="107" x="50" y="220.5352">FirebaseHelper</text><rect fill="#FFFFFF" filter="url(#fq3ratqtzo71y)" height="281" style="stroke: #000000; stroke-width: 1.5;" width="765" x="353" y="32"/><rect fill="#FFFFFF" height="10" style="stroke: #000000; stroke-width: 1.5;" width="15" x="1098" y="37"/><rect fill="#FFFFFF" height="2" style="stroke: #000000; stroke-width: 1.5;" width="4" x="1096" y="39"/><rect fill="#FFFFFF" height="2" style="stroke: #000000; stroke-width: 1.5;" width="4" x="1096" y="43"/><text fill="#000000" font-family="sans-serif" font-size="14" font-weight="bold" lengthAdjust="spacingAndGlyphs" textLength="95" x="688" y="58.5352">UserInterface</text><rect fill="#FFFFFF" filter="url(#fq3ratqtzo71y)" height="87" style="stroke: #000000; stroke-width: 1.5;" width="209" x="877" y="83"/><rect fill="#FFFFFF" height="10" style="stroke: #000000; stroke-width: 1.5;" width="15" x="1066" y="88"/><rect fill="#FFFFFF" height="2" style="stroke: #000000; stroke-width: 1.5;" width="4" x="1064" y="90"/><rect fill="#FFFFFF" height="2" style="stroke: #000000; stroke-width: 1.5;" width="4" x="1064" y="94"/><text fill="#000000" font-family="sans-serif" font-size="14" font-weight="bold" lengthAdjust="spacingAndGlyphs" textLength="58" x="952.5" y="109.5352">Services</text><rect fill="#FFFFFF" filter="url(#fq3ratqtzo71y)" height="198" style="stroke: #000000; stroke-width: 1.5;" width="211" x="642" y="83"/><rect fill="#FFFFFF" height="10" style="stroke: #000000; stroke-width: 1.5;" width="15" x="833" y="88"/><rect fill="#FFFFFF" height="2" style="stroke: #000000; stroke-width: 1.5;" width="4" x="831" y="90"/><rect fill="#FFFFFF" height="2" style="stroke: #000000; stroke-width: 1.5;" width="4" x="831" y="94"/><text fill="#000000" font-family="sans-serif" font-size="14" font-weight="bold" lengthAdjust="spacingAndGlyphs" textLength="67" x="714" y="109.5352">Browsing</text><rect fill="#FFFFFF" filter="url(#fq3ratqtzo71y)" height="198" style="stroke: #000000; stroke-width: 1.5;" width="225" x="393" y="83"/><rect fill="#FFFFFF" height="10" style="stroke: #000000; stroke-width: 1.5;" width="15" x="598" y="88"/><rect fill="#FFFFFF" height="2" style="stroke: #000000; stroke-width: 1.5;" width="4" x="596" y="90"/><rect fill="#FFFFFF" height="2" style="stroke: #000000; stroke-width: 1.5;" width="4" x="596" y="94"/><text fill="#000000" font-family="sans-serif" font-size="14" font-weight="bold" lengthAdjust="spacingAndGlyphs" textLength="83" x="464" y="109.5352">Personalize</text><rect fill="#FEFECE" filter="url(#fq3ratqtzo71y)" height="36.4883" style="stroke: #A80036; stroke-width: 1.5;" width="100" x="69" y="229"/><rect fill="#FEFECE" height="5" style="stroke: #A80036; stroke-width: 1.5;" width="10" x="64" y="234"/><rect fill="#FEFECE" height="5" style="stroke: #A80036; stroke-width: 1.5;" width="10" x="64" y="255.4883"/><text fill="#000000" font-family="sans-serif" font-size="14" lengthAdjust="spacingAndGlyphs" textLength="80" x="79" y="252.5352">FirebaseAPI</text><rect fill="#FEFECE" filter="url(#fq3ratqtzo71y)" height="36.4883" style="stroke: #A80036; stroke-width: 1.5;" width="78" x="38" y="337"/><rect fill="#FEFECE" height="5" style="stroke: #A80036; stroke-width: 1.5;" width="10" x="33" y="342"/><rect fill="#FEFECE" height="5" style="stroke: #A80036; stroke-width: 1.5;" width="10" x="33" y="363.4883"/><text fill="#000000" font-family="sans-serif" font-size="14" lengthAdjust="spacingAndGlyphs" textLength="58" x="48" y="360.5352">Firebase</text><ellipse cx="160" cy="355" fill="#FEFECE" filter="url(#fq3ratqtzo71y)" rx="8" ry="8" style="stroke: #A80036; stroke-width: 2.0;"/><text fill="#000000" font-family="sans-serif" font-size="14" lengthAdjust="spacingAndGlyphs" textLength="53" x="133.5" y="385.5352">Internal</text><rect fill="#FEFECE" filter="url(#fq3ratqtzo71y)" height="36.4883" style="stroke: #A80036; stroke-width: 1.5;" width="83" x="986.5" y="118"/><rect fill="#FEFECE" height="5" style="stroke: #A80036; stroke-width: 1.5;" width="10" x="981.5" y="123"/><rect fill="#FEFECE" height="5" style="stroke: #A80036; stroke-width: 1.5;" width="10" x="981.5" y="144.4883"/><text fill="#000000" font-family="sans-serif" font-size="14" lengthAdjust="spacingAndGlyphs" textLength="63" x="996.5" y="141.5352">Bookings</text><rect fill="#FEFECE" filter="url(#fq3ratqtzo71y)" height="36.4883" style="stroke: #A80036; stroke-width: 1.5;" width="58" x="893" y="118"/><rect fill="#FEFECE" height="5" style="stroke: #A80036; stroke-width: 1.5;" width="10" x="888" y="123"/><rect fill="#FEFECE" height="5" style="stroke: #A80036; stroke-width: 1.5;" width="10" x="888" y="144.4883"/><text fill="#000000" font-family="sans-serif" font-size="14" lengthAdjust="spacingAndGlyphs" textLength="38" x="903" y="141.5352">Mode</text><rect fill="#FEFECE" filter="url(#fq3ratqtzo71y)" height="36.4883" style="stroke: #A80036; stroke-width: 1.5;" width="66" x="658" y="118"/><rect fill="#FEFECE" height="5" style="stroke: #A80036; stroke-width: 1.5;" width="10" x="653" y="123"/><rect fill="#FEFECE" height="5" style="stroke: #A80036; stroke-width: 1.5;" width="10" x="653" y="144.4883"/><text fill="#000000" font-family="sans-serif" font-size="14" lengthAdjust="spacingAndGlyphs" textLength="46" x="668" y="141.5352">Search</text><rect fill="#FEFECE" filter="url(#fq3ratqtzo71y)" height="36.4883" style="stroke: #A80036; stroke-width: 1.5;" width="77" x="759.5" y="118"/><rect fill="#FEFECE" height="5" style="stroke: #A80036; stroke-width: 1.5;" width="10" x="754.5" y="123"/><rect fill="#FEFECE" height="5" style="stroke: #A80036; stroke-width: 1.5;" width="10" x="754.5" y="144.4883"/><text fill="#000000" font-family="sans-serif" font-size="14" lengthAdjust="spacingAndGlyphs" textLength="57" x="769.5" y="141.5352">Filtering</text><rect fill="#FEFECE" filter="url(#fq3ratqtzo71y)" height="36.4883" style="stroke: #A80036; stroke-width: 1.5;" width="47" x="667.5" y="229"/><rect fill="#FEFECE" height="5" style="stroke: #A80036; stroke-width: 1.5;" width="10" x="662.5" y="234"/><rect fill="#FEFECE" height="5" style="stroke: #A80036; stroke-width: 1.5;" width="10" x="662.5" y="255.4883"/><text fill="#000000" font-family="sans-serif" font-size="14" lengthAdjust="spacingAndGlyphs" textLength="27" x="677.5" y="252.5352">Info</text><rect fill="#FEFECE" filter="url(#fq3ratqtzo71y)" height="36.4883" style="stroke: #A80036; stroke-width: 1.5;" width="78" x="750" y="229"/><rect fill="#FEFECE" height="5" style="stroke: #A80036; stroke-width: 1.5;" width="10" x="745" y="234"/><rect fill="#FEFECE" height="5" style="stroke: #A80036; stroke-width: 1.5;" width="10" x="745" y="255.4883"/><text fill="#000000" font-family="sans-serif" font-size="14" lengthAdjust="spacingAndGlyphs" textLength="58" x="760" y="252.5352">Location</text><rect fill="#FEFECE" filter="url(#fq3ratqtzo71y)" height="36.4883" style="stroke: #A80036; stroke-width: 1.5;" width="58" x="409" y="118"/><rect fill="#FEFECE" height="5" style="stroke: #A80036; stroke-width: 1.5;" width="10" x="404" y="123"/><rect fill="#FEFECE" height="5" style="stroke: #A80036; stroke-width: 1.5;" width="10" x="404" y="144.4883"/><text fill="#000000" font-family="sans-serif" font-size="14" lengthAdjust="spacingAndGlyphs" textLength="38" x="419" y="141.5352">Login</text><rect fill="#FEFECE" filter="url(#fq3ratqtzo71y)" height="36.4883" style="stroke: #A80036; stroke-width: 1.5;" width="100" x="502" y="118"/><rect fill="#FEFECE" height="5" style="stroke: #A80036; stroke-width: 1.5;" width="10" x="497" y="123"/><rect fill="#FEFECE" height="5" style="stroke: #A80036; stroke-width: 1.5;" width="10" x="497" y="144.4883"/><text fill="#000000" font-family="sans-serif" font-size="14" lengthAdjust="spacingAndGlyphs" textLength="80" x="512" y="141.5352">Preferences</text><rect fill="#FEFECE" filter="url(#fq3ratqtzo71y)" height="36.4883" style="stroke: #A80036; stroke-width: 1.5;" width="113" x="409.5" y="229"/><rect fill="#FEFECE" height="5" style="stroke: #A80036; stroke-width: 1.5;" width="10" x="404.5" y="234"/><rect fill="#FEFECE" height="5" style="stroke: #A80036; stroke-width: 1.5;" width="10" x="404.5" y="255.4883"/><text fill="#000000" font-family="sans-serif" font-size="14" lengthAdjust="spacingAndGlyphs" textLength="93" x="419.5" y="252.5352">Subscriptions</text><ellipse cx="213" cy="247" fill="#FEFECE" filter="url(#fq3ratqtzo71y)" rx="8" ry="8" style="stroke: #A80036; stroke-width: 2.0;"/><rect fill="#FEFECE" filter="url(#fq3ratqtzo71y)" height="36.4883" style="stroke: #A80036; stroke-width: 1.5;" width="88" x="1142" y="229"/><rect fill="#FEFECE" height="5" style="stroke: #A80036; stroke-width: 1.5;" width="10" x="1137" y="234"/><rect fill="#FEFECE" height="5" style="stroke: #A80036; stroke-width: 1.5;" width="10" x="1137" y="255.4883"/><text fill="#000000" font-family="sans-serif" font-size="14" lengthAdjust="spacingAndGlyphs" textLength="68" x="1152" y="252.5352">Transport</text><rect fill="#FEFECE" filter="url(#fq3ratqtzo71y)" height="36.4883" style="stroke: #A80036; stroke-width: 1.5;" width="60" x="75" y="118"/><rect fill="#FEFECE" height="5" style="stroke: #A80036; stroke-width: 1.5;" width="10" x="70" y="123"/><rect fill="#FEFECE" height="5" style="stroke: #A80036; stroke-width: 1.5;" width="10" x="70" y="144.4883"/><text fill="#000000" font-family="sans-serif" font-size="14" lengthAdjust="spacingAndGlyphs" textLength="40" x="85" y="141.5352">Stripe</text><ellipse cx="1274" cy="247" fill="#FEFECE" filter="url(#fq3ratqtzo71y)" rx="8" ry="8" style="stroke: #A80036; stroke-width: 2.0;"/><rect fill="#FEFECE" filter="url(#fq3ratqtzo71y)" height="36.4883" style="stroke: #A80036; stroke-width: 1.5;" width="155" x="170.5" y="118"/><rect fill="#FEFECE" height="5" style="stroke: #A80036; stroke-width: 1.5;" width="10" x="165.5" y="123"/><rect fill="#FEFECE" height="5" style="stroke: #A80036; stroke-width: 1.5;" width="10" x="165.5" y="144.4883"/><text fill="#000000" font-family="sans-serif" font-size="14" lengthAdjust="spacingAndGlyphs" textLength="135" x="180.5" y="141.5352">«Adapter» StripeAPI</text><path d="M169.3,247 C180.8,247 192.29,247 203.78,247 " fill="none" id="FirebaseAPI-I" style="stroke: #A80036; stroke-width: 1.0;"/><path d="M116.23,355 C127.74,355 139.26,355 150.77,355 " fill="none" id="Firebase-i" style="stroke: #A80036; stroke-width: 1.0;"/><path d="M125.59,265.03 C133.19,284.68 145.61,316.8 153.27,336.6 " fill="none" id="FirebaseAPI-&gt;i" style="stroke: #A80036; stroke-width: 1.0;"/><path d="M163.6618,340.0234 A9,9 0 0 0 147.8817 346.1131" fill="none" style="stroke: #A80036; stroke-width: 1.5;"/><path d="M352.9495,162.58 C352.4366,163.6844 351.8954,164.7877 351.3248,165.8814 C349.0425,170.2562 346.29,174.4775 343,178 C311.54,211.69 259.59,231.73 231.84,240.58 " fill="none" id="UserInterface-&gt;I" style="stroke: #A80036; stroke-width: 1.0;"/><path d="M227.5783,250.7213 A9,9 0 0 0 222.6736 234.5335" fill="none" style="stroke: #A80036; stroke-width: 1.5;"/><path d="M1120.0548,180.7729 C1121.2585,180.7828 1122.4558,180.7929 1123.6467,180.8033 C1128.4104,180.8448 1133.0709,180.8902 1137.6223,180.9398 C1146.7251,181.0388 1155.3914,181.1541 1163.5727,181.2875 C1179.9353,181.5544 1194.358,181.8934 1206.4535,182.318 C1230.6444,183.1672 1245.5263,184.3588 1248,186 C1261.89,195.21 1268.4,213.58 1271.42,227.58 " fill="none" id="UserInterface-&gt;w" style="stroke: #A80036; stroke-width: 1.0;"/><path d="M1280.9773,233.1154 A9,9 0 0 0 1264.3178 236.0411" fill="none" style="stroke: #A80036; stroke-width: 1.5;"/><path d="M1230.34,247 C1241.83,247 1253.31,247 1264.79,247 " fill="none" id="Transport-w" style="stroke: #A80036; stroke-width: 1.0;"/><path d="M121.35,154.32 C130.03,162.59 141.31,171.97 153,178 C166.03,184.72 173.69,176.67 185,186 C197.75,196.51 205.01,214.14 208.92,227.57 " fill="none" id="Stripe-&gt;I" style="stroke: #A80036; stroke-width: 1.0;"/><path d="M218.9124,232.5593 A9,9 0 0 0 202.5158 236.7128" fill="none" style="stroke: #A80036; stroke-width: 1.5;"/><path d="M135.16,136 C146.92,136 158.67,136 170.43,136 " fill="none" id="Stripe-AD" style="stroke: #A80036; stroke-width: 1.0;"/><path d="M325.69,136 C331.48,136 337.2725,136 343.0663,136 C345.9631,136 348.8603,136 351.7577,136 C352.1198,136 352.482,136 352.8442,136 C352.8894,136 352.9347,136 352.98,136 " fill="none" id="AD-UserInterface" style="stroke: #A80036; stroke-width: 1.0;"/></g></svg>