<?xml version="1.0" encoding="UTF-8" standalone="no"?><svg xmlns="http://www.w3.org/2000/svg" xmlns:xlink="http://www.w3.org/1999/xlink" contentScriptType="application/ecmascript" contentStyleType="text/css" height="362px" preserveAspectRatio="none" style="width:2569px;height:362px;" version="1.1" viewBox="0 0 2569 362" width="2569px" zoomAndPan="magnify"><defs/><g><rect fill="#F8F8F8" height="36.2969" style="stroke: #000000; stroke-width: 1.5;" width="156" x="635" y="105"/><text fill="#000000" font-family="Courier" font-size="14" lengthAdjust="spacingAndGlyphs" textLength="136" x="645" y="127.9951">Personalize (app)</text><rect fill="#F8F8F8" height="36.2969" style="stroke: #000000; stroke-width: 1.5;" width="148" x="789" y="218"/><text fill="#000000" font-family="Courier" font-size="14" lengthAdjust="spacingAndGlyphs" textLength="128" x="799" y="240.9951">Sync preferences</text><rect fill="#F8F8F8" height="36.2969" style="stroke: #000000; stroke-width: 1.5;" width="84" x="415" y="218"/><text fill="#000000" font-family="Courier" font-size="14" lengthAdjust="spacingAndGlyphs" textLength="64" x="425" y="240.9951">Wishlist</text><rect fill="#F8F8F8" height="36.2969" style="stroke: #000000; stroke-width: 1.5;" width="220" x="534" y="218"/><text fill="#000000" font-family="Courier" font-size="14" lengthAdjust="spacingAndGlyphs" textLength="200" x="544" y="240.9951">Connect with Social media</text><rect fill="#F8F8F8" height="36.2969" style="stroke: #000000; stroke-width: 1.5;" width="68" x="1248" y="105"/><text fill="#000000" font-family="Courier" font-size="14" lengthAdjust="spacingAndGlyphs" textLength="48" x="1258" y="127.9951">Browse</text><rect fill="#F8F8F8" height="36.2969" style="stroke: #000000; stroke-width: 1.5;" width="68" x="972" y="218"/><text fill="#000000" font-family="Courier" font-size="14" lengthAdjust="spacingAndGlyphs" textLength="48" x="982" y="240.9951">Search</text><rect fill="#F8F8F8" height="36.2969" style="stroke: #000000; stroke-width: 1.5;" width="140" x="740" y="315"/><text fill="#000000" font-family="Courier" font-size="14" lengthAdjust="spacingAndGlyphs" textLength="120" x="750" y="337.9951">Select Category</text><rect fill="#F8F8F8" height="36.2969" style="stroke: #000000; stroke-width: 1.5;" width="92" x="1133" y="218"/><text fill="#000000" font-family="Courier" font-size="14" lengthAdjust="spacingAndGlyphs" textLength="72" x="1143" y="240.9951">Filtering</text><rect fill="#F8F8F8" height="36.2969" style="stroke: #000000; stroke-width: 1.5;" width="84" x="1526" y="315"/><text fill="#000000" font-family="Courier" font-size="14" lengthAdjust="spacingAndGlyphs" textLength="64" x="1536" y="337.9951">Distance</text><rect fill="#F8F8F8" height="36.2969" style="stroke: #000000; stroke-width: 1.5;" width="60" x="915" y="315"/><text fill="#000000" font-family="Courier" font-size="14" lengthAdjust="spacingAndGlyphs" textLength="40" x="925" y="337.9951">Price</text><rect fill="#F8F8F8" height="36.2969" style="stroke: #000000; stroke-width: 1.5;" width="76" x="1010" y="315"/><text fill="#000000" font-family="Courier" font-size="14" lengthAdjust="spacingAndGlyphs" textLength="56" x="1020" y="337.9951">Ratings</text><rect fill="#F8F8F8" height="36.2969" style="stroke: #000000; stroke-width: 1.5;" width="116" x="1121" y="315"/><text fill="#000000" font-family="Courier" font-size="14" lengthAdjust="spacingAndGlyphs" textLength="96" x="1131" y="337.9951">Most Popular</text><rect fill="#F8F8F8" height="36.2969" style="stroke: #000000; stroke-width: 1.5;" width="84" x="1272" y="315"/><text fill="#000000" font-family="Courier" font-size="14" lengthAdjust="spacingAndGlyphs" textLength="64" x="1282" y="337.9951">Services</text><rect fill="#F8F8F8" height="36.2969" style="stroke: #000000; stroke-width: 1.5;" width="100" x="1391" y="315"/><text fill="#000000" font-family="Courier" font-size="14" lengthAdjust="spacingAndGlyphs" textLength="80" x="1401" y="337.9951">Incentives</text><rect fill="#F8F8F8" height="36.2969" style="stroke: #000000; stroke-width: 1.5;" width="140" x="1260" y="218"/><text fill="#000000" font-family="Courier" font-size="14" lengthAdjust="spacingAndGlyphs" textLength="120" x="1270" y="240.9951">Additional Info</text><rect fill="#F8F8F8" height="36.2969" style="stroke: #000000; stroke-width: 1.5;" width="44" x="193" y="105"/><text fill="#000000" font-family="Courier" font-size="14" lengthAdjust="spacingAndGlyphs" textLength="24" x="203" y="127.9951">GPS</text><path d="M6,110.5 L6,135.6328 A0,0 0 0 0 6,135.6328 L157.6667,135.6328 A0,0 0 0 0 157.6667,135.6328 L157.6667,128.5 L192.78,123 L157.6667,120.5 L157.6667,120.5 L147.6667,110.5 L6,110.5 A0,0 0 0 0 6,110.5 " fill="#ECECEC" style="stroke: #383838; stroke-width: 1.0;"/><path d="M147.6667,110.5 L147.6667,120.5 L157.6667,120.5 L147.6667,110.5 " fill="#ECECEC" style="stroke: #383838; stroke-width: 1.0;"/><text fill="#000000" font-family="Courier" font-size="13" lengthAdjust="spacingAndGlyphs" textLength="112" x="12" y="127.5669">Implemented by</text><path d="M137.3333,118.7161 C135.535,118.7161 134.0833,120.1678 134.0833,121.9661 C134.0833,124.1328 137.3333,127.3828 137.3333,127.3828 C137.3333,127.3828 140.5833,124.1328 140.5833,121.9661 C140.5833,120.1678 139.1317,118.7161 137.3333,118.7161 M137.3333,119.7995 C138.525,119.7995 139.5,120.7745 139.5,121.9661 C139.5,123.1578 138.525,124.1328 137.3333,124.1328 C136.1417,124.1328 135.1667,123.1578 135.1667,121.9661 C135.1667,120.7745 136.1417,119.7995 137.3333,119.7995 " fill="#000000" style="stroke: ; stroke-width: 0.0; stroke-dasharray: ;"/><rect fill="#F8F8F8" height="36.2969" style="stroke: #000000; stroke-width: 1.5;" width="84" x="1459" y="105"/><text fill="#000000" font-family="Courier" font-size="14" lengthAdjust="spacingAndGlyphs" textLength="64" x="1469" y="127.9951">Security</text><rect fill="#F8F8F8" height="36.2969" style="stroke: #000000; stroke-width: 1.5;" width="188" x="1514" y="218"/><text fill="#000000" font-family="Courier" font-size="14" lengthAdjust="spacingAndGlyphs" textLength="168" x="1524" y="240.9951">Google Authentication</text><rect fill="#F8F8F8" height="36.2969" style="stroke: #000000; stroke-width: 1.5;" width="44" x="1435" y="218"/><text fill="#000000" font-family="Courier" font-size="14" lengthAdjust="spacingAndGlyphs" textLength="24" x="1445" y="240.9951">OTP</text><rect fill="#F8F8F8" height="36.2969" style="stroke: #000000; stroke-width: 1.5;" width="52" x="1665" y="105"/><text fill="#000000" font-family="Courier" font-size="14" lengthAdjust="spacingAndGlyphs" textLength="32" x="1675" y="127.9951">Mode</text><rect fill="#F8F8F8" height="36.2969" style="stroke: #000000; stroke-width: 1.5;" width="84" x="1848" y="218"/><text fill="#000000" font-family="Courier" font-size="14" lengthAdjust="spacingAndGlyphs" textLength="64" x="1858" y="240.9951">Traveler</text><rect fill="#F8F8F8" height="36.2969" style="stroke: #000000; stroke-width: 1.5;" width="76" x="1737" y="218"/><text fill="#000000" font-family="Courier" font-size="14" lengthAdjust="spacingAndGlyphs" textLength="56" x="1747" y="240.9951">Settler</text><rect fill="#F8F8F8" height="36.2969" style="stroke: #000000; stroke-width: 1.5;" width="76" x="1752" y="105"/><text fill="#000000" font-family="Courier" font-size="14" lengthAdjust="spacingAndGlyphs" textLength="56" x="1762" y="127.9951">Reviews</text><rect fill="#F8F8F8" height="36.2969" style="stroke: #000000; stroke-width: 1.5;" width="92" x="272" y="105"/><text fill="#000000" font-family="Courier" font-size="14" lengthAdjust="spacingAndGlyphs" textLength="72" x="282" y="127.9951">Purchases</text><rect fill="#F8F8F8" height="36.2969" style="stroke: #000000; stroke-width: 1.5;" width="52" x="169" y="218"/><text fill="#000000" font-family="Courier" font-size="14" lengthAdjust="spacingAndGlyphs" textLength="32" x="179" y="240.9951">View</text><rect fill="#F8F8F8" height="36.2969" style="stroke: #000000; stroke-width: 1.5;" width="116" x="18" y="218"/><text fill="#000000" font-family="Courier" font-size="14" lengthAdjust="spacingAndGlyphs" textLength="96" x="28" y="240.9951">Avail Offers</text><rect fill="#F8F8F8" height="36.2969" style="stroke: #000000; stroke-width: 1.5;" width="124" x="256" y="218"/><text fill="#000000" font-family="Courier" font-size="14" lengthAdjust="spacingAndGlyphs" textLength="104" x="266" y="240.9951">Subscriptions</text><rect fill="#F8F8F8" height="36.2969" style="stroke: #000000; stroke-width: 1.5;" width="164" x="1967" y="105"/><text fill="#000000" font-family="Courier" font-size="14" lengthAdjust="spacingAndGlyphs" textLength="144" x="1977" y="127.9951">Transport Services</text><rect fill="#F8F8F8" height="36.2969" style="stroke: #000000; stroke-width: 1.5;" width="44" x="2173" y="218"/><text fill="#000000" font-family="Courier" font-size="14" lengthAdjust="spacingAndGlyphs" textLength="24" x="2183" y="240.9951">Bus</text><rect fill="#F8F8F8" height="36.2969" style="stroke: #000000; stroke-width: 1.5;" width="60" x="1967" y="218"/><text fill="#000000" font-family="Courier" font-size="14" lengthAdjust="spacingAndGlyphs" textLength="40" x="1977" y="240.9951">Train</text><rect fill="#F8F8F8" height="36.2969" style="stroke: #000000; stroke-width: 1.5;" width="76" x="2062" y="218"/><text fill="#000000" font-family="Courier" font-size="14" lengthAdjust="spacingAndGlyphs" textLength="56" x="2072" y="240.9951">Bicycle</text><rect fill="#F8F8F8" height="36.2969" style="stroke: #000000; stroke-width: 1.5;" width="84" x="2303" y="105"/><text fill="#000000" font-family="Courier" font-size="14" lengthAdjust="spacingAndGlyphs" textLength="64" x="2313" y="127.9951">Bookings</text><rect fill="#F8F8F8" height="36.2969" style="stroke: #000000; stroke-width: 1.5;" width="68" x="2490" y="218"/><text fill="#000000" font-family="Courier" font-size="14" lengthAdjust="spacingAndGlyphs" textLength="48" x="2500" y="240.9951">Hotels</text><rect fill="#F8F8F8" height="36.2969" style="stroke: #000000; stroke-width: 1.5;" width="60" x="2252" y="218"/><text fill="#000000" font-family="Courier" font-size="14" lengthAdjust="spacingAndGlyphs" textLength="40" x="2262" y="240.9951">Tours</text><rect fill="#F8F8F8" height="36.2969" style="stroke: #000000; stroke-width: 1.5;" width="108" x="2347" y="218"/><text fill="#000000" font-family="Courier" font-size="14" lengthAdjust="spacingAndGlyphs" textLength="88" x="2357" y="240.9951">Restaurants</text><rect fill="#F8F8F8" height="36.2969" style="stroke: #000000; stroke-width: 1.5;" width="108" x="1447" y="8"/><text fill="#000000" font-family="Courier" font-size="14" lengthAdjust="spacingAndGlyphs" textLength="88" x="1457" y="30.9951">Local Guide</text><path d="M746.71,148.95 C775.01,169.89 814.7,199.26 839.62,217.7 " fill="none" id="A&lt;-B" style="stroke: #383838; stroke-width: 1.0;"/><polygon fill="#383838" points="736.11,141.1,738.5473,147.8867,745.7494,148.2471,743.3121,141.4604,736.11,141.1" style="stroke: #383838; stroke-width: 1.0;"/><path d="M661.41,146.37 C612.72,167.48 540.76,198.68 496.48,217.88 " fill="none" id="A&lt;-C" style="stroke: #383838; stroke-width: 1.0;"/><polygon fill="#383838" points="673.56,141.1,666.464,139.8166,662.5501,145.8731,669.6461,147.1565,673.56,141.1" style="stroke: #383838; stroke-width: 1.0;"/><path d="M695.22,152.61 C682.4,173.23 665.51,200.39 654.71,217.78 " fill="none" id="A&lt;-Z" style="stroke: #383838; stroke-width: 1.0;"/><polygon fill="#383838" points="702.22,141.34,695.6539,144.321,695.8802,151.5285,702.4463,148.5476,702.22,141.34" style="stroke: #383838; stroke-width: 1.0;"/><path d="M971.86,253.55 C936.43,270.72 881.29,297.45 845.4,314.84 " fill="none" id="DQ-DQA" style="stroke: #383838; stroke-width: 1.0;"/><path d="M1237.83,252.95 C1239.24,253.31 1240.63,253.66 1242,254 C1359.68,283.36 1390.5,284.9 1508,315 C1513.77,316.48 1519.83,318.1 1525.79,319.75 " fill="none" id="E&lt;-EA" style="stroke: #383838; stroke-width: 1.0;"/><polygon fill="#383838" points="1225.05,249.64,1229.8565,255.0157,1236.6673,252.6465,1231.8608,247.2708,1225.05,249.64" style="stroke: #383838; stroke-width: 1.0;"/><path d="M1124.62,259.08 C1078.13,277.95 1012.95,304.41 975.24,319.72 " fill="none" id="E&lt;-ED" style="stroke: #383838; stroke-width: 1.0;"/><polygon fill="#383838" points="1136.9,254.09,1129.8364,252.639,1125.7802,258.6012,1132.8439,260.0522,1136.9,254.09" style="stroke: #383838; stroke-width: 1.0;"/><path d="M1144.59,261.96 C1121.57,278.65 1091.9,300.17 1071.55,314.92 " fill="none" id="E&lt;-EB" style="stroke: #383838; stroke-width: 1.0;"/><polygon fill="#383838" points="1155.28,254.2,1148.0744,254.4813,1145.5626,261.2408,1152.7683,260.9595,1155.28,254.2" style="stroke: #383838; stroke-width: 1.0;"/><path d="M1179,267.71 C1179,283.27 1179,301.59 1179,314.69 " fill="none" id="E&lt;-EC" style="stroke: #383838; stroke-width: 1.0;"/><polygon fill="#383838" points="1179,254.42,1175,260.42,1179,266.42,1183,260.42,1179,254.42" style="stroke: #383838; stroke-width: 1.0;"/><path d="M1214.14,261.73 C1237.9,278.45 1268.67,300.1 1289.73,314.92 " fill="none" id="E&lt;-ET" style="stroke: #383838; stroke-width: 1.0;"/><polygon fill="#383838" points="1203.45,254.2,1206.0564,260.9236,1213.2653,261.1036,1210.6589,254.3801,1203.45,254.2" style="stroke: #383838; stroke-width: 1.0;"/><path d="M1237.71,258.29 C1284.84,275.38 1350.15,299.06 1393.9,314.92 " fill="none" id="E&lt;-EW" style="stroke: #383838; stroke-width: 1.0;"/><polygon fill="#383838" points="1225.24,253.77,1229.5172,259.5756,1236.5214,257.8603,1232.2441,252.0547,1225.24,253.77" style="stroke: #383838; stroke-width: 1.0;"/><path d="M1235.65,142.64 C1180.36,164.88 1089.24,201.52 1040.04,221.31 " fill="none" id="H&lt;-DQ" style="stroke: #383838; stroke-width: 1.0;"/><polygon fill="#383838" points="1247.88,137.72,1240.82,136.2517,1236.7492,142.204,1243.8093,143.6722,1247.88,137.72" style="stroke: #383838; stroke-width: 1.0;"/><path d="M1257.05,150.89 C1237.74,171.7 1211.57,199.9 1194.98,217.78 " fill="none" id="H&lt;-E" style="stroke: #383838; stroke-width: 1.0;"/><polygon fill="#383838" points="1265.91,141.34,1258.8966,143.017,1257.7471,150.1359,1264.7605,148.4589,1265.91,141.34" style="stroke: #383838; stroke-width: 1.0;"/><path d="M1294.75,153.48 C1303.62,173.99 1315.14,200.64 1322.55,217.78 " fill="none" id="H&lt;-F" style="stroke: #383838; stroke-width: 1.0;"/><polygon fill="#383838" points="1289.5,141.34,1288.2064,148.4341,1294.2572,152.3567,1295.5509,145.2626,1289.5,141.34" style="stroke: #383838; stroke-width: 1.0;"/><path d="M1526.92,150.89 C1546.98,171.7 1574.17,199.9 1591.4,217.78 " fill="none" id="K&lt;-Y" style="stroke: #383838; stroke-width: 1.0;"/><polygon fill="#FFFFFF" points="1517.72,141.34,1519.002,148.4362,1526.0455,149.9821,1524.7634,142.8859,1517.72,141.34" style="stroke: #383838; stroke-width: 1.0;"/><path d="M1489.31,153.48 C1481.18,173.99 1470.62,200.64 1463.83,217.78 " fill="none" id="K&lt;-U" style="stroke: #383838; stroke-width: 1.0;"/><polygon fill="#FFFFFF" points="1494.12,141.34,1488.1878,145.4398,1489.6906,152.4926,1495.6228,148.3928,1494.12,141.34" style="stroke: #383838; stroke-width: 1.0;"/><path d="M1728.56,144.95 C1766.45,166.08 1824.23,198.31 1859.41,217.94 " fill="none" id="M&lt;-T" style="stroke: #383838; stroke-width: 1.0;"/><polygon fill="#FFFFFF" points="1717.02,138.51,1720.308,144.9279,1727.4968,144.3612,1724.2088,137.9433,1717.02,138.51" style="stroke: #383838; stroke-width: 1.0;"/><path d="M1712,151.75 C1727.68,172.47 1748.63,200.15 1761.97,217.78 " fill="none" id="M&lt;-S" style="stroke: #383838; stroke-width: 1.0;"/><polygon fill="#FFFFFF" points="1704.12,141.34,1704.5548,148.538,1711.3663,150.9051,1710.9315,143.7071,1704.12,141.34" style="stroke: #383838; stroke-width: 1.0;"/><path d="M289.11,150.07 C266,170.92 234.25,199.58 214.17,217.7 " fill="none" id="P&lt;-J" style="stroke: #383838; stroke-width: 1.0;"/><polygon fill="#383838" points="299.05,141.1,291.9157,142.1499,290.141,149.1392,297.2752,148.0893,299.05,141.1" style="stroke: #383838; stroke-width: 1.0;"/><path d="M268.64,146.64 C222.62,167.75 155,198.76 113.32,217.88 " fill="none" id="P&lt;-W" style="stroke: #383838; stroke-width: 1.0;"/><polygon fill="#383838" points="280.72,141.1,273.5984,139.9672,269.8137,146.1053,276.9353,147.2381,280.72,141.1" style="stroke: #383838; stroke-width: 1.0;"/><path d="M318,154.36 C318,174.75 318,200.88 318,217.78 " fill="none" id="P&lt;-D" style="stroke: #383838; stroke-width: 1.0;"/><polygon fill="#383838" points="318,141.34,314,147.34,318,153.34,322,147.34,318,141.34" style="stroke: #383838; stroke-width: 1.0;"/><path d="M2081.88,149 C2109.6,170.07 2148.52,199.66 2172.72,218.06 " fill="none" id="L&lt;-FD" style="stroke: #383838; stroke-width: 1.0;"/><polygon fill="#383838" points="2071.49,141.1,2073.8421,147.9167,2081.0391,148.3674,2078.687,141.5506,2071.49,141.1" style="stroke: #383838; stroke-width: 1.0;"/><path d="M2035.33,153.19 C2025.7,173.74 2013.14,200.55 2005.07,217.78 " fill="none" id="L&lt;-DW" style="stroke: #383838; stroke-width: 1.0;"/><polygon fill="#383838" points="2040.88,141.34,2034.7125,145.0766,2035.7895,152.2068,2041.957,148.4702,2040.88,141.34" style="stroke: #383838; stroke-width: 1.0;"/><path d="M2062.41,153.19 C2071.85,173.74 2084.17,200.55 2092.09,217.78 " fill="none" id="L&lt;-DE" style="stroke: #383838; stroke-width: 1.0;"/><polygon fill="#383838" points="2056.97,141.34,2055.8405,148.4621,2061.9803,152.244,2063.1098,145.1219,2056.97,141.34" style="stroke: #383838; stroke-width: 1.0;"/><path d="M2383.93,148.14 C2417.88,169.2 2466.29,199.21 2496.39,217.88 " fill="none" id="X&lt;-XA" style="stroke: #383838; stroke-width: 1.0;"/><polygon fill="#383838" points="2372.58,141.1,2375.577,147.6588,2382.784,147.4149,2379.787,140.8561,2372.58,141.1" style="stroke: #383838; stroke-width: 1.0;"/><path d="M2328.6,152.9 C2316.91,173.49 2301.6,200.47 2291.77,217.78 " fill="none" id="X&lt;-XB" style="stroke: #383838; stroke-width: 1.0;"/><polygon fill="#383838" points="2335.16,141.34,2328.7181,144.5807,2329.2319,151.7735,2335.6738,148.5328,2335.16,141.34" style="stroke: #383838; stroke-width: 1.0;"/><path d="M2359.73,153.19 C2370.09,173.74 2383.62,200.55 2392.31,217.78 " fill="none" id="X&lt;-XC" style="stroke: #383838; stroke-width: 1.0;"/><polygon fill="#383838" points="2353.75,141.34,2352.8802,148.4985,2359.1534,152.0546,2360.0233,144.8962,2353.75,141.34" style="stroke: #383838; stroke-width: 1.0;"/><path d="M1040.18,236 C1065.12,236 1099.35,236 1127.57,236 " fill="none" id="DQ-&gt;E" style="stroke: #383838; stroke-width: 1.0; stroke-dasharray: 1.0,3.0;"/><polygon fill="#383838" points="1132.77,236,1123.77,232,1127.77,236,1123.77,240,1132.77,236" style="stroke: #383838; stroke-width: 1.0;"/><text fill="#000000" font-family="Courier" font-size="13" lengthAdjust="spacingAndGlyphs" textLength="56" x="1058.5" y="229.0669">require</text><path d="M134.36,221 C139.96,219.86 145.57,218.83 151,218 C392.31,180.94 455.01,188.45 699,180 C724.76,179.11 731.98,173.8 757,180 C784.54,186.83 812.8,202.26 833.21,215.2 " fill="none" id="W-&gt;B" style="stroke: #383838; stroke-width: 1.0; stroke-dasharray: 1.0,3.0;"/><polygon fill="#383838" points="837.44,217.92,832.0197,209.6968,833.2299,215.2227,827.7041,216.4329,837.44,217.92" style="stroke: #383838; stroke-width: 1.0;"/><text fill="#000000" font-family="Courier" font-size="13" lengthAdjust="spacingAndGlyphs" textLength="56" x="700" y="184.0669">require</text><path d="M1446.84,33.53 C1311.57,49.84 958.2,92.44 796.26,111.96 " fill="none" id="R-&gt;A" style="stroke: #383838; stroke-width: 1.0;"/><ellipse cx="797.0068" cy="111.8711" fill="#383838" rx="6" ry="6" style="stroke: #383838; stroke-width: 1.5;"/><path d="M1461.59,44.09 C1421.71,61.39 1360.44,87.98 1320.78,105.18 " fill="none" id="R-&gt;H" style="stroke: #383838; stroke-width: 1.0;"/><ellipse cx="1321.566" cy="104.8458" fill="#383838" rx="6" ry="6" style="stroke: #383838; stroke-width: 1.5;"/><path d="M1446.65,27.89 C1237.61,31.71 485.56,49.13 254,105 C250.06,105.95 246.02,107.27 242.1,108.77 " fill="none" id="R-&gt;Q" style="stroke: #383838; stroke-width: 1.0;"/><ellipse cx="242.7909" cy="108.5017" fill="#383838" rx="6" ry="6" style="stroke: #383838; stroke-width: 1.5;"/><path d="M1501,44.42 C1501,59.96 1501,82.78 1501,99.66 " fill="none" id="R-&gt;K" style="stroke: #383838; stroke-width: 1.0;"/><ellipse cx="1501" cy="98.69" fill="#383838" rx="6" ry="6" style="stroke: #383838; stroke-width: 1.5;"/><path d="M1553,44.09 C1608.42,62.31 1695.14,90.82 1746.89,107.83 " fill="none" id="R-&gt;N" style="stroke: #383838; stroke-width: 1.0;"/><ellipse cx="1746.0945" cy="107.5529" fill="#383838" rx="6" ry="6" style="stroke: #383838; stroke-width: 1.5;"/><path d="M1555.04,36.37 C1649.9,52.81 1847.11,87 1961.58,106.84 " fill="none" id="R-&gt;L" style="stroke: #383838; stroke-width: 1.0;"/><ellipse cx="1960.7187" cy="106.692" fill="#FFFFFF" rx="6" ry="6" style="stroke: #383838; stroke-width: 1.5;"/><path d="M1555.08,33.09 C1709.69,50.49 2151.83,100.26 2297.68,116.67 " fill="none" id="R-&gt;X" style="stroke: #383838; stroke-width: 1.0;"/><ellipse cx="2296.7775" cy="116.5699" fill="#FFFFFF" rx="6" ry="6" style="stroke: #383838; stroke-width: 1.5;"/><path d="M1446.71,31.36 C1248.15,47.31 562.95,102.33 369.33,117.88 " fill="none" id="R-&gt;P" style="stroke: #383838; stroke-width: 1.0;"/><ellipse cx="370.2708" cy="117.8002" fill="#FFFFFF" rx="6" ry="6" style="stroke: #383838; stroke-width: 1.5;"/><path d="M1535.41,44.2 C1571.02,62.01 1626.14,89.57 1660.32,106.66 " fill="none" id="R-&gt;M" style="stroke: #383838; stroke-width: 1.0;"/><ellipse cx="1659.42" cy="106.2236" fill="#FFFFFF" rx="6" ry="6" style="stroke: #383838; stroke-width: 1.5;"/></g></svg>