<?xml version="1.0" encoding="UTF-8" standalone="no"?><svg xmlns="http://www.w3.org/2000/svg" xmlns:xlink="http://www.w3.org/1999/xlink" contentScriptType="application/ecmascript" contentStyleType="text/css" height="433px" preserveAspectRatio="none" style="width:555px;height:433px;" version="1.1" viewBox="0 0 555 433" width="555px" zoomAndPan="magnify"><defs/><g><rect fill="#FFFFFF" height="62.9766" style="stroke: #444444; stroke-width: 1.0; stroke-dasharray: 7.0,7.0;" width="98" x="179" y="201"/><text fill="#000000" font-family="sans-serif" font-size="0" font-style="italic" lengthAdjust="spacingAndGlyphs" textLength="0" x="228" y="211">«boundary»</text><text fill="#444444" font-family="sans-serif" font-size="16" font-weight="bold" lengthAdjust="spacingAndGlyphs" textLength="78" x="189" y="236.4688">Realm DB</text><text fill="#444444" font-family="sans-serif" font-size="12" lengthAdjust="spacingAndGlyphs" textLength="48" x="204" y="251.4453">[System]</text><rect fill="#08427B" height="85.9531" style="stroke: #073B6F; stroke-width: 1.5;" width="72" x="6" y="8"/><text fill="#FFFFFF" font-family="sans-serif" font-size="12" font-style="italic" lengthAdjust="spacingAndGlyphs" textLength="52" x="16" y="29.6016">«person»</text><text fill="#FFFFFF" font-family="sans-serif" font-size="16" font-weight="bold" lengthAdjust="spacingAndGlyphs" textLength="37" x="23.5" y="47.6016">User</text><text fill="#FFFFFF" font-family="sans-serif" font-size="14" lengthAdjust="spacingAndGlyphs" textLength="0" x="44" y="64.5117"/><text fill="#FFFFFF" font-family="sans-serif" font-size="14" lengthAdjust="spacingAndGlyphs" textLength="0" x="44" y="81"/><rect fill="#08427B" height="85.9531" style="stroke: #073B6F; stroke-width: 1.5;" width="126" x="165" y="8"/><text fill="#FFFFFF" font-family="sans-serif" font-size="12" font-style="italic" lengthAdjust="spacingAndGlyphs" textLength="52" x="202" y="29.6016">«person»</text><text fill="#FFFFFF" font-family="sans-serif" font-size="16" font-weight="bold" lengthAdjust="spacingAndGlyphs" textLength="106" x="175" y="47.6016">Shop owners</text><text fill="#FFFFFF" font-family="sans-serif" font-size="14" lengthAdjust="spacingAndGlyphs" textLength="0" x="230" y="64.5117"/><text fill="#FFFFFF" font-family="sans-serif" font-size="14" lengthAdjust="spacingAndGlyphs" textLength="0" x="230" y="81"/><rect fill="#08427B" height="85.9531" style="stroke: #073B6F; stroke-width: 1.5;" width="111" x="356.5" y="8"/><text fill="#FFFFFF" font-family="sans-serif" font-size="12" font-style="italic" lengthAdjust="spacingAndGlyphs" textLength="52" x="386" y="29.6016">«person»</text><text fill="#FFFFFF" font-family="sans-serif" font-size="16" font-weight="bold" lengthAdjust="spacingAndGlyphs" textLength="91" x="366.5" y="47.6016">Developers</text><text fill="#FFFFFF" font-family="sans-serif" font-size="14" lengthAdjust="spacingAndGlyphs" textLength="0" x="414" y="64.5117"/><text fill="#FFFFFF" font-family="sans-serif" font-size="14" lengthAdjust="spacingAndGlyphs" textLength="0" x="414" y="81"/><rect fill="#999999" height="52.9766" style="stroke: #8A8A8A; stroke-width: 1.5;" width="125" x="85.5" y="370"/><text fill="#FFFFFF" font-family="sans-serif" font-size="12" font-style="italic" lengthAdjust="spacingAndGlyphs" textLength="105" x="95.5" y="391.6016">«external_system»</text><text fill="#FFFFFF" font-family="sans-serif" font-size="16" font-weight="bold" lengthAdjust="spacingAndGlyphs" textLength="105" x="95.5" y="409.6016">“application"</text><rect fill="#999999" height="52.9766" style="stroke: #8A8A8A; stroke-width: 1.5;" width="125" x="245.5" y="370"/><text fill="#FFFFFF" font-family="sans-serif" font-size="12" font-style="italic" lengthAdjust="spacingAndGlyphs" textLength="105" x="255.5" y="391.6016">«external_system»</text><text fill="#FFFFFF" font-family="sans-serif" font-size="16" font-weight="bold" lengthAdjust="spacingAndGlyphs" textLength="27" x="294.5" y="409.6016">API</text><path d="M42.4,94.15 C44.75,119.16 51.64,149.98 70,171 C96.34,201.15 139.42,216.34 173.95,223.96 " fill="none" id="user_s-&gt;boundary" style="stroke: #666666; stroke-width: 1.0;"/><polygon fill="#666666" points="178.98,225.03,171.0133,219.2394,174.0902,223.9863,169.3433,227.0631,178.98,225.03" style="stroke: #666666; stroke-width: 1.0;"/><text fill="#666666" font-family="sans-serif" font-size="13" font-weight="bold" lengthAdjust="spacingAndGlyphs" textLength="140" x="71" y="145.0684">Browses through the</text><text fill="#666666" font-family="sans-serif" font-size="13" font-weight="bold" lengthAdjust="spacingAndGlyphs" textLength="75" x="105.5" y="160.3789">application</text><path d="M225.95,94.25 C225.55,104.02 225.2,114.37 225,124 C224.57,144.88 224.48,150.12 225,171 C225.19,178.86 225.53,187.29 225.91,195.28 " fill="none" id="user_p-&gt;boundary" style="stroke: #666666; stroke-width: 1.0;"/><polygon fill="#666666" points="226.18,200.73,229.7111,191.5359,225.9225,195.7366,221.7217,191.948,226.18,200.73" style="stroke: #666666; stroke-width: 1.0;"/><text fill="#666666" font-family="sans-serif" font-size="13" font-weight="bold" lengthAdjust="spacingAndGlyphs" textLength="138" x="226" y="145.0684">Provides all relevant</text><text fill="#666666" font-family="sans-serif" font-size="13" font-weight="bold" lengthAdjust="spacingAndGlyphs" textLength="79" x="257.5" y="160.3789">information</text><path d="M407.07,94.16 C402.17,119.18 392.41,150.01 373,171 C349.1,196.86 312.43,212.02 281.95,220.7 " fill="none" id="user_d-&gt;boundary" style="stroke: #666666; stroke-width: 1.0;"/><polygon fill="#666666" points="277.11,222.04,286.8498,223.5017,281.9298,220.7099,284.7216,215.7899,277.11,222.04" style="stroke: #666666; stroke-width: 1.0;"/><text fill="#666666" font-family="sans-serif" font-size="13" font-weight="bold" lengthAdjust="spacingAndGlyphs" textLength="139" x="400" y="137.5684">Updates information</text><text fill="#666666" font-family="sans-serif" font-size="13" font-weight="bold" lengthAdjust="spacingAndGlyphs" textLength="82" x="428.5" y="152.8789">for different</text><text fill="#666666" font-family="sans-serif" font-size="13" font-weight="bold" lengthAdjust="spacingAndGlyphs" textLength="70" x="436.5" y="168.1895">categories</text><path d="M191.41,264.31 C182.92,273.11 174.71,283.25 169,294 C157.32,315.97 152.13,343.82 149.83,364.79 " fill="none" id="boundary-&gt;application" style="stroke: #666666; stroke-width: 1.0;"/><polygon fill="#666666" points="149.31,369.96,154.2149,361.4194,149.8245,364.9865,146.2573,360.5962,149.31,369.96" style="stroke: #666666; stroke-width: 1.0;"/><text fill="#666666" font-family="sans-serif" font-size="13" font-weight="bold" lengthAdjust="spacingAndGlyphs" textLength="94" x="170" y="315.0684">Sync Changes</text><text fill="#666666" font-family="sans-serif" font-size="12" font-style="italic" lengthAdjust="spacingAndGlyphs" textLength="73" x="180.5" y="329.4121">[Information]</text><path d="M250.69,264.06 C257.08,273.39 263.71,283.88 269,294 C280.97,316.93 291.3,344.39 298.32,364.96 " fill="none" id="boundary-&gt;API" style="stroke: #666666; stroke-width: 1.0;"/><polygon fill="#666666" points="299.94,369.77,300.8533,359.9636,298.3417,365.0323,293.273,362.5208,299.94,369.77" style="stroke: #666666; stroke-width: 1.0;"/><text fill="#666666" font-family="sans-serif" font-size="13" font-weight="bold" lengthAdjust="spacingAndGlyphs" textLength="147" x="289" y="307.5684">Location and external</text><text fill="#666666" font-family="sans-serif" font-size="13" font-weight="bold" lengthAdjust="spacingAndGlyphs" textLength="100" x="312.5" y="322.8789">browser usage</text><text fill="#666666" font-family="sans-serif" font-size="12" font-style="italic" lengthAdjust="spacingAndGlyphs" textLength="50" x="337.5" y="337.2227">[content]</text></g></svg>