<?xml version="1.0" encoding="UTF-8" standalone="no"?><svg xmlns="http://www.w3.org/2000/svg" xmlns:xlink="http://www.w3.org/1999/xlink" contentScriptType="application/ecmascript" contentStyleType="text/css" height="854px" preserveAspectRatio="none" style="width:2006px;height:854px;" version="1.1" viewBox="0 0 2006 854" width="2006px" zoomAndPan="magnify"><defs/><g><text fill="#000000" font-family="Courier" font-size="14" font-weight="bold" lengthAdjust="spacingAndGlyphs" textLength="216" x="894" y="22.9951">Operation of Stripe Connect</text><rect fill="#DDDDDD" height="809.3828" style="stroke: #383838; stroke-width: 1.0;" width="1142" x="4" y="34.2969"/><text fill="#000000" font-family="Courier" font-size="13" font-weight="bold" lengthAdjust="spacingAndGlyphs" textLength="112" x="519" y="46.3638">User Interface</text><line style="stroke: #383838; stroke-width: 1.0; stroke-dasharray: 5.0,5.0;" x1="27" x2="27" y1="132.7266" y2="761.3828"/><line style="stroke: #383838; stroke-width: 1.0; stroke-dasharray: 5.0,5.0;" x1="323" x2="323" y1="132.7266" y2="761.3828"/><line style="stroke: #383838; stroke-width: 1.0; stroke-dasharray: 5.0,5.0;" x1="391" x2="391" y1="132.7266" y2="761.3828"/><line style="stroke: #383838; stroke-width: 1.0; stroke-dasharray: 5.0,5.0;" x1="475" x2="475" y1="132.7266" y2="761.3828"/><line style="stroke: #383838; stroke-width: 1.0; stroke-dasharray: 5.0,5.0;" x1="551" x2="551" y1="132.7266" y2="761.3828"/><line style="stroke: #383838; stroke-width: 1.0; stroke-dasharray: 5.0,5.0;" x1="623" x2="623" y1="132.7266" y2="761.3828"/><line style="stroke: #383838; stroke-width: 1.0; stroke-dasharray: 5.0,5.0;" x1="731" x2="731" y1="132.7266" y2="761.3828"/><line style="stroke: #383838; stroke-width: 1.0; stroke-dasharray: 5.0,5.0;" x1="851" x2="851" y1="132.7266" y2="761.3828"/><line style="stroke: #383838; stroke-width: 1.0; stroke-dasharray: 5.0,5.0;" x1="951" x2="951" y1="132.7266" y2="761.3828"/><line style="stroke: #383838; stroke-width: 1.0; stroke-dasharray: 5.0,5.0;" x1="1043" x2="1043" y1="132.7266" y2="761.3828"/><line style="stroke: #383838; stroke-width: 1.0; stroke-dasharray: 5.0,5.0;" x1="1119" x2="1119" y1="132.7266" y2="761.3828"/><line style="stroke: #383838; stroke-width: 1.0; stroke-dasharray: 5.0,5.0;" x1="1203" x2="1203" y1="132.7266" y2="761.3828"/><line style="stroke: #383838; stroke-width: 1.0; stroke-dasharray: 5.0,5.0;" x1="1411" x2="1411" y1="132.7266" y2="761.3828"/><line style="stroke: #383838; stroke-width: 1.0; stroke-dasharray: 5.0,5.0;" x1="1503" x2="1503" y1="132.7266" y2="761.3828"/><line style="stroke: #383838; stroke-width: 1.0; stroke-dasharray: 5.0,5.0;" x1="1583" x2="1583" y1="132.7266" y2="761.3828"/><line style="stroke: #383838; stroke-width: 1.0; stroke-dasharray: 5.0,5.0;" x1="1655" x2="1655" y1="132.7266" y2="761.3828"/><line style="stroke: #383838; stroke-width: 1.0; stroke-dasharray: 5.0,5.0;" x1="1731" x2="1731" y1="132.7266" y2="761.3828"/><text fill="#000000" font-family="Courier" font-size="14" lengthAdjust="spacingAndGlyphs" textLength="32" x="8" y="129.4248">user</text><ellipse cx="27" cy="63.4297" fill="#4C4C4C" rx="8" ry="8" style="stroke: #383838; stroke-width: 2.0;"/><path d="M27,71.4297 L27,98.4297 M14,79.4297 L40,79.4297 M27,98.4297 L14,113.4297 M27,98.4297 L40,113.4297 " fill="none" style="stroke: #383838; stroke-width: 2.0;"/><text fill="#000000" font-family="Courier" font-size="14" lengthAdjust="spacingAndGlyphs" textLength="32" x="8" y="773.3779">user</text><ellipse cx="27" cy="786.6797" fill="#4C4C4C" rx="8" ry="8" style="stroke: #383838; stroke-width: 2.0;"/><path d="M27,794.6797 L27,821.6797 M14,802.6797 L40,802.6797 M27,821.6797 L14,836.6797 M27,821.6797 L40,836.6797 " fill="none" style="stroke: #383838; stroke-width: 2.0;"/><rect fill="#F8F8F8" height="30.2969" style="stroke: #383838; stroke-width: 1.5;" width="54" x="296" y="101.4297"/><text fill="#000000" font-family="Courier" font-size="14" lengthAdjust="spacingAndGlyphs" textLength="40" x="303" y="121.4248">Login</text><rect fill="#F8F8F8" height="30.2969" style="stroke: #383838; stroke-width: 1.5;" width="54" x="296" y="760.3828"/><text fill="#000000" font-family="Courier" font-size="14" lengthAdjust="spacingAndGlyphs" textLength="40" x="303" y="780.3779">Login</text><rect fill="#F8F8F8" height="30.2969" style="stroke: #383838; stroke-width: 1.5;" width="62" x="360" y="101.4297"/><text fill="#000000" font-family="Courier" font-size="14" lengthAdjust="spacingAndGlyphs" textLength="48" x="367" y="121.4248">Search</text><rect fill="#F8F8F8" height="30.2969" style="stroke: #383838; stroke-width: 1.5;" width="62" x="360" y="760.3828"/><text fill="#000000" font-family="Courier" font-size="14" lengthAdjust="spacingAndGlyphs" textLength="48" x="367" y="780.3779">Search</text><rect fill="#F8F8F8" height="30.2969" style="stroke: #383838; stroke-width: 1.5;" width="86" x="432" y="101.4297"/><text fill="#000000" font-family="Courier" font-size="14" lengthAdjust="spacingAndGlyphs" textLength="72" x="439" y="121.4248">Filtering</text><rect fill="#F8F8F8" height="30.2969" style="stroke: #383838; stroke-width: 1.5;" width="86" x="432" y="760.3828"/><text fill="#000000" font-family="Courier" font-size="14" lengthAdjust="spacingAndGlyphs" textLength="72" x="439" y="780.3779">Filtering</text><rect fill="#F8F8F8" height="30.2969" style="stroke: #383838; stroke-width: 1.5;" width="46" x="528" y="101.4297"/><text fill="#000000" font-family="Courier" font-size="14" lengthAdjust="spacingAndGlyphs" textLength="32" x="535" y="121.4248">Info</text><rect fill="#F8F8F8" height="30.2969" style="stroke: #383838; stroke-width: 1.5;" width="46" x="528" y="760.3828"/><text fill="#000000" font-family="Courier" font-size="14" lengthAdjust="spacingAndGlyphs" textLength="32" x="535" y="780.3779">Info</text><rect fill="#F8F8F8" height="30.2969" style="stroke: #383838; stroke-width: 1.5;" width="78" x="584" y="101.4297"/><text fill="#000000" font-family="Courier" font-size="14" lengthAdjust="spacingAndGlyphs" textLength="64" x="591" y="121.4248">Location</text><rect fill="#F8F8F8" height="30.2969" style="stroke: #383838; stroke-width: 1.5;" width="78" x="584" y="760.3828"/><text fill="#000000" font-family="Courier" font-size="14" lengthAdjust="spacingAndGlyphs" textLength="64" x="591" y="780.3779">Location</text><rect fill="#F8F8F8" height="30.2969" style="stroke: #383838; stroke-width: 1.5;" width="118" x="672" y="101.4297"/><text fill="#000000" font-family="Courier" font-size="14" lengthAdjust="spacingAndGlyphs" textLength="104" x="679" y="121.4248">Subscriptions</text><rect fill="#F8F8F8" height="30.2969" style="stroke: #383838; stroke-width: 1.5;" width="118" x="672" y="760.3828"/><text fill="#000000" font-family="Courier" font-size="14" lengthAdjust="spacingAndGlyphs" textLength="104" x="679" y="780.3779">Subscriptions</text><rect fill="#F8F8F8" height="30.2969" style="stroke: #383838; stroke-width: 1.5;" width="102" x="800" y="101.4297"/><text fill="#000000" font-family="Courier" font-size="14" lengthAdjust="spacingAndGlyphs" textLength="88" x="807" y="121.4248">Preferences</text><rect fill="#F8F8F8" height="30.2969" style="stroke: #383838; stroke-width: 1.5;" width="102" x="800" y="760.3828"/><text fill="#000000" font-family="Courier" font-size="14" lengthAdjust="spacingAndGlyphs" textLength="88" x="807" y="780.3779">Preferences</text><rect fill="#F8F8F8" height="30.2969" style="stroke: #383838; stroke-width: 1.5;" width="78" x="912" y="101.4297"/><text fill="#000000" font-family="Courier" font-size="14" lengthAdjust="spacingAndGlyphs" textLength="64" x="919" y="121.4248">Bookings</text><rect fill="#F8F8F8" height="30.2969" style="stroke: #383838; stroke-width: 1.5;" width="78" x="912" y="760.3828"/><text fill="#000000" font-family="Courier" font-size="14" lengthAdjust="spacingAndGlyphs" textLength="64" x="919" y="780.3779">Bookings</text><rect fill="#F8F8F8" height="30.2969" style="stroke: #383838; stroke-width: 1.5;" width="86" x="1000" y="101.4297"/><text fill="#000000" font-family="Courier" font-size="14" lengthAdjust="spacingAndGlyphs" textLength="72" x="1007" y="121.4248">Transport</text><rect fill="#F8F8F8" height="30.2969" style="stroke: #383838; stroke-width: 1.5;" width="86" x="1000" y="760.3828"/><text fill="#000000" font-family="Courier" font-size="14" lengthAdjust="spacingAndGlyphs" textLength="72" x="1007" y="780.3779">Transport</text><rect fill="#F8F8F8" height="30.2969" style="stroke: #383838; stroke-width: 1.5;" width="46" x="1096" y="101.4297"/><text fill="#000000" font-family="Courier" font-size="14" lengthAdjust="spacingAndGlyphs" textLength="32" x="1103" y="121.4248">Mode</text><rect fill="#F8F8F8" height="30.2969" style="stroke: #383838; stroke-width: 1.5;" width="46" x="1096" y="760.3828"/><text fill="#000000" font-family="Courier" font-size="14" lengthAdjust="spacingAndGlyphs" textLength="32" x="1103" y="780.3779">Mode</text><text fill="#000000" font-family="Courier" font-size="14" lengthAdjust="spacingAndGlyphs" textLength="96" x="1152" y="129.4248">TransportAPI</text><ellipse cx="1203" cy="100.4297" fill="#F8F8F8" rx="12" ry="12" style="stroke: #383838; stroke-width: 2.0;"/><line style="stroke: #383838; stroke-width: 2.0;" x1="1191" x2="1215" y1="114.4297" y2="114.4297"/><text fill="#000000" font-family="Courier" font-size="14" lengthAdjust="spacingAndGlyphs" textLength="96" x="1152" y="773.3779">TransportAPI</text><ellipse cx="1203" cy="792.6797" fill="#F8F8F8" rx="12" ry="12" style="stroke: #383838; stroke-width: 2.0;"/><line style="stroke: #383838; stroke-width: 2.0;" x1="1191" x2="1215" y1="806.6797" y2="806.6797"/><text fill="#000000" font-family="Courier" font-size="14" lengthAdjust="spacingAndGlyphs" textLength="80" x="1368" y="129.4248">ConnectAPI</text><ellipse cx="1411" cy="100.4297" fill="#F8F8F8" rx="12" ry="12" style="stroke: #383838; stroke-width: 2.0;"/><line style="stroke: #383838; stroke-width: 2.0;" x1="1399" x2="1423" y1="114.4297" y2="114.4297"/><text fill="#000000" font-family="Courier" font-size="14" lengthAdjust="spacingAndGlyphs" textLength="80" x="1368" y="773.3779">ConnectAPI</text><ellipse cx="1411" cy="792.6797" fill="#F8F8F8" rx="12" ry="12" style="stroke: #383838; stroke-width: 2.0;"/><line style="stroke: #383838; stroke-width: 2.0;" x1="1399" x2="1423" y1="806.6797" y2="806.6797"/><text fill="#000000" font-family="Courier" font-size="14" lengthAdjust="spacingAndGlyphs" textLength="72" x="1464" y="129.4248">StripeAPI</text><ellipse cx="1503" cy="100.4297" fill="#F8F8F8" rx="12" ry="12" style="stroke: #383838; stroke-width: 2.0;"/><line style="stroke: #383838; stroke-width: 2.0;" x1="1491" x2="1515" y1="114.4297" y2="114.4297"/><text fill="#000000" font-family="Courier" font-size="14" lengthAdjust="spacingAndGlyphs" textLength="72" x="1464" y="773.3779">StripeAPI</text><ellipse cx="1503" cy="792.6797" fill="#F8F8F8" rx="12" ry="12" style="stroke: #383838; stroke-width: 2.0;"/><line style="stroke: #383838; stroke-width: 2.0;" x1="1491" x2="1515" y1="806.6797" y2="806.6797"/><rect fill="#F8F8F8" height="30.2969" style="stroke: #383838; stroke-width: 1.5;" width="62" x="1552" y="101.4297"/><text fill="#000000" font-family="Courier" font-size="14" lengthAdjust="spacingAndGlyphs" textLength="48" x="1559" y="121.4248">Stripe</text><rect fill="#F8F8F8" height="30.2969" style="stroke: #383838; stroke-width: 1.5;" width="62" x="1552" y="760.3828"/><text fill="#000000" font-family="Courier" font-size="14" lengthAdjust="spacingAndGlyphs" textLength="48" x="1559" y="780.3779">Stripe</text><text fill="#000000" font-family="Courier" font-size="14" lengthAdjust="spacingAndGlyphs" textLength="56" x="1624" y="129.4248">RESTAPI</text><ellipse cx="1655" cy="100.4297" fill="#F8F8F8" rx="12" ry="12" style="stroke: #383838; stroke-width: 2.0;"/><line style="stroke: #383838; stroke-width: 2.0;" x1="1643" x2="1667" y1="114.4297" y2="114.4297"/><text fill="#000000" font-family="Courier" font-size="14" lengthAdjust="spacingAndGlyphs" textLength="56" x="1624" y="773.3779">RESTAPI</text><ellipse cx="1655" cy="792.6797" fill="#F8F8F8" rx="12" ry="12" style="stroke: #383838; stroke-width: 2.0;"/><line style="stroke: #383838; stroke-width: 2.0;" x1="1643" x2="1667" y1="806.6797" y2="806.6797"/><text fill="#000000" font-family="Courier" font-size="14" lengthAdjust="spacingAndGlyphs" textLength="64" x="1696" y="129.4248">Firebase</text><path d="M1713,80.4297 C1713,70.4297 1731,70.4297 1731,70.4297 C1731,70.4297 1749,70.4297 1749,80.4297 L1749,106.4297 C1749,116.4297 1731,116.4297 1731,116.4297 C1731,116.4297 1713,116.4297 1713,106.4297 L1713,80.4297 " fill="#7F7F7F" style="stroke: #000000; stroke-width: 1.5;"/><path d="M1713,80.4297 C1713,90.4297 1731,90.4297 1731,90.4297 C1731,90.4297 1749,90.4297 1749,80.4297 " fill="none" style="stroke: #000000; stroke-width: 1.5;"/><text fill="#000000" font-family="Courier" font-size="14" lengthAdjust="spacingAndGlyphs" textLength="64" x="1696" y="773.3779">Firebase</text><path d="M1713,786.6797 C1713,776.6797 1731,776.6797 1731,776.6797 C1731,776.6797 1749,776.6797 1749,786.6797 L1749,812.6797 C1749,822.6797 1731,822.6797 1731,822.6797 C1731,822.6797 1713,822.6797 1713,812.6797 L1713,786.6797 " fill="#7F7F7F" style="stroke: #000000; stroke-width: 1.5;"/><path d="M1713,786.6797 C1713,796.6797 1731,796.6797 1731,796.6797 C1731,796.6797 1749,796.6797 1749,786.6797 " fill="none" style="stroke: #000000; stroke-width: 1.5;"/><polygon fill="#383838" points="311,159.8594,321,163.8594,311,167.8594,315,163.8594" style="stroke: #383838; stroke-width: 1.0;"/><line style="stroke: #383838; stroke-width: 1.0;" x1="27" x2="317" y1="163.8594" y2="163.8594"/><text fill="#000000" font-family="Courier" font-size="13" lengthAdjust="spacingAndGlyphs" textLength="272" x="34" y="158.7935">Shop owner inputs auth credentials</text><polygon fill="#383838" points="1719,188.9922,1729,192.9922,1719,196.9922,1723,192.9922" style="stroke: #383838; stroke-width: 1.0;"/><line style="stroke: #383838; stroke-width: 1.0;" x1="323" x2="1725" y1="192.9922" y2="192.9922"/><text fill="#000000" font-family="Courier" font-size="13" lengthAdjust="spacingAndGlyphs" textLength="160" x="330" y="187.9263">Begin Authentication</text><line style="stroke: #383838; stroke-width: 1.0;" x1="1731" x2="1773" y1="222.125" y2="222.125"/><line style="stroke: #383838; stroke-width: 1.0;" x1="1773" x2="1773" y1="222.125" y2="235.125"/><line style="stroke: #383838; stroke-width: 1.0;" x1="1732" x2="1773" y1="235.125" y2="235.125"/><polygon fill="#383838" points="1742,231.125,1732,235.125,1742,239.125,1738,235.125" style="stroke: #383838; stroke-width: 1.0;"/><text fill="#000000" font-family="Courier" font-size="13" lengthAdjust="spacingAndGlyphs" textLength="256" x="1738" y="217.0591">Pass credentials to FirebaseAuth</text><line style="stroke: #383838; stroke-width: 1.0;" x1="1731" x2="1773" y1="264.2578" y2="264.2578"/><line style="stroke: #383838; stroke-width: 1.0;" x1="1773" x2="1773" y1="264.2578" y2="277.2578"/><line style="stroke: #383838; stroke-width: 1.0;" x1="1732" x2="1773" y1="277.2578" y2="277.2578"/><polygon fill="#383838" points="1742,273.2578,1732,277.2578,1742,281.2578,1738,277.2578" style="stroke: #383838; stroke-width: 1.0;"/><text fill="#000000" font-family="Courier" font-size="13" lengthAdjust="spacingAndGlyphs" textLength="120" x="1738" y="259.1919">.getCurrentUser</text><polygon fill="#383838" points="334,302.3906,324,306.3906,334,310.3906,330,306.3906" style="stroke: #383838; stroke-width: 1.0;"/><line style="stroke: #383838; stroke-width: 1.0; stroke-dasharray: 2.0,2.0;" x1="328" x2="1730" y1="306.3906" y2="306.3906"/><text fill="#000000" font-family="Courier" font-size="13" lengthAdjust="spacingAndGlyphs" textLength="256" x="340" y="301.3247">Owner successfully authenticated</text><polygon fill="#383838" points="38,331.5234,28,335.5234,38,339.5234,34,335.5234" style="stroke: #383838; stroke-width: 1.0;"/><line style="stroke: #383838; stroke-width: 1.0;" x1="32" x2="322" y1="335.5234" y2="335.5234"/><text fill="#000000" font-family="Courier" font-size="13" lengthAdjust="spacingAndGlyphs" textLength="184" x="44" y="330.4575">Display welcome message</text><polygon fill="#383838" points="1399,360.6563,1409,364.6563,1399,368.6563,1403,364.6563" style="stroke: #383838; stroke-width: 1.0;"/><line style="stroke: #383838; stroke-width: 1.0;" x1="27" x2="1405" y1="364.6563" y2="364.6563"/><text fill="#000000" font-family="Courier" font-size="13" lengthAdjust="spacingAndGlyphs" textLength="632" x="34" y="359.5903">POST /v1/accounts with cardPayments,transfers,type,country,email,company,APIKey</text><polygon fill="#383838" points="38,389.7891,28,393.7891,38,397.7891,34,393.7891" style="stroke: #383838; stroke-width: 1.0;"/><line style="stroke: #383838; stroke-width: 1.0; stroke-dasharray: 2.0,2.0;" x1="32" x2="1410" y1="393.7891" y2="393.7891"/><text fill="#000000" font-family="Courier" font-size="13" lengthAdjust="spacingAndGlyphs" textLength="152" x="44" y="388.7231">Return /v1/accounts</text><polygon fill="#383838" points="1399,418.9219,1409,422.9219,1399,426.9219,1403,422.9219" style="stroke: #383838; stroke-width: 1.0;"/><line style="stroke: #383838; stroke-width: 1.0;" x1="27" x2="1405" y1="422.9219" y2="422.9219"/><text fill="#000000" font-family="Courier" font-size="13" lengthAdjust="spacingAndGlyphs" textLength="712" x="34" y="417.856">POST/v1/account_links with account,refresh_url,return_url,type=account_onboarding,collect</text><polygon fill="#383838" points="38,448.0547,28,452.0547,38,456.0547,34,452.0547" style="stroke: #383838; stroke-width: 1.0;"/><line style="stroke: #383838; stroke-width: 1.0; stroke-dasharray: 2.0,2.0;" x1="32" x2="1410" y1="452.0547" y2="452.0547"/><text fill="#000000" font-family="Courier" font-size="13" lengthAdjust="spacingAndGlyphs" textLength="448" x="44" y="446.9888">Return "https://connect.stripe.com/setup/s/h0Pj5SzjFTqm"</text><polygon fill="#383838" points="1399,477.1875,1409,481.1875,1399,485.1875,1403,481.1875" style="stroke: #383838; stroke-width: 1.0;"/><line style="stroke: #383838; stroke-width: 1.0;" x1="27" x2="1405" y1="481.1875" y2="481.1875"/><text fill="#000000" font-family="Courier" font-size="13" lengthAdjust="spacingAndGlyphs" textLength="1360" x="34" y="476.1216">POST /v1/payment_intents with attributes id,amount,automatic_payment_methods,charges,client_secrent,currency,customer,description,last_payment_error,payment_method,status</text><polygon fill="#383838" points="38,506.3203,28,510.3203,38,514.3203,34,510.3203" style="stroke: #383838; stroke-width: 1.0;"/><line style="stroke: #383838; stroke-width: 1.0;" x1="32" x2="1410" y1="510.3203" y2="510.3203"/><text fill="#000000" font-family="Courier" font-size="13" lengthAdjust="spacingAndGlyphs" textLength="208" x="44" y="505.2544">Return /v1/payment_intents</text><polygon fill="#383838" points="1399,535.4531,1409,539.4531,1399,543.4531,1403,539.4531" style="stroke: #383838; stroke-width: 1.0;"/><line style="stroke: #383838; stroke-width: 1.0;" x1="27" x2="1405" y1="539.4531" y2="539.4531"/><text fill="#000000" font-family="Courier" font-size="13" lengthAdjust="spacingAndGlyphs" textLength="736" x="34" y="534.3872">POST /v1/payment_methods with id,billing_details,customer,type,customer_balance,card_present</text><polygon fill="#383838" points="38,564.5859,28,568.5859,38,572.5859,34,568.5859" style="stroke: #383838; stroke-width: 1.0;"/><line style="stroke: #383838; stroke-width: 1.0; stroke-dasharray: 2.0,2.0;" x1="32" x2="1410" y1="568.5859" y2="568.5859"/><text fill="#000000" font-family="Courier" font-size="13" lengthAdjust="spacingAndGlyphs" textLength="176" x="44" y="563.52">Return payment_methods</text><polygon fill="#383838" points="1399,593.7188,1409,597.7188,1399,601.7188,1403,597.7188" style="stroke: #383838; stroke-width: 1.0;"/><line style="stroke: #383838; stroke-width: 1.0;" x1="27" x2="1405" y1="597.7188" y2="597.7188"/><text fill="#000000" font-family="Courier" font-size="13" lengthAdjust="spacingAndGlyphs" textLength="1016" x="34" y="592.6528">POST /v1/customers with id.object,address,create,currency,discount,email.invoice_settings,phone,name,shipping,preferred_locales</text><polygon fill="#383838" points="38,622.8516,28,626.8516,38,630.8516,34,626.8516" style="stroke: #383838; stroke-width: 1.0;"/><line style="stroke: #383838; stroke-width: 1.0; stroke-dasharray: 2.0,2.0;" x1="32" x2="1410" y1="626.8516" y2="626.8516"/><text fill="#000000" font-family="Courier" font-size="13" lengthAdjust="spacingAndGlyphs" textLength="160" x="44" y="621.7856">Return /v1/customers</text><polygon fill="#383838" points="1399,651.9844,1409,655.9844,1399,659.9844,1403,655.9844" style="stroke: #383838; stroke-width: 1.0;"/><line style="stroke: #383838; stroke-width: 1.0;" x1="27" x2="1405" y1="655.9844" y2="655.9844"/><text fill="#000000" font-family="Courier" font-size="13" lengthAdjust="spacingAndGlyphs" textLength="168" x="34" y="650.9185">POST /stripe_webhooks</text><polygon fill="#383838" points="38,681.1172,28,685.1172,38,689.1172,34,685.1172" style="stroke: #383838; stroke-width: 1.0;"/><line style="stroke: #383838; stroke-width: 1.0; stroke-dasharray: 2.0,2.0;" x1="32" x2="1410" y1="685.1172" y2="685.1172"/><text fill="#000000" font-family="Courier" font-size="13" lengthAdjust="spacingAndGlyphs" textLength="184" x="44" y="680.0513">Return /stripe_webhooks</text><polygon fill="#383838" points="1399,710.25,1409,714.25,1399,718.25,1403,714.25" style="stroke: #383838; stroke-width: 1.0;"/><line style="stroke: #383838; stroke-width: 1.0;" x1="27" x2="1405" y1="714.25" y2="714.25"/><text fill="#000000" font-family="Courier" font-size="13" lengthAdjust="spacingAndGlyphs" textLength="144" x="34" y="709.1841">GET /v1/events/:id</text><polygon fill="#383838" points="38,739.3828,28,743.3828,38,747.3828,34,743.3828" style="stroke: #383838; stroke-width: 1.0;"/><line style="stroke: #383838; stroke-width: 1.0; stroke-dasharray: 2.0,2.0;" x1="32" x2="1410" y1="743.3828" y2="743.3828"/><text fill="#000000" font-family="Courier" font-size="13" lengthAdjust="spacingAndGlyphs" textLength="104" x="44" y="738.3169">Return events</text></g></svg>