<?xml version="1.0" encoding="UTF-8" standalone="no"?><svg xmlns="http://www.w3.org/2000/svg" xmlns:xlink="http://www.w3.org/1999/xlink" contentScriptType="application/ecmascript" contentStyleType="text/css" height="418px" preserveAspectRatio="none" style="width:1010px;height:418px;" version="1.1" viewBox="0 0 1010 418" width="1010px" zoomAndPan="magnify"><defs/><g><text fill="#000000" font-family="Courier" font-size="14" font-weight="bold" lengthAdjust="spacingAndGlyphs" textLength="232" x="388" y="22.9951">Selection of App mode by User</text><line style="stroke: #383838; stroke-width: 1.0; stroke-dasharray: 5.0,5.0;" x1="71" x2="71" y1="95.5938" y2="345.5234"/><line style="stroke: #383838; stroke-width: 1.0; stroke-dasharray: 5.0,5.0;" x1="255" x2="255" y1="95.5938" y2="345.5234"/><line style="stroke: #383838; stroke-width: 1.0; stroke-dasharray: 5.0,5.0;" x1="343" x2="343" y1="95.5938" y2="345.5234"/><line style="stroke: #383838; stroke-width: 1.0; stroke-dasharray: 5.0,5.0;" x1="431" x2="431" y1="95.5938" y2="345.5234"/><line style="stroke: #383838; stroke-width: 1.0; stroke-dasharray: 5.0,5.0;" x1="547" x2="547" y1="95.5938" y2="345.5234"/><line style="stroke: #383838; stroke-width: 1.0; stroke-dasharray: 5.0,5.0;" x1="643" x2="643" y1="95.5938" y2="345.5234"/><line style="stroke: #383838; stroke-width: 1.0; stroke-dasharray: 5.0,5.0;" x1="703" x2="703" y1="95.5938" y2="345.5234"/><rect fill="#F8F8F8" height="30.2969" style="stroke: #383838; stroke-width: 1.5;" width="126" x="8" y="64.2969"/><text fill="#000000" font-family="Courier" font-size="14" lengthAdjust="spacingAndGlyphs" textLength="112" x="15" y="84.292">User Interface</text><rect fill="#F8F8F8" height="30.2969" style="stroke: #383838; stroke-width: 1.5;" width="126" x="8" y="344.5234"/><text fill="#000000" font-family="Courier" font-size="14" lengthAdjust="spacingAndGlyphs" textLength="112" x="15" y="364.5186">User Interface</text><rect fill="#F8F8F8" height="30.2969" style="stroke: #383838; stroke-width: 1.5;" width="78" x="216" y="64.2969"/><text fill="#000000" font-family="Courier" font-size="14" lengthAdjust="spacingAndGlyphs" textLength="64" x="223" y="84.292">Security</text><rect fill="#F8F8F8" height="30.2969" style="stroke: #383838; stroke-width: 1.5;" width="78" x="216" y="344.5234"/><text fill="#000000" font-family="Courier" font-size="14" lengthAdjust="spacingAndGlyphs" textLength="64" x="223" y="364.5186">Security</text><rect fill="#F8F8F8" height="30.2969" style="stroke: #383838; stroke-width: 1.5;" width="78" x="304" y="64.2969"/><text fill="#000000" font-family="Courier" font-size="14" lengthAdjust="spacingAndGlyphs" textLength="64" x="311" y="84.292">Browsing</text><rect fill="#F8F8F8" height="30.2969" style="stroke: #383838; stroke-width: 1.5;" width="78" x="304" y="344.5234"/><text fill="#000000" font-family="Courier" font-size="14" lengthAdjust="spacingAndGlyphs" textLength="64" x="311" y="364.5186">Browsing</text><rect fill="#F8F8F8" height="30.2969" style="stroke: #383838; stroke-width: 1.5;" width="78" x="392" y="64.2969"/><text fill="#000000" font-family="Courier" font-size="14" lengthAdjust="spacingAndGlyphs" textLength="64" x="399" y="84.292">Services</text><rect fill="#F8F8F8" height="30.2969" style="stroke: #383838; stroke-width: 1.5;" width="78" x="392" y="344.5234"/><text fill="#000000" font-family="Courier" font-size="14" lengthAdjust="spacingAndGlyphs" textLength="64" x="399" y="364.5186">Services</text><rect fill="#F8F8F8" height="30.2969" style="stroke: #383838; stroke-width: 1.5;" width="134" x="480" y="64.2969"/><text fill="#000000" font-family="Courier" font-size="14" lengthAdjust="spacingAndGlyphs" textLength="120" x="487" y="84.292">Payment Gateway</text><rect fill="#F8F8F8" height="30.2969" style="stroke: #383838; stroke-width: 1.5;" width="134" x="480" y="344.5234"/><text fill="#000000" font-family="Courier" font-size="14" lengthAdjust="spacingAndGlyphs" textLength="120" x="487" y="364.5186">Payment Gateway</text><rect fill="#F8F8F8" height="30.2969" style="stroke: #383838; stroke-width: 1.5;" width="38" x="624" y="64.2969"/><text fill="#000000" font-family="Courier" font-size="14" lengthAdjust="spacingAndGlyphs" textLength="24" x="631" y="84.292">API</text><rect fill="#F8F8F8" height="30.2969" style="stroke: #383838; stroke-width: 1.5;" width="38" x="624" y="344.5234"/><text fill="#000000" font-family="Courier" font-size="14" lengthAdjust="spacingAndGlyphs" textLength="24" x="631" y="364.5186">API</text><text fill="#000000" font-family="Courier" font-size="14" lengthAdjust="spacingAndGlyphs" textLength="56" x="672" y="92.292">RealmDB</text><path d="M685,43.2969 C685,33.2969 703,33.2969 703,33.2969 C703,33.2969 721,33.2969 721,43.2969 L721,69.2969 C721,79.2969 703,79.2969 703,79.2969 C703,79.2969 685,79.2969 685,69.2969 L685,43.2969 " fill="#7F7F7F" style="stroke: #000000; stroke-width: 1.5;"/><path d="M685,43.2969 C685,53.2969 703,53.2969 703,53.2969 C703,53.2969 721,53.2969 721,43.2969 " fill="none" style="stroke: #000000; stroke-width: 1.5;"/><text fill="#000000" font-family="Courier" font-size="14" lengthAdjust="spacingAndGlyphs" textLength="56" x="672" y="357.5186">RealmDB</text><path d="M685,370.8203 C685,360.8203 703,360.8203 703,360.8203 C703,360.8203 721,360.8203 721,370.8203 L721,396.8203 C721,406.8203 703,406.8203 703,406.8203 C703,406.8203 685,406.8203 685,396.8203 L685,370.8203 " fill="#7F7F7F" style="stroke: #000000; stroke-width: 1.5;"/><path d="M685,370.8203 C685,380.8203 703,380.8203 703,380.8203 C703,380.8203 721,380.8203 721,370.8203 " fill="none" style="stroke: #000000; stroke-width: 1.5;"/><polygon fill="#383838" points="243,122.7266,253,126.7266,243,130.7266,247,126.7266" style="stroke: #383838; stroke-width: 1.0;"/><line style="stroke: #383838; stroke-width: 1.0;" x1="71" x2="249" y1="126.7266" y2="126.7266"/><text fill="#000000" font-family="Courier" font-size="13" lengthAdjust="spacingAndGlyphs" textLength="160" x="78" y="121.6606">User logins into app</text><polygon fill="#383838" points="82,151.8594,72,155.8594,82,159.8594,78,155.8594" style="stroke: #383838; stroke-width: 1.0;"/><line style="stroke: #383838; stroke-width: 1.0; stroke-dasharray: 2.0,2.0;" x1="76" x2="702" y1="155.8594" y2="155.8594"/><text fill="#000000" font-family="Courier" font-size="13" lengthAdjust="spacingAndGlyphs" textLength="144" x="88" y="150.7935">User authenticated</text><polygon fill="#383838" points="419,180.9922,429,184.9922,419,188.9922,423,184.9922" style="stroke: #383838; stroke-width: 1.0;"/><line style="stroke: #383838; stroke-width: 1.0;" x1="71" x2="425" y1="184.9922" y2="184.9922"/><text fill="#000000" font-family="Courier" font-size="13" lengthAdjust="spacingAndGlyphs" textLength="216" x="78" y="179.9263">User selects traveller mode</text><polygon fill="#383838" points="691,210.125,701,214.125,691,218.125,695,214.125" style="stroke: #383838; stroke-width: 1.0;"/><line style="stroke: #383838; stroke-width: 1.0;" x1="431" x2="697" y1="214.125" y2="214.125"/><text fill="#000000" font-family="Courier" font-size="13" lengthAdjust="spacingAndGlyphs" textLength="184" x="438" y="209.0591">User request sent to DB</text><line style="stroke: #383838; stroke-width: 1.0;" x1="703" x2="745" y1="243.2578" y2="243.2578"/><line style="stroke: #383838; stroke-width: 1.0;" x1="745" x2="745" y1="243.2578" y2="256.2578"/><line style="stroke: #383838; stroke-width: 1.0;" x1="704" x2="745" y1="256.2578" y2="256.2578"/><polygon fill="#383838" points="714,252.2578,704,256.2578,714,260.2578,710,256.2578" style="stroke: #383838; stroke-width: 1.0;"/><text fill="#000000" font-family="Courier" font-size="13" lengthAdjust="spacingAndGlyphs" textLength="288" x="710" y="238.1919">Adds userId to relevant column in DB</text><line style="stroke: #383838; stroke-width: 1.0;" x1="703" x2="745" y1="285.3906" y2="285.3906"/><line style="stroke: #383838; stroke-width: 1.0;" x1="745" x2="745" y1="285.3906" y2="298.3906"/><line style="stroke: #383838; stroke-width: 1.0;" x1="704" x2="745" y1="298.3906" y2="298.3906"/><polygon fill="#383838" points="714,294.3906,704,298.3906,714,302.3906,710,298.3906" style="stroke: #383838; stroke-width: 1.0;"/><text fill="#000000" font-family="Courier" font-size="13" lengthAdjust="spacingAndGlyphs" textLength="184" x="710" y="280.3247">Save column information</text><polygon fill="#383838" points="82,323.5234,72,327.5234,82,331.5234,78,327.5234" style="stroke: #383838; stroke-width: 1.0;"/><line style="stroke: #383838; stroke-width: 1.0;" x1="76" x2="702" y1="327.5234" y2="327.5234"/><text fill="#000000" font-family="Courier" font-size="13" lengthAdjust="spacingAndGlyphs" textLength="296" x="88" y="322.4575">Display the relevant screens for user</text></g></svg>