<?xml version="1.0" encoding="us-ascii" standalone="no"?><svg xmlns="http://www.w3.org/2000/svg" xmlns:xlink="http://www.w3.org/1999/xlink" contentStyleType="text/css" height="526px" preserveAspectRatio="none" style="width:2465px;height:526px;background:#FFFFFF;" version="1.1" viewBox="0 0 2465 526" width="2465px" zoomAndPan="magnify"><defs/><g><!--cluster UserInterface--><g id="cluster_UserInterface"><rect fill="none" height="513" rx="2.5" ry="2.5" style="stroke:#181818;stroke-width:1.0;" width="606" x="1853" y="7"/><text fill="#000000" font-family="sans-serif" font-size="14" font-weight="bold" lengthAdjust="spacing" textLength="110" x="2101" y="21.9951">UserInterface</text></g><!--cluster Services--><g id="cluster_Services"><rect fill="none" height="203" rx="2.5" ry="2.5" style="stroke:#181818;stroke-width:1.0;" width="253" x="2174" y="58"/><rect fill="none" height="10" style="stroke:#181818;stroke-width:1.0;" width="15" x="2407" y="63"/><rect fill="none" height="2" style="stroke:#181818;stroke-width:1.0;" width="4" x="2405" y="65"/><rect fill="none" height="2" style="stroke:#181818;stroke-width:1.0;" width="4" x="2405" y="69"/><text fill="#000000" font-family="sans-serif" font-size="14" font-weight="bold" lengthAdjust="spacing" textLength="67" x="2267" y="83.9951">Services</text></g><!--cluster Browsing--><g id="cluster_Browsing"><rect fill="none" height="203" rx="2.5" ry="2.5" style="stroke:#181818;stroke-width:1.0;" width="257" x="1893" y="58"/><rect fill="none" height="10" style="stroke:#181818;stroke-width:1.0;" width="15" x="2130" y="63"/><rect fill="none" height="2" style="stroke:#181818;stroke-width:1.0;" width="4" x="2128" y="65"/><rect fill="none" height="2" style="stroke:#181818;stroke-width:1.0;" width="4" x="2128" y="69"/><text fill="#000000" font-family="sans-serif" font-size="14" font-weight="bold" lengthAdjust="spacing" textLength="75" x="1984" y="83.9951">Browsing</text></g><!--cluster Personalize--><g id="cluster_Personalize"><rect fill="none" height="203" rx="2.5" ry="2.5" style="stroke:#181818;stroke-width:1.0;" width="274" x="2153" y="285"/><rect fill="none" height="10" style="stroke:#181818;stroke-width:1.0;" width="15" x="2407" y="290"/><rect fill="none" height="2" style="stroke:#181818;stroke-width:1.0;" width="4" x="2405" y="292"/><rect fill="none" height="2" style="stroke:#181818;stroke-width:1.0;" width="4" x="2405" y="296"/><text fill="#000000" font-family="sans-serif" font-size="14" font-weight="bold" lengthAdjust="spacing" textLength="93" x="2243.5" y="310.9951">Personalize</text></g><!--entity Bookings--><g id="elem_Bookings"><rect fill="#F1F1F1" height="46.2969" rx="2.5" ry="2.5" style="stroke:#181818;stroke-width:0.5;" width="106" x="2190" y="93"/><rect fill="#F1F1F1" height="10" style="stroke:#181818;stroke-width:0.5;" width="15" x="2276" y="98"/><rect fill="#F1F1F1" height="2" style="stroke:#181818;stroke-width:0.5;" width="4" x="2274" y="100"/><rect fill="#F1F1F1" height="2" style="stroke:#181818;stroke-width:0.5;" width="4" x="2274" y="104"/><text fill="#000000" font-family="sans-serif" font-size="14" lengthAdjust="spacing" textLength="66" x="2205" y="125.9951">Bookings</text></g><!--entity Mode--><g id="elem_Mode"><rect fill="#F1F1F1" height="46.2969" rx="2.5" ry="2.5" style="stroke:#181818;stroke-width:0.5;" width="79" x="2331.5" y="93"/><rect fill="#F1F1F1" height="10" style="stroke:#181818;stroke-width:0.5;" width="15" x="2390.5" y="98"/><rect fill="#F1F1F1" height="2" style="stroke:#181818;stroke-width:0.5;" width="4" x="2388.5" y="100"/><rect fill="#F1F1F1" height="2" style="stroke:#181818;stroke-width:0.5;" width="4" x="2388.5" y="104"/><text fill="#000000" font-family="sans-serif" font-size="14" lengthAdjust="spacing" textLength="39" x="2346.5" y="125.9951">Mode</text></g><!--entity Translation--><g id="elem_Translation"><rect fill="#F1F1F1" height="46.2969" rx="2.5" ry="2.5" style="stroke:#181818;stroke-width:0.5;" width="120" x="2190" y="199"/><rect fill="#F1F1F1" height="10" style="stroke:#181818;stroke-width:0.5;" width="15" x="2290" y="204"/><rect fill="#F1F1F1" height="2" style="stroke:#181818;stroke-width:0.5;" width="4" x="2288" y="206"/><rect fill="#F1F1F1" height="2" style="stroke:#181818;stroke-width:0.5;" width="4" x="2288" y="210"/><text fill="#000000" font-family="sans-serif" font-size="14" lengthAdjust="spacing" textLength="80" x="2205" y="231.9951">Translation</text></g><!--entity Search--><g id="elem_Search"><rect fill="#F1F1F1" height="46.2969" rx="2.5" ry="2.5" style="stroke:#181818;stroke-width:0.5;" width="89" x="1909.5" y="93"/><rect fill="#F1F1F1" height="10" style="stroke:#181818;stroke-width:0.5;" width="15" x="1978.5" y="98"/><rect fill="#F1F1F1" height="2" style="stroke:#181818;stroke-width:0.5;" width="4" x="1976.5" y="100"/><rect fill="#F1F1F1" height="2" style="stroke:#181818;stroke-width:0.5;" width="4" x="1976.5" y="104"/><text fill="#000000" font-family="sans-serif" font-size="14" lengthAdjust="spacing" textLength="49" x="1924.5" y="125.9951">Search</text></g><!--entity Filtering--><g id="elem_Filtering"><rect fill="#F1F1F1" height="46.2969" rx="2.5" ry="2.5" style="stroke:#181818;stroke-width:0.5;" width="100" x="2034" y="93"/><rect fill="#F1F1F1" height="10" style="stroke:#181818;stroke-width:0.5;" width="15" x="2114" y="98"/><rect fill="#F1F1F1" height="2" style="stroke:#181818;stroke-width:0.5;" width="4" x="2112" y="100"/><rect fill="#F1F1F1" height="2" style="stroke:#181818;stroke-width:0.5;" width="4" x="2112" y="104"/><text fill="#000000" font-family="sans-serif" font-size="14" lengthAdjust="spacing" textLength="60" x="2049" y="125.9951">Filtering</text></g><!--entity Info--><g id="elem_Info"><rect fill="#F1F1F1" height="46.2969" rx="2.5" ry="2.5" style="stroke:#181818;stroke-width:0.5;" width="68" x="1920" y="199"/><rect fill="#F1F1F1" height="10" style="stroke:#181818;stroke-width:0.5;" width="15" x="1968" y="204"/><rect fill="#F1F1F1" height="2" style="stroke:#181818;stroke-width:0.5;" width="4" x="1966" y="206"/><rect fill="#F1F1F1" height="2" style="stroke:#181818;stroke-width:0.5;" width="4" x="1966" y="210"/><text fill="#000000" font-family="sans-serif" font-size="14" lengthAdjust="spacing" textLength="28" x="1935" y="231.9951">Info</text></g><!--entity Location--><g id="elem_Location"><rect fill="#F1F1F1" height="46.2969" rx="2.5" ry="2.5" style="stroke:#181818;stroke-width:0.5;" width="102" x="2023" y="199"/><rect fill="#F1F1F1" height="10" style="stroke:#181818;stroke-width:0.5;" width="15" x="2105" y="204"/><rect fill="#F1F1F1" height="2" style="stroke:#181818;stroke-width:0.5;" width="4" x="2103" y="206"/><rect fill="#F1F1F1" height="2" style="stroke:#181818;stroke-width:0.5;" width="4" x="2103" y="210"/><text fill="#000000" font-family="sans-serif" font-size="14" lengthAdjust="spacing" textLength="62" x="2038" y="231.9951">Location</text></g><!--entity Login--><g id="elem_Login"><rect fill="#F1F1F1" height="46.2969" rx="2.5" ry="2.5" style="stroke:#181818;stroke-width:0.5;" width="79" x="2169.5" y="320"/><rect fill="#F1F1F1" height="10" style="stroke:#181818;stroke-width:0.5;" width="15" x="2228.5" y="325"/><rect fill="#F1F1F1" height="2" style="stroke:#181818;stroke-width:0.5;" width="4" x="2226.5" y="327"/><rect fill="#F1F1F1" height="2" style="stroke:#181818;stroke-width:0.5;" width="4" x="2226.5" y="331"/><text fill="#000000" font-family="sans-serif" font-size="14" lengthAdjust="spacing" textLength="39" x="2184.5" y="352.9951">Login</text></g><!--entity Preferences--><g id="elem_Preferences"><rect fill="#F1F1F1" height="46.2969" rx="2.5" ry="2.5" style="stroke:#181818;stroke-width:0.5;" width="127" x="2283.5" y="320"/><rect fill="#F1F1F1" height="10" style="stroke:#181818;stroke-width:0.5;" width="15" x="2390.5" y="325"/><rect fill="#F1F1F1" height="2" style="stroke:#181818;stroke-width:0.5;" width="4" x="2388.5" y="327"/><rect fill="#F1F1F1" height="2" style="stroke:#181818;stroke-width:0.5;" width="4" x="2388.5" y="331"/><text fill="#000000" font-family="sans-serif" font-size="14" lengthAdjust="spacing" textLength="87" x="2298.5" y="352.9951">Preferences</text></g><!--entity Subscriptions--><g id="elem_Subscriptions"><rect fill="#F1F1F1" height="46.2969" rx="2.5" ry="2.5" style="stroke:#181818;stroke-width:0.5;" width="138" x="2169" y="426"/><rect fill="#F1F1F1" height="10" style="stroke:#181818;stroke-width:0.5;" width="15" x="2287" y="431"/><rect fill="#F1F1F1" height="2" style="stroke:#181818;stroke-width:0.5;" width="4" x="2285" y="433"/><rect fill="#F1F1F1" height="2" style="stroke:#181818;stroke-width:0.5;" width="4" x="2285" y="437"/><text fill="#000000" font-family="sans-serif" font-size="14" lengthAdjust="spacing" textLength="98" x="2184" y="458.9951">Subscriptions</text></g><!--entity APIGateway--><g id="elem_APIGateway"><rect fill="#F1F1F1" height="36.2969" rx="2.5" ry="2.5" style="stroke:#181818;stroke-width:0.5;" width="105" x="1185.5" y="204"/><text fill="#000000" font-family="sans-serif" font-size="14" lengthAdjust="spacing" textLength="85" x="1195.5" y="226.9951">APIGateway</text></g><!--entity TransportMicroservice--><g id="elem_TransportMicroservice"><polygon fill="#F1F1F1" points="338,343,257.5,330,96.5,330,16,343,96.5,356,257.5,356,338,343" style="stroke:#181818;stroke-width:0.5;"/><text fill="#000000" font-family="sans-serif" font-size="14" lengthAdjust="spacing" textLength="161" x="96.5" y="347.9951">TransportMicroservice</text></g><!--entity StripeMicroservice--><g id="elem_StripeMicroservice"><polygon fill="#F1F1F1" points="696,343,628.5,330,493.5,330,426,343,493.5,356,628.5,356,696,343" style="stroke:#181818;stroke-width:0.5;"/><text fill="#000000" font-family="sans-serif" font-size="14" lengthAdjust="spacing" textLength="135" x="493.5" y="347.9951">StripeMicroservice</text></g><!--entity AuthMicroservice--><g id="elem_AuthMicroservice"><polygon fill="#F1F1F1" points="1032,343,970,330,846,330,784,343,846,356,970,356,1032,343" style="stroke:#181818;stroke-width:0.5;"/><text fill="#000000" font-family="sans-serif" font-size="14" lengthAdjust="spacing" textLength="124" x="846" y="347.9951">AuthMicroservice</text></g><!--entity ServicesMicroservice--><g id="elem_ServicesMicroservice"><polygon fill="#F1F1F1" points="1420,343,1345,330,1195,330,1120,343,1195,356,1345,356,1420,343" style="stroke:#181818;stroke-width:0.5;"/><text fill="#000000" font-family="sans-serif" font-size="14" lengthAdjust="spacing" textLength="150" x="1195" y="347.9951">ServicesMicroservice</text></g><!--entity TravelMicroservice--><g id="elem_TravelMicroservice"><polygon fill="#F1F1F1" points="1776,343,1709,330,1575,330,1508,343,1575,356,1709,356,1776,343" style="stroke:#181818;stroke-width:0.5;"/><text fill="#000000" font-family="sans-serif" font-size="14" lengthAdjust="spacing" textLength="134" x="1575" y="347.9951">TravelMicroservice</text></g><!--entity TransportDB--><g id="elem_TransportDB"><path d="M21,436.5 C21,426.5 77,426.5 77,426.5 C77,426.5 133,426.5 133,436.5 L133,461.7969 C133,471.7969 77,471.7969 77,471.7969 C77,471.7969 21,471.7969 21,461.7969 L21,436.5 " fill="#F1F1F1" style="stroke:#181818;stroke-width:0.5;"/><path d="M21,436.5 C21,446.5 77,446.5 77,446.5 C77,446.5 133,446.5 133,436.5 " fill="none" style="stroke:#181818;stroke-width:0.5;"/><text fill="#000000" font-family="sans-serif" font-size="14" lengthAdjust="spacing" textLength="92" x="31" y="463.4951">TransportDB</text></g><!--entity StripeDB--><g id="elem_StripeDB"><path d="M431,436.5 C431,426.5 474,426.5 474,426.5 C474,426.5 517,426.5 517,436.5 L517,461.7969 C517,471.7969 474,471.7969 474,471.7969 C474,471.7969 431,471.7969 431,461.7969 L431,436.5 " fill="#F1F1F1" style="stroke:#181818;stroke-width:0.5;"/><path d="M431,436.5 C431,446.5 474,446.5 474,446.5 C474,446.5 517,446.5 517,436.5 " fill="none" style="stroke:#181818;stroke-width:0.5;"/><text fill="#000000" font-family="sans-serif" font-size="14" lengthAdjust="spacing" textLength="66" x="441" y="463.4951">StripeDB</text></g><!--entity AuthDB--><g id="elem_AuthDB"><path d="M788.5,436.5 C788.5,426.5 826,426.5 826,426.5 C826,426.5 863.5,426.5 863.5,436.5 L863.5,461.7969 C863.5,471.7969 826,471.7969 826,471.7969 C826,471.7969 788.5,471.7969 788.5,461.7969 L788.5,436.5 " fill="#F1F1F1" style="stroke:#181818;stroke-width:0.5;"/><path d="M788.5,436.5 C788.5,446.5 826,446.5 826,446.5 C826,446.5 863.5,446.5 863.5,436.5 " fill="none" style="stroke:#181818;stroke-width:0.5;"/><text fill="#000000" font-family="sans-serif" font-size="14" lengthAdjust="spacing" textLength="55" x="798.5" y="463.4951">AuthDB</text></g><!--entity ServicesDB--><g id="elem_ServicesDB"><path d="M1124.5,436.5 C1124.5,426.5 1175,426.5 1175,426.5 C1175,426.5 1225.5,426.5 1225.5,436.5 L1225.5,461.7969 C1225.5,471.7969 1175,471.7969 1175,471.7969 C1175,471.7969 1124.5,471.7969 1124.5,461.7969 L1124.5,436.5 " fill="#F1F1F1" style="stroke:#181818;stroke-width:0.5;"/><path d="M1124.5,436.5 C1124.5,446.5 1175,446.5 1175,446.5 C1175,446.5 1225.5,446.5 1225.5,436.5 " fill="none" style="stroke:#181818;stroke-width:0.5;"/><text fill="#000000" font-family="sans-serif" font-size="14" lengthAdjust="spacing" textLength="81" x="1134.5" y="463.4951">ServicesDB</text></g><!--entity TravelDB--><g id="elem_TravelDB"><path d="M1512.5,436.5 C1512.5,426.5 1555,426.5 1555,426.5 C1555,426.5 1597.5,426.5 1597.5,436.5 L1597.5,461.7969 C1597.5,471.7969 1555,471.7969 1555,471.7969 C1555,471.7969 1512.5,471.7969 1512.5,461.7969 L1512.5,436.5 " fill="#F1F1F1" style="stroke:#181818;stroke-width:0.5;"/><path d="M1512.5,436.5 C1512.5,446.5 1555,446.5 1555,446.5 C1555,446.5 1597.5,446.5 1597.5,436.5 " fill="none" style="stroke:#181818;stroke-width:0.5;"/><text fill="#000000" font-family="sans-serif" font-size="14" lengthAdjust="spacing" textLength="65" x="1522.5" y="463.4951">TravelDB</text></g><!--entity a--><g id="elem_a"><ellipse cx="1658" cy="222" fill="#F1F1F1" rx="8" ry="8" style="stroke:#181818;stroke-width:0.5;"/></g><!--entity b--><g id="elem_b"><ellipse cx="382" cy="343" fill="#F1F1F1" rx="8" ry="8" style="stroke:#181818;stroke-width:0.5;"/></g><!--entity f--><g id="elem_f"><ellipse cx="740" cy="343" fill="#F1F1F1" rx="8" ry="8" style="stroke:#181818;stroke-width:0.5;"/></g><!--entity o--><g id="elem_o"><ellipse cx="1076" cy="343" fill="#F1F1F1" rx="8" ry="8" style="stroke:#181818;stroke-width:0.5;"/></g><!--entity p--><g id="elem_p"><ellipse cx="1464" cy="343" fill="#F1F1F1" rx="8" ry="8" style="stroke:#181818;stroke-width:0.5;"/></g><!--entity v--><g id="elem_v"><ellipse cx="1820" cy="343" fill="#F1F1F1" rx="8" ry="8" style="stroke:#181818;stroke-width:0.5;"/></g><!--entity d--><g id="elem_d"><ellipse cx="177" cy="449" fill="#F1F1F1" rx="8" ry="8" style="stroke:#181818;stroke-width:0.5;"/></g><!--entity e--><g id="elem_e"><ellipse cx="561" cy="449" fill="#F1F1F1" rx="8" ry="8" style="stroke:#181818;stroke-width:0.5;"/></g><!--entity s--><g id="elem_s"><ellipse cx="908" cy="449" fill="#F1F1F1" rx="8" ry="8" style="stroke:#181818;stroke-width:0.5;"/></g><!--entity w--><g id="elem_w"><ellipse cx="1270" cy="449" fill="#F1F1F1" rx="8" ry="8" style="stroke:#181818;stroke-width:0.5;"/></g><!--entity z--><g id="elem_z"><ellipse cx="1642" cy="449" fill="#F1F1F1" rx="8" ry="8" style="stroke:#181818;stroke-width:0.5;"/></g><!--link APIGateway to a--><g id="link_APIGateway_a"><path d="M1290.91,222 C1410.17,222 1529.42,222 1648.68,222 " fill="none" id="APIGateway-a" style="stroke:#181818;stroke-width:1.0;"/></g><!--link UserInterface to a--><g id="link_UserInterface_a"><path d="M1852.7075,121.2465 C1852.4366,121.3852 1852.1598,121.527 1851.8771,121.6719 C1851.3117,121.9615 1850.7228,122.2632 1850.1112,122.5766 C1848.8879,123.2033 1847.5737,123.8766 1846.1748,124.5933 C1843.377,126.0266 1840.2407,127.6334 1836.8164,129.3878 C1823.1191,136.4052 1804.8131,145.7838 1785.1313,155.8674 C1745.7675,176.0345 1700.9,199.0215 1676.39,211.579 " fill="none" id="UserInterface-to-a" style="stroke:#181818;stroke-width:1.0;"/><path d="M1673.8344,222.3929 A9,9 0 0 0 1666.1254 207.3373" fill="none" style="stroke:#181818;stroke-width:1.5;"/></g><!--link TransportMicroservice to b--><g id="link_TransportMicroservice_b"><path d="M338.357,343 C349.836,343 361.315,343 372.794,343 " fill="none" id="TransportMicroservice-b" style="stroke:#181818;stroke-width:1.0;"/></g><!--link APIGateway to b--><g id="link_APIGateway_b"><path d="M1185.48,223.206 C1012.923,224.321 470.788,231.448 408,277 C393.105,287.806 386.734,308.566 384.015,323.727 " fill="none" id="APIGateway-to-b" style="stroke:#181818;stroke-width:1.0;"/><path d="M391.3709,332.1072 A9,9 0 0 0 374.623 329.7391" fill="none" style="stroke:#181818;stroke-width:1.5;"/></g><!--link StripeMicroservice to f--><g id="link_StripeMicroservice_f"><path d="M696.299,343 C707.793,343 719.287,343 730.782,343 " fill="none" id="StripeMicroservice-f" style="stroke:#181818;stroke-width:1.0;"/></g><!--link APIGateway to f--><g id="link_APIGateway_f"><path d="M1185.46,222.428 C1076.52,222.27 830.736,227.573 766,277 C751.528,288.05 745.09,308.427 742.239,323.431 " fill="none" id="APIGateway-to-f" style="stroke:#181818;stroke-width:1.0;"/><path d="M749.5101,331.8471 A9,9 0 0 0 732.7895 329.2931" fill="none" style="stroke:#181818;stroke-width:1.5;"/></g><!--link AuthMicroservice to o--><g id="link_AuthMicroservice_o"><path d="M1032.03,343 C1043.6,343 1055.16,343 1066.73,343 " fill="none" id="AuthMicroservice-o" style="stroke:#181818;stroke-width:1.0;"/></g><!--link APIGateway to o--><g id="link_APIGateway_o"><path d="M1185.27,233.332 C1157.43,241.174 1124.48,254.574 1102,277 C1089.37,289.597 1082.68,309.114 1079.26,323.477 " fill="none" id="APIGateway-to-o" style="stroke:#181818;stroke-width:1.0;"/><path d="M1086.0831,332.3416 A9,9 0 0 0 1069.5131 328.9454" fill="none" style="stroke:#181818;stroke-width:1.5;"/></g><!--link ServicesMicroservice to p--><g id="link_ServicesMicroservice_p"><path d="M1420.05,343 C1431.61,343 1443.17,343 1454.73,343 " fill="none" id="ServicesMicroservice-p" style="stroke:#181818;stroke-width:1.0;"/></g><!--link APIGateway to p--><g id="link_APIGateway_p"><path d="M1290.92,224.833 C1334.87,229.022 1396.53,241.433 1437,277 C1450.75,289.085 1457.65,309.286 1461.01,323.965 " fill="none" id="APIGateway-to-p" style="stroke:#181818;stroke-width:1.0;"/><path d="M1470.6615,329.2477 A9,9 0 0 0 1454.0599 332.4858" fill="none" style="stroke:#181818;stroke-width:1.5;"/></g><!--link TravelMicroservice to v--><g id="link_TravelMicroservice_v"><path d="M1776.2,343 C1787.72,343 1799.24,343 1810.76,343 " fill="none" id="TravelMicroservice-v" style="stroke:#181818;stroke-width:1.0;"/></g><!--link APIGateway to v--><g id="link_APIGateway_v"><path d="M1290.65,230.302 C1365.94,240.486 1508.8,258.843 1631,269 C1648.96,270.493 1778.26,266.628 1793,277 C1808.13,287.648 1814.81,308.437 1817.74,323.647 " fill="none" id="APIGateway-to-v" style="stroke:#181818;stroke-width:1.0;"/><path d="M1827.2182,329.5977 A9,9 0 0 0 1810.502 332.1801" fill="none" style="stroke:#181818;stroke-width:1.5;"/></g><!--link TransportDB to d--><g id="link_TransportDB_d"><path d="M133.25,449 C144.757,449 156.264,449 167.771,449 " fill="none" id="TransportDB-d" style="stroke:#181818;stroke-width:1.0;"/></g><!--link TransportMicroservice to d--><g id="link_TransportMicroservice_d"><path d="M177,356.339 C177,374.498 177,408.545 177,429.644 " fill="none" id="TransportMicroservice-to-d" style="stroke:#181818;stroke-width:1.0;"/><path d="M185.4572,436.7718 A9,9 0 0 0 168.5428 436.7718" fill="none" style="stroke:#181818;stroke-width:1.5;"/></g><!--link StripeDB to e--><g id="link_StripeDB_e"><path d="M517.16,449 C528.691,449 540.222,449 551.753,449 " fill="none" id="StripeDB-e" style="stroke:#181818;stroke-width:1.0;"/></g><!--link StripeMicroservice to e--><g id="link_StripeMicroservice_e"><path d="M561,356.339 C561,374.498 561,408.545 561,429.644 " fill="none" id="StripeMicroservice-to-e" style="stroke:#181818;stroke-width:1.0;"/><path d="M569.4572,436.7718 A9,9 0 0 0 552.5428 436.7718" fill="none" style="stroke:#181818;stroke-width:1.5;"/></g><!--link AuthDB to s--><g id="link_AuthDB_s"><path d="M863.797,449 C875.423,449 887.05,449 898.676,449 " fill="none" id="AuthDB-s" style="stroke:#181818;stroke-width:1.0;"/></g><!--link AuthMicroservice to s--><g id="link_AuthMicroservice_s"><path d="M908,356.339 C908,374.498 908,408.545 908,429.644 " fill="none" id="AuthMicroservice-to-s" style="stroke:#181818;stroke-width:1.0;"/><path d="M916.4572,436.7718 A9,9 0 0 0 899.5428 436.7718" fill="none" style="stroke:#181818;stroke-width:1.5;"/></g><!--link ServicesDB to w--><g id="link_ServicesDB_w"><path d="M1225.84,449 C1237.45,449 1249.07,449 1260.68,449 " fill="none" id="ServicesDB-w" style="stroke:#181818;stroke-width:1.0;"/></g><!--link ServicesMicroservice to w--><g id="link_ServicesMicroservice_w"><path d="M1270,356.339 C1270,374.498 1270,408.545 1270,429.644 " fill="none" id="ServicesMicroservice-to-w" style="stroke:#181818;stroke-width:1.0;"/><path d="M1278.4572,436.7718 A9,9 0 0 0 1261.5428 436.7718" fill="none" style="stroke:#181818;stroke-width:1.5;"/></g><!--link TravelDB to z--><g id="link_TravelDB_z"><path d="M1597.82,449 C1609.44,449 1621.06,449 1632.68,449 " fill="none" id="TravelDB-z" style="stroke:#181818;stroke-width:1.0;"/></g><!--link TravelMicroservice to z--><g id="link_TravelMicroservice_z"><path d="M1642,356.339 C1642,374.498 1642,408.545 1642,429.644 " fill="none" id="TravelMicroservice-to-z" style="stroke:#181818;stroke-width:1.0;"/><path d="M1650.4572,436.7718 A9,9 0 0 0 1633.5428 436.7718" fill="none" style="stroke:#181818;stroke-width:1.5;"/></g><!--SRC=[TPH1Ri9034NtFiMegsvo253L2Waa9De3c8aJHWtZQ6P8MYhkNaEW2OEhhF9_dcrzMmba4_gw8VCHAInyeb2X9VC3nbZUj-p99xEXq3bByI9FZJdpf_DrpEGLbvH9xm5zR30vzkASxihF0_THoZoKtn06kyl4LzV8bF9vfYzynPcqPAjtN5E8xB5nHtfekkJQ-KnR1weea9SCyX4FssY3QyzjugNF2G3hipLRBzumKO_V1dRqXJNx8OQMGrev6pWEkOxs9aafqhtP8UscpWXTjwEQqh2Zviw24XDkCT8upSjy58SPfigvyzqNruPJRUWZ2hY_8tgI1wD1c2HHoElzgHN5isYFs1Rqi0fnfWK5tofu1KgOXSWPMoaiGnwsa9oJh90jQDiGkitfLg4xU5oNi5tETWfRmcIR0fN_nITygV04jyKBJ6fuGf92HXWEHBYe12TKLAWUnZCIilydEA5xXJx2xU24FQgn2Na4YF9_QZ7WtkpPizq5tfD9uK2_]--></g></svg>