<?xml version="1.0" encoding="us-ascii" standalone="no"?><svg xmlns="http://www.w3.org/2000/svg" xmlns:xlink="http://www.w3.org/1999/xlink" contentStyleType="text/css" height="765px" preserveAspectRatio="none" style="width:3076px;height:765px;background:#FFFFFF;" version="1.1" viewBox="0 0 3076 765" width="3076px" zoomAndPan="magnify"><defs/><g><!--cluster a--><g id="cluster_a"><polygon fill="none" points="16,99.382,26,89.382,718,89.382,718,738.382,708,748.382,16,748.382,16,99.382" style="stroke:#181818;stroke-width:1.0;"/><line style="stroke:#181818;stroke-width:1.0;" x1="708" x2="718" y1="99.382" y2="89.382"/><line style="stroke:#181818;stroke-width:1.0;" x1="16" x2="708" y1="99.382" y2="99.382"/><line style="stroke:#181818;stroke-width:1.0;" x1="708" x2="708" y1="99.382" y2="748.382"/><text fill="#000000" font-family="sans-serif" font-size="14" font-weight="bold" lengthAdjust="spacing" textLength="79" x="323.5" y="115.3771">Computer</text></g><!--cluster Browser--><g id="cluster_Browser"><polygon fill="none" points="56,155.382,66,145.382,686,145.382,686,706.382,676,716.382,56,716.382,56,155.382" style="stroke:#181818;stroke-width:1.0;"/><line style="stroke:#181818;stroke-width:1.0;" x1="676" x2="686" y1="155.382" y2="145.382"/><line style="stroke:#181818;stroke-width:1.0;" x1="56" x2="676" y1="155.382" y2="155.382"/><line style="stroke:#181818;stroke-width:1.0;" x1="676" x2="676" y1="155.382" y2="716.382"/><text fill="#000000" font-family="sans-serif" font-size="14" font-weight="bold" lengthAdjust="spacing" textLength="66" x="334" y="171.3771">Browser</text></g><!--cluster UserInterface--><g id="cluster_UserInterface"><rect fill="none" height="499" rx="2.5" ry="2.5" style="stroke:#181818;stroke-width:1.0;" width="582" x="80" y="193.382"/><text fill="#000000" font-family="sans-serif" font-size="14" font-weight="bold" lengthAdjust="spacing" textLength="110" x="316" y="208.3771">UserInterface</text></g><!--cluster Services--><g id="cluster_Services"><rect fill="none" height="205" rx="2.5" ry="2.5" style="stroke:#181818;stroke-width:1.0;" width="253" x="385" y="236.382"/><rect fill="none" height="10" style="stroke:#181818;stroke-width:1.0;" width="15" x="618" y="241.382"/><rect fill="none" height="2" style="stroke:#181818;stroke-width:1.0;" width="4" x="616" y="243.382"/><rect fill="none" height="2" style="stroke:#181818;stroke-width:1.0;" width="4" x="616" y="247.382"/><text fill="#000000" font-family="sans-serif" font-size="14" font-weight="bold" lengthAdjust="spacing" textLength="67" x="478" y="262.3771">Services</text></g><!--cluster Browsing--><g id="cluster_Browsing"><rect fill="none" height="205" rx="2.5" ry="2.5" style="stroke:#181818;stroke-width:1.0;" width="257" x="104" y="236.382"/><rect fill="none" height="10" style="stroke:#181818;stroke-width:1.0;" width="15" x="341" y="241.382"/><rect fill="none" height="2" style="stroke:#181818;stroke-width:1.0;" width="4" x="339" y="243.382"/><rect fill="none" height="2" style="stroke:#181818;stroke-width:1.0;" width="4" x="339" y="247.382"/><text fill="#000000" font-family="sans-serif" font-size="14" font-weight="bold" lengthAdjust="spacing" textLength="75" x="195" y="262.3771">Browsing</text></g><!--cluster Personalize--><g id="cluster_Personalize"><rect fill="none" height="203" rx="2.5" ry="2.5" style="stroke:#181818;stroke-width:1.0;" width="274" x="364" y="465.382"/><rect fill="none" height="10" style="stroke:#181818;stroke-width:1.0;" width="15" x="618" y="470.382"/><rect fill="none" height="2" style="stroke:#181818;stroke-width:1.0;" width="4" x="616" y="472.382"/><rect fill="none" height="2" style="stroke:#181818;stroke-width:1.0;" width="4" x="616" y="476.382"/><text fill="#000000" font-family="sans-serif" font-size="14" font-weight="bold" lengthAdjust="spacing" textLength="93" x="454.5" y="491.3771">Personalize</text></g><!--cluster q--><g id="cluster_q"><polygon fill="none" points="758,238.382,768,228.382,931,228.382,931,326.382,921,336.382,758,336.382,758,238.382" style="stroke:#181818;stroke-width:1.0;"/><line style="stroke:#181818;stroke-width:1.0;" x1="921" x2="931" y1="238.382" y2="228.382"/><line style="stroke:#181818;stroke-width:1.0;" x1="758" x2="921" y1="238.382" y2="238.382"/><line style="stroke:#181818;stroke-width:1.0;" x1="921" x2="921" y1="238.382" y2="336.382"/><text fill="#000000" font-family="sans-serif" font-size="14" font-weight="bold" lengthAdjust="spacing" textLength="77" x="802" y="254.3771">APIServer</text></g><!--cluster aa--><g id="cluster_aa"><polygon fill="none" points="971,195.382,981,185.382,1397,185.382,1397,345.382,1387,355.382,971,355.382,971,195.382" style="stroke:#181818;stroke-width:1.0;"/><line style="stroke:#181818;stroke-width:1.0;" x1="1387" x2="1397" y1="195.382" y2="185.382"/><line style="stroke:#181818;stroke-width:1.0;" x1="971" x2="1387" y1="195.382" y2="195.382"/><line style="stroke:#181818;stroke-width:1.0;" x1="1387" x2="1387" y1="195.382" y2="355.382"/><text fill="#000000" font-family="sans-serif" font-size="14" font-weight="bold" lengthAdjust="spacing" textLength="20" x="1170" y="211.3771">aa</text></g><!--cluster Container 1--><g id="cluster_Container 1"><polygon fill="none" points="1011,251.382,1021,241.382,1365,241.382,1365,313.382,1355,323.382,1011,323.382,1011,251.382" style="stroke:#181818;stroke-width:1.0;"/><line style="stroke:#181818;stroke-width:1.0;" x1="1355" x2="1365" y1="251.382" y2="241.382"/><line style="stroke:#181818;stroke-width:1.0;" x1="1011" x2="1355" y1="251.382" y2="251.382"/><line style="stroke:#181818;stroke-width:1.0;" x1="1355" x2="1355" y1="251.382" y2="323.382"/><text fill="#000000" font-family="sans-serif" font-size="14" font-weight="bold" lengthAdjust="spacing" textLength="94" x="1137" y="267.3771">Container 1</text></g><!--cluster ab--><g id="cluster_ab"><polygon fill="none" points="1437,195.382,1447,185.382,1811,185.382,1811,345.382,1801,355.382,1437,355.382,1437,195.382" style="stroke:#181818;stroke-width:1.0;"/><line style="stroke:#181818;stroke-width:1.0;" x1="1801" x2="1811" y1="195.382" y2="185.382"/><line style="stroke:#181818;stroke-width:1.0;" x1="1437" x2="1801" y1="195.382" y2="195.382"/><line style="stroke:#181818;stroke-width:1.0;" x1="1801" x2="1801" y1="195.382" y2="355.382"/><text fill="#000000" font-family="sans-serif" font-size="14" font-weight="bold" lengthAdjust="spacing" textLength="20" x="1610" y="211.3771">ab</text></g><!--cluster Container 2--><g id="cluster_Container 2"><polygon fill="none" points="1477,251.382,1487,241.382,1779,241.382,1779,313.382,1769,323.382,1477,323.382,1477,251.382" style="stroke:#181818;stroke-width:1.0;"/><line style="stroke:#181818;stroke-width:1.0;" x1="1769" x2="1779" y1="251.382" y2="241.382"/><line style="stroke:#181818;stroke-width:1.0;" x1="1477" x2="1769" y1="251.382" y2="251.382"/><line style="stroke:#181818;stroke-width:1.0;" x1="1769" x2="1769" y1="251.382" y2="323.382"/><text fill="#000000" font-family="sans-serif" font-size="14" font-weight="bold" lengthAdjust="spacing" textLength="94" x="1577" y="267.3771">Container 2</text></g><!--cluster ac--><g id="cluster_ac"><polygon fill="none" points="1851,195.382,1861,185.382,2203,185.382,2203,345.382,2193,355.382,1851,355.382,1851,195.382" style="stroke:#181818;stroke-width:1.0;"/><line style="stroke:#181818;stroke-width:1.0;" x1="2193" x2="2203" y1="195.382" y2="185.382"/><line style="stroke:#181818;stroke-width:1.0;" x1="1851" x2="2193" y1="195.382" y2="195.382"/><line style="stroke:#181818;stroke-width:1.0;" x1="2193" x2="2193" y1="195.382" y2="355.382"/><text fill="#000000" font-family="sans-serif" font-size="14" font-weight="bold" lengthAdjust="spacing" textLength="19" x="2013.5" y="211.3771">ac</text></g><!--cluster Container 3--><g id="cluster_Container 3"><polygon fill="none" points="1891,251.382,1901,241.382,2171,241.382,2171,313.382,2161,323.382,1891,323.382,1891,251.382" style="stroke:#181818;stroke-width:1.0;"/><line style="stroke:#181818;stroke-width:1.0;" x1="2161" x2="2171" y1="251.382" y2="241.382"/><line style="stroke:#181818;stroke-width:1.0;" x1="1891" x2="2161" y1="251.382" y2="251.382"/><line style="stroke:#181818;stroke-width:1.0;" x1="2161" x2="2161" y1="251.382" y2="323.382"/><text fill="#000000" font-family="sans-serif" font-size="14" font-weight="bold" lengthAdjust="spacing" textLength="94" x="1980" y="267.3771">Container 3</text></g><!--cluster ad--><g id="cluster_ad"><polygon fill="none" points="2243,195.382,2253,185.382,2647,185.382,2647,345.382,2637,355.382,2243,355.382,2243,195.382" style="stroke:#181818;stroke-width:1.0;"/><line style="stroke:#181818;stroke-width:1.0;" x1="2637" x2="2647" y1="195.382" y2="185.382"/><line style="stroke:#181818;stroke-width:1.0;" x1="2243" x2="2637" y1="195.382" y2="195.382"/><line style="stroke:#181818;stroke-width:1.0;" x1="2637" x2="2637" y1="195.382" y2="355.382"/><text fill="#000000" font-family="sans-serif" font-size="14" font-weight="bold" lengthAdjust="spacing" textLength="20" x="2431" y="211.3771">ad</text></g><!--cluster Container 4--><g id="cluster_Container 4"><polygon fill="none" points="2283,251.382,2293,241.382,2615,241.382,2615,313.382,2605,323.382,2283,323.382,2283,251.382" style="stroke:#181818;stroke-width:1.0;"/><line style="stroke:#181818;stroke-width:1.0;" x1="2605" x2="2615" y1="251.382" y2="241.382"/><line style="stroke:#181818;stroke-width:1.0;" x1="2283" x2="2605" y1="251.382" y2="251.382"/><line style="stroke:#181818;stroke-width:1.0;" x1="2605" x2="2605" y1="251.382" y2="323.382"/><text fill="#000000" font-family="sans-serif" font-size="14" font-weight="bold" lengthAdjust="spacing" textLength="94" x="2398" y="267.3771">Container 4</text></g><!--cluster ae--><g id="cluster_ae"><polygon fill="none" points="2687,195.382,2697,185.382,3059,185.382,3059,345.382,3049,355.382,2687,355.382,2687,195.382" style="stroke:#181818;stroke-width:1.0;"/><line style="stroke:#181818;stroke-width:1.0;" x1="3049" x2="3059" y1="195.382" y2="185.382"/><line style="stroke:#181818;stroke-width:1.0;" x1="2687" x2="3049" y1="195.382" y2="195.382"/><line style="stroke:#181818;stroke-width:1.0;" x1="3049" x2="3049" y1="195.382" y2="355.382"/><text fill="#000000" font-family="sans-serif" font-size="14" font-weight="bold" lengthAdjust="spacing" textLength="19" x="2859.5" y="211.3771">ae</text></g><!--cluster Container 5--><g id="cluster_Container 5"><polygon fill="none" points="2727,251.382,2737,241.382,3027,241.382,3027,313.382,3017,323.382,2727,323.382,2727,251.382" style="stroke:#181818;stroke-width:1.0;"/><line style="stroke:#181818;stroke-width:1.0;" x1="3017" x2="3027" y1="251.382" y2="241.382"/><line style="stroke:#181818;stroke-width:1.0;" x1="2727" x2="3017" y1="251.382" y2="251.382"/><line style="stroke:#181818;stroke-width:1.0;" x1="3017" x2="3017" y1="251.382" y2="323.382"/><text fill="#000000" font-family="sans-serif" font-size="14" font-weight="bold" lengthAdjust="spacing" textLength="94" x="2826" y="267.3771">Container 5</text></g><!--entity Bookings--><g id="elem_Bookings"><rect fill="#F1F1F1" height="46.2969" rx="2.5" ry="2.5" style="stroke:#181818;stroke-width:0.5;" width="106" x="401" y="271.382"/><rect fill="#F1F1F1" height="10" style="stroke:#181818;stroke-width:0.5;" width="15" x="487" y="276.382"/><rect fill="#F1F1F1" height="2" style="stroke:#181818;stroke-width:0.5;" width="4" x="485" y="278.382"/><rect fill="#F1F1F1" height="2" style="stroke:#181818;stroke-width:0.5;" width="4" x="485" y="282.382"/><text fill="#000000" font-family="sans-serif" font-size="14" lengthAdjust="spacing" textLength="66" x="416" y="304.3771">Bookings</text></g><!--entity Mode--><g id="elem_Mode"><rect fill="#F1F1F1" height="46.2969" rx="2.5" ry="2.5" style="stroke:#181818;stroke-width:0.5;" width="79" x="542.5" y="271.382"/><rect fill="#F1F1F1" height="10" style="stroke:#181818;stroke-width:0.5;" width="15" x="601.5" y="276.382"/><rect fill="#F1F1F1" height="2" style="stroke:#181818;stroke-width:0.5;" width="4" x="599.5" y="278.382"/><rect fill="#F1F1F1" height="2" style="stroke:#181818;stroke-width:0.5;" width="4" x="599.5" y="282.382"/><text fill="#000000" font-family="sans-serif" font-size="14" lengthAdjust="spacing" textLength="39" x="557.5" y="304.3771">Mode</text></g><!--entity Translation--><g id="elem_Translation"><rect fill="#F1F1F1" height="46.2969" rx="2.5" ry="2.5" style="stroke:#181818;stroke-width:0.5;" width="120" x="401" y="379.382"/><rect fill="#F1F1F1" height="10" style="stroke:#181818;stroke-width:0.5;" width="15" x="501" y="384.382"/><rect fill="#F1F1F1" height="2" style="stroke:#181818;stroke-width:0.5;" width="4" x="499" y="386.382"/><rect fill="#F1F1F1" height="2" style="stroke:#181818;stroke-width:0.5;" width="4" x="499" y="390.382"/><text fill="#000000" font-family="sans-serif" font-size="14" lengthAdjust="spacing" textLength="80" x="416" y="412.3771">Translation</text></g><!--entity Search--><g id="elem_Search"><rect fill="#F1F1F1" height="46.2969" rx="2.5" ry="2.5" style="stroke:#181818;stroke-width:0.5;" width="89" x="120.5" y="271.382"/><rect fill="#F1F1F1" height="10" style="stroke:#181818;stroke-width:0.5;" width="15" x="189.5" y="276.382"/><rect fill="#F1F1F1" height="2" style="stroke:#181818;stroke-width:0.5;" width="4" x="187.5" y="278.382"/><rect fill="#F1F1F1" height="2" style="stroke:#181818;stroke-width:0.5;" width="4" x="187.5" y="282.382"/><text fill="#000000" font-family="sans-serif" font-size="14" lengthAdjust="spacing" textLength="49" x="135.5" y="304.3771">Search</text></g><!--entity Filtering--><g id="elem_Filtering"><rect fill="#F1F1F1" height="46.2969" rx="2.5" ry="2.5" style="stroke:#181818;stroke-width:0.5;" width="100" x="245" y="271.382"/><rect fill="#F1F1F1" height="10" style="stroke:#181818;stroke-width:0.5;" width="15" x="325" y="276.382"/><rect fill="#F1F1F1" height="2" style="stroke:#181818;stroke-width:0.5;" width="4" x="323" y="278.382"/><rect fill="#F1F1F1" height="2" style="stroke:#181818;stroke-width:0.5;" width="4" x="323" y="282.382"/><text fill="#000000" font-family="sans-serif" font-size="14" lengthAdjust="spacing" textLength="60" x="260" y="304.3771">Filtering</text></g><!--entity Info--><g id="elem_Info"><rect fill="#F1F1F1" height="46.2969" rx="2.5" ry="2.5" style="stroke:#181818;stroke-width:0.5;" width="68" x="131" y="379.382"/><rect fill="#F1F1F1" height="10" style="stroke:#181818;stroke-width:0.5;" width="15" x="179" y="384.382"/><rect fill="#F1F1F1" height="2" style="stroke:#181818;stroke-width:0.5;" width="4" x="177" y="386.382"/><rect fill="#F1F1F1" height="2" style="stroke:#181818;stroke-width:0.5;" width="4" x="177" y="390.382"/><text fill="#000000" font-family="sans-serif" font-size="14" lengthAdjust="spacing" textLength="28" x="146" y="412.3771">Info</text></g><!--entity Location--><g id="elem_Location"><rect fill="#F1F1F1" height="46.2969" rx="2.5" ry="2.5" style="stroke:#181818;stroke-width:0.5;" width="102" x="234" y="379.382"/><rect fill="#F1F1F1" height="10" style="stroke:#181818;stroke-width:0.5;" width="15" x="316" y="384.382"/><rect fill="#F1F1F1" height="2" style="stroke:#181818;stroke-width:0.5;" width="4" x="314" y="386.382"/><rect fill="#F1F1F1" height="2" style="stroke:#181818;stroke-width:0.5;" width="4" x="314" y="390.382"/><text fill="#000000" font-family="sans-serif" font-size="14" lengthAdjust="spacing" textLength="62" x="249" y="412.3771">Location</text></g><!--entity Login--><g id="elem_Login"><rect fill="#F1F1F1" height="46.2969" rx="2.5" ry="2.5" style="stroke:#181818;stroke-width:0.5;" width="79" x="380.5" y="500.382"/><rect fill="#F1F1F1" height="10" style="stroke:#181818;stroke-width:0.5;" width="15" x="439.5" y="505.382"/><rect fill="#F1F1F1" height="2" style="stroke:#181818;stroke-width:0.5;" width="4" x="437.5" y="507.382"/><rect fill="#F1F1F1" height="2" style="stroke:#181818;stroke-width:0.5;" width="4" x="437.5" y="511.382"/><text fill="#000000" font-family="sans-serif" font-size="14" lengthAdjust="spacing" textLength="39" x="395.5" y="533.3771">Login</text></g><!--entity Preferences--><g id="elem_Preferences"><rect fill="#F1F1F1" height="46.2969" rx="2.5" ry="2.5" style="stroke:#181818;stroke-width:0.5;" width="127" x="494.5" y="500.382"/><rect fill="#F1F1F1" height="10" style="stroke:#181818;stroke-width:0.5;" width="15" x="601.5" y="505.382"/><rect fill="#F1F1F1" height="2" style="stroke:#181818;stroke-width:0.5;" width="4" x="599.5" y="507.382"/><rect fill="#F1F1F1" height="2" style="stroke:#181818;stroke-width:0.5;" width="4" x="599.5" y="511.382"/><text fill="#000000" font-family="sans-serif" font-size="14" lengthAdjust="spacing" textLength="87" x="509.5" y="533.3771">Preferences</text></g><!--entity Subscriptions--><g id="elem_Subscriptions"><rect fill="#F1F1F1" height="46.2969" rx="2.5" ry="2.5" style="stroke:#181818;stroke-width:0.5;" width="138" x="380" y="606.382"/><rect fill="#F1F1F1" height="10" style="stroke:#181818;stroke-width:0.5;" width="15" x="498" y="611.382"/><rect fill="#F1F1F1" height="2" style="stroke:#181818;stroke-width:0.5;" width="4" x="496" y="613.382"/><rect fill="#F1F1F1" height="2" style="stroke:#181818;stroke-width:0.5;" width="4" x="496" y="617.382"/><text fill="#000000" font-family="sans-serif" font-size="14" lengthAdjust="spacing" textLength="98" x="395" y="639.3771">Subscriptions</text></g><!--entity APIGateway--><g id="elem_APIGateway"><rect fill="#F1F1F1" height="36.2969" rx="2.5" ry="2.5" style="stroke:#181818;stroke-width:0.5;" width="105" x="801.5" y="276.382"/><text fill="#000000" font-family="sans-serif" font-size="14" lengthAdjust="spacing" textLength="85" x="811.5" y="299.3771">APIGateway</text></g><!--entity TransportMicroservice--><g id="elem_TransportMicroservice"><polygon fill="#F1F1F1" points="1349,294.382,1268.5,281.382,1107.5,281.382,1027,294.382,1107.5,307.382,1268.5,307.382,1349,294.382" style="stroke:#181818;stroke-width:0.5;"/><text fill="#000000" font-family="sans-serif" font-size="14" lengthAdjust="spacing" textLength="161" x="1107.5" y="299.3771">TransportMicroservice</text></g><!--entity StripeMicroservice--><g id="elem_StripeMicroservice"><polygon fill="#F1F1F1" points="1763,294.382,1695.5,281.382,1560.5,281.382,1493,294.382,1560.5,307.382,1695.5,307.382,1763,294.382" style="stroke:#181818;stroke-width:0.5;"/><text fill="#000000" font-family="sans-serif" font-size="14" lengthAdjust="spacing" textLength="135" x="1560.5" y="299.3771">StripeMicroservice</text></g><!--entity AuthMicroservice--><g id="elem_AuthMicroservice"><polygon fill="#F1F1F1" points="2155,294.382,2093,281.382,1969,281.382,1907,294.382,1969,307.382,2093,307.382,2155,294.382" style="stroke:#181818;stroke-width:0.5;"/><text fill="#000000" font-family="sans-serif" font-size="14" lengthAdjust="spacing" textLength="124" x="1969" y="299.3771">AuthMicroservice</text></g><!--entity ServicesMicroservice--><g id="elem_ServicesMicroservice"><polygon fill="#F1F1F1" points="2599,294.382,2524,281.382,2374,281.382,2299,294.382,2374,307.382,2524,307.382,2599,294.382" style="stroke:#181818;stroke-width:0.5;"/><text fill="#000000" font-family="sans-serif" font-size="14" lengthAdjust="spacing" textLength="150" x="2374" y="299.3771">ServicesMicroservice</text></g><!--entity TravelMicroservice--><g id="elem_TravelMicroservice"><polygon fill="#F1F1F1" points="3011,294.382,2944,281.382,2810,281.382,2743,294.382,2810,307.382,2944,307.382,3011,294.382" style="stroke:#181818;stroke-width:0.5;"/><text fill="#000000" font-family="sans-serif" font-size="14" lengthAdjust="spacing" textLength="134" x="2810" y="299.3771">TravelMicroservice</text></g><!--link a to q--><g id="link_a_q"><path d="M73.6254,89.1808 C74.1272,88.4398 74.634,87.7029 75.1458,86.9701 C79.2409,81.108 83.6619,75.5138 88.4348,70.2593 C97.9804,59.7503 108.9333,50.5999 121.5,43.382 C169.578,15.767 572.422,15.767 620.5,43.382 C674.659,74.4895 710.4885,134.351 733.0385,187.8126 C744.3135,214.5434 752.2686,239.6743 757.5351,258.8109 C757.6174,259.1099 757.699,259.4075 757.78,259.7035 " fill="none" id="a-to-q" style="stroke:#181818;stroke-width:1.0;"/><polygon fill="#181818" points="757.78,259.7035,759.2639,249.9671,756.4609,254.8807,751.5473,252.0777,757.78,259.7035" style="stroke:#181818;stroke-width:1.0;"/></g><!--link q to aa--><g id="link_q_aa"><path d="M757.9196,262.8901 C757.7919,262.3093 757.6639,261.7221 757.5356,261.1287 C757.2791,259.9419 757.0216,258.7301 756.7638,257.4947 C752.6397,237.7271 748.4553,211.8802 747.3396,184.6924 C745.1083,130.3167 755.1515,70.5775 802.5,43.382 C842.196,20.582 865.804,20.582 905.5,43.382 C954.325,71.4245 973.0953,131.1902 979.471,185.368 " fill="none" id="q-to-aa" style="stroke:#181818;stroke-width:1.0;"/><polygon fill="#181818" points="979.471,185.368,982.3917,175.9622,978.8866,180.4023,974.4465,176.8972,979.471,185.368" style="stroke:#181818;stroke-width:1.0;"/></g><!--link q to ab--><g id="link_q_ab"><path d="M757.9196,262.8901 C757.7919,262.3093 757.6639,261.7221 757.5356,261.1287 C757.2791,259.9419 757.0216,258.7301 756.7638,257.4947 C752.6397,237.7271 748.4553,211.8802 747.3396,184.6924 C745.1083,130.3167 755.1515,70.5775 802.5,43.382 C855.01,13.222 1294.99,13.222 1347.5,43.382 C1397.765,72.2535 1422.21,132.0452 1434.055,186.0294 C1434.7953,189.4034 1435.4864,192.7547 1436.1315,196.0744 C1436.2928,196.9043 1436.4512,197.7322 1436.6068,198.5581 C1436.6846,198.971 1436.7616,199.3833 1436.838,199.7952 " fill="none" id="q-to-ab" style="stroke:#181818;stroke-width:1.0;"/><polygon fill="#181818" points="1436.838,199.7952,1439.1297,190.2166,1435.9262,194.879,1431.2638,191.6755,1436.838,199.7952" style="stroke:#181818;stroke-width:1.0;"/></g><!--link q to ac--><g id="link_q_ac"><path d="M757.9196,262.8901 C757.7919,262.3093 757.6639,261.7221 757.5356,261.1287 C757.2791,259.9419 757.0216,258.7301 756.7638,257.4947 C752.6397,237.7271 748.4553,211.8802 747.3396,184.6924 C745.1083,130.3167 755.1515,70.5775 802.5,43.382 C848.699,16.846 1715.3,16.846 1761.5,43.382 C1811.765,72.2535 1836.21,132.0452 1848.055,186.0294 C1848.7953,189.4034 1849.4864,192.7547 1850.1315,196.0744 C1850.2928,196.9043 1850.4512,197.7322 1850.6068,198.5581 C1850.6846,198.971 1850.7616,199.3833 1850.838,199.7952 " fill="none" id="q-to-ac" style="stroke:#181818;stroke-width:1.0;"/><polygon fill="#181818" points="1850.838,199.7952,1853.1297,190.2166,1849.9262,194.879,1845.2638,191.6755,1850.838,199.7952" style="stroke:#181818;stroke-width:1.0;"/></g><!--link q to ad--><g id="link_q_ad"><path d="M757.9196,262.8901 C757.7919,262.3093 757.6639,261.7221 757.5356,261.1287 C757.2791,259.9419 757.0216,258.7301 756.7638,257.4947 C752.6397,237.7271 748.4553,211.8802 747.3396,184.6924 C745.1083,130.3167 755.1515,70.5775 802.5,43.382 C867.584,6 2088.42,6 2153.5,43.382 C2203.765,72.2535 2228.21,132.0452 2240.055,186.0294 C2240.7953,189.4034 2241.4864,192.7547 2242.1315,196.0744 C2242.2928,196.9043 2242.4512,197.7322 2242.6068,198.5581 C2242.6846,198.971 2242.7616,199.3833 2242.838,199.7952 " fill="none" id="q-to-ad" style="stroke:#181818;stroke-width:1.0;"/><polygon fill="#181818" points="2242.838,199.7952,2245.1297,190.2166,2241.9262,194.879,2237.2638,191.6755,2242.838,199.7952" style="stroke:#181818;stroke-width:1.0;"/></g><!--link q to ae--><g id="link_q_ae"><path d="M757.9196,262.8901 C757.7919,262.3093 757.6639,261.7221 757.5356,261.1287 C757.2791,259.9419 757.0216,258.7301 756.7638,257.4947 C752.6397,237.7271 748.4553,211.8802 747.3396,184.6924 C745.1083,130.3167 755.1515,70.5775 802.5,43.382 C845.737,18.548 2554.26,18.548 2597.5,43.382 C2647.765,72.2535 2672.21,132.0452 2684.055,186.0294 C2684.7953,189.4034 2685.4864,192.7547 2686.1315,196.0744 C2686.2928,196.9043 2686.4512,197.7322 2686.6068,198.5581 C2686.6846,198.971 2686.7616,199.3833 2686.838,199.7952 " fill="none" id="q-to-ae" style="stroke:#181818;stroke-width:1.0;"/><polygon fill="#181818" points="2686.838,199.7952,2689.1297,190.2166,2685.9262,194.879,2681.2638,191.6755,2686.838,199.7952" style="stroke:#181818;stroke-width:1.0;"/></g><!--SRC=[VPB9RW8n38RlynGMznxASgq4IAr6OYGasjvDC4F4r8OaG1VnxaqcwG94SnbB_YUVVoyiAuBULDvs1qUc1sW1uQi0u5QO63dPa0yf04FA8TSDmOlFbkoVh55HKW6KvmWJErYGEMf5zbVwBqv4jffhcv4gNpQJVZR8ja6dXPDwlYdPUlNORCa5eL6RZF2e6z-5VvRHIbvB9ZqJrUraJiOAOwC_AMjc9hNcJ7vkQ4s6sCyjry9XQPNHkr3QNjGEttDnBegujF6y3EDFwzot5h0E2AyyeQCJVa3u7U7k0VR5FWJ459SfgXHNAT8F_hM2-nwqbu9_bp8LTgYPZ1TZpnjwnreuxcudnbLQ6R7nC2uTUsG_8PUGO_Qlc0ld1q6Tm44yPfNb3QvuuuFRTDA6aRRAqeRNxjBnTn97aKXPukXsXaTgRddV]--></g></svg>