<?xml version="1.0" encoding="UTF-8" standalone="no"?><svg xmlns="http://www.w3.org/2000/svg" xmlns:xlink="http://www.w3.org/1999/xlink" contentScriptType="application/ecmascript" contentStyleType="text/css" height="940px" preserveAspectRatio="none" style="width:338px;height:940px;" version="1.1" viewBox="0 0 338 940" width="338px" zoomAndPan="magnify"><defs/><g><rect fill="#F8F8F8" height="300.3691" id="App" style="stroke: #383838; stroke-width: 1.5;" width="97" x="114" y="7.58"/><text fill="#000000" font-family="sans-serif" font-size="12" lengthAdjust="spacingAndGlyphs" textLength="24" x="150.5" y="24.1816">App</text><line style="stroke: #383838; stroke-width: 1.5;" x1="115" x2="210" y1="31.7128" y2="31.7128"/><text fill="#000000" font-family="sans-serif" font-size="11" lengthAdjust="spacingAndGlyphs" textLength="0" x="123" y="46.3476"/><text fill="#000000" font-family="sans-serif" font-size="11" lengthAdjust="spacingAndGlyphs" textLength="48" x="120" y="59.3027">requires:</text><line style="stroke: #383838; stroke-width: 1.0;" x1="115" x2="210" y1="65.623" y2="65.623"/><text fill="#000000" font-family="sans-serif" font-size="11" lengthAdjust="spacingAndGlyphs" textLength="61" x="120" y="80.2577">operations:</text><line style="stroke: #383838; stroke-width: 1.0; stroke-dasharray: 1.0,2.0;" x1="115" x2="210" y1="86.578" y2="86.578"/><text fill="#000000" font-family="sans-serif" font-size="11" lengthAdjust="spacingAndGlyphs" textLength="54" x="120" y="101.2128">print(PDF)</text><text fill="#000000" font-family="sans-serif" font-size="11" lengthAdjust="spacingAndGlyphs" textLength="44" x="120" y="114.1679">print(id)</text><text fill="#000000" font-family="sans-serif" font-size="11" lengthAdjust="spacingAndGlyphs" textLength="85" x="120" y="127.123">scheduleJob(PS)</text><text fill="#000000" font-family="sans-serif" font-size="11" lengthAdjust="spacingAndGlyphs" textLength="0" x="123" y="140.078"/><line style="stroke: #383838; stroke-width: 1.0;" x1="115" x2="210" y1="146.3984" y2="146.3984"/><text fill="#000000" font-family="sans-serif" font-size="11" lengthAdjust="spacingAndGlyphs" textLength="59" x="120" y="161.0331">properties:</text><line style="stroke: #383838; stroke-width: 1.0; stroke-dasharray: 1.0,2.0;" x1="115" x2="210" y1="167.3534" y2="167.3534"/><text fill="#000000" font-family="sans-serif" font-size="11" lengthAdjust="spacingAndGlyphs" textLength="58" x="120" y="181.9882">paper_size</text><text fill="#000000" font-family="sans-serif" font-size="11" lengthAdjust="spacingAndGlyphs" textLength="28" x="120" y="194.9433">color</text><text fill="#000000" font-family="sans-serif" font-size="11" lengthAdjust="spacingAndGlyphs" textLength="37" x="120" y="207.8984">duplex</text><text fill="#000000" font-family="sans-serif" font-size="11" lengthAdjust="spacingAndGlyphs" textLength="0" x="123" y="220.8534"/><line style="stroke: #383838; stroke-width: 1.0;" x1="115" x2="210" y1="227.1738" y2="227.1738"/><text fill="#000000" font-family="sans-serif" font-size="11" lengthAdjust="spacingAndGlyphs" textLength="38" x="120" y="241.8085">events:</text><line style="stroke: #383838; stroke-width: 1.0; stroke-dasharray: 1.0,2.0;" x1="115" x2="210" y1="248.1288" y2="248.1288"/><text fill="#000000" font-family="sans-serif" font-size="11" lengthAdjust="spacingAndGlyphs" textLength="70" x="120" y="262.7636">print_started</text><text fill="#000000" font-family="sans-serif" font-size="11" lengthAdjust="spacingAndGlyphs" textLength="59" x="120" y="275.7187">print_done</text><text fill="#000000" font-family="sans-serif" font-size="11" lengthAdjust="spacingAndGlyphs" textLength="0" x="123" y="288.6738"/><text fill="#000000" font-family="sans-serif" font-size="11" lengthAdjust="spacingAndGlyphs" textLength="0" x="123" y="301.6288"/><rect fill="#F8F8F8" height="112.9082" id="Driver" style="stroke: #383838; stroke-width: 1.5;" width="73" x="6" y="493.11"/><text fill="#000000" font-family="sans-serif" font-size="12" lengthAdjust="spacingAndGlyphs" textLength="35" x="25" y="509.7116">Driver</text><line style="stroke: #383838; stroke-width: 1.5;" x1="7" x2="78" y1="517.2428" y2="517.2428"/><text fill="#000000" font-family="sans-serif" font-size="11" lengthAdjust="spacingAndGlyphs" textLength="0" x="15" y="531.8776"/><text fill="#000000" font-family="sans-serif" font-size="11" lengthAdjust="spacingAndGlyphs" textLength="50" x="12" y="544.8327">provides:</text><line style="stroke: #383838; stroke-width: 1.0;" x1="7" x2="78" y1="551.153" y2="551.153"/><text fill="#000000" font-family="sans-serif" font-size="11" lengthAdjust="spacingAndGlyphs" textLength="61" x="12" y="565.7877">operations:</text><line style="stroke: #383838; stroke-width: 1.0; stroke-dasharray: 1.0,2.0;" x1="7" x2="78" y1="572.108" y2="572.108"/><text fill="#000000" font-family="sans-serif" font-size="11" lengthAdjust="spacingAndGlyphs" textLength="54" x="12" y="586.7428">print(PDF)</text><text fill="#000000" font-family="sans-serif" font-size="11" lengthAdjust="spacingAndGlyphs" textLength="0" x="15" y="599.6979"/><rect fill="#F8F8F8" height="201.6836" id="Spooler" style="stroke: #383838; stroke-width: 1.5;" width="97" x="114" y="448.72"/><text fill="#000000" font-family="sans-serif" font-size="12" lengthAdjust="spacingAndGlyphs" textLength="43" x="141" y="465.3216">Spooler</text><line style="stroke: #383838; stroke-width: 1.5;" x1="115" x2="210" y1="472.8528" y2="472.8528"/><text fill="#000000" font-family="sans-serif" font-size="11" lengthAdjust="spacingAndGlyphs" textLength="0" x="123" y="487.4876"/><text fill="#000000" font-family="sans-serif" font-size="11" lengthAdjust="spacingAndGlyphs" textLength="50" x="120" y="500.4427">provides:</text><line style="stroke: #383838; stroke-width: 1.0;" x1="115" x2="210" y1="506.763" y2="506.763"/><text fill="#000000" font-family="sans-serif" font-size="11" lengthAdjust="spacingAndGlyphs" textLength="61" x="120" y="521.3977">operations:</text><line style="stroke: #383838; stroke-width: 1.0; stroke-dasharray: 1.0,2.0;" x1="115" x2="210" y1="527.718" y2="527.718"/><text fill="#000000" font-family="sans-serif" font-size="11" lengthAdjust="spacingAndGlyphs" textLength="85" x="120" y="542.3528">scheduleJob(PS)</text><text fill="#000000" font-family="sans-serif" font-size="11" lengthAdjust="spacingAndGlyphs" textLength="0" x="123" y="555.3079"/><line style="stroke: #383838; stroke-width: 1.0;" x1="115" x2="210" y1="561.6282" y2="561.6282"/><line style="stroke: #383838; stroke-width: 1.0;" x1="115" x2="210" y1="563.6282" y2="563.6282"/><text fill="#000000" font-family="sans-serif" font-size="11" lengthAdjust="spacingAndGlyphs" textLength="0" x="123" y="576.263"/><text fill="#000000" font-family="sans-serif" font-size="11" lengthAdjust="spacingAndGlyphs" textLength="48" x="120" y="589.218">requires:</text><line style="stroke: #383838; stroke-width: 1.0;" x1="115" x2="210" y1="595.5384" y2="595.5384"/><text fill="#000000" font-family="sans-serif" font-size="11" lengthAdjust="spacingAndGlyphs" textLength="61" x="120" y="610.1731">operations:</text><line style="stroke: #383838; stroke-width: 1.0; stroke-dasharray: 1.0,2.0;" x1="115" x2="210" y1="616.4934" y2="616.4934"/><text fill="#000000" font-family="sans-serif" font-size="11" lengthAdjust="spacingAndGlyphs" textLength="44" x="120" y="631.1282">post(PS)</text><text fill="#000000" font-family="sans-serif" font-size="11" lengthAdjust="spacingAndGlyphs" textLength="0" x="123" y="644.0833"/><rect fill="#F8F8F8" height="138.8184" id="Queue" style="stroke: #383838; stroke-width: 1.5;" width="73" x="188" y="791.18"/><text fill="#000000" font-family="sans-serif" font-size="12" lengthAdjust="spacingAndGlyphs" textLength="37" x="206" y="807.7816">Queue</text><line style="stroke: #383838; stroke-width: 1.5;" x1="189" x2="260" y1="815.3128" y2="815.3128"/><text fill="#000000" font-family="sans-serif" font-size="11" lengthAdjust="spacingAndGlyphs" textLength="0" x="197" y="829.9476"/><text fill="#000000" font-family="sans-serif" font-size="11" lengthAdjust="spacingAndGlyphs" textLength="50" x="194" y="842.9027">provides:</text><line style="stroke: #383838; stroke-width: 1.0;" x1="189" x2="260" y1="849.223" y2="849.223"/><text fill="#000000" font-family="sans-serif" font-size="11" lengthAdjust="spacingAndGlyphs" textLength="61" x="194" y="863.8577">operations:</text><line style="stroke: #383838; stroke-width: 1.0; stroke-dasharray: 1.0,2.0;" x1="189" x2="260" y1="870.178" y2="870.178"/><text fill="#000000" font-family="sans-serif" font-size="11" lengthAdjust="spacingAndGlyphs" textLength="44" x="194" y="884.8128">post(PS)</text><text fill="#000000" font-family="sans-serif" font-size="11" lengthAdjust="spacingAndGlyphs" textLength="35" x="194" y="897.7679">get(id)</text><text fill="#000000" font-family="sans-serif" font-size="11" lengthAdjust="spacingAndGlyphs" textLength="50" x="194" y="910.723">delete(id)</text><text fill="#000000" font-family="sans-serif" font-size="11" lengthAdjust="spacingAndGlyphs" textLength="0" x="197" y="923.678"/><rect fill="#F8F8F8" height="363.2344" id="Printer" style="stroke: #383838; stroke-width: 1.5;" width="82" x="245.5" y="367.95"/><text fill="#000000" font-family="sans-serif" font-size="12" lengthAdjust="spacingAndGlyphs" textLength="38" x="267.5" y="384.5516">Printer</text><line style="stroke: #383838; stroke-width: 1.5;" x1="246.5" x2="326.5" y1="392.0828" y2="392.0828"/><text fill="#000000" font-family="sans-serif" font-size="11" lengthAdjust="spacingAndGlyphs" textLength="0" x="254.5" y="406.7176"/><text fill="#000000" font-family="sans-serif" font-size="11" lengthAdjust="spacingAndGlyphs" textLength="50" x="251.5" y="419.6727">provides:</text><line style="stroke: #383838; stroke-width: 1.0;" x1="246.5" x2="326.5" y1="425.993" y2="425.993"/><text fill="#000000" font-family="sans-serif" font-size="11" lengthAdjust="spacingAndGlyphs" textLength="61" x="251.5" y="440.6277">operations:</text><line style="stroke: #383838; stroke-width: 1.0; stroke-dasharray: 1.0,2.0;" x1="246.5" x2="326.5" y1="446.948" y2="446.948"/><text fill="#000000" font-family="sans-serif" font-size="11" lengthAdjust="spacingAndGlyphs" textLength="44" x="251.5" y="461.5828">print(id)</text><text fill="#000000" font-family="sans-serif" font-size="11" lengthAdjust="spacingAndGlyphs" textLength="0" x="254.5" y="474.5379"/><line style="stroke: #383838; stroke-width: 1.0;" x1="246.5" x2="326.5" y1="480.8582" y2="480.8582"/><text fill="#000000" font-family="sans-serif" font-size="11" lengthAdjust="spacingAndGlyphs" textLength="59" x="251.5" y="495.493">properties:</text><line style="stroke: #383838; stroke-width: 1.0; stroke-dasharray: 1.0,2.0;" x1="246.5" x2="326.5" y1="501.8133" y2="501.8133"/><text fill="#000000" font-family="sans-serif" font-size="11" lengthAdjust="spacingAndGlyphs" textLength="58" x="251.5" y="516.448">paper_size</text><text fill="#000000" font-family="sans-serif" font-size="11" lengthAdjust="spacingAndGlyphs" textLength="28" x="251.5" y="529.4031">color</text><text fill="#000000" font-family="sans-serif" font-size="11" lengthAdjust="spacingAndGlyphs" textLength="37" x="251.5" y="542.3582">duplex</text><text fill="#000000" font-family="sans-serif" font-size="11" lengthAdjust="spacingAndGlyphs" textLength="0" x="254.5" y="555.3133"/><line style="stroke: #383838; stroke-width: 1.0;" x1="246.5" x2="326.5" y1="561.6336" y2="561.6336"/><text fill="#000000" font-family="sans-serif" font-size="11" lengthAdjust="spacingAndGlyphs" textLength="38" x="251.5" y="576.2684">events:</text><line style="stroke: #383838; stroke-width: 1.0; stroke-dasharray: 1.0,2.0;" x1="246.5" x2="326.5" y1="582.5887" y2="582.5887"/><text fill="#000000" font-family="sans-serif" font-size="11" lengthAdjust="spacingAndGlyphs" textLength="70" x="251.5" y="597.2234">print_started</text><text fill="#000000" font-family="sans-serif" font-size="11" lengthAdjust="spacingAndGlyphs" textLength="59" x="251.5" y="610.1785">print_done</text><text fill="#000000" font-family="sans-serif" font-size="11" lengthAdjust="spacingAndGlyphs" textLength="0" x="254.5" y="623.1336"/><line style="stroke: #383838; stroke-width: 1.0;" x1="246.5" x2="326.5" y1="629.4539" y2="629.4539"/><line style="stroke: #383838; stroke-width: 1.0;" x1="246.5" x2="326.5" y1="631.4539" y2="631.4539"/><text fill="#000000" font-family="sans-serif" font-size="11" lengthAdjust="spacingAndGlyphs" textLength="0" x="254.5" y="644.0887"/><text fill="#000000" font-family="sans-serif" font-size="11" lengthAdjust="spacingAndGlyphs" textLength="48" x="251.5" y="657.0438">requires:</text><line style="stroke: #383838; stroke-width: 1.0;" x1="246.5" x2="326.5" y1="663.3641" y2="663.3641"/><text fill="#000000" font-family="sans-serif" font-size="11" lengthAdjust="spacingAndGlyphs" textLength="61" x="251.5" y="677.9988">operations:</text><line style="stroke: #383838; stroke-width: 1.0; stroke-dasharray: 1.0,2.0;" x1="246.5" x2="326.5" y1="684.3191" y2="684.3191"/><text fill="#000000" font-family="sans-serif" font-size="11" lengthAdjust="spacingAndGlyphs" textLength="35" x="251.5" y="698.9539">get(id)</text><text fill="#000000" font-family="sans-serif" font-size="11" lengthAdjust="spacingAndGlyphs" textLength="50" x="251.5" y="711.909">delete(id)</text><text fill="#000000" font-family="sans-serif" font-size="11" lengthAdjust="spacingAndGlyphs" textLength="0" x="254.5" y="724.8641"/><path d="M115,308.37 C108.73,328.38 102.43,348.65 96.5,367.95 C83.67,409.71 69.53,457.04 58.95,492.76 " fill="none" id="App-Driver" style="stroke: #383838; stroke-width: 1.0;"/><path d="M85.6872,427.8813 A10,10 0 0 0 72.1425 423.8141" fill="#FFFFFF" style="stroke: #383838; stroke-width: 1.5;"/><ellipse cx="76.8813" cy="432.62" fill="#FFFFFF" rx="6" ry="6" style="stroke: #383838; stroke-width: 1.5;"/><path d="M162.5,308.36 C162.5,355.27 162.5,405.89 162.5,448.51 " fill="none" id="App-Spooler" style="stroke: #383838; stroke-width: 1.0;"/><path d="M169.5711,372.9727 A10,10 0 0 0 155.4289 372.9727" fill="#FFFFFF" style="stroke: #383838; stroke-width: 1.5;"/><ellipse cx="162.5" cy="380.0438" fill="#FFFFFF" rx="6" ry="6" style="stroke: #383838; stroke-width: 1.5;"/><path d="M210.09,308.36 C221.6,344.53 233.8,382.91 245.01,418.13 " fill="none" id="App-Printer" style="stroke: #383838; stroke-width: 1.0;"/><path d="M232.2577,354.7196 A10,10 0 0 0 218.7808 359.006" fill="#FFFFFF" style="stroke: #383838; stroke-width: 1.5;"/><ellipse cx="227.6625" cy="363.6013" fill="#FFFFFF" rx="6" ry="6" style="stroke: #383838; stroke-width: 1.5;"/><path d="M250.17,731.67 C245.96,752.61 241.9,772.89 238.28,790.88 " fill="none" id="Printer-Queue" style="stroke: #383838; stroke-width: 1.0;"/><path d="M252.3277,756.8395 A10,10 0 0 0 238.462 754.0573" fill="#FFFFFF" style="stroke: #383838; stroke-width: 1.5;"/><ellipse cx="244.0038" cy="762.3812" fill="#FFFFFF" rx="6" ry="6" style="stroke: #383838; stroke-width: 1.5;"/><path d="M182.63,650.9 C191.82,696.72 202.48,749.82 210.74,790.99 " fill="none" id="Spooler-Queue" style="stroke: #383838; stroke-width: 1.0;"/><path d="M202.5753,714.3646 A10,10 0 0 0 188.7096 717.1472" fill="#FFFFFF" style="stroke: #383838; stroke-width: 1.5;"/><ellipse cx="197.0338" cy="722.6888" fill="#FFFFFF" rx="6" ry="6" style="stroke: #383838; stroke-width: 1.5;"/></g></svg>