<?xml version="1.0" encoding="UTF-8" standalone="no"?><svg xmlns="http://www.w3.org/2000/svg" xmlns:xlink="http://www.w3.org/1999/xlink" contentScriptType="application/ecmascript" contentStyleType="text/css" height="765px" preserveAspectRatio="none" style="width:1678px;height:765px;" version="1.1" viewBox="0 0 1678 765" width="1678px" zoomAndPan="magnify"><defs><filter height="300%" id="f1lsxljzjhj2do" width="300%" x="-1" y="-1"><feGaussianBlur result="blurOut" stdDeviation="2.0"/><feColorMatrix in="blurOut" result="blurOut2" type="matrix" values="0 0 0 0 0 0 0 0 0 0 0 0 0 0 0 0 0 0 .4 0"/><feOffset dx="4.0" dy="4.0" in="blurOut2" result="blurOut3"/><feBlend in="SourceGraphic" in2="blurOut3" mode="normal"/></filter></defs><g><polygon fill="#FFFFFF" filter="url(#f1lsxljzjhj2do)" points="1365,670.51,1375,660.51,1580,660.51,1580,743,1570,753,1365,753,1365,670.51" style="stroke: #000000; stroke-width: 1.5;"/><line style="stroke: #000000; stroke-width: 1.5;" x1="1570" x2="1579" y1="670.51" y2="661.51"/><line style="stroke: #000000; stroke-width: 1.5;" x1="1365" x2="1570" y1="670.51" y2="670.51"/><line style="stroke: #000000; stroke-width: 1.5;" x1="1570" x2="1570" y1="670.51" y2="753"/><text fill="#000000" font-family="sans-serif" font-size="14" font-weight="bold" lengthAdjust="spacingAndGlyphs" textLength="79" x="1429" y="687.0452">Web Server</text><polygon fill="#FFFFFF" filter="url(#f1lsxljzjhj2do)" points="259,181.54,269,171.54,1110,171.54,1110,593.51,1100,603.51,259,603.51,259,181.54" style="stroke: #000000; stroke-width: 1.5;"/><line style="stroke: #000000; stroke-width: 1.5;" x1="1100" x2="1109" y1="181.54" y2="172.54"/><line style="stroke: #000000; stroke-width: 1.5;" x1="259" x2="1100" y1="181.54" y2="181.54"/><line style="stroke: #000000; stroke-width: 1.5;" x1="1100" x2="1100" y1="181.54" y2="603.51"/><text fill="#000000" font-family="sans-serif" font-size="14" font-weight="bold" lengthAdjust="spacingAndGlyphs" textLength="93" x="634" y="198.0752">Web Browser</text><rect fill="#FFFFFF" filter="url(#f1lsxljzjhj2do)" height="327.97" style="stroke: #000000; stroke-width: 1.5;" width="763" x="299" y="235.54"/><rect fill="#FFFFFF" height="10" style="stroke: #000000; stroke-width: 1.5;" width="15" x="1042" y="240.54"/><rect fill="#FFFFFF" height="2" style="stroke: #000000; stroke-width: 1.5;" width="4" x="1040" y="242.54"/><rect fill="#FFFFFF" height="2" style="stroke: #000000; stroke-width: 1.5;" width="4" x="1040" y="246.54"/><text fill="#000000" font-family="sans-serif" font-size="14" font-weight="bold" lengthAdjust="spacingAndGlyphs" textLength="95" x="633" y="262.0752">UserInterface</text><rect fill="#FFFFFF" filter="url(#f1lsxljzjhj2do)" height="87.48" style="stroke: #000000; stroke-width: 1.5;" width="209" x="821" y="286.54"/><rect fill="#FFFFFF" height="10" style="stroke: #000000; stroke-width: 1.5;" width="15" x="1010" y="291.54"/><rect fill="#FFFFFF" height="2" style="stroke: #000000; stroke-width: 1.5;" width="4" x="1008" y="293.54"/><rect fill="#FFFFFF" height="2" style="stroke: #000000; stroke-width: 1.5;" width="4" x="1008" y="297.54"/><text fill="#000000" font-family="sans-serif" font-size="14" font-weight="bold" lengthAdjust="spacingAndGlyphs" textLength="58" x="896.5" y="313.0752">Services</text><rect fill="#FFFFFF" filter="url(#f1lsxljzjhj2do)" height="244.97" style="stroke: #000000; stroke-width: 1.5;" width="209" x="588" y="286.54"/><rect fill="#FFFFFF" height="10" style="stroke: #000000; stroke-width: 1.5;" width="15" x="777" y="291.54"/><rect fill="#FFFFFF" height="2" style="stroke: #000000; stroke-width: 1.5;" width="4" x="775" y="293.54"/><rect fill="#FFFFFF" height="2" style="stroke: #000000; stroke-width: 1.5;" width="4" x="775" y="297.54"/><text fill="#000000" font-family="sans-serif" font-size="14" font-weight="bold" lengthAdjust="spacingAndGlyphs" textLength="67" x="659" y="313.0752">Browsing</text><rect fill="#FFFFFF" filter="url(#f1lsxljzjhj2do)" height="244.97" style="stroke: #000000; stroke-width: 1.5;" width="225" x="339" y="286.54"/><rect fill="#FFFFFF" height="10" style="stroke: #000000; stroke-width: 1.5;" width="15" x="544" y="291.54"/><rect fill="#FFFFFF" height="2" style="stroke: #000000; stroke-width: 1.5;" width="4" x="542" y="293.54"/><rect fill="#FFFFFF" height="2" style="stroke: #000000; stroke-width: 1.5;" width="4" x="542" y="297.54"/><text fill="#000000" font-family="sans-serif" font-size="14" font-weight="bold" lengthAdjust="spacingAndGlyphs" textLength="83" x="410" y="313.0752">Personalize</text><polygon fill="#FFFFFF" filter="url(#f1lsxljzjhj2do)" points="1310,449.02,1320,439.02,1589,439.02,1589,521.51,1579,531.51,1310,531.51,1310,449.02" style="stroke: #000000; stroke-width: 1.5;"/><line style="stroke: #000000; stroke-width: 1.5;" x1="1579" x2="1588" y1="449.02" y2="440.02"/><line style="stroke: #000000; stroke-width: 1.5;" x1="1310" x2="1579" y1="449.02" y2="449.02"/><line style="stroke: #000000; stroke-width: 1.5;" x1="1579" x2="1579" y1="449.02" y2="531.51"/><text fill="#000000" font-family="sans-serif" font-size="14" font-weight="bold" lengthAdjust="spacingAndGlyphs" textLength="97" x="1397" y="465.5552">Google Cloud</text><polygon fill="#FFFFFF" filter="url(#f1lsxljzjhj2do)" points="30,42.05,40,32.05,219,32.05,219,372.02,209,382.02,30,382.02,30,42.05" style="stroke: #000000; stroke-width: 1.5;"/><line style="stroke: #000000; stroke-width: 1.5;" x1="209" x2="218" y1="42.05" y2="33.05"/><line style="stroke: #000000; stroke-width: 1.5;" x1="30" x2="209" y1="42.05" y2="42.05"/><line style="stroke: #000000; stroke-width: 1.5;" x1="209" x2="209" y1="42.05" y2="382.02"/><text fill="#000000" font-family="sans-serif" font-size="14" font-weight="bold" lengthAdjust="spacingAndGlyphs" textLength="113" x="64" y="58.5852">Virtual Machine</text><rect fill="#FEFECE" filter="url(#f1lsxljzjhj2do)" height="36.4883" style="stroke: #A80036; stroke-width: 1.5;" width="88" x="1381" y="700.51"/><rect fill="#FEFECE" height="5" style="stroke: #A80036; stroke-width: 1.5;" width="10" x="1376" y="705.51"/><rect fill="#FEFECE" height="5" style="stroke: #A80036; stroke-width: 1.5;" width="10" x="1376" y="726.9983"/><text fill="#000000" font-family="sans-serif" font-size="14" lengthAdjust="spacingAndGlyphs" textLength="68" x="1391" y="724.0452">Transport</text><rect fill="#FEFECE" filter="url(#f1lsxljzjhj2do)" height="36.4883" style="stroke: #A80036; stroke-width: 1.5;" width="60" x="1504" y="700.51"/><rect fill="#FEFECE" height="5" style="stroke: #A80036; stroke-width: 1.5;" width="10" x="1499" y="705.51"/><rect fill="#FEFECE" height="5" style="stroke: #A80036; stroke-width: 1.5;" width="10" x="1499" y="726.9983"/><text fill="#000000" font-family="sans-serif" font-size="14" lengthAdjust="spacingAndGlyphs" textLength="40" x="1514" y="724.0452">Stripe</text><rect fill="#FEFECE" filter="url(#f1lsxljzjhj2do)" height="36.4883" style="stroke: #A80036; stroke-width: 1.5;" width="83" x="930.5" y="321.54"/><rect fill="#FEFECE" height="5" style="stroke: #A80036; stroke-width: 1.5;" width="10" x="925.5" y="326.54"/><rect fill="#FEFECE" height="5" style="stroke: #A80036; stroke-width: 1.5;" width="10" x="925.5" y="348.0283"/><text fill="#000000" font-family="sans-serif" font-size="14" lengthAdjust="spacingAndGlyphs" textLength="63" x="940.5" y="345.0752">Bookings</text><rect fill="#FEFECE" filter="url(#f1lsxljzjhj2do)" height="36.4883" style="stroke: #A80036; stroke-width: 1.5;" width="58" x="837" y="321.54"/><rect fill="#FEFECE" height="5" style="stroke: #A80036; stroke-width: 1.5;" width="10" x="832" y="326.54"/><rect fill="#FEFECE" height="5" style="stroke: #A80036; stroke-width: 1.5;" width="10" x="832" y="348.0283"/><text fill="#000000" font-family="sans-serif" font-size="14" lengthAdjust="spacingAndGlyphs" textLength="38" x="847" y="345.0752">Mode</text><rect fill="#FEFECE" filter="url(#f1lsxljzjhj2do)" height="36.4883" style="stroke: #A80036; stroke-width: 1.5;" width="66" x="604" y="321.54"/><rect fill="#FEFECE" height="5" style="stroke: #A80036; stroke-width: 1.5;" width="10" x="599" y="326.54"/><rect fill="#FEFECE" height="5" style="stroke: #A80036; stroke-width: 1.5;" width="10" x="599" y="348.0283"/><text fill="#000000" font-family="sans-serif" font-size="14" lengthAdjust="spacingAndGlyphs" textLength="46" x="614" y="345.0752">Search</text><rect fill="#FEFECE" filter="url(#f1lsxljzjhj2do)" height="36.4883" style="stroke: #A80036; stroke-width: 1.5;" width="77" x="704.5" y="321.54"/><rect fill="#FEFECE" height="5" style="stroke: #A80036; stroke-width: 1.5;" width="10" x="699.5" y="326.54"/><rect fill="#FEFECE" height="5" style="stroke: #A80036; stroke-width: 1.5;" width="10" x="699.5" y="348.0283"/><text fill="#000000" font-family="sans-serif" font-size="14" lengthAdjust="spacingAndGlyphs" textLength="57" x="714.5" y="345.0752">Filtering</text><rect fill="#FEFECE" filter="url(#f1lsxljzjhj2do)" height="36.4883" style="stroke: #A80036; stroke-width: 1.5;" width="47" x="613.5" y="479.02"/><rect fill="#FEFECE" height="5" style="stroke: #A80036; stroke-width: 1.5;" width="10" x="608.5" y="484.02"/><rect fill="#FEFECE" height="5" style="stroke: #A80036; stroke-width: 1.5;" width="10" x="608.5" y="505.5083"/><text fill="#000000" font-family="sans-serif" font-size="14" lengthAdjust="spacingAndGlyphs" textLength="27" x="623.5" y="502.5552">Info</text><rect fill="#FEFECE" filter="url(#f1lsxljzjhj2do)" height="36.4883" style="stroke: #A80036; stroke-width: 1.5;" width="78" x="695" y="479.02"/><rect fill="#FEFECE" height="5" style="stroke: #A80036; stroke-width: 1.5;" width="10" x="690" y="484.02"/><rect fill="#FEFECE" height="5" style="stroke: #A80036; stroke-width: 1.5;" width="10" x="690" y="505.5083"/><text fill="#000000" font-family="sans-serif" font-size="14" lengthAdjust="spacingAndGlyphs" textLength="58" x="705" y="502.5552">Location</text><rect fill="#FEFECE" filter="url(#f1lsxljzjhj2do)" height="36.4883" style="stroke: #A80036; stroke-width: 1.5;" width="58" x="355" y="321.54"/><rect fill="#FEFECE" height="5" style="stroke: #A80036; stroke-width: 1.5;" width="10" x="350" y="326.54"/><rect fill="#FEFECE" height="5" style="stroke: #A80036; stroke-width: 1.5;" width="10" x="350" y="348.0283"/><text fill="#000000" font-family="sans-serif" font-size="14" lengthAdjust="spacingAndGlyphs" textLength="38" x="365" y="345.0752">Login</text><rect fill="#FEFECE" filter="url(#f1lsxljzjhj2do)" height="36.4883" style="stroke: #A80036; stroke-width: 1.5;" width="100" x="448" y="321.54"/><rect fill="#FEFECE" height="5" style="stroke: #A80036; stroke-width: 1.5;" width="10" x="443" y="326.54"/><rect fill="#FEFECE" height="5" style="stroke: #A80036; stroke-width: 1.5;" width="10" x="443" y="348.0283"/><text fill="#000000" font-family="sans-serif" font-size="14" lengthAdjust="spacingAndGlyphs" textLength="80" x="458" y="345.0752">Preferences</text><rect fill="#FEFECE" filter="url(#f1lsxljzjhj2do)" height="36.4883" style="stroke: #A80036; stroke-width: 1.5;" width="113" x="354.5" y="479.02"/><rect fill="#FEFECE" height="5" style="stroke: #A80036; stroke-width: 1.5;" width="10" x="349.5" y="484.02"/><rect fill="#FEFECE" height="5" style="stroke: #A80036; stroke-width: 1.5;" width="10" x="349.5" y="505.5083"/><text fill="#000000" font-family="sans-serif" font-size="14" lengthAdjust="spacingAndGlyphs" textLength="93" x="364.5" y="502.5552">Subscriptions</text><rect fill="#FEFECE" filter="url(#f1lsxljzjhj2do)" height="36.4883" style="stroke: #A80036; stroke-width: 1.5;" width="78" x="1495" y="479.02"/><rect fill="#FEFECE" height="5" style="stroke: #A80036; stroke-width: 1.5;" width="10" x="1490" y="484.02"/><rect fill="#FEFECE" height="5" style="stroke: #A80036; stroke-width: 1.5;" width="10" x="1490" y="505.5083"/><text fill="#000000" font-family="sans-serif" font-size="14" lengthAdjust="spacingAndGlyphs" textLength="58" x="1505" y="502.5552">Firebase</text><rect fill="#FEFECE" filter="url(#f1lsxljzjhj2do)" height="36.4883" style="stroke: #A80036; stroke-width: 1.5;" width="134" x="1326" y="479.02"/><rect fill="#FEFECE" height="5" style="stroke: #A80036; stroke-width: 1.5;" width="10" x="1321" y="484.02"/><rect fill="#FEFECE" height="5" style="stroke: #A80036; stroke-width: 1.5;" width="10" x="1321" y="505.5083"/><text fill="#000000" font-family="sans-serif" font-size="14" lengthAdjust="spacingAndGlyphs" textLength="114" x="1336" y="502.5552">FirebaseConsole</text><rect fill="#FEFECE" filter="url(#f1lsxljzjhj2do)" height="36.4883" style="stroke: #A80036; stroke-width: 1.5;" width="111" x="59.5" y="80.05"/><rect fill="#FEFECE" height="5" style="stroke: #A80036; stroke-width: 1.5;" width="10" x="54.5" y="85.05"/><rect fill="#FEFECE" height="5" style="stroke: #A80036; stroke-width: 1.5;" width="10" x="54.5" y="106.5383"/><text fill="#000000" font-family="sans-serif" font-size="14" lengthAdjust="spacingAndGlyphs" textLength="91" x="69.5" y="103.5852">LoadBalancer</text><rect fill="#FEFECE" filter="url(#f1lsxljzjhj2do)" height="36.4883" style="stroke: #A80036; stroke-width: 1.5;" width="82" x="74" y="321.54"/><rect fill="#FEFECE" height="5" style="stroke: #A80036; stroke-width: 1.5;" width="10" x="69" y="326.54"/><rect fill="#FEFECE" height="5" style="stroke: #A80036; stroke-width: 1.5;" width="10" x="69" y="348.0283"/><text fill="#000000" font-family="sans-serif" font-size="14" lengthAdjust="spacingAndGlyphs" textLength="62" x="84" y="345.0752">Directory</text><path d="M1110.1271,340.9541 C1110.3085,340.9594 1110.4927,340.965 1110.6798,340.9707 C1111.0539,340.9821 1111.4395,340.9943 1111.8363,341.0071 C1112.6298,341.0327 1113.4684,341.0612 1114.3508,341.0928 C1121.41,341.346 1131.2756,341.8013 1143.37,342.6189 C1167.5588,344.2541 1200.6625,347.3381 1238.06,353.1513 C1312.855,364.7775 1404.825,387.32 1477,431.02 C1496.56,442.86 1512.98,463.65 1523.1,478.58 " fill="none" id="a-f" style="stroke: #A80036; stroke-width: 1.0;"/><text fill="#000000" font-family="sans-serif" font-size="13" lengthAdjust="spacingAndGlyphs" textLength="40" x="1460" y="419.5884">HTTPS</text><path d="M1110.214,496.3233 C1110.6005,498.2241 1111.0008,500.1273 1111.4153,502.0318 C1112.2443,505.841 1113.13,509.6558 1114.0759,513.4685 C1115.9678,521.0938 1118.1005,528.7109 1120.5019,536.2578 C1130.1075,566.4456 1144.0125,595.5125 1164,619.51 C1218.69,685.18 1322.03,707 1380.94,714.21 " fill="none" id="a-b" style="stroke: #A80036; stroke-width: 1.0;"/><text fill="#000000" font-family="sans-serif" font-size="13" lengthAdjust="spacingAndGlyphs" textLength="40" x="1165" y="502.3384">HTTPS</text><path d="M1110.2092,345.3379 C1110.3064,345.3938 1110.4043,345.4503 1110.503,345.5073 C1110.7004,345.6212 1110.9007,345.737 1111.1039,345.8548 C1111.5104,346.0905 1111.9285,346.3339 1112.3579,346.585 C1113.2166,347.0872 1114.1202,347.6203 1115.0655,348.1834 C1122.6278,352.6888 1132.8569,359.1213 1144.0813,367.12 C1166.53,383.1175 1192.96,405.38 1210,431.02 C1258.52,504.02 1201.6,562.3 1268,619.51 C1342.23,683.48 1402.12,601.85 1486,652.51 C1504.54,663.71 1518.14,685.04 1526.04,700.27 " fill="none" id="a-s" style="stroke: #A80036; stroke-width: 1.0;"/><text fill="#000000" font-family="sans-serif" font-size="13" lengthAdjust="spacingAndGlyphs" textLength="40" x="1269" y="502.3384">HTTPS</text><path d="M1534,515.86 C1534,556.96 1534,658.9 1534,700.08 " fill="none" id="f-s" style="stroke: #A80036; stroke-width: 1.0;"/><text fill="#000000" font-family="sans-serif" font-size="13" lengthAdjust="spacingAndGlyphs" textLength="40" x="1535" y="641.0784">HTTPS</text><path d="M115,116.9 C115,161.19 115,276.83 115,321.14 " fill="none" id="l-v" style="stroke: #A80036; stroke-width: 1.0;"/><path d="M219.2851,119.9558 C219.3944,120.2286 219.5047,120.5038 219.6159,120.7812 C219.8382,121.3359 220.0642,121.8996 220.2936,122.472 C222.129,127.0513 224.1879,132.1882 226.4258,137.7714 C235.3772,160.1041 247.1906,189.5756 259.0037,219.0463 C270.8169,248.5169 282.6297,277.9866 291.5798,300.3155 C293.8174,305.8977 295.876,311.0336 297.711,315.6117 C297.9404,316.184 298.1662,316.7475 298.3885,317.3021 C298.4997,317.5794 298.6099,317.8545 298.7193,318.1273 C298.774,318.2637 298.8284,318.3995 298.8826,318.5348 " fill="none" id="qw-ds" style="stroke: #A80036; stroke-width: 1.0;"/><path d="M219.9591,99.2745 C220.3032,99.2743 220.6568,99.274 221.0198,99.2739 C226.828,99.2707 235.0497,99.2748 245.3905,99.3014 C266.0721,99.3547 295.2302,99.4982 330.5098,99.8539 C401.0691,100.5653 496.1144,102.1256 596.8063,105.5112 C798.19,112.2825 1022.16,126.355 1118,155.54 C1349.99,226.18 1468.34,220.66 1589,431.02 C1636.22,513.35 1654.86,581.37 1584,644.51 C1567.85,658.9 1506.51,643.17 1487,652.51 C1465.16,662.97 1447.03,684.68 1436.14,700.19 " fill="none" id="qw-b" style="stroke: #A80036; stroke-width: 1.0;"/><path d="M219.946,99.3265 C220.3642,99.3284 220.7965,99.3304 221.2428,99.3325 C222.1355,99.3367 223.0842,99.3412 224.088,99.3461 C232.1185,99.3854 243.6755,99.4491 258.2858,99.5483 C287.5062,99.7468 328.9393,100.0877 378.7973,100.6611 C478.5134,101.8078 611.9294,103.8844 748.7438,107.6113 C1022.3725,115.065 1309.595,129.12 1368,155.54 C1523.35,225.81 1570.98,272.99 1635,431.02 C1666.45,508.67 1659.64,539.45 1635,619.51 C1623.92,655.52 1589.62,683.76 1564.05,700.54 " fill="none" id="qw-s" style="stroke: #A80036; stroke-width: 1.0;"/></g></svg>