<?xml version="1.0" encoding="UTF-8" standalone="no"?><svg xmlns="http://www.w3.org/2000/svg" xmlns:xlink="http://www.w3.org/1999/xlink" contentScriptType="application/ecmascript" contentStyleType="text/css" height="624px" preserveAspectRatio="none" style="width:1703px;height:624px;" version="1.1" viewBox="0 0 1703 624" width="1703px" zoomAndPan="magnify"><defs/><g><rect fill="#DDDDDD" height="609.4531" style="stroke: #383838; stroke-width: 1.0;" width="1078" x="4" y="4"/><text fill="#000000" font-family="Courier" font-size="13" font-weight="bold" lengthAdjust="spacingAndGlyphs" textLength="112" x="487" y="16.0669">User Interface</text><rect fill="#FFFFFF" height="35.1328" style="stroke: #383838; stroke-width: 1.0;" width="10" x="1290" y="341.4922"/><rect fill="#FFFFFF" height="29.1328" style="stroke: #383838; stroke-width: 1.0;" width="10" x="1530" y="312.3594"/><rect fill="#FFFFFF" height="71.2656" style="stroke: #383838; stroke-width: 1.0;" width="10" x="1530" y="412.7578"/><line style="stroke: #383838; stroke-width: 1.0; stroke-dasharray: 5.0,5.0;" x1="27" x2="27" y1="102.4297" y2="531.1563"/><line style="stroke: #383838; stroke-width: 1.0; stroke-dasharray: 5.0,5.0;" x1="355" x2="355" y1="102.4297" y2="531.1563"/><line style="stroke: #383838; stroke-width: 1.0; stroke-dasharray: 5.0,5.0;" x1="423" x2="423" y1="102.4297" y2="531.1563"/><line style="stroke: #383838; stroke-width: 1.0; stroke-dasharray: 5.0,5.0;" x1="507" x2="507" y1="102.4297" y2="531.1563"/><line style="stroke: #383838; stroke-width: 1.0; stroke-dasharray: 5.0,5.0;" x1="583" x2="583" y1="102.4297" y2="531.1563"/><line style="stroke: #383838; stroke-width: 1.0; stroke-dasharray: 5.0,5.0;" x1="655" x2="655" y1="102.4297" y2="531.1563"/><line style="stroke: #383838; stroke-width: 1.0; stroke-dasharray: 5.0,5.0;" x1="763" x2="763" y1="102.4297" y2="531.1563"/><line style="stroke: #383838; stroke-width: 1.0; stroke-dasharray: 5.0,5.0;" x1="883" x2="883" y1="102.4297" y2="531.1563"/><line style="stroke: #383838; stroke-width: 1.0; stroke-dasharray: 5.0,5.0;" x1="983" x2="983" y1="102.4297" y2="531.1563"/><line style="stroke: #383838; stroke-width: 1.0; stroke-dasharray: 5.0,5.0;" x1="1055" x2="1055" y1="102.4297" y2="531.1563"/><line style="stroke: #383838; stroke-width: 1.0; stroke-dasharray: 5.0,5.0;" x1="1119" x2="1119" y1="102.4297" y2="531.1563"/><line style="stroke: #383838; stroke-width: 1.0; stroke-dasharray: 5.0,5.0;" x1="1203" x2="1203" y1="102.4297" y2="531.1563"/><line style="stroke: #383838; stroke-width: 1.0; stroke-dasharray: 5.0,5.0;" x1="1295" x2="1295" y1="102.4297" y2="531.1563"/><line style="stroke: #383838; stroke-width: 1.0; stroke-dasharray: 5.0,5.0;" x1="1535" x2="1535" y1="102.4297" y2="531.1563"/><text fill="#000000" font-family="Courier" font-size="14" lengthAdjust="spacingAndGlyphs" textLength="32" x="8" y="99.1279">user</text><ellipse cx="27" cy="33.1328" fill="#F8F8F8" rx="8" ry="8" style="stroke: #383838; stroke-width: 2.0;"/><path d="M27,41.1328 L27,68.1328 M14,49.1328 L40,49.1328 M27,68.1328 L14,83.1328 M27,68.1328 L40,83.1328 " fill="none" style="stroke: #383838; stroke-width: 2.0;"/><text fill="#000000" font-family="Courier" font-size="14" lengthAdjust="spacingAndGlyphs" textLength="32" x="8" y="543.1514">user</text><ellipse cx="27" cy="556.4531" fill="#F8F8F8" rx="8" ry="8" style="stroke: #383838; stroke-width: 2.0;"/><path d="M27,564.4531 L27,591.4531 M14,572.4531 L40,572.4531 M27,591.4531 L14,606.4531 M27,591.4531 L40,606.4531 " fill="none" style="stroke: #383838; stroke-width: 2.0;"/><rect fill="#F8F8F8" height="30.2969" style="stroke: #383838; stroke-width: 1.5;" width="54" x="328" y="71.1328"/><text fill="#000000" font-family="Courier" font-size="14" lengthAdjust="spacingAndGlyphs" textLength="40" x="335" y="91.1279">Login</text><rect fill="#F8F8F8" height="30.2969" style="stroke: #383838; stroke-width: 1.5;" width="54" x="328" y="530.1563"/><text fill="#000000" font-family="Courier" font-size="14" lengthAdjust="spacingAndGlyphs" textLength="40" x="335" y="550.1514">Login</text><rect fill="#F8F8F8" height="30.2969" style="stroke: #383838; stroke-width: 1.5;" width="62" x="392" y="71.1328"/><text fill="#000000" font-family="Courier" font-size="14" lengthAdjust="spacingAndGlyphs" textLength="48" x="399" y="91.1279">Search</text><rect fill="#F8F8F8" height="30.2969" style="stroke: #383838; stroke-width: 1.5;" width="62" x="392" y="530.1563"/><text fill="#000000" font-family="Courier" font-size="14" lengthAdjust="spacingAndGlyphs" textLength="48" x="399" y="550.1514">Search</text><rect fill="#F8F8F8" height="30.2969" style="stroke: #383838; stroke-width: 1.5;" width="86" x="464" y="71.1328"/><text fill="#000000" font-family="Courier" font-size="14" lengthAdjust="spacingAndGlyphs" textLength="72" x="471" y="91.1279">Filtering</text><rect fill="#F8F8F8" height="30.2969" style="stroke: #383838; stroke-width: 1.5;" width="86" x="464" y="530.1563"/><text fill="#000000" font-family="Courier" font-size="14" lengthAdjust="spacingAndGlyphs" textLength="72" x="471" y="550.1514">Filtering</text><rect fill="#F8F8F8" height="30.2969" style="stroke: #383838; stroke-width: 1.5;" width="46" x="560" y="71.1328"/><text fill="#000000" font-family="Courier" font-size="14" lengthAdjust="spacingAndGlyphs" textLength="32" x="567" y="91.1279">Info</text><rect fill="#F8F8F8" height="30.2969" style="stroke: #383838; stroke-width: 1.5;" width="46" x="560" y="530.1563"/><text fill="#000000" font-family="Courier" font-size="14" lengthAdjust="spacingAndGlyphs" textLength="32" x="567" y="550.1514">Info</text><rect fill="#F8F8F8" height="30.2969" style="stroke: #383838; stroke-width: 1.5;" width="78" x="616" y="71.1328"/><text fill="#000000" font-family="Courier" font-size="14" lengthAdjust="spacingAndGlyphs" textLength="64" x="623" y="91.1279">Location</text><rect fill="#F8F8F8" height="30.2969" style="stroke: #383838; stroke-width: 1.5;" width="78" x="616" y="530.1563"/><text fill="#000000" font-family="Courier" font-size="14" lengthAdjust="spacingAndGlyphs" textLength="64" x="623" y="550.1514">Location</text><rect fill="#F8F8F8" height="30.2969" style="stroke: #383838; stroke-width: 1.5;" width="118" x="704" y="71.1328"/><text fill="#000000" font-family="Courier" font-size="14" lengthAdjust="spacingAndGlyphs" textLength="104" x="711" y="91.1279">Subscriptions</text><rect fill="#F8F8F8" height="30.2969" style="stroke: #383838; stroke-width: 1.5;" width="118" x="704" y="530.1563"/><text fill="#000000" font-family="Courier" font-size="14" lengthAdjust="spacingAndGlyphs" textLength="104" x="711" y="550.1514">Subscriptions</text><rect fill="#F8F8F8" height="30.2969" style="stroke: #383838; stroke-width: 1.5;" width="102" x="832" y="71.1328"/><text fill="#000000" font-family="Courier" font-size="14" lengthAdjust="spacingAndGlyphs" textLength="88" x="839" y="91.1279">Preferences</text><rect fill="#F8F8F8" height="30.2969" style="stroke: #383838; stroke-width: 1.5;" width="102" x="832" y="530.1563"/><text fill="#000000" font-family="Courier" font-size="14" lengthAdjust="spacingAndGlyphs" textLength="88" x="839" y="550.1514">Preferences</text><rect fill="#F8F8F8" height="30.2969" style="stroke: #383838; stroke-width: 1.5;" width="78" x="944" y="71.1328"/><text fill="#000000" font-family="Courier" font-size="14" lengthAdjust="spacingAndGlyphs" textLength="64" x="951" y="91.1279">Bookings</text><rect fill="#F8F8F8" height="30.2969" style="stroke: #383838; stroke-width: 1.5;" width="78" x="944" y="530.1563"/><text fill="#000000" font-family="Courier" font-size="14" lengthAdjust="spacingAndGlyphs" textLength="64" x="951" y="550.1514">Bookings</text><rect fill="#F8F8F8" height="30.2969" style="stroke: #383838; stroke-width: 1.5;" width="46" x="1032" y="71.1328"/><text fill="#000000" font-family="Courier" font-size="14" lengthAdjust="spacingAndGlyphs" textLength="32" x="1039" y="91.1279">Mode</text><rect fill="#F8F8F8" height="30.2969" style="stroke: #383838; stroke-width: 1.5;" width="46" x="1032" y="530.1563"/><text fill="#000000" font-family="Courier" font-size="14" lengthAdjust="spacingAndGlyphs" textLength="32" x="1039" y="550.1514">Mode</text><rect fill="#F8F8F8" height="30.2969" style="stroke: #383838; stroke-width: 1.5;" width="62" x="1088" y="71.1328"/><text fill="#000000" font-family="Courier" font-size="14" lengthAdjust="spacingAndGlyphs" textLength="48" x="1095" y="91.1279">Stripe</text><rect fill="#F8F8F8" height="30.2969" style="stroke: #383838; stroke-width: 1.5;" width="62" x="1088" y="530.1563"/><text fill="#000000" font-family="Courier" font-size="14" lengthAdjust="spacingAndGlyphs" textLength="48" x="1095" y="550.1514">Stripe</text><rect fill="#F8F8F8" height="30.2969" style="stroke: #383838; stroke-width: 1.5;" width="86" x="1160" y="71.1328"/><text fill="#000000" font-family="Courier" font-size="14" lengthAdjust="spacingAndGlyphs" textLength="72" x="1167" y="91.1279">Transport</text><rect fill="#F8F8F8" height="30.2969" style="stroke: #383838; stroke-width: 1.5;" width="86" x="1160" y="530.1563"/><text fill="#000000" font-family="Courier" font-size="14" lengthAdjust="spacingAndGlyphs" textLength="72" x="1167" y="550.1514">Transport</text><rect fill="#F8F8F8" height="30.2969" style="stroke: #383838; stroke-width: 1.5;" width="78" x="1256" y="71.1328"/><text fill="#000000" font-family="Courier" font-size="14" lengthAdjust="spacingAndGlyphs" textLength="64" x="1263" y="91.1279">Watchdog</text><rect fill="#F8F8F8" height="30.2969" style="stroke: #383838; stroke-width: 1.5;" width="78" x="1256" y="530.1563"/><text fill="#000000" font-family="Courier" font-size="14" lengthAdjust="spacingAndGlyphs" textLength="64" x="1263" y="550.1514">Watchdog</text><text fill="#000000" font-family="Courier" font-size="14" lengthAdjust="spacingAndGlyphs" textLength="64" x="1500" y="99.1279">Firebase</text><path d="M1517,50.1328 C1517,40.1328 1535,40.1328 1535,40.1328 C1535,40.1328 1553,40.1328 1553,50.1328 L1553,76.1328 C1553,86.1328 1535,86.1328 1535,86.1328 C1535,86.1328 1517,86.1328 1517,76.1328 L1517,50.1328 " fill="#7F7F7F" style="stroke: #000000; stroke-width: 1.5;"/><path d="M1517,50.1328 C1517,60.1328 1535,60.1328 1535,60.1328 C1535,60.1328 1553,60.1328 1553,50.1328 " fill="none" style="stroke: #000000; stroke-width: 1.5;"/><text fill="#000000" font-family="Courier" font-size="14" lengthAdjust="spacingAndGlyphs" textLength="64" x="1500" y="543.1514">Firebase</text><path d="M1517,556.4531 C1517,546.4531 1535,546.4531 1535,546.4531 C1535,546.4531 1553,546.4531 1553,556.4531 L1553,582.4531 C1553,592.4531 1535,592.4531 1535,592.4531 C1535,592.4531 1517,592.4531 1517,582.4531 L1517,556.4531 " fill="#7F7F7F" style="stroke: #000000; stroke-width: 1.5;"/><path d="M1517,556.4531 C1517,566.4531 1535,566.4531 1535,566.4531 C1535,566.4531 1553,566.4531 1553,556.4531 " fill="none" style="stroke: #000000; stroke-width: 1.5;"/><rect fill="#FFFFFF" height="35.1328" style="stroke: #383838; stroke-width: 1.0;" width="10" x="1290" y="341.4922"/><rect fill="#FFFFFF" height="29.1328" style="stroke: #383838; stroke-width: 1.0;" width="10" x="1530" y="312.3594"/><rect fill="#FFFFFF" height="71.2656" style="stroke: #383838; stroke-width: 1.0;" width="10" x="1530" y="412.7578"/><polygon fill="#383838" points="343,129.5625,353,133.5625,343,137.5625,347,133.5625" style="stroke: #383838; stroke-width: 1.0;"/><line style="stroke: #383838; stroke-width: 1.0;" x1="27" x2="349" y1="133.5625" y2="133.5625"/><text fill="#000000" font-family="Courier" font-size="13" lengthAdjust="spacingAndGlyphs" textLength="304" x="34" y="128.4966">User inputs authentication credentials</text><polygon fill="#383838" points="1523,158.6953,1533,162.6953,1523,166.6953,1527,162.6953" style="stroke: #383838; stroke-width: 1.0;"/><line style="stroke: #383838; stroke-width: 1.0;" x1="355" x2="1529" y1="162.6953" y2="162.6953"/><text fill="#000000" font-family="Courier" font-size="13" lengthAdjust="spacingAndGlyphs" textLength="160" x="362" y="157.6294">Begin Authentication</text><polygon fill="#383838" points="366,187.8281,356,191.8281,366,195.8281,362,191.8281" style="stroke: #383838; stroke-width: 1.0;"/><line style="stroke: #383838; stroke-width: 1.0;" x1="360" x2="1534" y1="191.8281" y2="191.8281"/><text fill="#000000" font-family="Courier" font-size="13" lengthAdjust="spacingAndGlyphs" textLength="248" x="372" y="186.7622">User successfully authenticated</text><polygon fill="#383838" points="411,216.9609,421,220.9609,411,224.9609,415,220.9609" style="stroke: #383838; stroke-width: 1.0;"/><line style="stroke: #383838; stroke-width: 1.0;" x1="27" x2="417" y1="220.9609" y2="220.9609"/><text fill="#000000" font-family="Courier" font-size="13" lengthAdjust="spacingAndGlyphs" textLength="248" x="34" y="215.895">User browses through categories</text><polygon fill="#383838" points="1523,246.0938,1533,250.0938,1523,254.0938,1527,250.0938" style="stroke: #383838; stroke-width: 1.0;"/><line style="stroke: #383838; stroke-width: 1.0;" x1="423" x2="1529" y1="250.0938" y2="250.0938"/><text fill="#000000" font-family="Courier" font-size="13" lengthAdjust="spacingAndGlyphs" textLength="256" x="430" y="245.0278">User request for categories sent</text><polygon fill="#ECECEC" points="1489,263.0938,1581,263.0938,1591,274.0938,1581,286.0938,1489,286.0938,1479,274.0938,1489,263.0938" style="stroke: #383838; stroke-width: 1.0;"/><text fill="#000000" font-family="Courier" font-size="13" lengthAdjust="spacingAndGlyphs" textLength="88" x="1491" y="279.1606">System Down</text><polygon fill="#383838" points="1518,308.3594,1528,312.3594,1518,316.3594,1522,312.3594" style="stroke: #383838; stroke-width: 1.0;"/><line style="stroke: #383838; stroke-width: 1.0;" x1="1295" x2="1524" y1="312.3594" y2="312.3594"/><text fill="#000000" font-family="Courier" font-size="13" lengthAdjust="spacingAndGlyphs" textLength="104" x="1302" y="307.2935">checkStatus()</text><polygon fill="#383838" points="1311,337.4922,1301,341.4922,1311,345.4922,1307,341.4922" style="stroke: #383838; stroke-width: 1.0;"/><line style="stroke: #383838; stroke-width: 1.0;" x1="1305" x2="1534" y1="341.4922" y2="341.4922"/><text fill="#000000" font-family="Courier" font-size="13" lengthAdjust="spacingAndGlyphs" textLength="80" x="1317" y="336.4263">Inactive()</text><line style="stroke: #383838; stroke-width: 1.0;" x1="1300" x2="1342" y1="375.625" y2="375.625"/><line style="stroke: #383838; stroke-width: 1.0;" x1="1342" x2="1342" y1="375.625" y2="388.625"/><line style="stroke: #383838; stroke-width: 1.0;" x1="1295" x2="1342" y1="388.625" y2="388.625"/><polygon fill="#383838" points="1305,384.625,1295,388.625,1305,392.625,1301,388.625" style="stroke: #383838; stroke-width: 1.0;"/><text fill="#000000" font-family="Courier" font-size="13" lengthAdjust="spacingAndGlyphs" textLength="88" x="1307" y="370.5591">recoverDb()</text><polygon fill="#383838" points="1518,408.7578,1528,412.7578,1518,416.7578,1522,412.7578" style="stroke: #383838; stroke-width: 1.0;"/><line style="stroke: #383838; stroke-width: 1.0;" x1="1295" x2="1524" y1="412.7578" y2="412.7578"/><text fill="#000000" font-family="Courier" font-size="13" lengthAdjust="spacingAndGlyphs" textLength="216" x="1302" y="407.6919">request_category_recovery()</text><line style="stroke: #383838; stroke-width: 1.0;" x1="1540" x2="1582" y1="441.8906" y2="441.8906"/><line style="stroke: #383838; stroke-width: 1.0;" x1="1582" x2="1582" y1="441.8906" y2="454.8906"/><line style="stroke: #383838; stroke-width: 1.0;" x1="1541" x2="1582" y1="454.8906" y2="454.8906"/><polygon fill="#383838" points="1551,450.8906,1541,454.8906,1551,458.8906,1547,454.8906" style="stroke: #383838; stroke-width: 1.0;"/><text fill="#000000" font-family="Courier" font-size="13" lengthAdjust="spacingAndGlyphs" textLength="144" x="1547" y="436.8247">recover_category()</text><polygon fill="#383838" points="1306,480.0234,1296,484.0234,1306,488.0234,1302,484.0234" style="stroke: #383838; stroke-width: 1.0;"/><line style="stroke: #383838; stroke-width: 1.0;" x1="1300" x2="1534" y1="484.0234" y2="484.0234"/><text fill="#000000" font-family="Courier" font-size="13" lengthAdjust="spacingAndGlyphs" textLength="160" x="1312" y="478.9575">category_recovered()</text><polygon fill="#383838" points="434,509.1563,424,513.1563,434,517.1563,430,513.1563" style="stroke: #383838; stroke-width: 1.0;"/><line style="stroke: #383838; stroke-width: 1.0; stroke-dasharray: 2.0,2.0;" x1="428" x2="1534" y1="513.1563" y2="513.1563"/><text fill="#000000" font-family="Courier" font-size="13" lengthAdjust="spacingAndGlyphs" textLength="120" x="440" y="508.0903">send_category()</text></g></svg>