<?xml version="1.0" encoding="UTF-8" standalone="no"?><svg xmlns="http://www.w3.org/2000/svg" xmlns:xlink="http://www.w3.org/1999/xlink" contentScriptType="application/ecmascript" contentStyleType="text/css" height="567px" preserveAspectRatio="none" style="width:903px;height:567px;" version="1.1" viewBox="0 0 903 567" width="903px" zoomAndPan="magnify"><defs><filter height="300%" id="f17buhidtbqhtm" width="300%" x="-1" y="-1"><feGaussianBlur result="blurOut" stdDeviation="2.0"/><feColorMatrix in="blurOut" result="blurOut2" type="matrix" values="0 0 0 0 0 0 0 0 0 0 0 0 0 0 0 0 0 0 .4 0"/><feOffset dx="4.0" dy="4.0" in="blurOut2" result="blurOut3"/><feBlend in="SourceGraphic" in2="blurOut3" mode="normal"/></filter></defs><g><rect fill="#FFFFFF" filter="url(#f17buhidtbqhtm)" height="474.95" style="stroke: #000000; stroke-width: 1.5;" width="514" x="171" y="81.05"/><rect fill="#FFFFFF" height="10" style="stroke: #000000; stroke-width: 1.5;" width="15" x="665" y="86.05"/><rect fill="#FFFFFF" height="2" style="stroke: #000000; stroke-width: 1.5;" width="4" x="663" y="88.05"/><rect fill="#FFFFFF" height="2" style="stroke: #000000; stroke-width: 1.5;" width="4" x="663" y="92.05"/><text fill="#000000" font-family="sans-serif" font-size="14" font-weight="bold" lengthAdjust="spacingAndGlyphs" textLength="95" x="380.5" y="107.5852">UserInterface</text><rect fill="#FFFFFF" filter="url(#f17buhidtbqhtm)" height="183.97" style="stroke: #000000; stroke-width: 1.5;" width="209" x="436" y="132.05"/><rect fill="#FFFFFF" height="10" style="stroke: #000000; stroke-width: 1.5;" width="15" x="625" y="137.05"/><rect fill="#FFFFFF" height="2" style="stroke: #000000; stroke-width: 1.5;" width="4" x="623" y="139.05"/><rect fill="#FFFFFF" height="2" style="stroke: #000000; stroke-width: 1.5;" width="4" x="623" y="143.05"/><text fill="#000000" font-family="sans-serif" font-size="14" font-weight="bold" lengthAdjust="spacingAndGlyphs" textLength="58" x="511.5" y="158.5852">Services</text><rect fill="#FFFFFF" filter="url(#f17buhidtbqhtm)" height="183.97" style="stroke: #000000; stroke-width: 1.5;" width="209" x="203" y="132.05"/><rect fill="#FFFFFF" height="10" style="stroke: #000000; stroke-width: 1.5;" width="15" x="392" y="137.05"/><rect fill="#FFFFFF" height="2" style="stroke: #000000; stroke-width: 1.5;" width="4" x="390" y="139.05"/><rect fill="#FFFFFF" height="2" style="stroke: #000000; stroke-width: 1.5;" width="4" x="390" y="143.05"/><text fill="#000000" font-family="sans-serif" font-size="14" font-weight="bold" lengthAdjust="spacingAndGlyphs" textLength="67" x="274" y="158.5852">Browsing</text><rect fill="#FFFFFF" filter="url(#f17buhidtbqhtm)" height="183.98" style="stroke: #000000; stroke-width: 1.5;" width="225" x="420" y="340.02"/><rect fill="#FFFFFF" height="10" style="stroke: #000000; stroke-width: 1.5;" width="15" x="625" y="345.02"/><rect fill="#FFFFFF" height="2" style="stroke: #000000; stroke-width: 1.5;" width="4" x="623" y="347.02"/><rect fill="#FFFFFF" height="2" style="stroke: #000000; stroke-width: 1.5;" width="4" x="623" y="351.02"/><text fill="#000000" font-family="sans-serif" font-size="14" font-weight="bold" lengthAdjust="spacingAndGlyphs" textLength="83" x="491" y="366.5552">Personalize</text><rect fill="#F8F8F8" filter="url(#f17buhidtbqhtm)" height="36.4883" style="stroke: #383838; stroke-width: 1.5;" width="83" x="452.5" y="167.05"/><rect fill="#F8F8F8" height="5" style="stroke: #383838; stroke-width: 1.5;" width="10" x="447.5" y="172.05"/><rect fill="#F8F8F8" height="5" style="stroke: #383838; stroke-width: 1.5;" width="10" x="447.5" y="193.5383"/><text fill="#000000" font-family="sans-serif" font-size="14" lengthAdjust="spacingAndGlyphs" textLength="63" x="462.5" y="190.5852">Bookings</text><rect fill="#F8F8F8" filter="url(#f17buhidtbqhtm)" height="36.4883" style="stroke: #383838; stroke-width: 1.5;" width="58" x="571" y="167.05"/><rect fill="#F8F8F8" height="5" style="stroke: #383838; stroke-width: 1.5;" width="10" x="566" y="172.05"/><rect fill="#F8F8F8" height="5" style="stroke: #383838; stroke-width: 1.5;" width="10" x="566" y="193.5383"/><text fill="#000000" font-family="sans-serif" font-size="14" lengthAdjust="spacingAndGlyphs" textLength="38" x="581" y="190.5852">Mode</text><rect fill="#F8F8F8" filter="url(#f17buhidtbqhtm)" height="36.4883" style="stroke: #383838; stroke-width: 1.5;" width="98" x="452" y="263.54"/><rect fill="#F8F8F8" height="5" style="stroke: #383838; stroke-width: 1.5;" width="10" x="447" y="268.54"/><rect fill="#F8F8F8" height="5" style="stroke: #383838; stroke-width: 1.5;" width="10" x="447" y="290.0283"/><text fill="#000000" font-family="sans-serif" font-size="14" lengthAdjust="spacingAndGlyphs" textLength="78" x="462" y="287.0752">Translation</text><rect fill="#F8F8F8" filter="url(#f17buhidtbqhtm)" height="36.4883" style="stroke: #383838; stroke-width: 1.5;" width="66" x="219" y="167.05"/><rect fill="#F8F8F8" height="5" style="stroke: #383838; stroke-width: 1.5;" width="10" x="214" y="172.05"/><rect fill="#F8F8F8" height="5" style="stroke: #383838; stroke-width: 1.5;" width="10" x="214" y="193.5383"/><text fill="#000000" font-family="sans-serif" font-size="14" lengthAdjust="spacingAndGlyphs" textLength="46" x="229" y="190.5852">Search</text><rect fill="#F8F8F8" filter="url(#f17buhidtbqhtm)" height="36.4883" style="stroke: #383838; stroke-width: 1.5;" width="77" x="319.5" y="167.05"/><rect fill="#F8F8F8" height="5" style="stroke: #383838; stroke-width: 1.5;" width="10" x="314.5" y="172.05"/><rect fill="#F8F8F8" height="5" style="stroke: #383838; stroke-width: 1.5;" width="10" x="314.5" y="193.5383"/><text fill="#000000" font-family="sans-serif" font-size="14" lengthAdjust="spacingAndGlyphs" textLength="57" x="329.5" y="190.5852">Filtering</text><rect fill="#F8F8F8" filter="url(#f17buhidtbqhtm)" height="36.4883" style="stroke: #383838; stroke-width: 1.5;" width="47" x="228.5" y="263.54"/><rect fill="#F8F8F8" height="5" style="stroke: #383838; stroke-width: 1.5;" width="10" x="223.5" y="268.54"/><rect fill="#F8F8F8" height="5" style="stroke: #383838; stroke-width: 1.5;" width="10" x="223.5" y="290.0283"/><text fill="#000000" font-family="sans-serif" font-size="14" lengthAdjust="spacingAndGlyphs" textLength="27" x="238.5" y="287.0752">Info</text><rect fill="#F8F8F8" filter="url(#f17buhidtbqhtm)" height="36.4883" style="stroke: #383838; stroke-width: 1.5;" width="78" x="310" y="263.54"/><rect fill="#F8F8F8" height="5" style="stroke: #383838; stroke-width: 1.5;" width="10" x="305" y="268.54"/><rect fill="#F8F8F8" height="5" style="stroke: #383838; stroke-width: 1.5;" width="10" x="305" y="290.0283"/><text fill="#000000" font-family="sans-serif" font-size="14" lengthAdjust="spacingAndGlyphs" textLength="58" x="320" y="287.0752">Location</text><rect fill="#F8F8F8" filter="url(#f17buhidtbqhtm)" height="36.4883" style="stroke: #383838; stroke-width: 1.5;" width="58" x="436" y="375.02"/><rect fill="#F8F8F8" height="5" style="stroke: #383838; stroke-width: 1.5;" width="10" x="431" y="380.02"/><rect fill="#F8F8F8" height="5" style="stroke: #383838; stroke-width: 1.5;" width="10" x="431" y="401.5083"/><text fill="#000000" font-family="sans-serif" font-size="14" lengthAdjust="spacingAndGlyphs" textLength="38" x="446" y="398.5552">Login</text><rect fill="#F8F8F8" filter="url(#f17buhidtbqhtm)" height="36.4883" style="stroke: #383838; stroke-width: 1.5;" width="100" x="529" y="375.02"/><rect fill="#F8F8F8" height="5" style="stroke: #383838; stroke-width: 1.5;" width="10" x="524" y="380.02"/><rect fill="#F8F8F8" height="5" style="stroke: #383838; stroke-width: 1.5;" width="10" x="524" y="401.5083"/><text fill="#000000" font-family="sans-serif" font-size="14" lengthAdjust="spacingAndGlyphs" textLength="80" x="539" y="398.5552">Preferences</text><rect fill="#F8F8F8" filter="url(#f17buhidtbqhtm)" height="36.4883" style="stroke: #383838; stroke-width: 1.5;" width="113" x="435.5" y="471.51"/><rect fill="#F8F8F8" height="5" style="stroke: #383838; stroke-width: 1.5;" width="10" x="430.5" y="476.51"/><rect fill="#F8F8F8" height="5" style="stroke: #383838; stroke-width: 1.5;" width="10" x="430.5" y="497.9983"/><text fill="#000000" font-family="sans-serif" font-size="14" lengthAdjust="spacingAndGlyphs" textLength="93" x="445.5" y="495.0452">Subscriptions</text><rect fill="#F8F8F8" filter="url(#f17buhidtbqhtm)" height="36.4883" style="stroke: #383838; stroke-width: 1.5;" width="78" x="709" y="263.54"/><rect fill="#F8F8F8" height="5" style="stroke: #383838; stroke-width: 1.5;" width="10" x="704" y="268.54"/><rect fill="#F8F8F8" height="5" style="stroke: #383838; stroke-width: 1.5;" width="10" x="704" y="290.0283"/><text fill="#000000" font-family="sans-serif" font-size="14" lengthAdjust="spacingAndGlyphs" textLength="58" x="719" y="287.0752">Firebase</text><rect fill="#F8F8F8" filter="url(#f17buhidtbqhtm)" height="36.4883" style="stroke: #383838; stroke-width: 1.5;" width="88" x="6" y="263.54"/><rect fill="#F8F8F8" height="5" style="stroke: #383838; stroke-width: 1.5;" width="10" x="1" y="268.54"/><rect fill="#F8F8F8" height="5" style="stroke: #383838; stroke-width: 1.5;" width="10" x="1" y="290.0283"/><text fill="#000000" font-family="sans-serif" font-size="14" lengthAdjust="spacingAndGlyphs" textLength="68" x="16" y="287.0752">Transport</text><rect fill="#F8F8F8" filter="url(#f17buhidtbqhtm)" height="36.4883" style="stroke: #383838; stroke-width: 1.5;" width="60" x="827" y="167.05"/><rect fill="#F8F8F8" height="5" style="stroke: #383838; stroke-width: 1.5;" width="10" x="822" y="172.05"/><rect fill="#F8F8F8" height="5" style="stroke: #383838; stroke-width: 1.5;" width="10" x="822" y="193.5383"/><text fill="#000000" font-family="sans-serif" font-size="14" lengthAdjust="spacingAndGlyphs" textLength="40" x="837" y="190.5852">Stripe</text><ellipse cx="138" cy="281.78" fill="#F8F8F8" filter="url(#f17buhidtbqhtm)" rx="8" ry="8" style="stroke: #383838; stroke-width: 2.0;"/><ellipse cx="884" cy="281.78" fill="#F8F8F8" filter="url(#f17buhidtbqhtm)" rx="8" ry="8" style="stroke: #383838; stroke-width: 2.0;"/><ellipse cx="831" cy="281.78" fill="#F8F8F8" filter="url(#f17buhidtbqhtm)" rx="8" ry="8" style="stroke: #383838; stroke-width: 2.0;"/><path d="M170.8441,271.2155 C170.7856,271.2312 170.7271,271.2469 170.6687,271.2626 C169.7339,271.5139 168.8086,271.7646 167.8944,272.0141 C164.2375,273.0119 160.7575,273.99 157.55,274.91 " fill="none" id="UserInterface-&gt;w" style="stroke: #383838; stroke-width: 1.0;"/><path d="M153.503,285.2097 A9,9 0 0 0 148.7447 268.9784" fill="none" style="stroke: #383838; stroke-width: 1.5;"/><path d="M94.34,281.78 C105.83,281.78 117.31,281.78 128.79,281.78 " fill="none" id="Transport-w" style="stroke: #383838; stroke-width: 1.0;"/><path d="M769.46,263.09 C783.51,252.14 802.85,239.34 822.5,233.54 C830.17,231.27 833.19,230.28 840.5,233.54 C858.43,241.51 872.08,260.93 878.99,272.56 " fill="none" id="Firebase-f" style="stroke: #383838; stroke-width: 1.0;"/><path d="M685.3221,189.2247 C686.2905,189.5706 687.3364,189.9456 688.4558,190.3487 C690.6947,191.155 693.228,192.0738 696.0253,193.0981 C707.2144,197.1956 722.6263,202.9825 740.3075,210.0125 C775.67,224.0725 820.11,243.105 858,263.54 C860.5,264.88 863.07,266.41 865.58,267.97 " fill="none" id="UserInterface-&gt;f" style="stroke: #383838; stroke-width: 1.0;"/><path d="M875.7254,265.2073 A9,9 0 0 0 866.3987 279.3181" fill="none" style="stroke: #383838; stroke-width: 1.5;"/><path d="M861.95,203.62 C866.7,220.24 873.85,245.26 878.71,262.27 " fill="none" id="Stripe-&gt;f" style="stroke: #383838; stroke-width: 1.0;"/><path d="M888.931,266.2697 A9,9 0 0 0 872.6719 270.9324" fill="none" style="stroke: #383838; stroke-width: 1.5;"/><path d="M852.23,203.62 C846.6,224.08 837.47,257.25 833.26,272.56 " fill="none" id="Stripe-z" style="stroke: #383838; stroke-width: 1.0;"/><path d="M685.1286,191.1504 C685.2262,191.2088 685.3245,191.2677 685.4237,191.3271 C685.622,191.4458 685.8234,191.5665 686.0279,191.689 C686.437,191.934 686.8585,192.1865 687.2921,192.4462 C688.1592,192.9658 689.0747,193.5145 690.0361,194.0909 C697.7272,198.7025 708.3544,205.0888 720.6388,212.51 C745.2075,227.3525 776.405,246.335 804,263.54 C806.74,265.25 809.63,267.07 812.46,268.86 " fill="none" id="UserInterface-&gt;z" style="stroke: #383838; stroke-width: 1.0;"/><path d="M822.4999,265.876 A9,9 0 0 0 813.3924 280.1291" fill="none" style="stroke: #383838; stroke-width: 1.5;"/></g></svg>