<?xml version="1.0" encoding="UTF-8" standalone="no"?><svg xmlns="http://www.w3.org/2000/svg" xmlns:xlink="http://www.w3.org/1999/xlink" contentScriptType="application/ecmascript" contentStyleType="text/css" height="122px" preserveAspectRatio="none" style="width:941px;height:122px;" version="1.1" viewBox="0 0 941 122" width="941px" zoomAndPan="magnify"><defs/><g><rect fill="#FFFFFF" height="87.49" style="stroke: #000000; stroke-width: 1.5;" width="908" x="22" y="23.51"/><text fill="#000000" font-family="sans-serif" font-size="14" font-weight="bold" lengthAdjust="spacingAndGlyphs" textLength="261" x="345.5" y="39.0452">On selection of a particular location</text><rect fill="#F8F8F8" height="36.4883" style="stroke: #000000; stroke-width: 1.5;" width="51" x="37.5" y="58.51"/><text fill="#000000" font-family="sans-serif" font-size="14" lengthAdjust="spacingAndGlyphs" textLength="31" x="47.5" y="82.0452">User</text><rect fill="#F8F8F8" height="36.4883" style="stroke: #000000; stroke-width: 1.5;" width="184" x="730" y="58.51"/><text fill="#000000" font-family="sans-serif" font-size="14" lengthAdjust="spacingAndGlyphs" textLength="164" x="740" y="82.0452">Display on Google Maps</text><rect fill="#F8F8F8" height="36.4883" style="stroke: #383838; stroke-width: 1.5;" width="68" x="367" y="58.51"/><rect fill="#F8F8F8" height="5" style="stroke: #383838; stroke-width: 1.5;" width="10" x="362" y="63.51"/><rect fill="#F8F8F8" height="5" style="stroke: #383838; stroke-width: 1.5;" width="10" x="362" y="84.9983"/><text fill="#000000" font-family="sans-serif" font-size="14" lengthAdjust="spacingAndGlyphs" textLength="48" x="377" y="82.0452">System</text><path d="M88.96,76.76 C147.6,76.76 290.63,76.76 360.82,76.76 " fill="none" id="Source-&gt;System" style="stroke: #383838; stroke-width: 1.0;"/><polygon fill="#383838" points="365.56,76.76,356.56,72.76,360.56,76.76,356.56,80.76,365.56,76.76" style="stroke: #383838; stroke-width: 1.0;"/><text fill="#000000" font-family="sans-serif" font-size="13" lengthAdjust="spacingAndGlyphs" textLength="242" x="106.75" y="70.3284">Selects the direction button for a shop</text><path d="M435.45,76.76 C497.77,76.76 631.35,76.76 723.9,76.76 " fill="none" id="System-&gt;Measure" style="stroke: #383838; stroke-width: 1.0;"/><polygon fill="#383838" points="728.66,76.76,719.66,72.76,723.66,76.76,719.66,80.76,728.66,76.76" style="stroke: #383838; stroke-width: 1.0;"/><text fill="#000000" font-family="sans-serif" font-size="13" lengthAdjust="spacingAndGlyphs" textLength="258" x="453.5" y="70.3284">Location is correctly mapped to the shop</text></g></svg>