<?xml version="1.0" encoding="UTF-8" standalone="no"?><svg xmlns="http://www.w3.org/2000/svg" xmlns:xlink="http://www.w3.org/1999/xlink" contentScriptType="application/ecmascript" contentStyleType="text/css" height="401px" preserveAspectRatio="none" style="width:1291px;height:401px;" version="1.1" viewBox="0 0 1291 401" width="1291px" zoomAndPan="magnify"><defs><filter height="300%" id="fq3ratqtzo71y" width="300%" x="-1" y="-1"><feGaussianBlur result="blurOut" stdDeviation="2.0"/><feColorMatrix in="blurOut" result="blurOut2" type="matrix" values="0 0 0 0 0 0 0 0 0 0 0 0 0 0 0 0 0 0 .4 0"/><feOffset dx="4.0" dy="4.0" in="blurOut2" result="blurOut3"/><feBlend in="SourceGraphic" in2="blurOut3" mode="normal"/></filter></defs><g><rect fill="#FFFFFF" filter="url(#fq3ratqtzo71y)" height="195.98" style="stroke: #000000; stroke-width: 1.5;" width="163" x="22" y="194.02"/><rect fill="#FFFFFF" height="10" style="stroke: #000000; stroke-width: 1.5;" width="15" x="165" y="199.02"/><rect fill="#FFFFFF" height="2" style="stroke: #000000; stroke-width: 1.5;" width="4" x="163" y="201.02"/><rect fill="#FFFFFF" height="2" style="stroke: #000000; stroke-width: 1.5;" width="4" x="163" y="205.02"/><text fill="#000000" font-family="sans-serif" font-size="14" font-weight="bold" lengthAdjust="spacingAndGlyphs" textLength="107" x="50" y="220.5552">FirebaseHelper</text><rect fill="#FFFFFF" filter="url(#fq3ratqtzo71y)" height="281.97" style="stroke: #000000; stroke-width: 1.5;" width="763" x="353" y="31.54"/><rect fill="#FFFFFF" height="10" style="stroke: #000000; stroke-width: 1.5;" width="15" x="1096" y="36.54"/><rect fill="#FFFFFF" height="2" style="stroke: #000000; stroke-width: 1.5;" width="4" x="1094" y="38.54"/><rect fill="#FFFFFF" height="2" style="stroke: #000000; stroke-width: 1.5;" width="4" x="1094" y="42.54"/><text fill="#000000" font-family="sans-serif" font-size="14" font-weight="bold" lengthAdjust="spacingAndGlyphs" textLength="95" x="687" y="58.0752">UserInterface</text><rect fill="#FFFFFF" filter="url(#fq3ratqtzo71y)" height="87.48" style="stroke: #000000; stroke-width: 1.5;" width="209" x="875" y="82.54"/><rect fill="#FFFFFF" height="10" style="stroke: #000000; stroke-width: 1.5;" width="15" x="1064" y="87.54"/><rect fill="#FFFFFF" height="2" style="stroke: #000000; stroke-width: 1.5;" width="4" x="1062" y="89.54"/><rect fill="#FFFFFF" height="2" style="stroke: #000000; stroke-width: 1.5;" width="4" x="1062" y="93.54"/><text fill="#000000" font-family="sans-serif" font-size="14" font-weight="bold" lengthAdjust="spacingAndGlyphs" textLength="58" x="950.5" y="109.0752">Services</text><rect fill="#FFFFFF" filter="url(#fq3ratqtzo71y)" height="198.97" style="stroke: #000000; stroke-width: 1.5;" width="209" x="642" y="82.54"/><rect fill="#FFFFFF" height="10" style="stroke: #000000; stroke-width: 1.5;" width="15" x="831" y="87.54"/><rect fill="#FFFFFF" height="2" style="stroke: #000000; stroke-width: 1.5;" width="4" x="829" y="89.54"/><rect fill="#FFFFFF" height="2" style="stroke: #000000; stroke-width: 1.5;" width="4" x="829" y="93.54"/><text fill="#000000" font-family="sans-serif" font-size="14" font-weight="bold" lengthAdjust="spacingAndGlyphs" textLength="67" x="713" y="109.0752">Browsing</text><rect fill="#FFFFFF" filter="url(#fq3ratqtzo71y)" height="198.97" style="stroke: #000000; stroke-width: 1.5;" width="225" x="393" y="82.54"/><rect fill="#FFFFFF" height="10" style="stroke: #000000; stroke-width: 1.5;" width="15" x="598" y="87.54"/><rect fill="#FFFFFF" height="2" style="stroke: #000000; stroke-width: 1.5;" width="4" x="596" y="89.54"/><rect fill="#FFFFFF" height="2" style="stroke: #000000; stroke-width: 1.5;" width="4" x="596" y="93.54"/><text fill="#000000" font-family="sans-serif" font-size="14" font-weight="bold" lengthAdjust="spacingAndGlyphs" textLength="83" x="464" y="109.0752">Personalize</text><rect fill="#FEFECE" filter="url(#fq3ratqtzo71y)" height="36.4883" style="stroke: #A80036; stroke-width: 1.5;" width="100" x="69" y="229.02"/><rect fill="#FEFECE" height="5" style="stroke: #A80036; stroke-width: 1.5;" width="10" x="64" y="234.02"/><rect fill="#FEFECE" height="5" style="stroke: #A80036; stroke-width: 1.5;" width="10" x="64" y="255.5083"/><text fill="#000000" font-family="sans-serif" font-size="14" lengthAdjust="spacingAndGlyphs" textLength="80" x="79" y="252.5552">FirebaseAPI</text><rect fill="#FEFECE" filter="url(#fq3ratqtzo71y)" height="36.4883" style="stroke: #A80036; stroke-width: 1.5;" width="78" x="38" y="337.51"/><rect fill="#FEFECE" height="5" style="stroke: #A80036; stroke-width: 1.5;" width="10" x="33" y="342.51"/><rect fill="#FEFECE" height="5" style="stroke: #A80036; stroke-width: 1.5;" width="10" x="33" y="363.9983"/><text fill="#000000" font-family="sans-serif" font-size="14" lengthAdjust="spacingAndGlyphs" textLength="58" x="48" y="361.0452">Firebase</text><ellipse cx="160" cy="355.76" fill="#FEFECE" filter="url(#fq3ratqtzo71y)" rx="8" ry="8" style="stroke: #A80036; stroke-width: 2.0;"/><text fill="#000000" font-family="sans-serif" font-size="14" lengthAdjust="spacingAndGlyphs" textLength="53" x="133.5" y="386.2952">Internal</text><rect fill="#FEFECE" filter="url(#fq3ratqtzo71y)" height="36.4883" style="stroke: #A80036; stroke-width: 1.5;" width="83" x="984.5" y="117.54"/><rect fill="#FEFECE" height="5" style="stroke: #A80036; stroke-width: 1.5;" width="10" x="979.5" y="122.54"/><rect fill="#FEFECE" height="5" style="stroke: #A80036; stroke-width: 1.5;" width="10" x="979.5" y="144.0283"/><text fill="#000000" font-family="sans-serif" font-size="14" lengthAdjust="spacingAndGlyphs" textLength="63" x="994.5" y="141.0752">Bookings</text><rect fill="#FEFECE" filter="url(#fq3ratqtzo71y)" height="36.4883" style="stroke: #A80036; stroke-width: 1.5;" width="58" x="891" y="117.54"/><rect fill="#FEFECE" height="5" style="stroke: #A80036; stroke-width: 1.5;" width="10" x="886" y="122.54"/><rect fill="#FEFECE" height="5" style="stroke: #A80036; stroke-width: 1.5;" width="10" x="886" y="144.0283"/><text fill="#000000" font-family="sans-serif" font-size="14" lengthAdjust="spacingAndGlyphs" textLength="38" x="901" y="141.0752">Mode</text><rect fill="#FEFECE" filter="url(#fq3ratqtzo71y)" height="36.4883" style="stroke: #A80036; stroke-width: 1.5;" width="66" x="658" y="117.54"/><rect fill="#FEFECE" height="5" style="stroke: #A80036; stroke-width: 1.5;" width="10" x="653" y="122.54"/><rect fill="#FEFECE" height="5" style="stroke: #A80036; stroke-width: 1.5;" width="10" x="653" y="144.0283"/><text fill="#000000" font-family="sans-serif" font-size="14" lengthAdjust="spacingAndGlyphs" textLength="46" x="668" y="141.0752">Search</text><rect fill="#FEFECE" filter="url(#fq3ratqtzo71y)" height="36.4883" style="stroke: #A80036; stroke-width: 1.5;" width="77" x="758.5" y="117.54"/><rect fill="#FEFECE" height="5" style="stroke: #A80036; stroke-width: 1.5;" width="10" x="753.5" y="122.54"/><rect fill="#FEFECE" height="5" style="stroke: #A80036; stroke-width: 1.5;" width="10" x="753.5" y="144.0283"/><text fill="#000000" font-family="sans-serif" font-size="14" lengthAdjust="spacingAndGlyphs" textLength="57" x="768.5" y="141.0752">Filtering</text><rect fill="#FEFECE" filter="url(#fq3ratqtzo71y)" height="36.4883" style="stroke: #A80036; stroke-width: 1.5;" width="47" x="667.5" y="229.02"/><rect fill="#FEFECE" height="5" style="stroke: #A80036; stroke-width: 1.5;" width="10" x="662.5" y="234.02"/><rect fill="#FEFECE" height="5" style="stroke: #A80036; stroke-width: 1.5;" width="10" x="662.5" y="255.5083"/><text fill="#000000" font-family="sans-serif" font-size="14" lengthAdjust="spacingAndGlyphs" textLength="27" x="677.5" y="252.5552">Info</text><rect fill="#FEFECE" filter="url(#fq3ratqtzo71y)" height="36.4883" style="stroke: #A80036; stroke-width: 1.5;" width="78" x="749" y="229.02"/><rect fill="#FEFECE" height="5" style="stroke: #A80036; stroke-width: 1.5;" width="10" x="744" y="234.02"/><rect fill="#FEFECE" height="5" style="stroke: #A80036; stroke-width: 1.5;" width="10" x="744" y="255.5083"/><text fill="#000000" font-family="sans-serif" font-size="14" lengthAdjust="spacingAndGlyphs" textLength="58" x="759" y="252.5552">Location</text><rect fill="#FEFECE" filter="url(#fq3ratqtzo71y)" height="36.4883" style="stroke: #A80036; stroke-width: 1.5;" width="58" x="409" y="117.54"/><rect fill="#FEFECE" height="5" style="stroke: #A80036; stroke-width: 1.5;" width="10" x="404" y="122.54"/><rect fill="#FEFECE" height="5" style="stroke: #A80036; stroke-width: 1.5;" width="10" x="404" y="144.0283"/><text fill="#000000" font-family="sans-serif" font-size="14" lengthAdjust="spacingAndGlyphs" textLength="38" x="419" y="141.0752">Login</text><rect fill="#FEFECE" filter="url(#fq3ratqtzo71y)" height="36.4883" style="stroke: #A80036; stroke-width: 1.5;" width="100" x="502" y="117.54"/><rect fill="#FEFECE" height="5" style="stroke: #A80036; stroke-width: 1.5;" width="10" x="497" y="122.54"/><rect fill="#FEFECE" height="5" style="stroke: #A80036; stroke-width: 1.5;" width="10" x="497" y="144.0283"/><text fill="#000000" font-family="sans-serif" font-size="14" lengthAdjust="spacingAndGlyphs" textLength="80" x="512" y="141.0752">Preferences</text><rect fill="#FEFECE" filter="url(#fq3ratqtzo71y)" height="36.4883" style="stroke: #A80036; stroke-width: 1.5;" width="113" x="408.5" y="229.02"/><rect fill="#FEFECE" height="5" style="stroke: #A80036; stroke-width: 1.5;" width="10" x="403.5" y="234.02"/><rect fill="#FEFECE" height="5" style="stroke: #A80036; stroke-width: 1.5;" width="10" x="403.5" y="255.5083"/><text fill="#000000" font-family="sans-serif" font-size="14" lengthAdjust="spacingAndGlyphs" textLength="93" x="418.5" y="252.5552">Subscriptions</text><ellipse cx="213" cy="247.27" fill="#FEFECE" filter="url(#fq3ratqtzo71y)" rx="8" ry="8" style="stroke: #A80036; stroke-width: 2.0;"/><rect fill="#FEFECE" filter="url(#fq3ratqtzo71y)" height="36.4883" style="stroke: #A80036; stroke-width: 1.5;" width="88" x="1140" y="229.02"/><rect fill="#FEFECE" height="5" style="stroke: #A80036; stroke-width: 1.5;" width="10" x="1135" y="234.02"/><rect fill="#FEFECE" height="5" style="stroke: #A80036; stroke-width: 1.5;" width="10" x="1135" y="255.5083"/><text fill="#000000" font-family="sans-serif" font-size="14" lengthAdjust="spacingAndGlyphs" textLength="68" x="1150" y="252.5552">Transport</text><rect fill="#FEFECE" filter="url(#fq3ratqtzo71y)" height="36.4883" style="stroke: #A80036; stroke-width: 1.5;" width="60" x="76" y="117.54"/><rect fill="#FEFECE" height="5" style="stroke: #A80036; stroke-width: 1.5;" width="10" x="71" y="122.54"/><rect fill="#FEFECE" height="5" style="stroke: #A80036; stroke-width: 1.5;" width="10" x="71" y="144.0283"/><text fill="#000000" font-family="sans-serif" font-size="14" lengthAdjust="spacingAndGlyphs" textLength="40" x="86" y="141.0752">Stripe</text><ellipse cx="1272" cy="247.27" fill="#FEFECE" filter="url(#fq3ratqtzo71y)" rx="8" ry="8" style="stroke: #A80036; stroke-width: 2.0;"/><rect fill="#FEFECE" filter="url(#fq3ratqtzo71y)" height="36.4883" style="stroke: #A80036; stroke-width: 1.5;" width="155" x="170.5" y="117.54"/><rect fill="#FEFECE" height="5" style="stroke: #A80036; stroke-width: 1.5;" width="10" x="165.5" y="122.54"/><rect fill="#FEFECE" height="5" style="stroke: #A80036; stroke-width: 1.5;" width="10" x="165.5" y="144.0283"/><text fill="#000000" font-family="sans-serif" font-size="14" lengthAdjust="spacingAndGlyphs" textLength="135" x="180.5" y="141.0752">«Adapter» StripeAPI</text><path d="M169.3,247.27 C180.8,247.27 192.29,247.27 203.78,247.27 " fill="none" id="FirebaseAPI-I" style="stroke: #A80036; stroke-width: 1.0;"/><path d="M116.23,355.76 C127.74,355.76 139.26,355.76 150.77,355.76 " fill="none" id="Firebase-i" style="stroke: #A80036; stroke-width: 1.0;"/><path d="M125.77,265.85 C133.26,285.31 145.28,316.52 152.9,336.32 " fill="none" id="FirebaseAPI-&gt;i" style="stroke: #A80036; stroke-width: 1.0;"/><path d="M163.5918,339.5534 A9,9 0 0 0 147.8117 345.6431" fill="none" style="stroke: #A80036; stroke-width: 1.5;"/><path d="M352.9672,162.5065 C352.4542,163.6173 351.9128,164.7271 351.3417,165.8273 C349.0575,170.2281 346.3,174.475 343,178.02 C311.85,211.5 260.53,231.57 232.6,240.58 " fill="none" id="UserInterface-&gt;I" style="stroke: #A80036; stroke-width: 1.0;"/><path d="M228.6009,250.9643 A9,9 0 0 0 223.6453 234.792" fill="none" style="stroke: #A80036; stroke-width: 1.5;"/><path d="M1117.4688,180.8621 C1118.6683,180.8719 1119.8616,180.8819 1121.0484,180.8921 C1125.7957,180.9331 1130.4402,180.9779 1134.9761,181.0267 C1144.0477,181.1244 1152.6845,181.2382 1160.8381,181.3698 C1177.1453,181.633 1191.5199,181.9675 1203.5758,182.3864 C1227.6877,183.2242 1242.525,184.4 1245,186.02 C1258.94,195.14 1265.75,213.32 1269.04,227.33 " fill="none" id="UserInterface-&gt;w" style="stroke: #A80036; stroke-width: 1.0;"/><path d="M1278.7822,232.2342 A9,9 0 0 0 1262.1663 235.398" fill="none" style="stroke: #A80036; stroke-width: 1.5;"/><path d="M1228.34,247.27 C1239.83,247.27 1251.31,247.27 1262.79,247.27 " fill="none" id="Transport-w" style="stroke: #A80036; stroke-width: 1.0;"/><path d="M121.93,154.21 C130.41,162.54 141.46,171.98 153,178.02 C165.99,184.83 173.7,176.69 185,186.02 C197.66,196.48 204.89,213.92 208.83,227.36 " fill="none" id="Stripe-&gt;I" style="stroke: #A80036; stroke-width: 1.0;"/><path d="M218.9277,231.807 A9,9 0 0 0 202.5268 235.9435" fill="none" style="stroke: #A80036; stroke-width: 1.5;"/><path d="M136.23,135.78 C147.58,135.78 158.93,135.78 170.29,135.78 " fill="none" id="Stripe-AD" style="stroke: #A80036; stroke-width: 1.0;"/><path d="M325.69,135.78 C331.435,135.78 337.1825,135.78 342.93,135.78 C345.8038,135.78 348.6775,135.78 351.5509,135.78 C351.9101,135.78 352.2693,135.78 352.6285,135.78 C352.7183,135.78 352.808,135.78 352.8978,135.78 " fill="none" id="AD-UserInterface" style="stroke: #A80036; stroke-width: 1.0;"/></g></svg>