<?xml version="1.0" encoding="UTF-8" standalone="no"?><svg xmlns="http://www.w3.org/2000/svg" xmlns:xlink="http://www.w3.org/1999/xlink" contentScriptType="application/ecmascript" contentStyleType="text/css" height="1075px" preserveAspectRatio="none" style="width:949px;height:1075px;" version="1.1" viewBox="0 0 949 1075" width="949px" zoomAndPan="magnify"><defs/><g><rect fill="#F8F8F8" height="36.4883" style="stroke: #383838; stroke-width: 1.5;" width="111" x="234" y="239.71"/><rect fill="#F8F8F8" height="5" style="stroke: #383838; stroke-width: 1.5;" width="10" x="229" y="244.71"/><rect fill="#F8F8F8" height="5" style="stroke: #383838; stroke-width: 1.5;" width="10" x="229" y="266.1983"/><text fill="#000000" font-family="sans-serif" font-size="14" lengthAdjust="spacingAndGlyphs" textLength="91" x="244" y="263.2452">UserInterface</text><rect fill="#F8F8F8" height="36.4883" style="stroke: #383838; stroke-width: 1.5;" width="76" x="389.5" y="518.68"/><rect fill="#F8F8F8" height="5" style="stroke: #383838; stroke-width: 1.5;" width="10" x="384.5" y="523.68"/><rect fill="#F8F8F8" height="5" style="stroke: #383838; stroke-width: 1.5;" width="10" x="384.5" y="545.1683"/><text fill="#000000" font-family="sans-serif" font-size="14" lengthAdjust="spacingAndGlyphs" textLength="56" x="399.5" y="542.2152">RESTAPI</text><ellipse cx="179.5" cy="536.92" fill="#F8F8F8" rx="8" ry="8" style="stroke: #383838; stroke-width: 2.0;"/><rect fill="#F8F8F8" height="36.4883" style="stroke: #383838; stroke-width: 1.5;" width="78" x="455.5" y="667.17"/><rect fill="#F8F8F8" height="5" style="stroke: #383838; stroke-width: 1.5;" width="10" x="450.5" y="672.17"/><rect fill="#F8F8F8" height="5" style="stroke: #383838; stroke-width: 1.5;" width="10" x="450.5" y="693.6583"/><text fill="#000000" font-family="sans-serif" font-size="14" lengthAdjust="spacingAndGlyphs" textLength="58" x="465.5" y="690.7052">Firebase</text><ellipse cx="411.5" cy="685.41" fill="#F8F8F8" rx="8" ry="8" style="stroke: #383838; stroke-width: 2.0;"/><rect fill="#F8F8F8" height="36.4883" style="stroke: #383838; stroke-width: 1.5;" width="60" x="294.5" y="518.68"/><rect fill="#F8F8F8" height="5" style="stroke: #383838; stroke-width: 1.5;" width="10" x="289.5" y="523.68"/><rect fill="#F8F8F8" height="5" style="stroke: #383838; stroke-width: 1.5;" width="10" x="289.5" y="545.1683"/><text fill="#000000" font-family="sans-serif" font-size="14" lengthAdjust="spacingAndGlyphs" textLength="40" x="304.5" y="542.2152">Stripe</text><ellipse cx="509.5" cy="536.92" fill="#F8F8F8" rx="8" ry="8" style="stroke: #383838; stroke-width: 2.0;"/><rect fill="#F8F8F8" height="36.4883" style="stroke: #383838; stroke-width: 1.5;" width="113" x="582" y="518.68"/><rect fill="#F8F8F8" height="5" style="stroke: #383838; stroke-width: 1.5;" width="10" x="577" y="523.68"/><rect fill="#F8F8F8" height="5" style="stroke: #383838; stroke-width: 1.5;" width="10" x="577" y="545.1683"/><text fill="#000000" font-family="sans-serif" font-size="14" lengthAdjust="spacingAndGlyphs" textLength="93" x="592" y="542.2152">LocalGuideDB</text><ellipse cx="653.5" cy="257.95" fill="#F8F8F8" rx="8" ry="8" style="stroke: #383838; stroke-width: 2.0;"/><rect fill="#F8F8F8" height="36.4883" style="stroke: #383838; stroke-width: 1.5;" width="71" x="128" y="239.71"/><rect fill="#F8F8F8" height="5" style="stroke: #383838; stroke-width: 1.5;" width="10" x="123" y="244.71"/><rect fill="#F8F8F8" height="5" style="stroke: #383838; stroke-width: 1.5;" width="10" x="123" y="266.1983"/><text fill="#000000" font-family="sans-serif" font-size="14" lengthAdjust="spacingAndGlyphs" textLength="51" x="138" y="263.2452">WebAPI</text><path d="M6,615.17 L6,755.6544 A0,0 0 0 0 6,755.6544 L353,755.6544 A0,0 0 0 0 353,755.6544 L353,625.17 L343,615.17 L183.5,615.17 L179.5,546.22 L175.5,615.17 L6,615.17 A0,0 0 0 0 6,615.17 " fill="#ECECEC" style="stroke: #383838; stroke-width: 1.0;"/><path d="M343,615.17 L343,625.17 L353,625.17 L343,615.17 " fill="#ECECEC" style="stroke: #383838; stroke-width: 1.0;"/><text fill="#000000" font-family="sans-serif" font-size="13" lengthAdjust="spacingAndGlyphs" textLength="71" x="12" y="632.7384">operations:</text><line style="stroke: #383838; stroke-width: 1.0; stroke-dasharray: 1.0,2.0;" x1="7" x2="352" y1="635.4805" y2="635.4805"/><text fill="#000000" font-family="sans-serif" font-size="13" lengthAdjust="spacingAndGlyphs" textLength="130" x="12" y="652.0489">getcategories(string)</text><text fill="#000000" font-family="sans-serif" font-size="13" lengthAdjust="spacingAndGlyphs" textLength="108" x="12" y="667.3595">getsubcategories</text><text fill="#000000" font-family="sans-serif" font-size="13" lengthAdjust="spacingAndGlyphs" textLength="59" x="12" y="682.67">getFilters</text><text fill="#000000" font-family="sans-serif" font-size="13" lengthAdjust="spacingAndGlyphs" textLength="326" x="12" y="697.9805">getUserPreference(subscription_id,shop_id,offer_id)</text><text fill="#000000" font-family="sans-serif" font-size="13" lengthAdjust="spacingAndGlyphs" textLength="74" x="12" y="713.2911">getLocation</text><text fill="#000000" font-family="sans-serif" font-size="13" lengthAdjust="spacingAndGlyphs" textLength="121" x="12" y="728.6016">getTransactionLink</text><text fill="#000000" font-family="sans-serif" font-size="13" lengthAdjust="spacingAndGlyphs" textLength="95" x="12" y="743.9122">getExternalURL</text><path d="M353,815.65 L353,1063.9977 A0,0 0 0 0 353,1063.9977 L470,1063.9977 A0,0 0 0 0 470,1063.9977 L470,825.65 L460,815.65 L415.5,815.65 L411.5,694.81 L407.5,815.65 L353,815.65 A0,0 0 0 0 353,815.65 " fill="#ECECEC" style="stroke: #383838; stroke-width: 1.0;"/><path d="M460,815.65 L460,825.65 L470,825.65 L460,815.65 " fill="#ECECEC" style="stroke: #383838; stroke-width: 1.0;"/><text fill="#000000" font-family="sans-serif" font-size="13" lengthAdjust="spacingAndGlyphs" textLength="71" x="359" y="833.2184">operations:</text><line style="stroke: #383838; stroke-width: 1.0; stroke-dasharray: 1.0,2.0;" x1="354" x2="469" y1="835.9605" y2="835.9605"/><text fill="#000000" font-family="sans-serif" font-size="13" lengthAdjust="spacingAndGlyphs" textLength="90" x="359" y="852.5289">storeStripeKey</text><text fill="#000000" font-family="sans-serif" font-size="13" lengthAdjust="spacingAndGlyphs" textLength="49" x="359" y="867.8395">getData</text><text fill="#000000" font-family="sans-serif" font-size="13" lengthAdjust="spacingAndGlyphs" textLength="72" x="359" y="883.15">updateData</text><text fill="#000000" font-family="sans-serif" font-size="13" lengthAdjust="spacingAndGlyphs" textLength="57" x="359" y="898.4605">saveData</text><text fill="#000000" font-family="sans-serif" font-size="13" lengthAdjust="spacingAndGlyphs" textLength="67" x="359" y="913.7711">deleteData</text><line style="stroke: #383838; stroke-width: 1.0;" x1="354" x2="469" y1="920.5133" y2="920.5133"/><text fill="#000000" font-family="sans-serif" font-size="13" lengthAdjust="spacingAndGlyphs" textLength="68" x="359" y="937.0816">properties:</text><line style="stroke: #383838; stroke-width: 1.0; stroke-dasharray: 1.0,2.0;" x1="354" x2="469" y1="943.8238" y2="943.8238"/><text fill="#000000" font-family="sans-serif" font-size="13" lengthAdjust="spacingAndGlyphs" textLength="54" x="359" y="960.3922">category</text><text fill="#000000" font-family="sans-serif" font-size="13" lengthAdjust="spacingAndGlyphs" textLength="30" x="359" y="975.7027">filter</text><text fill="#000000" font-family="sans-serif" font-size="13" lengthAdjust="spacingAndGlyphs" textLength="96" x="359" y="991.0133">usercredentials</text><text fill="#000000" font-family="sans-serif" font-size="13" lengthAdjust="spacingAndGlyphs" textLength="35" x="359" y="1006.3238">mode</text><text fill="#000000" font-family="sans-serif" font-size="13" lengthAdjust="spacingAndGlyphs" textLength="58" x="359" y="1021.6344">transport</text><text fill="#000000" font-family="sans-serif" font-size="13" lengthAdjust="spacingAndGlyphs" textLength="86" x="359" y="1036.9449">subscriptions</text><text fill="#000000" font-family="sans-serif" font-size="13" lengthAdjust="spacingAndGlyphs" textLength="0" x="363" y="1052.2555"/><path d="M380,57.23 L380,458.6831 A0,0 0 0 0 380,458.6831 L501.34,458.6831 L509.06,527.73 L509.34,458.6831 L609,458.6831 A0,0 0 0 0 609,458.6831 L609,67.23 L599,57.23 L380,57.23 A0,0 0 0 0 380,57.23 " fill="#ECECEC" style="stroke: #383838; stroke-width: 1.0;"/><path d="M599,57.23 L599,67.23 L609,67.23 L599,57.23 " fill="#ECECEC" style="stroke: #383838; stroke-width: 1.0;"/><text fill="#000000" font-family="sans-serif" font-size="13" lengthAdjust="spacingAndGlyphs" textLength="71" x="386" y="74.7984">operations:</text><line style="stroke: #383838; stroke-width: 1.0; stroke-dasharray: 1.0,2.0;" x1="381" x2="608" y1="77.5405" y2="77.5405"/><text fill="#000000" font-family="sans-serif" font-size="13" lengthAdjust="spacingAndGlyphs" textLength="99" x="386" y="94.1089">createCustomer</text><text fill="#000000" font-family="sans-serif" font-size="13" lengthAdjust="spacingAndGlyphs" textLength="146" x="386" y="109.4195">createCheckoutSession</text><text fill="#000000" font-family="sans-serif" font-size="13" lengthAdjust="spacingAndGlyphs" textLength="101" x="386" y="124.73">createPortalLink</text><text fill="#000000" font-family="sans-serif" font-size="13" lengthAdjust="spacingAndGlyphs" textLength="141" x="386" y="140.0405">handleWebhookEvents</text><text fill="#000000" font-family="sans-serif" font-size="13" lengthAdjust="spacingAndGlyphs" textLength="92" x="386" y="155.3511">onUserDeleted</text><text fill="#000000" font-family="sans-serif" font-size="13" lengthAdjust="spacingAndGlyphs" textLength="154" x="386" y="170.6616">onCustomerDataDeleted</text><text fill="#000000" font-family="sans-serif" font-size="13" lengthAdjust="spacingAndGlyphs" textLength="119" x="386" y="185.9722">setPaymentMethod</text><text fill="#000000" font-family="sans-serif" font-size="13" lengthAdjust="spacingAndGlyphs" textLength="115" x="386" y="201.2827">setInvoiceSettings</text><line style="stroke: #383838; stroke-width: 1.0;" x1="381" x2="608" y1="208.0249" y2="208.0249"/><text fill="#000000" font-family="sans-serif" font-size="13" lengthAdjust="spacingAndGlyphs" textLength="45" x="386" y="224.5933">events:</text><line style="stroke: #383838; stroke-width: 1.0; stroke-dasharray: 1.0,2.0;" x1="381" x2="608" y1="231.3355" y2="231.3355"/><text fill="#000000" font-family="sans-serif" font-size="13" lengthAdjust="spacingAndGlyphs" textLength="104" x="386" y="247.9038">product.updated</text><text fill="#000000" font-family="sans-serif" font-size="13" lengthAdjust="spacingAndGlyphs" textLength="99" x="386" y="263.2144">product.deleted</text><text fill="#000000" font-family="sans-serif" font-size="13" lengthAdjust="spacingAndGlyphs" textLength="81" x="386" y="278.5249">price.created</text><text fill="#000000" font-family="sans-serif" font-size="13" lengthAdjust="spacingAndGlyphs" textLength="86" x="386" y="293.8355">price.updated</text><text fill="#000000" font-family="sans-serif" font-size="13" lengthAdjust="spacingAndGlyphs" textLength="81" x="386" y="309.146">price.deleted</text><text fill="#000000" font-family="sans-serif" font-size="13" lengthAdjust="spacingAndGlyphs" textLength="180" x="386" y="324.4566">checkout.session.completed</text><text fill="#000000" font-family="sans-serif" font-size="13" lengthAdjust="spacingAndGlyphs" textLength="192" x="386" y="339.7671">customer.subscription.created</text><text fill="#000000" font-family="sans-serif" font-size="13" lengthAdjust="spacingAndGlyphs" textLength="197" x="386" y="355.0777">customer.subscription.updated</text><text fill="#000000" font-family="sans-serif" font-size="13" lengthAdjust="spacingAndGlyphs" textLength="192" x="386" y="370.3882">customer.subscription.deleted</text><text fill="#000000" font-family="sans-serif" font-size="13" lengthAdjust="spacingAndGlyphs" textLength="76" x="386" y="385.6988">invoice.paid</text><text fill="#000000" font-family="sans-serif" font-size="13" lengthAdjust="spacingAndGlyphs" textLength="176" x="386" y="401.0093">invoice.payment_succeeded</text><text fill="#000000" font-family="sans-serif" font-size="13" lengthAdjust="spacingAndGlyphs" textLength="145" x="386" y="416.3198">invoice.payment_failed</text><text fill="#000000" font-family="sans-serif" font-size="13" lengthAdjust="spacingAndGlyphs" textLength="112" x="386" y="431.6304">invoice.upcoming</text><text fill="#000000" font-family="sans-serif" font-size="13" lengthAdjust="spacingAndGlyphs" textLength="208" x="386" y="446.9409">invoice.payment_action_required</text><path d="M697.5,126.47 L697.5,253.95 L662.79,257.95 L697.5,261.95 L697.5,389.4388 A0,0 0 0 0 697.5,389.4388 L937.5,389.4388 A0,0 0 0 0 937.5,389.4388 L937.5,136.47 L927.5,126.47 L697.5,126.47 A0,0 0 0 0 697.5,126.47 " fill="#ECECEC" style="stroke: #383838; stroke-width: 1.0;"/><path d="M927.5,126.47 L927.5,136.47 L937.5,136.47 L927.5,126.47 " fill="#ECECEC" style="stroke: #383838; stroke-width: 1.0;"/><text fill="#000000" font-family="sans-serif" font-size="13" lengthAdjust="spacingAndGlyphs" textLength="71" x="703.5" y="144.0384">operations:</text><line style="stroke: #383838; stroke-width: 1.0; stroke-dasharray: 1.0,2.0;" x1="698.5" x2="936.5" y1="146.7805" y2="146.7805"/><text fill="#000000" font-family="sans-serif" font-size="13" lengthAdjust="spacingAndGlyphs" textLength="105" x="703.5" y="163.3489">createUserSignIn</text><text fill="#000000" font-family="sans-serif" font-size="13" lengthAdjust="spacingAndGlyphs" textLength="171" x="703.5" y="178.6595">setAuthenticationproviders</text><text fill="#000000" font-family="sans-serif" font-size="13" lengthAdjust="spacingAndGlyphs" textLength="219" x="703.5" y="193.97">writeUserdata( userID, name,email)</text><text fill="#000000" font-family="sans-serif" font-size="13" lengthAdjust="spacingAndGlyphs" textLength="142" x="703.5" y="209.2805">storecategories(string)</text><text fill="#000000" font-family="sans-serif" font-size="13" lengthAdjust="spacingAndGlyphs" textLength="120" x="703.5" y="224.5911">storesubcategories</text><text fill="#000000" font-family="sans-serif" font-size="13" lengthAdjust="spacingAndGlyphs" textLength="71" x="703.5" y="239.9016">storeFilters</text><text fill="#000000" font-family="sans-serif" font-size="13" lengthAdjust="spacingAndGlyphs" textLength="86" x="703.5" y="255.2122">storeLocation</text><text fill="#000000" font-family="sans-serif" font-size="13" lengthAdjust="spacingAndGlyphs" textLength="107" x="703.5" y="270.5227">storeExternalURL</text><text fill="#000000" font-family="sans-serif" font-size="13" lengthAdjust="spacingAndGlyphs" textLength="117" x="703.5" y="285.8333">getGoogleMapsAPI</text><text fill="#000000" font-family="sans-serif" font-size="13" lengthAdjust="spacingAndGlyphs" textLength="123" x="703.5" y="301.1438">getGooglePlacesAPI</text><text fill="#000000" font-family="sans-serif" font-size="13" lengthAdjust="spacingAndGlyphs" textLength="98" x="703.5" y="316.4544">getBookingsAPI</text><text fill="#000000" font-family="sans-serif" font-size="13" lengthAdjust="spacingAndGlyphs" textLength="131" x="703.5" y="331.7649">storeUserCredentials</text><text fill="#000000" font-family="sans-serif" font-size="13" lengthAdjust="spacingAndGlyphs" textLength="150" x="703.5" y="347.0755">storeTransactionDetails</text><text fill="#000000" font-family="sans-serif" font-size="13" lengthAdjust="spacingAndGlyphs" textLength="132" x="703.5" y="362.386">storeUserPreferences</text><text fill="#000000" font-family="sans-serif" font-size="13" lengthAdjust="spacingAndGlyphs" textLength="146" x="703.5" y="377.6966">storeUserSubscriptions</text><path d="M283.71,276.54 C272.03,311.59 244.37,392.5 216.5,458.68 C207.78,479.39 196.46,502.57 188.65,518.08 " fill="none" id="UserInterface-&gt;iRESTAPI" style="stroke: #383838; stroke-width: 1.0;"/><path d="M192.8142,527.5561 A9,9 0 0 0 177.7341 519.8952" fill="none" style="stroke: #383838; stroke-width: 1.5;"/><path d="M282.99,276.37 C266.21,324.37 226.28,461.16 277.5,555.17 C301.04,598.36 336.39,579.73 370.5,615.17 C385.01,630.25 396.58,651.39 403.68,666.34 " fill="none" id="UserInterface-&gt;iFirebase" style="stroke: #383838; stroke-width: 1.0;"/><path d="M414.6436,669.0565 A9,9 0 0 0 399.2362 676.0357" fill="none" style="stroke: #383838; stroke-width: 1.5;"/><path d="M189,530.5 C215.31,513.51 291.36,469.96 354,488.68 C373.45,494.49 392.53,507.29 406.37,518.24 " fill="none" id="iRESTAPI-RESTAPI" style="stroke: #383838; stroke-width: 1.0;"/><path d="M425.57,555.59 C422.54,583.3 416.71,636.75 413.59,665.31 " fill="none" id="RESTAPI-&gt;iFirebase" style="stroke: #383838; stroke-width: 1.0;"/><path d="M421.1414,673.048 A9,9 0 0 0 404.3269 671.212" fill="none" style="stroke: #383838; stroke-width: 1.5;"/><path d="M164.5,276.28 C167.34,325.51 175.46,465.97 178.41,517.06 " fill="none" id="WebAPI-&gt;iRESTAPI" style="stroke: #383838; stroke-width: 1.0;"/><path d="M187.2925,523.2019 A9,9 0 0 0 170.407 524.1923" fill="none" style="stroke: #383838; stroke-width: 1.5;"/><path d="M420.9,685.41 C432.31,685.41 443.71,685.41 455.11,685.41 " fill="none" id="iFirebase-Firebase" style="stroke: #383838; stroke-width: 1.0;"/><path d="M334.93,555.4 C344.26,571.05 358.31,594.63 370.5,615.17 C380.96,632.78 392.89,652.93 401.17,666.94 " fill="none" id="Stripe-&gt;iFirebase" style="stroke: #383838; stroke-width: 1.0;"/><path d="M412.4228,668.3456 A9,9 0 0 0 397.8635 676.9553" fill="none" style="stroke: #383838; stroke-width: 1.5;"/><path d="M504.49,527.7 C497.58,516.08 483.93,496.65 466,488.68 C434.73,474.77 421.47,477.88 389,488.68 C371.35,494.55 354.63,507.34 342.64,518.28 " fill="none" id="iStripe-Stripe" style="stroke: #383838; stroke-width: 1.0;"/><path d="M581.68,547 C537.45,556.8 477.25,576.54 438.5,615.17 C424.81,628.81 417.9,650.2 414.52,665.6 " fill="none" id="LocalGuideDB-&gt;iFirebase" style="stroke: #383838; stroke-width: 1.0;"/><path d="M421.4497,673.5031 A9,9 0 0 0 404.8249 670.386" fill="none" style="stroke: #383838; stroke-width: 1.5;"/><path d="M289.74,239.36 C291.49,192.68 303.51,71.16 380,27.23 C424.13,1.88 564.87,1.88 609,27.23 C681.07,68.62 666.61,190.26 657.71,238.2 " fill="none" id="UserInterface-&gt;iLocalGuideDB" style="stroke: #383838; stroke-width: 1.0;"/><path d="M664.5159,246.3452 A9,9 0 0 0 647.9281 243.0373" fill="none" style="stroke: #383838; stroke-width: 1.5;"/><path d="M653.05,267.24 C650.98,305.41 642.36,464.62 639.46,518.22 " fill="none" id="iLocalGuideDB-LocalGuideDB" style="stroke: #383838; stroke-width: 1.0;"/><path d="M291.53,276.68 C296.73,314.53 313.73,404.23 362.5,458.68 C402.55,503.39 431.5,488.7 483.5,518.68 C485.96,520.1 488.51,521.66 491,523.25 " fill="none" id="UserInterface-&gt;iStripe" style="stroke: #383838; stroke-width: 1.0;"/><path d="M501.1558,520.4898 A9,9 0 0 0 491.8124 534.5895" fill="none" style="stroke: #383838; stroke-width: 1.5;"/></g></svg>