<?xml version="1.0" encoding="UTF-8" standalone="no"?><svg xmlns="http://www.w3.org/2000/svg" xmlns:xlink="http://www.w3.org/1999/xlink" contentScriptType="application/ecmascript" contentStyleType="text/css" height="298px" preserveAspectRatio="none" style="width:1042px;height:298px;" version="1.1" viewBox="0 0 1042 298" width="1042px" zoomAndPan="magnify"><defs/><g><rect fill="#F8F8F8" height="36.2969" style="stroke: #000000; stroke-width: 1.5;" width="76" x="442.5" y="121.11"/><text fill="#000000" font-family="Courier" font-size="14" lengthAdjust="spacingAndGlyphs" textLength="56" x="452.5" y="144.1051">Feature</text><rect fill="#F8F8F8" height="36.2969" style="stroke: #000000; stroke-width: 1.5;" width="84" x="389.5" y="242.55"/><text fill="#000000" font-family="Courier" font-size="14" lengthAdjust="spacingAndGlyphs" textLength="64" x="399.5" y="265.5451">Optional</text><rect fill="#F8F8F8" height="36.2969" style="stroke: #000000; stroke-width: 1.5;" width="84" x="508.5" y="242.55"/><text fill="#000000" font-family="Courier" font-size="14" lengthAdjust="spacingAndGlyphs" textLength="64" x="518.5" y="265.5451">Required</text><rect fill="#F8F8F8" height="36.2969" style="stroke: #000000; stroke-width: 1.5;" width="76" x="254.5" y="121.11"/><text fill="#000000" font-family="Courier" font-size="14" lengthAdjust="spacingAndGlyphs" textLength="56" x="264.5" y="144.1051">Feature</text><path d="M6,126.69 L6,151.8228 A0,0 0 0 0 6,151.8228 L219,151.8228 A0,0 0 0 0 219,151.8228 L219,144.69 L254.22,139.26 L219,136.69 L219,136.69 L209,126.69 L6,126.69 A0,0 0 0 0 6,126.69 " fill="#ECECEC" style="stroke: #383838; stroke-width: 1.0;"/><path d="M209,126.69 L209,136.69 L219,136.69 L209,126.69 " fill="#ECECEC" style="stroke: #383838; stroke-width: 1.0;"/><text fill="#000000" font-family="Courier" font-size="13" lengthAdjust="spacingAndGlyphs" textLength="192" x="12" y="143.7569">Sub-features Combination</text><rect fill="#F8F8F8" height="36.2969" style="stroke: #000000; stroke-width: 1.5;" width="124" x="71.5" y="242.55"/><text fill="#000000" font-family="Courier" font-size="14" lengthAdjust="spacingAndGlyphs" textLength="104" x="81.5" y="265.5451">Sub Feature 1</text><rect fill="#F8F8F8" height="36.2969" style="stroke: #000000; stroke-width: 1.5;" width="124" x="230.5" y="242.55"/><text fill="#000000" font-family="Courier" font-size="14" lengthAdjust="spacingAndGlyphs" textLength="104" x="240.5" y="265.5451">Sub Feature 2</text><rect fill="#F8F8F8" height="36.2969" style="stroke: #000000; stroke-width: 1.5;" width="76" x="721.5" y="121.11"/><text fill="#000000" font-family="Courier" font-size="14" lengthAdjust="spacingAndGlyphs" textLength="56" x="731.5" y="144.1051">Feature</text><path d="M833,126.69 L833,135.26 L797.8,139.26 L833,143.26 L833,151.8228 A0,0 0 0 0 833,151.8228 L1030,151.8228 A0,0 0 0 0 1030,151.8228 L1030,136.69 L1020,126.69 L833,126.69 A0,0 0 0 0 833,126.69 " fill="#ECECEC" style="stroke: #383838; stroke-width: 1.0;"/><path d="M1020,126.69 L1020,136.69 L1030,136.69 L1020,126.69 " fill="#ECECEC" style="stroke: #383838; stroke-width: 1.0;"/><text fill="#000000" font-family="Courier" font-size="13" lengthAdjust="spacingAndGlyphs" textLength="176" x="839" y="143.7569">Exclusive Sub-features</text><rect fill="#F8F8F8" height="52.5938" style="stroke: #000000; stroke-width: 1.5;" width="116" x="852.5" y="234.41"/><text fill="#000000" font-family="Courier" font-size="14" lengthAdjust="spacingAndGlyphs" textLength="88" x="862.5" y="257.4051">Alternative</text><text fill="#000000" font-family="Courier" font-size="14" lengthAdjust="spacingAndGlyphs" textLength="96" x="862.5" y="273.702">SubFeature 1</text><rect fill="#F8F8F8" height="52.5938" style="stroke: #000000; stroke-width: 1.5;" width="116" x="701.5" y="234.41"/><text fill="#000000" font-family="Courier" font-size="14" lengthAdjust="spacingAndGlyphs" textLength="88" x="711.5" y="257.4051">Alternative</text><text fill="#000000" font-family="Courier" font-size="14" lengthAdjust="spacingAndGlyphs" textLength="96" x="711.5" y="273.702">SubFeature 2</text><rect fill="#F8F8F8" height="36.2969" style="stroke: #000000; stroke-width: 1.5;" width="76" x="442.5" y="7.81"/><text fill="#000000" font-family="Courier" font-size="14" lengthAdjust="spacingAndGlyphs" textLength="56" x="452.5" y="30.8051">Product</text><path d="M473.27,157.88 C464.64,178.91 450.21,214.1 440.77,237.11 " fill="none" id="A-&gt;B" style="stroke: #383838; stroke-width: 1.0;"/><ellipse cx="440.8785" cy="235.8395" fill="#FFFFFF" rx="6" ry="6" style="stroke: #383838; stroke-width: 1.5;"/><path d="M490.83,157.88 C503.2,179 523.95,214.4 537.43,237.4 " fill="none" id="A-&gt;C" style="stroke: #383838; stroke-width: 1.0;"/><ellipse cx="537.3261" cy="236.2136" fill="#383838" rx="6" ry="6" style="stroke: #383838; stroke-width: 1.5;"/><path d="M258.01,166.16 C227.39,189.17 183.46,222.17 156.8,242.2 " fill="none" id="E&lt;-F" style="stroke: #383838; stroke-width: 1.0;"/><polygon fill="#383838" points="268.04,157.88,260.8404,158.2863,258.4463,165.0884,265.646,164.6821,268.04,157.88" style="stroke: #383838; stroke-width: 1.0;"/><path d="M292.5,171.86 C292.5,194.44 292.5,223.98 292.5,242.39 " fill="none" id="E&lt;-G" style="stroke: #383838; stroke-width: 1.0;"/><polygon fill="#383838" points="292.5,158.88,288.5,164.88,292.5,170.88,296.5,164.88,292.5,158.88" style="stroke: #383838; stroke-width: 1.0;"/><path d="M792.71,166.53 C818.1,186.61 852.89,214.13 878.08,234.06 " fill="none" id="H&lt;-I" style="stroke: #383838; stroke-width: 1.0;"/><polygon fill="#FFFFFF" points="782.78,157.88,785.0029,164.7399,792.1902,165.3264,789.9672,158.4665,782.78,157.88" style="stroke: #383838; stroke-width: 1.0;"/><path d="M759.5,171.84 C759.5,191.26 759.5,215.84 759.5,234.06 " fill="none" id="H&lt;-J" style="stroke: #383838; stroke-width: 1.0;"/><polygon fill="#FFFFFF" points="759.5,158.88,755.5,164.88,759.5,170.88,763.5,164.88,759.5,158.88" style="stroke: #383838; stroke-width: 1.0;"/><path d="M178.62,242.07 C239.9,217.99 345.88,181.09 381.5,198.21 C398.23,206.25 411.12,222.92 419.61,237.02 " fill="none" id="F-&gt;B" style="stroke: #383838; stroke-width: 1.0; stroke-dasharray: 1.0,3.0;"/><polygon fill="#383838" points="422.54,241.08,421.4784,231.2885,420.0286,236.7565,414.5607,235.3067,422.54,241.08" style="stroke: #383838; stroke-width: 1.0;"/><text fill="#000000" font-family="Courier" font-size="13" lengthAdjust="spacingAndGlyphs" textLength="56" x="324.5" y="200.4769">require</text><path d="M598.76,260.7 C627.45,260.7 664.18,260.7 695.29,260.7 " fill="none" id="C-J" style="stroke: #383838; stroke-width: 1.0; stroke-dasharray: 1.0,3.0;"/><polygon fill="#383838" points="700.03,260.7,691.03,256.7,695.03,260.7,691.03,264.7,700.03,260.7" style="stroke: #383838; stroke-width: 1.0;"/><polygon fill="#383838" points="593.79,260.7,602.79,264.7,598.79,260.7,602.79,256.7,593.79,260.7" style="stroke: #383838; stroke-width: 1.0;"/><text fill="#000000" font-family="Courier" font-size="13" lengthAdjust="spacingAndGlyphs" textLength="72" x="611" y="253.7669">exclusive</text><path d="M480.5,44.35 C480.5,63.27 480.5,93.62 480.5,114.68 " fill="none" id="R-&gt;A" style="stroke: #383838; stroke-width: 1.0;"/><ellipse cx="480.5" cy="113.62" fill="#FFFFFF" rx="6" ry="6" style="stroke: #383838; stroke-width: 1.5;"/><path d="M450.71,44.6 C417.16,64.46 362.7,96.7 327.24,117.69 " fill="none" id="R-&gt;E" style="stroke: #383838; stroke-width: 1.0;"/><ellipse cx="328.3145" cy="117.6459" fill="#FFFFFF" rx="6" ry="6" style="stroke: #383838; stroke-width: 1.5;"/><text fill="#000000" font-family="Courier" font-size="13" lengthAdjust="spacingAndGlyphs" textLength="64" x="398.5" y="87.1769">optional</text><path d="M518.71,42.2 C570.22,62.75 661.7,99.25 715.86,120.85 " fill="none" id="R-&gt;H" style="stroke: #383838; stroke-width: 1.0;"/><ellipse cx="714.7391" cy="120.7917" fill="#383838" rx="6" ry="6" style="stroke: #383838; stroke-width: 1.5;"/><text fill="#000000" font-family="Courier" font-size="13" lengthAdjust="spacingAndGlyphs" textLength="64" x="637.5" y="87.1769">required</text></g></svg>