<?xml version="1.0" encoding="UTF-8" standalone="no"?><svg xmlns="http://www.w3.org/2000/svg" xmlns:xlink="http://www.w3.org/1999/xlink" contentScriptType="application/ecmascript" contentStyleType="text/css" height="122px" preserveAspectRatio="none" style="width:419px;height:122px;" version="1.1" viewBox="0 0 419 122" width="419px" zoomAndPan="magnify"><defs/><g><rect fill="#FFFFFF" height="87.49" style="stroke: #000000; stroke-width: 1.5;" width="386" x="22" y="23.51"/><text fill="#000000" font-family="sans-serif" font-size="14" font-weight="bold" lengthAdjust="spacingAndGlyphs" textLength="219" x="105.5" y="39.0452">After Power has been restored</text><rect fill="#F8F8F8" height="36.4883" style="stroke: #000000; stroke-width: 1.5;" width="65" x="38.5" y="58.51"/><text fill="#000000" font-family="sans-serif" font-size="14" lengthAdjust="spacingAndGlyphs" textLength="45" x="48.5" y="82.0452">Admin</text><rect fill="#F8F8F8" height="36.4883" style="stroke: #000000; stroke-width: 1.5;" width="79" x="313.5" y="58.51"/><text fill="#000000" font-family="sans-serif" font-size="14" lengthAdjust="spacingAndGlyphs" textLength="59" x="323.5" y="82.0452">max 20s</text><rect fill="#F8F8F8" height="36.4883" style="stroke: #383838; stroke-width: 1.5;" width="68" x="168" y="58.51"/><rect fill="#F8F8F8" height="5" style="stroke: #383838; stroke-width: 1.5;" width="10" x="163" y="63.51"/><rect fill="#F8F8F8" height="5" style="stroke: #383838; stroke-width: 1.5;" width="10" x="163" y="84.9983"/><text fill="#000000" font-family="sans-serif" font-size="14" lengthAdjust="spacingAndGlyphs" textLength="48" x="178" y="82.0452">System</text><path d="M103.72,76.76 C121.44,76.76 143.47,76.76 162.18,76.76 " fill="none" id="Source-&gt;System" style="stroke: #383838; stroke-width: 1.0;"/><polygon fill="#383838" points="166.87,76.76,157.87,72.76,161.87,76.76,157.87,80.76,166.87,76.76" style="stroke: #383838; stroke-width: 1.0;"/><text fill="#000000" font-family="sans-serif" font-size="13" lengthAdjust="spacingAndGlyphs" textLength="28" x="121.75" y="70.3284">Boot</text><path d="M236.26,76.76 C257.36,76.76 284.65,76.76 307.54,76.76 " fill="none" id="System-&gt;Measure" style="stroke: #383838; stroke-width: 1.0;"/><polygon fill="#383838" points="312.26,76.76,303.26,72.76,307.26,76.76,303.26,80.76,312.26,76.76" style="stroke: #383838; stroke-width: 1.0;"/><text fill="#000000" font-family="sans-serif" font-size="13" lengthAdjust="spacingAndGlyphs" textLength="41" x="254.25" y="70.3284">Online</text></g></svg>