<?xml version="1.0" encoding="UTF-8" standalone="no"?><svg xmlns="http://www.w3.org/2000/svg" xmlns:xlink="http://www.w3.org/1999/xlink" contentScriptType="application/ecmascript" contentStyleType="text/css" height="219px" preserveAspectRatio="none" style="width:206px;height:219px;" version="1.1" viewBox="0 0 206 219" width="206px" zoomAndPan="magnify"><defs/><g><rect fill="#FFFFFF" height="183.59" style="stroke: #000000; stroke-width: 1.5;" width="68" x="22" y="24.41"/><rect fill="#FFFFFF" height="10" style="stroke: #000000; stroke-width: 1.5;" width="15" x="70" y="29.41"/><rect fill="#FFFFFF" height="2" style="stroke: #000000; stroke-width: 1.5;" width="4" x="68" y="31.41"/><rect fill="#FFFFFF" height="2" style="stroke: #000000; stroke-width: 1.5;" width="4" x="68" y="35.41"/><text fill="#000000" font-family="Courier" font-size="14" font-weight="bold" lengthAdjust="spacingAndGlyphs" textLength="8" x="52" y="50.4051">C</text><rect fill="#F8F8F8" height="36.2969" style="stroke: #383838; stroke-width: 1.5;" width="28" x="42" y="59.41"/><rect fill="#F8F8F8" height="5" style="stroke: #383838; stroke-width: 1.5;" width="10" x="37" y="64.41"/><rect fill="#F8F8F8" height="5" style="stroke: #383838; stroke-width: 1.5;" width="10" x="37" y="85.7069"/><text fill="#000000" font-family="Courier" font-size="14" lengthAdjust="spacingAndGlyphs" textLength="8" x="52" y="82.4051">S</text><rect fill="#F8F8F8" height="36.2969" style="stroke: #383838; stroke-width: 1.5;" width="36" x="38" y="155.7"/><rect fill="#F8F8F8" height="5" style="stroke: #383838; stroke-width: 1.5;" width="10" x="33" y="160.7"/><rect fill="#F8F8F8" height="5" style="stroke: #383838; stroke-width: 1.5;" width="10" x="33" y="181.9969"/><text fill="#000000" font-family="Courier" font-size="14" lengthAdjust="spacingAndGlyphs" textLength="16" x="48" y="178.6951">S2</text><ellipse cx="115" cy="77.55" fill="#F8F8F8" rx="8" ry="8" style="stroke: #383838; stroke-width: 2.0;"/><text fill="#000000" font-family="Courier" font-size="14" lengthAdjust="spacingAndGlyphs" textLength="8" x="111" y="107.5451">I</text><rect fill="#F8F8F8" height="36.2969" style="stroke: #383838; stroke-width: 1.5;" width="36" x="159" y="59.41"/><rect fill="#F8F8F8" height="5" style="stroke: #383838; stroke-width: 1.5;" width="10" x="154" y="64.41"/><rect fill="#F8F8F8" height="5" style="stroke: #383838; stroke-width: 1.5;" width="10" x="154" y="85.7069"/><text fill="#000000" font-family="Courier" font-size="14" lengthAdjust="spacingAndGlyphs" textLength="16" x="169" y="82.4051">C2</text><path d="M56,95.85 C56,112.76 56,138.37 56,155.35 " fill="none" id="S-S2" style="stroke: #383838; stroke-width: 1.0;"/><path d="M63.0711,118.5027 A10,10 0 0 0 48.9289 118.5027" fill="#FFFFFF" style="stroke: #383838; stroke-width: 1.5;"/><ellipse cx="56" cy="125.5738" fill="#FFFFFF" rx="6" ry="6" style="stroke: #383838; stroke-width: 1.5;"/><path d="M70.29,77.55 C82.05,77.55 93.81,77.55 105.57,77.55 " fill="none" id="S-I" style="stroke: #383838; stroke-width: 1.0;"/><path d="M135.03,77.55 C142.97,77.55 150.91,77.55 158.85,77.55 " fill="none" id="I&lt;-C2" style="stroke: #383838; stroke-width: 1.0;"/><path d="M128.2782,86.0072 A9,9 0 0 0 128.2782 69.0928" fill="none" style="stroke: #383838; stroke-width: 1.5;"/></g></svg>