<?xml version="1.0" encoding="UTF-8" standalone="no"?><svg xmlns="http://www.w3.org/2000/svg" xmlns:xlink="http://www.w3.org/1999/xlink" contentScriptType="application/ecmascript" contentStyleType="text/css" height="787px" preserveAspectRatio="none" style="width:1640px;height:787px;" version="1.1" viewBox="0 0 1640 787" width="1640px" zoomAndPan="magnify"><defs/><g><text fill="#000000" font-family="Courier" font-size="14" font-weight="bold" lengthAdjust="spacingAndGlyphs" textLength="232" x="705" y="22.9951">User and browsing interaction</text><rect fill="#DDDDDD" height="742.25" style="stroke: #383838; stroke-width: 1.0;" width="1282" x="4" y="34.2969"/><text fill="#000000" font-family="Courier" font-size="13" font-weight="bold" lengthAdjust="spacingAndGlyphs" textLength="112" x="589" y="46.3638">User Interface</text><line style="stroke: #383838; stroke-width: 1.0; stroke-dasharray: 5.0,5.0;" x1="71" x2="71" y1="95.5938" y2="711.25"/><line style="stroke: #383838; stroke-width: 1.0; stroke-dasharray: 5.0,5.0;" x1="543" x2="543" y1="95.5938" y2="711.25"/><line style="stroke: #383838; stroke-width: 1.0; stroke-dasharray: 5.0,5.0;" x1="1007" x2="1007" y1="95.5938" y2="711.25"/><line style="stroke: #383838; stroke-width: 1.0; stroke-dasharray: 5.0,5.0;" x1="1083" x2="1083" y1="95.5938" y2="711.25"/><line style="stroke: #383838; stroke-width: 1.0; stroke-dasharray: 5.0,5.0;" x1="1155" x2="1155" y1="95.5938" y2="711.25"/><line style="stroke: #383838; stroke-width: 1.0; stroke-dasharray: 5.0,5.0;" x1="1243" x2="1243" y1="95.5938" y2="711.25"/><line style="stroke: #383838; stroke-width: 1.0; stroke-dasharray: 5.0,5.0;" x1="1331" x2="1331" y1="95.5938" y2="711.25"/><line style="stroke: #383838; stroke-width: 1.0; stroke-dasharray: 5.0,5.0;" x1="1447" x2="1447" y1="95.5938" y2="711.25"/><line style="stroke: #383838; stroke-width: 1.0; stroke-dasharray: 5.0,5.0;" x1="1543" x2="1543" y1="95.5938" y2="711.25"/><line style="stroke: #383838; stroke-width: 1.0; stroke-dasharray: 5.0,5.0;" x1="1603" x2="1603" y1="95.5938" y2="711.25"/><rect fill="#F8F8F8" height="30.2969" style="stroke: #383838; stroke-width: 1.5;" width="126" x="8" y="64.2969"/><text fill="#000000" font-family="Courier" font-size="14" lengthAdjust="spacingAndGlyphs" textLength="112" x="15" y="84.292">User Interface</text><rect fill="#F8F8F8" height="30.2969" style="stroke: #383838; stroke-width: 1.5;" width="126" x="8" y="710.25"/><text fill="#000000" font-family="Courier" font-size="14" lengthAdjust="spacingAndGlyphs" textLength="112" x="15" y="730.2451">User Interface</text><rect fill="#F8F8F8" height="30.2969" style="stroke: #383838; stroke-width: 1.5;" width="62" x="512" y="64.2969"/><text fill="#000000" font-family="Courier" font-size="14" lengthAdjust="spacingAndGlyphs" textLength="48" x="519" y="84.292">Search</text><rect fill="#F8F8F8" height="30.2969" style="stroke: #383838; stroke-width: 1.5;" width="62" x="512" y="710.25"/><text fill="#000000" font-family="Courier" font-size="14" lengthAdjust="spacingAndGlyphs" textLength="48" x="519" y="730.2451">Search</text><rect fill="#F8F8F8" height="30.2969" style="stroke: #383838; stroke-width: 1.5;" width="86" x="964" y="64.2969"/><text fill="#000000" font-family="Courier" font-size="14" lengthAdjust="spacingAndGlyphs" textLength="72" x="971" y="84.292">Filtering</text><rect fill="#F8F8F8" height="30.2969" style="stroke: #383838; stroke-width: 1.5;" width="86" x="964" y="710.25"/><text fill="#000000" font-family="Courier" font-size="14" lengthAdjust="spacingAndGlyphs" textLength="72" x="971" y="730.2451">Filtering</text><rect fill="#F8F8F8" height="30.2969" style="stroke: #383838; stroke-width: 1.5;" width="46" x="1060" y="64.2969"/><text fill="#000000" font-family="Courier" font-size="14" lengthAdjust="spacingAndGlyphs" textLength="32" x="1067" y="84.292">Info</text><rect fill="#F8F8F8" height="30.2969" style="stroke: #383838; stroke-width: 1.5;" width="46" x="1060" y="710.25"/><text fill="#000000" font-family="Courier" font-size="14" lengthAdjust="spacingAndGlyphs" textLength="32" x="1067" y="730.2451">Info</text><rect fill="#F8F8F8" height="30.2969" style="stroke: #383838; stroke-width: 1.5;" width="78" x="1116" y="64.2969"/><text fill="#000000" font-family="Courier" font-size="14" lengthAdjust="spacingAndGlyphs" textLength="64" x="1123" y="84.292">Location</text><rect fill="#F8F8F8" height="30.2969" style="stroke: #383838; stroke-width: 1.5;" width="78" x="1116" y="710.25"/><text fill="#000000" font-family="Courier" font-size="14" lengthAdjust="spacingAndGlyphs" textLength="64" x="1123" y="730.2451">Location</text><rect fill="#F8F8F8" height="30.2969" style="stroke: #383838; stroke-width: 1.5;" width="78" x="1204" y="64.2969"/><text fill="#000000" font-family="Courier" font-size="14" lengthAdjust="spacingAndGlyphs" textLength="64" x="1211" y="84.292">Services</text><rect fill="#F8F8F8" height="30.2969" style="stroke: #383838; stroke-width: 1.5;" width="78" x="1204" y="710.25"/><text fill="#000000" font-family="Courier" font-size="14" lengthAdjust="spacingAndGlyphs" textLength="64" x="1211" y="730.2451">Services</text><rect fill="#F8F8F8" height="30.2969" style="stroke: #383838; stroke-width: 1.5;" width="78" x="1292" y="64.2969"/><text fill="#000000" font-family="Courier" font-size="14" lengthAdjust="spacingAndGlyphs" textLength="64" x="1299" y="84.292">Security</text><rect fill="#F8F8F8" height="30.2969" style="stroke: #383838; stroke-width: 1.5;" width="78" x="1292" y="710.25"/><text fill="#000000" font-family="Courier" font-size="14" lengthAdjust="spacingAndGlyphs" textLength="64" x="1299" y="730.2451">Security</text><rect fill="#F8F8F8" height="30.2969" style="stroke: #383838; stroke-width: 1.5;" width="134" x="1380" y="64.2969"/><text fill="#000000" font-family="Courier" font-size="14" lengthAdjust="spacingAndGlyphs" textLength="120" x="1387" y="84.292">Payment Gateway</text><rect fill="#F8F8F8" height="30.2969" style="stroke: #383838; stroke-width: 1.5;" width="134" x="1380" y="710.25"/><text fill="#000000" font-family="Courier" font-size="14" lengthAdjust="spacingAndGlyphs" textLength="120" x="1387" y="730.2451">Payment Gateway</text><rect fill="#F8F8F8" height="30.2969" style="stroke: #383838; stroke-width: 1.5;" width="38" x="1524" y="64.2969"/><text fill="#000000" font-family="Courier" font-size="14" lengthAdjust="spacingAndGlyphs" textLength="24" x="1531" y="84.292">API</text><rect fill="#F8F8F8" height="30.2969" style="stroke: #383838; stroke-width: 1.5;" width="38" x="1524" y="710.25"/><text fill="#000000" font-family="Courier" font-size="14" lengthAdjust="spacingAndGlyphs" textLength="24" x="1531" y="730.2451">API</text><text fill="#000000" font-family="Courier" font-size="14" lengthAdjust="spacingAndGlyphs" textLength="56" x="1572" y="92.292">RealmDB</text><path d="M1585,43.2969 C1585,33.2969 1603,33.2969 1603,33.2969 C1603,33.2969 1621,33.2969 1621,43.2969 L1621,69.2969 C1621,79.2969 1603,79.2969 1603,79.2969 C1603,79.2969 1585,79.2969 1585,69.2969 L1585,43.2969 " fill="#7F7F7F" style="stroke: #000000; stroke-width: 1.5;"/><path d="M1585,43.2969 C1585,53.2969 1603,53.2969 1603,53.2969 C1603,53.2969 1621,53.2969 1621,43.2969 " fill="none" style="stroke: #000000; stroke-width: 1.5;"/><text fill="#000000" font-family="Courier" font-size="14" lengthAdjust="spacingAndGlyphs" textLength="56" x="1572" y="723.2451">RealmDB</text><path d="M1585,736.5469 C1585,726.5469 1603,726.5469 1603,726.5469 C1603,726.5469 1621,726.5469 1621,736.5469 L1621,762.5469 C1621,772.5469 1603,772.5469 1603,772.5469 C1603,772.5469 1585,772.5469 1585,762.5469 L1585,736.5469 " fill="#7F7F7F" style="stroke: #000000; stroke-width: 1.5;"/><path d="M1585,736.5469 C1585,746.5469 1603,746.5469 1603,746.5469 C1603,746.5469 1621,746.5469 1621,736.5469 " fill="none" style="stroke: #000000; stroke-width: 1.5;"/><polygon fill="#383838" points="1319,122.7266,1329,126.7266,1319,130.7266,1323,126.7266" style="stroke: #383838; stroke-width: 1.0;"/><line style="stroke: #383838; stroke-width: 1.0;" x1="71" x2="1325" y1="126.7266" y2="126.7266"/><text fill="#000000" font-family="Courier" font-size="13" lengthAdjust="spacingAndGlyphs" textLength="160" x="78" y="121.6606">User logins into app</text><polygon fill="#383838" points="82,151.8594,72,155.8594,82,159.8594,78,155.8594" style="stroke: #383838; stroke-width: 1.0;"/><line style="stroke: #383838; stroke-width: 1.0; stroke-dasharray: 2.0,2.0;" x1="76" x2="1602" y1="155.8594" y2="155.8594"/><text fill="#000000" font-family="Courier" font-size="13" lengthAdjust="spacingAndGlyphs" textLength="144" x="88" y="150.7935">User authenticated</text><line style="stroke: #383838; stroke-width: 1.0;" x1="71" x2="113" y1="184.9922" y2="184.9922"/><line style="stroke: #383838; stroke-width: 1.0;" x1="113" x2="113" y1="184.9922" y2="197.9922"/><line style="stroke: #383838; stroke-width: 1.0;" x1="72" x2="113" y1="197.9922" y2="197.9922"/><polygon fill="#383838" points="82,193.9922,72,197.9922,82,201.9922,78,197.9922" style="stroke: #383838; stroke-width: 1.0;"/><text fill="#000000" font-family="Courier" font-size="13" lengthAdjust="spacingAndGlyphs" textLength="240" x="78" y="179.9263">User opens the browsing screen</text><polygon fill="#383838" points="531,223.125,541,227.125,531,231.125,535,227.125" style="stroke: #383838; stroke-width: 1.0;"/><line style="stroke: #383838; stroke-width: 1.0;" x1="71" x2="537" y1="227.125" y2="227.125"/><text fill="#000000" font-family="Courier" font-size="13" lengthAdjust="spacingAndGlyphs" textLength="272" x="78" y="222.0591">User searches for desired category</text><polygon fill="#383838" points="82,252.2578,72,256.2578,82,260.2578,78,256.2578" style="stroke: #383838; stroke-width: 1.0;"/><line style="stroke: #383838; stroke-width: 1.0; stroke-dasharray: 2.0,2.0;" x1="76" x2="542" y1="256.2578" y2="256.2578"/><text fill="#000000" font-family="Courier" font-size="13" lengthAdjust="spacingAndGlyphs" textLength="448" x="88" y="251.1919">Search displays sub categories for one selected category</text><polygon fill="#383838" points="531,281.3906,541,285.3906,531,289.3906,535,285.3906" style="stroke: #383838; stroke-width: 1.0;"/><line style="stroke: #383838; stroke-width: 1.0;" x1="71" x2="537" y1="285.3906" y2="285.3906"/><text fill="#000000" font-family="Courier" font-size="13" lengthAdjust="spacingAndGlyphs" textLength="392" x="78" y="280.3247">User selects the filtering option of user reviews</text><polygon fill="#383838" points="995,310.5234,1005,314.5234,995,318.5234,999,314.5234" style="stroke: #383838; stroke-width: 1.0;"/><line style="stroke: #383838; stroke-width: 1.0;" x1="543" x2="1001" y1="314.5234" y2="314.5234"/><text fill="#000000" font-family="Courier" font-size="13" lengthAdjust="spacingAndGlyphs" textLength="440" x="550" y="309.4575">Search calls the filtering to display available filters</text><polygon fill="#383838" points="82,339.6563,72,343.6563,82,347.6563,78,343.6563" style="stroke: #383838; stroke-width: 1.0;"/><line style="stroke: #383838; stroke-width: 1.0; stroke-dasharray: 2.0,2.0;" x1="76" x2="1006" y1="343.6563" y2="343.6563"/><text fill="#000000" font-family="Courier" font-size="13" lengthAdjust="spacingAndGlyphs" textLength="184" x="88" y="338.5903">Display filters to user</text><polygon fill="#383838" points="995,368.7891,1005,372.7891,995,376.7891,999,372.7891" style="stroke: #383838; stroke-width: 1.0;"/><line style="stroke: #383838; stroke-width: 1.0;" x1="71" x2="1001" y1="372.7891" y2="372.7891"/><text fill="#000000" font-family="Courier" font-size="13" lengthAdjust="spacingAndGlyphs" textLength="160" x="78" y="367.7231">User selects reviews</text><polygon fill="#383838" points="1591,397.9219,1601,401.9219,1591,405.9219,1595,401.9219" style="stroke: #383838; stroke-width: 1.0;"/><line style="stroke: #383838; stroke-width: 1.0;" x1="1007" x2="1597" y1="401.9219" y2="401.9219"/><text fill="#000000" font-family="Courier" font-size="13" lengthAdjust="spacingAndGlyphs" textLength="296" x="1014" y="396.856">Fetches the reviews from the database</text><polygon fill="#383838" points="1018,427.0547,1008,431.0547,1018,435.0547,1014,431.0547" style="stroke: #383838; stroke-width: 1.0;"/><line style="stroke: #383838; stroke-width: 1.0; stroke-dasharray: 2.0,2.0;" x1="1012" x2="1602" y1="431.0547" y2="431.0547"/><text fill="#000000" font-family="Courier" font-size="13" lengthAdjust="spacingAndGlyphs" textLength="456" x="1024" y="425.9888">Reviews are fetched back as response to filtering request</text><polygon fill="#383838" points="82,456.1875,72,460.1875,82,464.1875,78,460.1875" style="stroke: #383838; stroke-width: 1.0;"/><line style="stroke: #383838; stroke-width: 1.0; stroke-dasharray: 2.0,2.0;" x1="76" x2="1006" y1="460.1875" y2="460.1875"/><text fill="#000000" font-family="Courier" font-size="13" lengthAdjust="spacingAndGlyphs" textLength="200" x="88" y="455.1216">The reviews are displayed</text><polygon fill="#383838" points="1071,485.3203,1081,489.3203,1071,493.3203,1075,489.3203" style="stroke: #383838; stroke-width: 1.0;"/><line style="stroke: #383838; stroke-width: 1.0;" x1="71" x2="1077" y1="489.3203" y2="489.3203"/><text fill="#000000" font-family="Courier" font-size="13" lengthAdjust="spacingAndGlyphs" textLength="328" x="78" y="484.2544">The user clicks on additional link button</text><polygon fill="#383838" points="1531,514.4531,1541,518.4531,1531,522.4531,1535,518.4531" style="stroke: #383838; stroke-width: 1.0;"/><line style="stroke: #383838; stroke-width: 1.0;" x1="1083" x2="1537" y1="518.4531" y2="518.4531"/><text fill="#000000" font-family="Courier" font-size="13" lengthAdjust="spacingAndGlyphs" textLength="432" x="1090" y="513.3872">The links are opened in the browser using relevant API</text><polygon fill="#383838" points="82,543.5859,72,547.5859,82,551.5859,78,547.5859" style="stroke: #383838; stroke-width: 1.0;"/><line style="stroke: #383838; stroke-width: 1.0; stroke-dasharray: 2.0,2.0;" x1="76" x2="1542" y1="547.5859" y2="547.5859"/><text fill="#000000" font-family="Courier" font-size="13" lengthAdjust="spacingAndGlyphs" textLength="264" x="88" y="542.52">Results are displayed to the user</text><polygon fill="#383838" points="1143,572.7188,1153,576.7188,1143,580.7188,1147,576.7188" style="stroke: #383838; stroke-width: 1.0;"/><line style="stroke: #383838; stroke-width: 1.0;" x1="71" x2="1149" y1="576.7188" y2="576.7188"/><text fill="#000000" font-family="Courier" font-size="13" lengthAdjust="spacingAndGlyphs" textLength="224" x="78" y="571.6528">Directions button is clicked</text><polygon fill="#383838" points="1591,601.8516,1601,605.8516,1591,609.8516,1595,605.8516" style="stroke: #383838; stroke-width: 1.0;"/><line style="stroke: #383838; stroke-width: 1.0;" x1="1155" x2="1597" y1="605.8516" y2="605.8516"/><text fill="#000000" font-family="Courier" font-size="13" lengthAdjust="spacingAndGlyphs" textLength="240" x="1162" y="600.7856">Sends requests for coordinates</text><polygon fill="#383838" points="1166,630.9844,1156,634.9844,1166,638.9844,1162,634.9844" style="stroke: #383838; stroke-width: 1.0;"/><line style="stroke: #383838; stroke-width: 1.0; stroke-dasharray: 2.0,2.0;" x1="1160" x2="1602" y1="634.9844" y2="634.9844"/><text fill="#000000" font-family="Courier" font-size="13" lengthAdjust="spacingAndGlyphs" textLength="168" x="1172" y="629.9185">Coordinates retrieved</text><polygon fill="#383838" points="1531,660.1172,1541,664.1172,1531,668.1172,1535,664.1172" style="stroke: #383838; stroke-width: 1.0;"/><line style="stroke: #383838; stroke-width: 1.0;" x1="1155" x2="1537" y1="664.1172" y2="664.1172"/><text fill="#000000" font-family="Courier" font-size="13" lengthAdjust="spacingAndGlyphs" textLength="224" x="1162" y="659.0513">Request Google Maps from API</text><polygon fill="#383838" points="82,689.25,72,693.25,82,697.25,78,693.25" style="stroke: #383838; stroke-width: 1.0;"/><line style="stroke: #383838; stroke-width: 1.0;" x1="76" x2="1154" y1="693.25" y2="693.25"/><text fill="#000000" font-family="Courier" font-size="13" lengthAdjust="spacingAndGlyphs" textLength="128" x="88" y="688.1841">Display Location</text></g></svg>