<?xml version="1.0" encoding="UTF-8" standalone="no"?><svg xmlns="http://www.w3.org/2000/svg" xmlns:xlink="http://www.w3.org/1999/xlink" contentScriptType="application/ecmascript" contentStyleType="text/css" height="649px" preserveAspectRatio="none" style="width:1390px;height:649px;" version="1.1" viewBox="0 0 1390 649" width="1390px" zoomAndPan="magnify"><defs><filter height="300%" id="f1rh497zaviku9" width="300%" x="-1" y="-1"><feGaussianBlur result="blurOut" stdDeviation="2.0"/><feColorMatrix in="blurOut" result="blurOut2" type="matrix" values="0 0 0 0 0 0 0 0 0 0 0 0 0 0 0 0 0 0 .4 0"/><feOffset dx="4.0" dy="4.0" in="blurOut2" result="blurOut3"/><feBlend in="SourceGraphic" in2="blurOut3" mode="normal"/></filter></defs><g><polygon fill="#FFFFFF" filter="url(#f1rh497zaviku9)" points="859,554.51,869,544.51,1074,544.51,1074,627,1064,637,859,637,859,554.51" style="stroke: #000000; stroke-width: 1.5;"/><line style="stroke: #000000; stroke-width: 1.5;" x1="1064" x2="1073" y1="554.51" y2="545.51"/><line style="stroke: #000000; stroke-width: 1.5;" x1="859" x2="1064" y1="554.51" y2="554.51"/><line style="stroke: #000000; stroke-width: 1.5;" x1="1064" x2="1064" y1="554.51" y2="637"/><text fill="#000000" font-family="sans-serif" font-size="14" font-weight="bold" lengthAdjust="spacingAndGlyphs" textLength="79" x="923" y="571.0452">Web Server</text><polygon fill="#FFFFFF" filter="url(#f1rh497zaviku9)" points="30,41.54,40,31.54,889,31.54,889,477.51,879,487.51,30,487.51,30,41.54" style="stroke: #000000; stroke-width: 1.5;"/><line style="stroke: #000000; stroke-width: 1.5;" x1="879" x2="888" y1="41.54" y2="32.54"/><line style="stroke: #000000; stroke-width: 1.5;" x1="30" x2="879" y1="41.54" y2="41.54"/><line style="stroke: #000000; stroke-width: 1.5;" x1="879" x2="879" y1="41.54" y2="487.51"/><text fill="#000000" font-family="sans-serif" font-size="14" font-weight="bold" lengthAdjust="spacingAndGlyphs" textLength="162" x="374.5" y="58.0752">Android mobile device</text><polygon fill="#FFFFFF" filter="url(#f1rh497zaviku9)" points="62,97.54,72,87.54,849,87.54,849,445.51,839,455.51,62,455.51,62,97.54" style="stroke: #000000; stroke-width: 1.5;"/><line style="stroke: #000000; stroke-width: 1.5;" x1="839" x2="848" y1="97.54" y2="88.54"/><line style="stroke: #000000; stroke-width: 1.5;" x1="62" x2="839" y1="97.54" y2="97.54"/><line style="stroke: #000000; stroke-width: 1.5;" x1="839" x2="839" y1="97.54" y2="455.51"/><text fill="#000000" font-family="sans-serif" font-size="14" font-weight="bold" lengthAdjust="spacingAndGlyphs" textLength="117" x="393" y="114.0752">Local Guide APK</text><rect fill="#FFFFFF" filter="url(#f1rh497zaviku9)" height="295.97" style="stroke: #000000; stroke-width: 1.5;" width="739" x="86" y="135.54"/><rect fill="#FFFFFF" height="10" style="stroke: #000000; stroke-width: 1.5;" width="15" x="805" y="140.54"/><rect fill="#FFFFFF" height="2" style="stroke: #000000; stroke-width: 1.5;" width="4" x="803" y="142.54"/><rect fill="#FFFFFF" height="2" style="stroke: #000000; stroke-width: 1.5;" width="4" x="803" y="146.54"/><text fill="#000000" font-family="sans-serif" font-size="14" font-weight="bold" lengthAdjust="spacingAndGlyphs" textLength="95" x="408" y="162.0752">UserInterface</text><rect fill="#FFFFFF" filter="url(#f1rh497zaviku9)" height="87.48" style="stroke: #000000; stroke-width: 1.5;" width="209" x="343" y="178.54"/><rect fill="#FFFFFF" height="10" style="stroke: #000000; stroke-width: 1.5;" width="15" x="532" y="183.54"/><rect fill="#FFFFFF" height="2" style="stroke: #000000; stroke-width: 1.5;" width="4" x="530" y="185.54"/><rect fill="#FFFFFF" height="2" style="stroke: #000000; stroke-width: 1.5;" width="4" x="530" y="189.54"/><text fill="#000000" font-family="sans-serif" font-size="14" font-weight="bold" lengthAdjust="spacingAndGlyphs" textLength="58" x="418.5" y="205.0752">Services</text><rect fill="#FFFFFF" filter="url(#f1rh497zaviku9)" height="228.97" style="stroke: #000000; stroke-width: 1.5;" width="209" x="110" y="178.54"/><rect fill="#FFFFFF" height="10" style="stroke: #000000; stroke-width: 1.5;" width="15" x="299" y="183.54"/><rect fill="#FFFFFF" height="2" style="stroke: #000000; stroke-width: 1.5;" width="4" x="297" y="185.54"/><rect fill="#FFFFFF" height="2" style="stroke: #000000; stroke-width: 1.5;" width="4" x="297" y="189.54"/><text fill="#000000" font-family="sans-serif" font-size="14" font-weight="bold" lengthAdjust="spacingAndGlyphs" textLength="67" x="181" y="205.0752">Browsing</text><rect fill="#FFFFFF" filter="url(#f1rh497zaviku9)" height="228.97" style="stroke: #000000; stroke-width: 1.5;" width="225" x="576" y="178.54"/><rect fill="#FFFFFF" height="10" style="stroke: #000000; stroke-width: 1.5;" width="15" x="781" y="183.54"/><rect fill="#FFFFFF" height="2" style="stroke: #000000; stroke-width: 1.5;" width="4" x="779" y="185.54"/><rect fill="#FFFFFF" height="2" style="stroke: #000000; stroke-width: 1.5;" width="4" x="779" y="189.54"/><text fill="#000000" font-family="sans-serif" font-size="14" font-weight="bold" lengthAdjust="spacingAndGlyphs" textLength="83" x="647" y="205.0752">Personalize</text><polygon fill="#FFFFFF" filter="url(#f1rh497zaviku9)" points="1089,325.02,1099,315.02,1368,315.02,1368,397.51,1358,407.51,1089,407.51,1089,325.02" style="stroke: #000000; stroke-width: 1.5;"/><line style="stroke: #000000; stroke-width: 1.5;" x1="1358" x2="1367" y1="325.02" y2="316.02"/><line style="stroke: #000000; stroke-width: 1.5;" x1="1089" x2="1358" y1="325.02" y2="325.02"/><line style="stroke: #000000; stroke-width: 1.5;" x1="1358" x2="1358" y1="325.02" y2="407.51"/><text fill="#000000" font-family="sans-serif" font-size="14" font-weight="bold" lengthAdjust="spacingAndGlyphs" textLength="97" x="1176" y="341.5552">Google Cloud</text><rect fill="#FEFECE" filter="url(#f1rh497zaviku9)" height="36.4883" style="stroke: #A80036; stroke-width: 1.5;" width="88" x="875" y="584.51"/><rect fill="#FEFECE" height="5" style="stroke: #A80036; stroke-width: 1.5;" width="10" x="870" y="589.51"/><rect fill="#FEFECE" height="5" style="stroke: #A80036; stroke-width: 1.5;" width="10" x="870" y="610.9983"/><text fill="#000000" font-family="sans-serif" font-size="14" lengthAdjust="spacingAndGlyphs" textLength="68" x="885" y="608.0452">Transport</text><rect fill="#FEFECE" filter="url(#f1rh497zaviku9)" height="36.4883" style="stroke: #A80036; stroke-width: 1.5;" width="60" x="998" y="584.51"/><rect fill="#FEFECE" height="5" style="stroke: #A80036; stroke-width: 1.5;" width="10" x="993" y="589.51"/><rect fill="#FEFECE" height="5" style="stroke: #A80036; stroke-width: 1.5;" width="10" x="993" y="610.9983"/><text fill="#000000" font-family="sans-serif" font-size="14" lengthAdjust="spacingAndGlyphs" textLength="40" x="1008" y="608.0452">Stripe</text><rect fill="#FEFECE" filter="url(#f1rh497zaviku9)" height="36.4883" style="stroke: #A80036; stroke-width: 1.5;" width="83" x="452.5" y="213.54"/><rect fill="#FEFECE" height="5" style="stroke: #A80036; stroke-width: 1.5;" width="10" x="447.5" y="218.54"/><rect fill="#FEFECE" height="5" style="stroke: #A80036; stroke-width: 1.5;" width="10" x="447.5" y="240.0283"/><text fill="#000000" font-family="sans-serif" font-size="14" lengthAdjust="spacingAndGlyphs" textLength="63" x="462.5" y="237.0752">Bookings</text><rect fill="#FEFECE" filter="url(#f1rh497zaviku9)" height="36.4883" style="stroke: #A80036; stroke-width: 1.5;" width="58" x="359" y="213.54"/><rect fill="#FEFECE" height="5" style="stroke: #A80036; stroke-width: 1.5;" width="10" x="354" y="218.54"/><rect fill="#FEFECE" height="5" style="stroke: #A80036; stroke-width: 1.5;" width="10" x="354" y="240.0283"/><text fill="#000000" font-family="sans-serif" font-size="14" lengthAdjust="spacingAndGlyphs" textLength="38" x="369" y="237.0752">Mode</text><rect fill="#FEFECE" filter="url(#f1rh497zaviku9)" height="36.4883" style="stroke: #A80036; stroke-width: 1.5;" width="66" x="126" y="213.54"/><rect fill="#FEFECE" height="5" style="stroke: #A80036; stroke-width: 1.5;" width="10" x="121" y="218.54"/><rect fill="#FEFECE" height="5" style="stroke: #A80036; stroke-width: 1.5;" width="10" x="121" y="240.0283"/><text fill="#000000" font-family="sans-serif" font-size="14" lengthAdjust="spacingAndGlyphs" textLength="46" x="136" y="237.0752">Search</text><rect fill="#FEFECE" filter="url(#f1rh497zaviku9)" height="36.4883" style="stroke: #A80036; stroke-width: 1.5;" width="77" x="226.5" y="213.54"/><rect fill="#FEFECE" height="5" style="stroke: #A80036; stroke-width: 1.5;" width="10" x="221.5" y="218.54"/><rect fill="#FEFECE" height="5" style="stroke: #A80036; stroke-width: 1.5;" width="10" x="221.5" y="240.0283"/><text fill="#000000" font-family="sans-serif" font-size="14" lengthAdjust="spacingAndGlyphs" textLength="57" x="236.5" y="237.0752">Filtering</text><rect fill="#FEFECE" filter="url(#f1rh497zaviku9)" height="36.4883" style="stroke: #A80036; stroke-width: 1.5;" width="47" x="135.5" y="355.02"/><rect fill="#FEFECE" height="5" style="stroke: #A80036; stroke-width: 1.5;" width="10" x="130.5" y="360.02"/><rect fill="#FEFECE" height="5" style="stroke: #A80036; stroke-width: 1.5;" width="10" x="130.5" y="381.5083"/><text fill="#000000" font-family="sans-serif" font-size="14" lengthAdjust="spacingAndGlyphs" textLength="27" x="145.5" y="378.5552">Info</text><rect fill="#FEFECE" filter="url(#f1rh497zaviku9)" height="36.4883" style="stroke: #A80036; stroke-width: 1.5;" width="78" x="217" y="355.02"/><rect fill="#FEFECE" height="5" style="stroke: #A80036; stroke-width: 1.5;" width="10" x="212" y="360.02"/><rect fill="#FEFECE" height="5" style="stroke: #A80036; stroke-width: 1.5;" width="10" x="212" y="381.5083"/><text fill="#000000" font-family="sans-serif" font-size="14" lengthAdjust="spacingAndGlyphs" textLength="58" x="227" y="378.5552">Location</text><rect fill="#FEFECE" filter="url(#f1rh497zaviku9)" height="36.4883" style="stroke: #A80036; stroke-width: 1.5;" width="58" x="592" y="213.54"/><rect fill="#FEFECE" height="5" style="stroke: #A80036; stroke-width: 1.5;" width="10" x="587" y="218.54"/><rect fill="#FEFECE" height="5" style="stroke: #A80036; stroke-width: 1.5;" width="10" x="587" y="240.0283"/><text fill="#000000" font-family="sans-serif" font-size="14" lengthAdjust="spacingAndGlyphs" textLength="38" x="602" y="237.0752">Login</text><rect fill="#FEFECE" filter="url(#f1rh497zaviku9)" height="36.4883" style="stroke: #A80036; stroke-width: 1.5;" width="100" x="685" y="213.54"/><rect fill="#FEFECE" height="5" style="stroke: #A80036; stroke-width: 1.5;" width="10" x="680" y="218.54"/><rect fill="#FEFECE" height="5" style="stroke: #A80036; stroke-width: 1.5;" width="10" x="680" y="240.0283"/><text fill="#000000" font-family="sans-serif" font-size="14" lengthAdjust="spacingAndGlyphs" textLength="80" x="695" y="237.0752">Preferences</text><rect fill="#FEFECE" filter="url(#f1rh497zaviku9)" height="36.4883" style="stroke: #A80036; stroke-width: 1.5;" width="113" x="591.5" y="355.02"/><rect fill="#FEFECE" height="5" style="stroke: #A80036; stroke-width: 1.5;" width="10" x="586.5" y="360.02"/><rect fill="#FEFECE" height="5" style="stroke: #A80036; stroke-width: 1.5;" width="10" x="586.5" y="381.5083"/><text fill="#000000" font-family="sans-serif" font-size="14" lengthAdjust="spacingAndGlyphs" textLength="93" x="601.5" y="378.5552">Subscriptions</text><rect fill="#FEFECE" filter="url(#f1rh497zaviku9)" height="36.4883" style="stroke: #A80036; stroke-width: 1.5;" width="78" x="1274" y="355.02"/><rect fill="#FEFECE" height="5" style="stroke: #A80036; stroke-width: 1.5;" width="10" x="1269" y="360.02"/><rect fill="#FEFECE" height="5" style="stroke: #A80036; stroke-width: 1.5;" width="10" x="1269" y="381.5083"/><text fill="#000000" font-family="sans-serif" font-size="14" lengthAdjust="spacingAndGlyphs" textLength="58" x="1284" y="378.5552">Firebase</text><rect fill="#FEFECE" filter="url(#f1rh497zaviku9)" height="36.4883" style="stroke: #A80036; stroke-width: 1.5;" width="134" x="1105" y="355.02"/><rect fill="#FEFECE" height="5" style="stroke: #A80036; stroke-width: 1.5;" width="10" x="1100" y="360.02"/><rect fill="#FEFECE" height="5" style="stroke: #A80036; stroke-width: 1.5;" width="10" x="1100" y="381.5083"/><text fill="#000000" font-family="sans-serif" font-size="14" lengthAdjust="spacingAndGlyphs" textLength="114" x="1115" y="378.5552">FirebaseConsole</text><path d="M889.1107,232.5239 C889.2917,232.5198 889.4756,232.5156 889.6623,232.5116 C890.0358,232.5034 890.4206,232.4953 890.8167,232.4873 C891.6088,232.4714 892.4458,232.4561 893.3266,232.4417 C900.373,232.3265 910.222,232.2718 922.2983,232.4761 C946.4509,232.8847 979.5131,234.3294 1016.8838,238.3987 C1091.625,246.5375 1183.6,265.175 1256,307.02 C1275.92,318.54 1292.39,339.6 1302.42,354.67 " fill="none" id="a-f" style="stroke: #A80036; stroke-width: 1.0;"/><text fill="#000000" font-family="sans-serif" font-size="13" lengthAdjust="spacingAndGlyphs" textLength="40" x="1238" y="295.5884">HTTPS</text><path d="M889.0564,311.0235 C889.163,312.0589 889.2703,313.1011 889.3783,314.1498 C889.8102,318.3448 890.253,322.6445 890.705,327.0346 C892.5133,344.5953 894.4706,363.6031 896.4825,383.14 C904.53,461.2875 913.45,547.9 917.19,584.22 " fill="none" id="a-b" style="stroke: #A80036; stroke-width: 1.0;"/><text fill="#000000" font-family="sans-serif" font-size="13" lengthAdjust="spacingAndGlyphs" textLength="40" x="910" y="378.3384">HTTPS</text><path d="M889.1614,238.072 C889.2413,238.1261 889.3216,238.1806 889.4025,238.2354 C890.0491,238.6743 890.7266,239.1379 891.4325,239.6255 C897.08,243.5259 904.55,248.9619 912.64,255.5937 C928.82,268.8575 947.48,286.905 959,307.02 C1013.18,401.65 1024.86,536.52 1027.34,584.22 " fill="none" id="a-s" style="stroke: #A80036; stroke-width: 1.0;"/><text fill="#000000" font-family="sans-serif" font-size="13" lengthAdjust="spacingAndGlyphs" textLength="40" x="1020" y="378.3384">HTTPS</text><path d="M1309.61,391.65 C1303.47,418.87 1288.04,471.74 1256,503.51 C1199.53,559.5 1106.03,585.82 1058.21,596.15 " fill="none" id="f-s" style="stroke: #A80036; stroke-width: 1.0;"/><text fill="#000000" font-family="sans-serif" font-size="13" lengthAdjust="spacingAndGlyphs" textLength="40" x="1247" y="525.0784">HTTPS</text></g></svg>