<?xml version="1.0" encoding="UTF-8" standalone="no"?><svg xmlns="http://www.w3.org/2000/svg" xmlns:xlink="http://www.w3.org/1999/xlink" contentScriptType="application/ecmascript" contentStyleType="text/css" height="563px" preserveAspectRatio="none" style="width:1585px;height:563px;" version="1.1" viewBox="0 0 1585 563" width="1585px" zoomAndPan="magnify"><defs><filter height="300%" id="fwq2wy9qyglxk" width="300%" x="-1" y="-1"><feGaussianBlur result="blurOut" stdDeviation="2.0"/><feColorMatrix in="blurOut" result="blurOut2" type="matrix" values="0 0 0 0 0 0 0 0 0 0 0 0 0 0 0 0 0 0 .4 0"/><feOffset dx="4.0" dy="4.0" in="blurOut2" result="blurOut3"/><feBlend in="SourceGraphic" in2="blurOut3" mode="normal"/></filter></defs><g><rect fill="#FFFFFF" filter="url(#fwq2wy9qyglxk)" height="266.98" style="stroke: #000000; stroke-width: 1.5;" width="763" x="811.45" y="285.02"/><rect fill="#FFFFFF" height="10" style="stroke: #000000; stroke-width: 1.5;" width="15" x="1554.45" y="290.02"/><rect fill="#FFFFFF" height="2" style="stroke: #000000; stroke-width: 1.5;" width="4" x="1552.45" y="292.02"/><rect fill="#FFFFFF" height="2" style="stroke: #000000; stroke-width: 1.5;" width="4" x="1552.45" y="296.02"/><text fill="#000000" font-family="sans-serif" font-size="14" font-weight="bold" lengthAdjust="spacingAndGlyphs" textLength="95" x="1145.45" y="311.5552">UserInterface</text><rect fill="#FFFFFF" filter="url(#fwq2wy9qyglxk)" height="87.49" style="stroke: #000000; stroke-width: 1.5;" width="209" x="1333.45" y="336.02"/><rect fill="#FFFFFF" height="10" style="stroke: #000000; stroke-width: 1.5;" width="15" x="1522.45" y="341.02"/><rect fill="#FFFFFF" height="2" style="stroke: #000000; stroke-width: 1.5;" width="4" x="1520.45" y="343.02"/><rect fill="#FFFFFF" height="2" style="stroke: #000000; stroke-width: 1.5;" width="4" x="1520.45" y="347.02"/><text fill="#000000" font-family="sans-serif" font-size="14" font-weight="bold" lengthAdjust="spacingAndGlyphs" textLength="58" x="1408.95" y="362.5552">Services</text><rect fill="#FFFFFF" filter="url(#fwq2wy9qyglxk)" height="183.98" style="stroke: #000000; stroke-width: 1.5;" width="209" x="1100.45" y="336.02"/><rect fill="#FFFFFF" height="10" style="stroke: #000000; stroke-width: 1.5;" width="15" x="1289.45" y="341.02"/><rect fill="#FFFFFF" height="2" style="stroke: #000000; stroke-width: 1.5;" width="4" x="1287.45" y="343.02"/><rect fill="#FFFFFF" height="2" style="stroke: #000000; stroke-width: 1.5;" width="4" x="1287.45" y="347.02"/><text fill="#000000" font-family="sans-serif" font-size="14" font-weight="bold" lengthAdjust="spacingAndGlyphs" textLength="67" x="1171.45" y="362.5552">Browsing</text><rect fill="#FFFFFF" filter="url(#fwq2wy9qyglxk)" height="183.98" style="stroke: #000000; stroke-width: 1.5;" width="225" x="851.45" y="336.02"/><rect fill="#FFFFFF" height="10" style="stroke: #000000; stroke-width: 1.5;" width="15" x="1056.45" y="341.02"/><rect fill="#FFFFFF" height="2" style="stroke: #000000; stroke-width: 1.5;" width="4" x="1054.45" y="343.02"/><rect fill="#FFFFFF" height="2" style="stroke: #000000; stroke-width: 1.5;" width="4" x="1054.45" y="347.02"/><text fill="#000000" font-family="sans-serif" font-size="14" font-weight="bold" lengthAdjust="spacingAndGlyphs" textLength="83" x="922.45" y="362.5552">Personalize</text><rect fill="#FFFFFF" filter="url(#fwq2wy9qyglxk)" height="87.48" style="stroke: #000000; stroke-width: 1.5;" width="784" x="22.45" y="165.54"/><rect fill="#FFFFFF" height="10" style="stroke: #000000; stroke-width: 1.5;" width="15" x="786.45" y="170.54"/><rect fill="#FFFFFF" height="2" style="stroke: #000000; stroke-width: 1.5;" width="4" x="784.45" y="172.54"/><rect fill="#FFFFFF" height="2" style="stroke: #000000; stroke-width: 1.5;" width="4" x="784.45" y="176.54"/><text fill="#000000" font-family="sans-serif" font-size="14" font-weight="bold" lengthAdjust="spacingAndGlyphs" textLength="24" x="402.45" y="192.0752">API</text><rect fill="#F8F8F8" filter="url(#fwq2wy9qyglxk)" height="36.4883" style="stroke: #383838; stroke-width: 1.5;" width="83" x="1442.95" y="371.02"/><rect fill="#F8F8F8" height="5" style="stroke: #383838; stroke-width: 1.5;" width="10" x="1437.95" y="376.02"/><rect fill="#F8F8F8" height="5" style="stroke: #383838; stroke-width: 1.5;" width="10" x="1437.95" y="397.5083"/><text fill="#000000" font-family="sans-serif" font-size="14" lengthAdjust="spacingAndGlyphs" textLength="63" x="1452.95" y="394.5552">Bookings</text><rect fill="#F8F8F8" filter="url(#fwq2wy9qyglxk)" height="36.4883" style="stroke: #383838; stroke-width: 1.5;" width="58" x="1349.45" y="371.02"/><rect fill="#F8F8F8" height="5" style="stroke: #383838; stroke-width: 1.5;" width="10" x="1344.45" y="376.02"/><rect fill="#F8F8F8" height="5" style="stroke: #383838; stroke-width: 1.5;" width="10" x="1344.45" y="397.5083"/><text fill="#000000" font-family="sans-serif" font-size="14" lengthAdjust="spacingAndGlyphs" textLength="38" x="1359.45" y="394.5552">Mode</text><rect fill="#F8F8F8" filter="url(#fwq2wy9qyglxk)" height="36.4883" style="stroke: #383838; stroke-width: 1.5;" width="66" x="1116.45" y="371.02"/><rect fill="#F8F8F8" height="5" style="stroke: #383838; stroke-width: 1.5;" width="10" x="1111.45" y="376.02"/><rect fill="#F8F8F8" height="5" style="stroke: #383838; stroke-width: 1.5;" width="10" x="1111.45" y="397.5083"/><text fill="#000000" font-family="sans-serif" font-size="14" lengthAdjust="spacingAndGlyphs" textLength="46" x="1126.45" y="394.5552">Search</text><rect fill="#F8F8F8" filter="url(#fwq2wy9qyglxk)" height="36.4883" style="stroke: #383838; stroke-width: 1.5;" width="77" x="1216.95" y="371.02"/><rect fill="#F8F8F8" height="5" style="stroke: #383838; stroke-width: 1.5;" width="10" x="1211.95" y="376.02"/><rect fill="#F8F8F8" height="5" style="stroke: #383838; stroke-width: 1.5;" width="10" x="1211.95" y="397.5083"/><text fill="#000000" font-family="sans-serif" font-size="14" lengthAdjust="spacingAndGlyphs" textLength="57" x="1226.95" y="394.5552">Filtering</text><rect fill="#F8F8F8" filter="url(#fwq2wy9qyglxk)" height="36.4883" style="stroke: #383838; stroke-width: 1.5;" width="47" x="1125.95" y="467.51"/><rect fill="#F8F8F8" height="5" style="stroke: #383838; stroke-width: 1.5;" width="10" x="1120.95" y="472.51"/><rect fill="#F8F8F8" height="5" style="stroke: #383838; stroke-width: 1.5;" width="10" x="1120.95" y="493.9983"/><text fill="#000000" font-family="sans-serif" font-size="14" lengthAdjust="spacingAndGlyphs" textLength="27" x="1135.95" y="491.0452">Info</text><rect fill="#F8F8F8" filter="url(#fwq2wy9qyglxk)" height="36.4883" style="stroke: #383838; stroke-width: 1.5;" width="78" x="1207.45" y="467.51"/><rect fill="#F8F8F8" height="5" style="stroke: #383838; stroke-width: 1.5;" width="10" x="1202.45" y="472.51"/><rect fill="#F8F8F8" height="5" style="stroke: #383838; stroke-width: 1.5;" width="10" x="1202.45" y="493.9983"/><text fill="#000000" font-family="sans-serif" font-size="14" lengthAdjust="spacingAndGlyphs" textLength="58" x="1217.45" y="491.0452">Location</text><rect fill="#F8F8F8" filter="url(#fwq2wy9qyglxk)" height="36.4883" style="stroke: #383838; stroke-width: 1.5;" width="58" x="867.45" y="371.02"/><rect fill="#F8F8F8" height="5" style="stroke: #383838; stroke-width: 1.5;" width="10" x="862.45" y="376.02"/><rect fill="#F8F8F8" height="5" style="stroke: #383838; stroke-width: 1.5;" width="10" x="862.45" y="397.5083"/><text fill="#000000" font-family="sans-serif" font-size="14" lengthAdjust="spacingAndGlyphs" textLength="38" x="877.45" y="394.5552">Login</text><rect fill="#F8F8F8" filter="url(#fwq2wy9qyglxk)" height="36.4883" style="stroke: #383838; stroke-width: 1.5;" width="100" x="960.45" y="371.02"/><rect fill="#F8F8F8" height="5" style="stroke: #383838; stroke-width: 1.5;" width="10" x="955.45" y="376.02"/><rect fill="#F8F8F8" height="5" style="stroke: #383838; stroke-width: 1.5;" width="10" x="955.45" y="397.5083"/><text fill="#000000" font-family="sans-serif" font-size="14" lengthAdjust="spacingAndGlyphs" textLength="80" x="970.45" y="394.5552">Preferences</text><rect fill="#F8F8F8" filter="url(#fwq2wy9qyglxk)" height="36.4883" style="stroke: #383838; stroke-width: 1.5;" width="113" x="866.95" y="467.51"/><rect fill="#F8F8F8" height="5" style="stroke: #383838; stroke-width: 1.5;" width="10" x="861.95" y="472.51"/><rect fill="#F8F8F8" height="5" style="stroke: #383838; stroke-width: 1.5;" width="10" x="861.95" y="493.9983"/><text fill="#000000" font-family="sans-serif" font-size="14" lengthAdjust="spacingAndGlyphs" textLength="93" x="876.95" y="491.0452">Subscriptions</text><rect fill="#F8F8F8" filter="url(#fwq2wy9qyglxk)" height="36.4883" style="stroke: #383838; stroke-width: 1.5;" width="136" x="392.45" y="200.54"/><rect fill="#F8F8F8" height="5" style="stroke: #383838; stroke-width: 1.5;" width="10" x="387.45" y="205.54"/><rect fill="#F8F8F8" height="5" style="stroke: #383838; stroke-width: 1.5;" width="10" x="387.45" y="227.0283"/><text fill="#000000" font-family="sans-serif" font-size="14" lengthAdjust="spacingAndGlyphs" textLength="116" x="402.45" y="224.0752">FirebaseMapsAPI</text><rect fill="#F8F8F8" filter="url(#fwq2wy9qyglxk)" height="36.4883" style="stroke: #383838; stroke-width: 1.5;" width="142" x="215.45" y="200.54"/><rect fill="#F8F8F8" height="5" style="stroke: #383838; stroke-width: 1.5;" width="10" x="210.45" y="205.54"/><rect fill="#F8F8F8" height="5" style="stroke: #383838; stroke-width: 1.5;" width="10" x="210.45" y="227.0283"/><text fill="#000000" font-family="sans-serif" font-size="14" lengthAdjust="spacingAndGlyphs" textLength="122" x="225.45" y="224.0752">FirebasePlacesAPI</text><rect fill="#F8F8F8" filter="url(#fwq2wy9qyglxk)" height="36.4883" style="stroke: #383838; stroke-width: 1.5;" width="143" x="37.95" y="200.54"/><rect fill="#F8F8F8" height="5" style="stroke: #383838; stroke-width: 1.5;" width="10" x="32.95" y="205.54"/><rect fill="#F8F8F8" height="5" style="stroke: #383838; stroke-width: 1.5;" width="10" x="32.95" y="227.0283"/><text fill="#000000" font-family="sans-serif" font-size="14" lengthAdjust="spacingAndGlyphs" textLength="123" x="47.95" y="224.0752">FirebaseHotelsAPI</text><rect fill="#F8F8F8" filter="url(#fwq2wy9qyglxk)" height="36.4883" style="stroke: #383838; stroke-width: 1.5;" width="110" x="563.45" y="200.54"/><rect fill="#F8F8F8" height="5" style="stroke: #383838; stroke-width: 1.5;" width="10" x="558.45" y="205.54"/><rect fill="#F8F8F8" height="5" style="stroke: #383838; stroke-width: 1.5;" width="10" x="558.45" y="227.0283"/><text fill="#000000" font-family="sans-serif" font-size="14" lengthAdjust="spacingAndGlyphs" textLength="90" x="573.45" y="224.0752">TransportAPI</text><rect fill="#F8F8F8" filter="url(#fwq2wy9qyglxk)" height="36.4883" style="stroke: #383838; stroke-width: 1.5;" width="82" x="708.45" y="200.54"/><rect fill="#F8F8F8" height="5" style="stroke: #383838; stroke-width: 1.5;" width="10" x="703.45" y="205.54"/><rect fill="#F8F8F8" height="5" style="stroke: #383838; stroke-width: 1.5;" width="10" x="703.45" y="227.0283"/><text fill="#000000" font-family="sans-serif" font-size="14" lengthAdjust="spacingAndGlyphs" textLength="62" x="718.45" y="224.0752">StripeAPI</text><rect fill="#F8F8F8" filter="url(#fwq2wy9qyglxk)" height="36.4883" style="stroke: #383838; stroke-width: 1.5;" width="78" x="656.45" y="467.51"/><rect fill="#F8F8F8" height="5" style="stroke: #383838; stroke-width: 1.5;" width="10" x="651.45" y="472.51"/><rect fill="#F8F8F8" height="5" style="stroke: #383838; stroke-width: 1.5;" width="10" x="651.45" y="493.9983"/><text fill="#000000" font-family="sans-serif" font-size="14" lengthAdjust="spacingAndGlyphs" textLength="58" x="666.45" y="491.0452">Firebase</text><rect fill="#F8F8F8" filter="url(#fwq2wy9qyglxk)" height="36.4883" style="stroke: #383838; stroke-width: 1.5;" width="88" x="571.45" y="371.02"/><rect fill="#F8F8F8" height="5" style="stroke: #383838; stroke-width: 1.5;" width="10" x="566.45" y="376.02"/><rect fill="#F8F8F8" height="5" style="stroke: #383838; stroke-width: 1.5;" width="10" x="566.45" y="397.5083"/><text fill="#000000" font-family="sans-serif" font-size="14" lengthAdjust="spacingAndGlyphs" textLength="68" x="581.45" y="394.5552">Transport</text><rect fill="#F8F8F8" filter="url(#fwq2wy9qyglxk)" height="36.4883" style="stroke: #383838; stroke-width: 1.5;" width="60" x="719.45" y="371.02"/><rect fill="#F8F8F8" height="5" style="stroke: #383838; stroke-width: 1.5;" width="10" x="714.45" y="376.02"/><rect fill="#F8F8F8" height="5" style="stroke: #383838; stroke-width: 1.5;" width="10" x="714.45" y="397.5083"/><text fill="#000000" font-family="sans-serif" font-size="14" lengthAdjust="spacingAndGlyphs" textLength="40" x="729.45" y="394.5552">Stripe</text><rect fill="#F8F8F8" filter="url(#fwq2wy9qyglxk)" height="36.4883" style="stroke: #383838; stroke-width: 1.5;" width="111" x="79.95" y="7.56"/><rect fill="#F8F8F8" height="5" style="stroke: #383838; stroke-width: 1.5;" width="10" x="74.95" y="12.56"/><rect fill="#F8F8F8" height="5" style="stroke: #383838; stroke-width: 1.5;" width="10" x="74.95" y="34.0483"/><text fill="#000000" font-family="sans-serif" font-size="14" lengthAdjust="spacingAndGlyphs" textLength="91" x="89.95" y="31.0952">LoadBalancer</text><rect fill="#F8F8F8" filter="url(#fwq2wy9qyglxk)" height="36.4883" style="stroke: #383838; stroke-width: 1.5;" width="82" x="332.45" y="104.05"/><rect fill="#F8F8F8" height="5" style="stroke: #383838; stroke-width: 1.5;" width="10" x="327.45" y="109.05"/><rect fill="#F8F8F8" height="5" style="stroke: #383838; stroke-width: 1.5;" width="10" x="327.45" y="130.5383"/><text fill="#000000" font-family="sans-serif" font-size="14" lengthAdjust="spacingAndGlyphs" textLength="62" x="342.45" y="127.5852">Directory</text><ellipse cx="612.45" cy="485.76" fill="#F8F8F8" filter="url(#fwq2wy9qyglxk)" rx="8" ry="8" style="stroke: #383838; stroke-width: 2.0;"/><ellipse cx="778.45" cy="485.76" fill="#F8F8F8" filter="url(#fwq2wy9qyglxk)" rx="8" ry="8" style="stroke: #383838; stroke-width: 2.0;"/><path d="M112.75,44.17 C85.27,66.79 40.45,109.18 22.45,157.54 C6.4,200.64 -3.68,223.17 22.45,261.02 C168.07,471.99 540.43,484.21 603.35,484.76 " fill="none" id="LoadBalancer-l" style="stroke: #383838; stroke-width: 1.0;"/><path d="M734.68,485.76 C746.19,485.76 757.7,485.76 769.21,485.76 " fill="none" id="Firebase-f" style="stroke: #383838; stroke-width: 1.0;"/><path d="M724,407.82 C696.79,426.58 654.35,455.85 630.43,472.35 " fill="none" id="Stripe-&gt;l" style="stroke: #383838; stroke-width: 1.0;"/><path d="M630.014,483.6066 A9,9 0 0 0 620.415 469.6797" fill="none" style="stroke: #383838; stroke-width: 1.5;"/><path d="M614.9,407.6 C614.37,424.06 613.59,448.76 613.05,465.75 " fill="none" id="Transport-&gt;l" style="stroke: #383838; stroke-width: 1.0;"/><path d="M621.2599,472.7294 A9,9 0 0 0 604.3538 472.1973" fill="none" style="stroke: #383838; stroke-width: 1.5;"/><path d="M811.4118,412.3212 C811.3416,412.4599 811.2709,412.5987 811.1997,412.7376 C811.0573,413.0152 810.9128,413.2931 810.7663,413.571 C809.5942,415.7943 808.2903,418.0202 806.8469,420.1695 C803.96,424.4681 800.515,428.46 796.45,431.51 C739.19,474.48 705.47,439.84 639.45,467.51 C636.46,468.76 633.44,470.33 630.56,472.01 " fill="none" id="er-&gt;l" style="stroke: #383838; stroke-width: 1.0;"/><path d="M629.6815,483.2978 A9,9 0 0 0 620.5117 469.0847" fill="none" style="stroke: #383838; stroke-width: 1.5;"/><path d="M754.77,407.6 C759.87,424.22 767.54,449.24 772.76,466.24 " fill="none" id="Stripe-&gt;f" style="stroke: #383838; stroke-width: 1.0;"/><path d="M783.1065,470.1221 A9,9 0 0 0 766.9322 475.0709" fill="none" style="stroke: #383838; stroke-width: 1.5;"/><path d="M179.93,44.46 C223.52,61.77 289.44,87.94 331.97,104.82 " fill="none" id="LoadBalancer-Directory" style="stroke: #383838; stroke-width: 1.0;"/><path d="M252.3845,65.62 A10,10 0 0 0 247.1663 78.7642" fill="#FFFFFF" style="stroke: #383838; stroke-width: 1.5;"/><ellipse cx="256.3475" cy="74.8013" fill="#FFFFFF" rx="6" ry="6" style="stroke: #383838; stroke-width: 1.5;"/><path d="M357.49,140.62 C341.89,157.56 318.26,183.22 302.6,200.24 " fill="none" id="Directory-FirebasePlacesAPI" style="stroke: #383838; stroke-width: 1.0;"/><path d="M340.059,169.9877 A10,10 0 0 0 329.6552 160.4085" fill="#FFFFFF" style="stroke: #383838; stroke-width: 1.5;"/><ellipse cx="330.0675" cy="170.4" fill="#FFFFFF" rx="6" ry="6" style="stroke: #383838; stroke-width: 1.5;"/><path d="M332.14,126.67 C295.79,130.72 242.04,139.41 198.45,157.54 C173.12,168.07 147.53,186.37 130.34,200.04 " fill="none" id="Directory-FirebaseHotelsAPI" style="stroke: #383838; stroke-width: 1.0;"/><path d="M207.6944,161.3534 A10,10 0 0 0 202.2634 148.2956" fill="#FFFFFF" style="stroke: #383838; stroke-width: 1.5;"/><ellipse cx="198.45" cy="157.54" fill="#FFFFFF" rx="6" ry="6" style="stroke: #383838; stroke-width: 1.5;"/><path d="M389.4,140.62 C405,157.56 428.63,183.22 444.3,200.24 " fill="none" id="Directory-FirebaseMapsAPI" style="stroke: #383838; stroke-width: 1.0;"/><path d="M417.2355,160.4085 A10,10 0 0 0 406.8322 169.9883" fill="#FFFFFF" style="stroke: #383838; stroke-width: 1.5;"/><ellipse cx="416.8238" cy="170.4" fill="#FFFFFF" rx="6" ry="6" style="stroke: #383838; stroke-width: 1.5;"/><path d="M414.76,125.68 C450.99,129.09 504.32,137.39 546.45,157.54 C568.21,167.94 588.87,186.45 602.43,200.22 " fill="none" id="Directory-TransportAPI" style="stroke: #383838; stroke-width: 1.0;"/><path d="M543.122,148.11 A10,10 0 0 0 537.02 160.868" fill="#FFFFFF" style="stroke: #383838; stroke-width: 1.5;"/><ellipse cx="546.45" cy="157.54" fill="#FFFFFF" rx="6" ry="6" style="stroke: #383838; stroke-width: 1.5;"/><path d="M414.74,124.26 C489.45,126.58 643.71,134.13 691.45,157.54 C711,167.12 727.55,186.16 737.91,200.28 " fill="none" id="Directory-StripeAPI" style="stroke: #383838; stroke-width: 1.0;"/><path d="M556.8361,125.2848 A10,10 0 0 0 555.5023 139.3639" fill="#FFFFFF" style="stroke: #383838; stroke-width: 1.5;"/><ellipse cx="563.2088" cy="132.9912" fill="#FFFFFF" rx="6" ry="6" style="stroke: #383838; stroke-width: 1.5;"/><path d="M749.45,237.49 C749.45,269.85 749.45,338.17 749.45,370.54 " fill="none" id="StripeAPI-Stripe" style="stroke: #383838; stroke-width: 1.0;"/><path d="M756.5211,296.9402 A10,10 0 0 0 742.3789 296.9402" fill="#FFFFFF" style="stroke: #383838; stroke-width: 1.5;"/><ellipse cx="749.45" cy="304.0113" fill="#FFFFFF" rx="6" ry="6" style="stroke: #383838; stroke-width: 1.5;"/><path d="M618.13,237.49 C617.55,269.85 616.34,338.17 615.76,370.54 " fill="none" id="TransportAPI-Transport" style="stroke: #383838; stroke-width: 1.0;"/><path d="M624.1406,297.067 A10,10 0 0 0 610.0007 296.8156" fill="#FFFFFF" style="stroke: #383838; stroke-width: 1.5;"/><ellipse cx="616.945" cy="304.0113" fill="#FFFFFF" rx="6" ry="6" style="stroke: #383838; stroke-width: 1.5;"/></g></svg>