<?xml version="1.0" encoding="UTF-8" standalone="no"?><svg xmlns="http://www.w3.org/2000/svg" xmlns:xlink="http://www.w3.org/1999/xlink" contentScriptType="application/ecmascript" contentStyleType="text/css" height="583px" preserveAspectRatio="none" style="width:589px;height:583px;" version="1.1" viewBox="0 0 589 583" width="589px" zoomAndPan="magnify"><defs/><g><rect fill="#F8F8F8" height="36.4883" style="stroke: #383838; stroke-width: 1.5;" width="48" x="282" y="116.85"/><rect fill="#F8F8F8" height="5" style="stroke: #383838; stroke-width: 1.5;" width="10" x="277" y="121.85"/><rect fill="#F8F8F8" height="5" style="stroke: #383838; stroke-width: 1.5;" width="10" x="277" y="143.3383"/><text fill="#000000" font-family="sans-serif" font-size="14" lengthAdjust="spacingAndGlyphs" textLength="28" x="292" y="140.3852">App</text><rect fill="#F8F8F8" height="36.4883" style="stroke: #383838; stroke-width: 1.5;" width="61" x="417.5" y="116.85"/><rect fill="#F8F8F8" height="5" style="stroke: #383838; stroke-width: 1.5;" width="10" x="412.5" y="121.85"/><rect fill="#F8F8F8" height="5" style="stroke: #383838; stroke-width: 1.5;" width="10" x="412.5" y="143.3383"/><text fill="#000000" font-family="sans-serif" font-size="14" lengthAdjust="spacingAndGlyphs" textLength="41" x="427.5" y="140.3852">Driver</text><ellipse cx="374" cy="135.1" fill="#F8F8F8" rx="8" ry="8" style="stroke: #383838; stroke-width: 2.0;"/><rect fill="#F8F8F8" height="36.4883" style="stroke: #383838; stroke-width: 1.5;" width="73" x="505.5" y="304.31"/><rect fill="#F8F8F8" height="5" style="stroke: #383838; stroke-width: 1.5;" width="10" x="500.5" y="309.31"/><rect fill="#F8F8F8" height="5" style="stroke: #383838; stroke-width: 1.5;" width="10" x="500.5" y="330.7983"/><text fill="#000000" font-family="sans-serif" font-size="14" lengthAdjust="spacingAndGlyphs" textLength="53" x="515.5" y="327.8452">Spooler</text><ellipse cx="461" cy="322.55" fill="#F8F8F8" rx="8" ry="8" style="stroke: #383838; stroke-width: 2.0;"/><rect fill="#F8F8F8" height="36.4883" style="stroke: #383838; stroke-width: 1.5;" width="65" x="429.5" y="513.13"/><rect fill="#F8F8F8" height="5" style="stroke: #383838; stroke-width: 1.5;" width="10" x="424.5" y="518.13"/><rect fill="#F8F8F8" height="5" style="stroke: #383838; stroke-width: 1.5;" width="10" x="424.5" y="539.6183"/><text fill="#000000" font-family="sans-serif" font-size="14" lengthAdjust="spacingAndGlyphs" textLength="45" x="439.5" y="536.6652">Queue</text><ellipse cx="385" cy="531.38" fill="#F8F8F8" rx="8" ry="8" style="stroke: #383838; stroke-width: 2.0;"/><rect fill="#F8F8F8" height="36.4883" style="stroke: #383838; stroke-width: 1.5;" width="66" x="196" y="304.31"/><rect fill="#F8F8F8" height="5" style="stroke: #383838; stroke-width: 1.5;" width="10" x="191" y="309.31"/><rect fill="#F8F8F8" height="5" style="stroke: #383838; stroke-width: 1.5;" width="10" x="191" y="330.7983"/><text fill="#000000" font-family="sans-serif" font-size="14" lengthAdjust="spacingAndGlyphs" textLength="46" x="206" y="327.8452">Printer</text><ellipse cx="152" cy="322.55" fill="#F8F8F8" rx="8" ry="8" style="stroke: #383838; stroke-width: 2.0;"/><path d="M331.5,8.23 L331.5,56.8511 A0,0 0 0 0 331.5,56.8511 L370,56.8511 L374,125.78 L378,56.8511 L416.5,56.8511 A0,0 0 0 0 416.5,56.8511 L416.5,18.23 L406.5,8.23 L331.5,8.23 A0,0 0 0 0 331.5,8.23 " fill="#ECECEC" style="stroke: #383838; stroke-width: 1.0;"/><path d="M406.5,8.23 L406.5,18.23 L416.5,18.23 L406.5,8.23 " fill="#ECECEC" style="stroke: #383838; stroke-width: 1.0;"/><text fill="#000000" font-family="sans-serif" font-size="13" lengthAdjust="spacingAndGlyphs" textLength="64" x="337.5" y="25.7984">operation:</text><line style="stroke: #383838; stroke-width: 1.0; stroke-dasharray: 1.0,2.0;" x1="332.5" x2="415.5" y1="28.5405" y2="28.5405"/><text fill="#000000" font-family="sans-serif" font-size="13" lengthAdjust="spacingAndGlyphs" textLength="62" x="337.5" y="45.1089">print(PDF)</text><path d="M297.5,298.24 L297.5,346.8611 A0,0 0 0 0 297.5,346.8611 L416.5,346.8611 A0,0 0 0 0 416.5,346.8611 L416.5,326.55 L451.66,322.55 L416.5,318.55 L416.5,308.24 L406.5,298.24 L297.5,298.24 A0,0 0 0 0 297.5,298.24 " fill="#ECECEC" style="stroke: #383838; stroke-width: 1.0;"/><path d="M406.5,298.24 L406.5,308.24 L416.5,308.24 L406.5,298.24 " fill="#ECECEC" style="stroke: #383838; stroke-width: 1.0;"/><text fill="#000000" font-family="sans-serif" font-size="13" lengthAdjust="spacingAndGlyphs" textLength="64" x="303.5" y="315.8084">operation:</text><line style="stroke: #383838; stroke-width: 1.0; stroke-dasharray: 1.0,2.0;" x1="298.5" x2="415.5" y1="318.5505" y2="318.5505"/><text fill="#000000" font-family="sans-serif" font-size="13" lengthAdjust="spacingAndGlyphs" textLength="98" x="303.5" y="335.1189">scheduleJob(PS)</text><path d="M249,491.76 L249,571.0022 A0,0 0 0 0 249,571.0022 L341,571.0022 A0,0 0 0 0 341,571.0022 L341,535.38 L375.8,531.38 L341,527.38 L341,501.76 L331,491.76 L249,491.76 A0,0 0 0 0 249,491.76 " fill="#ECECEC" style="stroke: #383838; stroke-width: 1.0;"/><path d="M331,491.76 L331,501.76 L341,501.76 L331,491.76 " fill="#ECECEC" style="stroke: #383838; stroke-width: 1.0;"/><text fill="#000000" font-family="sans-serif" font-size="13" lengthAdjust="spacingAndGlyphs" textLength="71" x="255" y="509.3284">operations:</text><line style="stroke: #383838; stroke-width: 1.0; stroke-dasharray: 1.0,2.0;" x1="250" x2="340" y1="512.0705" y2="512.0705"/><text fill="#000000" font-family="sans-serif" font-size="13" lengthAdjust="spacingAndGlyphs" textLength="50" x="255" y="528.6389">post(PS)</text><text fill="#000000" font-family="sans-serif" font-size="13" lengthAdjust="spacingAndGlyphs" textLength="40" x="255" y="543.9495">get(id)</text><text fill="#000000" font-family="sans-serif" font-size="13" lengthAdjust="spacingAndGlyphs" textLength="58" x="255" y="559.26">delete(id)</text><path d="M6,213.34 L6,431.756 A0,0 0 0 0 6,431.756 L108,431.756 A0,0 0 0 0 108,431.756 L108,326.55 L142.76,322.55 L108,318.55 L108,223.34 L98,213.34 L6,213.34 A0,0 0 0 0 6,213.34 " fill="#ECECEC" style="stroke: #383838; stroke-width: 1.0;"/><path d="M98,213.34 L98,223.34 L108,223.34 L98,213.34 " fill="#ECECEC" style="stroke: #383838; stroke-width: 1.0;"/><text fill="#000000" font-family="sans-serif" font-size="13" lengthAdjust="spacingAndGlyphs" textLength="64" x="12" y="230.9084">operation:</text><line style="stroke: #383838; stroke-width: 1.0; stroke-dasharray: 1.0,2.0;" x1="7" x2="107" y1="233.6505" y2="233.6505"/><text fill="#000000" font-family="sans-serif" font-size="13" lengthAdjust="spacingAndGlyphs" textLength="50" x="12" y="250.2189">print(id)</text><text fill="#000000" font-family="sans-serif" font-size="13" lengthAdjust="spacingAndGlyphs" textLength="0" x="16" y="265.5295"/><line style="stroke: #383838; stroke-width: 1.0;" x1="7" x2="107" y1="272.2716" y2="272.2716"/><text fill="#000000" font-family="sans-serif" font-size="13" lengthAdjust="spacingAndGlyphs" textLength="45" x="12" y="288.84">events:</text><line style="stroke: #383838; stroke-width: 1.0; stroke-dasharray: 1.0,2.0;" x1="7" x2="107" y1="295.5822" y2="295.5822"/><text fill="#000000" font-family="sans-serif" font-size="13" lengthAdjust="spacingAndGlyphs" textLength="81" x="12" y="312.1505">print_started</text><text fill="#000000" font-family="sans-serif" font-size="13" lengthAdjust="spacingAndGlyphs" textLength="68" x="12" y="327.4611">print_done</text><text fill="#000000" font-family="sans-serif" font-size="13" lengthAdjust="spacingAndGlyphs" textLength="0" x="16" y="342.7716"/><line style="stroke: #383838; stroke-width: 1.0;" x1="7" x2="107" y1="349.5138" y2="349.5138"/><text fill="#000000" font-family="sans-serif" font-size="13" lengthAdjust="spacingAndGlyphs" textLength="68" x="12" y="366.0822">properties:</text><line style="stroke: #383838; stroke-width: 1.0; stroke-dasharray: 1.0,2.0;" x1="7" x2="107" y1="372.8244" y2="372.8244"/><text fill="#000000" font-family="sans-serif" font-size="13" lengthAdjust="spacingAndGlyphs" textLength="67" x="12" y="389.3927">paper_size</text><text fill="#000000" font-family="sans-serif" font-size="13" lengthAdjust="spacingAndGlyphs" textLength="32" x="12" y="404.7033">color</text><text fill="#000000" font-family="sans-serif" font-size="13" lengthAdjust="spacingAndGlyphs" textLength="43" x="12" y="420.0138">duplex</text><path d="M330.44,135.1 C338.31,135.1 346.19,135.1 354.07,135.1 " fill="none" id="App-&gt;iDriver" style="stroke: #383838; stroke-width: 1.0;"/><path d="M360.7318,126.6428 A9,9 0 0 0 360.7318 143.5572" fill="none" style="stroke: #383838; stroke-width: 1.5;"/><path d="M383.25,135.1 C394.55,135.1 405.85,135.1 417.14,135.1 " fill="none" id="iDriver-Driver" style="stroke: #383838; stroke-width: 1.0;"/><path d="M330.31,147.93 C363.44,164.51 420.24,194.71 434,213.34 C453.7,240.01 459.12,279.41 460.56,302.58 " fill="none" id="App-&gt;iSpooler" style="stroke: #383838; stroke-width: 1.0;"/><path d="M469.3226,308.9144 A9,9 0 0 0 452.4226 309.6145" fill="none" style="stroke: #383838; stroke-width: 1.5;"/><path d="M470.49,322.55 C482.04,322.55 493.58,322.55 505.13,322.55 " fill="none" id="iSpooler-Spooler" style="stroke: #383838; stroke-width: 1.0;"/><path d="M536.02,341.02 C527.71,363.61 511.05,403.41 488,431.76 C460.85,465.15 441.53,460.46 412,491.76 C405.96,498.15 400.24,505.99 395.62,512.93 " fill="none" id="Spooler-&gt;iQueue" style="stroke: #383838; stroke-width: 1.0;"/><path d="M398.5402,523.112 A9,9 0 0 0 384.2582 514.0498" fill="none" style="stroke: #383838; stroke-width: 1.5;"/><path d="M394.32,531.38 C405.96,531.38 417.59,531.38 429.22,531.38 " fill="none" id="iQueue-Queue" style="stroke: #383838; stroke-width: 1.0;"/><path d="M234.34,341.1 C241.87,363.78 257.25,403.68 280,431.76 C307.75,466.02 328.73,459.71 359,491.76 C364.97,498.07 370.51,505.9 374.93,512.85 " fill="none" id="Printer-&gt;iQueue" style="stroke: #383838; stroke-width: 1.0;"/><path d="M386.1712,514.1254 A9,9 0 0 0 371.6885 522.8633" fill="none" style="stroke: #383838; stroke-width: 1.5;"/><path d="M161.32,322.55 C172.78,322.55 184.24,322.55 195.69,322.55 " fill="none" id="iPrinter-Printer" style="stroke: #383838; stroke-width: 1.0;"/><path d="M281.71,144.14 C252.52,155.09 204.21,177.53 178,213.34 C158.56,239.91 153.48,279.04 152.26,302.25 " fill="none" id="App-&gt;iPrinter" style="stroke: #383838; stroke-width: 1.0;"/><path d="M160.4638,309.2512 A9,9 0 0 0 143.5584 308.6957" fill="none" style="stroke: #383838; stroke-width: 1.5;"/></g></svg>