<?xml version="1.0" encoding="UTF-8" standalone="no"?><svg xmlns="http://www.w3.org/2000/svg" xmlns:xlink="http://www.w3.org/1999/xlink" contentScriptType="application/ecmascript" contentStyleType="text/css" height="577px" preserveAspectRatio="none" style="width:1454px;height:577px;" version="1.1" viewBox="0 0 1454 577" width="1454px" zoomAndPan="magnify"><defs><filter height="300%" id="fv8znk1glpl9q" width="300%" x="-1" y="-1"><feGaussianBlur result="blurOut" stdDeviation="2.0"/><feColorMatrix in="blurOut" result="blurOut2" type="matrix" values="0 0 0 0 0 0 0 0 0 0 0 0 0 0 0 0 0 0 .4 0"/><feOffset dx="4.0" dy="4.0" in="blurOut2" result="blurOut3"/><feBlend in="SourceGraphic" in2="blurOut3" mode="normal"/></filter></defs><g><polygon fill="#FFFFFF" filter="url(#fv8znk1glpl9q)" points="873,277.02,883,267.02,1042,267.02,1042,349.51,1032,359.51,873,359.51,873,277.02" style="stroke: #000000; stroke-width: 1.5;"/><line style="stroke: #000000; stroke-width: 1.5;" x1="1032" x2="1041" y1="277.02" y2="268.02"/><line style="stroke: #000000; stroke-width: 1.5;" x1="873" x2="1032" y1="277.02" y2="277.02"/><line style="stroke: #000000; stroke-width: 1.5;" x1="1032" x2="1032" y1="277.02" y2="359.51"/><text fill="#000000" font-family="sans-serif" font-size="14" font-weight="bold" lengthAdjust="spacingAndGlyphs" textLength="93" x="907" y="293.5552">Web Server 1</text><polygon fill="#FFFFFF" filter="url(#fv8znk1glpl9q)" points="1094,482.51,1104,472.51,1263,472.51,1263,555,1253,565,1094,565,1094,482.51" style="stroke: #000000; stroke-width: 1.5;"/><line style="stroke: #000000; stroke-width: 1.5;" x1="1253" x2="1262" y1="482.51" y2="473.51"/><line style="stroke: #000000; stroke-width: 1.5;" x1="1094" x2="1253" y1="482.51" y2="482.51"/><line style="stroke: #000000; stroke-width: 1.5;" x1="1253" x2="1253" y1="482.51" y2="565"/><text fill="#000000" font-family="sans-serif" font-size="14" font-weight="bold" lengthAdjust="spacingAndGlyphs" textLength="93" x="1128" y="499.0452">Web Server 2</text><polygon fill="#FFFFFF" filter="url(#fv8znk1glpl9q)" points="30,41.54,40,31.54,841,31.54,841,405.51,831,415.51,30,415.51,30,41.54" style="stroke: #000000; stroke-width: 1.5;"/><line style="stroke: #000000; stroke-width: 1.5;" x1="831" x2="840" y1="41.54" y2="32.54"/><line style="stroke: #000000; stroke-width: 1.5;" x1="30" x2="831" y1="41.54" y2="41.54"/><line style="stroke: #000000; stroke-width: 1.5;" x1="831" x2="831" y1="41.54" y2="415.51"/><text fill="#000000" font-family="sans-serif" font-size="14" font-weight="bold" lengthAdjust="spacingAndGlyphs" textLength="93" x="385" y="58.0752">Web Browser</text><rect fill="#FFFFFF" filter="url(#fv8znk1glpl9q)" height="295.97" style="stroke: #000000; stroke-width: 1.5;" width="739" x="62" y="87.54"/><rect fill="#FFFFFF" height="10" style="stroke: #000000; stroke-width: 1.5;" width="15" x="781" y="92.54"/><rect fill="#FFFFFF" height="2" style="stroke: #000000; stroke-width: 1.5;" width="4" x="779" y="94.54"/><rect fill="#FFFFFF" height="2" style="stroke: #000000; stroke-width: 1.5;" width="4" x="779" y="98.54"/><text fill="#000000" font-family="sans-serif" font-size="14" font-weight="bold" lengthAdjust="spacingAndGlyphs" textLength="95" x="384" y="114.0752">UserInterface</text><rect fill="#FFFFFF" filter="url(#fv8znk1glpl9q)" height="87.48" style="stroke: #000000; stroke-width: 1.5;" width="209" x="568" y="130.54"/><rect fill="#FFFFFF" height="10" style="stroke: #000000; stroke-width: 1.5;" width="15" x="757" y="135.54"/><rect fill="#FFFFFF" height="2" style="stroke: #000000; stroke-width: 1.5;" width="4" x="755" y="137.54"/><rect fill="#FFFFFF" height="2" style="stroke: #000000; stroke-width: 1.5;" width="4" x="755" y="141.54"/><text fill="#000000" font-family="sans-serif" font-size="14" font-weight="bold" lengthAdjust="spacingAndGlyphs" textLength="58" x="643.5" y="157.0752">Services</text><rect fill="#FFFFFF" filter="url(#fv8znk1glpl9q)" height="228.97" style="stroke: #000000; stroke-width: 1.5;" width="209" x="335" y="130.54"/><rect fill="#FFFFFF" height="10" style="stroke: #000000; stroke-width: 1.5;" width="15" x="524" y="135.54"/><rect fill="#FFFFFF" height="2" style="stroke: #000000; stroke-width: 1.5;" width="4" x="522" y="137.54"/><rect fill="#FFFFFF" height="2" style="stroke: #000000; stroke-width: 1.5;" width="4" x="522" y="141.54"/><text fill="#000000" font-family="sans-serif" font-size="14" font-weight="bold" lengthAdjust="spacingAndGlyphs" textLength="67" x="406" y="157.0752">Browsing</text><rect fill="#FFFFFF" filter="url(#fv8znk1glpl9q)" height="228.97" style="stroke: #000000; stroke-width: 1.5;" width="225" x="86" y="130.54"/><rect fill="#FFFFFF" height="10" style="stroke: #000000; stroke-width: 1.5;" width="15" x="291" y="135.54"/><rect fill="#FFFFFF" height="2" style="stroke: #000000; stroke-width: 1.5;" width="4" x="289" y="137.54"/><rect fill="#FFFFFF" height="2" style="stroke: #000000; stroke-width: 1.5;" width="4" x="289" y="141.54"/><text fill="#000000" font-family="sans-serif" font-size="14" font-weight="bold" lengthAdjust="spacingAndGlyphs" textLength="83" x="157" y="157.0752">Personalize</text><path d="M1162.6704,282.0185 C1168.6451,271.7368 1176.3161,271.794 1184.045,279.9892 C1190.6889,271.3833 1197.2165,270.9035 1202.3515,281.4327 C1207.0253,272.8305 1215.1179,271.3059 1220.6337,280.5712 C1224.1813,271.7779 1231.5464,269.0945 1238.4783,276.942 C1244.5767,269.2926 1252.7289,267.9494 1257.6434,278.2089 C1262.8247,267.1672 1270.6171,267.8115 1277.8899,276.0078 C1282.0722,267.647 1289.7973,269.2757 1293.6332,276.3608 C1299.697,265.5942 1310.0778,265.7644 1315.1246,277.3392 C1320.0269,269.9652 1327.6929,270.0978 1332.6382,277.2874 C1338.9871,270.5964 1345.7948,270.5499 1350.3176,279.369 C1356.0884,268.6295 1364.1589,268.6263 1371.2823,277.9562 C1376.5656,271.3376 1384.3947,271.7599 1388.5823,279.2954 C1395.2035,270.0325 1403.9549,270.2282 1409.3105,280.6294 C1414.1731,272.626 1420.4104,272.1524 1425.6765,280.2185 C1435.2354,285.0596 1435.555,292.4776 1428.5472,299.7533 C1437.9386,302.3158 1440.9057,309.014 1433.457,316.5105 C1442.5358,322.8283 1439.4129,330.8081 1430.8954,334.6396 C1438.398,341.6972 1436.7236,347.9159 1427.7263,351.9534 C1422.1699,362.6731 1413.7045,361.8815 1407.8605,352.234 C1402.5433,362.7244 1395.1642,364.1085 1387.4731,354.6616 C1383.7071,362.1768 1376.6712,363.7464 1371.4464,356.2155 C1365.5504,365.8183 1359.5398,364.8435 1352.9975,356.8949 C1345.3376,366.5081 1339.4754,364.6763 1333.7419,354.9743 C1329.2224,365.54 1322.4162,365.1596 1314.8787,358.2279 C1308.3346,365.5939 1302.0978,366.2862 1296.4123,357.2607 C1290.7176,367.0769 1281.3263,367.5977 1275.1731,357.7562 C1267.6773,366.8209 1260.7493,364.0338 1256.4631,354.5233 C1251.5114,364.034 1244.266,363.6434 1238.3231,355.5444 C1232.2536,363.2975 1223.7542,365.2318 1218.7513,354.42 C1214.259,361.1777 1207.3364,361.6547 1202.535,354.7879 C1196.882,362.6151 1187.2131,362.6393 1183.3136,352.8722 C1176.6079,362.9876 1167.65,363.5418 1162.2262,351.6443 C1155.4039,347.058 1154.7895,340.7234 1162.2329,336.1432 C1153.854,329.6922 1152.426,323.6383 1161.9868,316.9572 C1154.1697,312.5746 1154.7423,304.9065 1162.6749,301.2122 C1153.0018,296.312 1154.2588,286.923 1162.6704,282.0185 " fill="#FFFFFF" style="stroke: #000000; stroke-width: 1.5;"/><text fill="#000000" font-family="sans-serif" font-size="14" font-weight="bold" lengthAdjust="spacingAndGlyphs" textLength="92" x="1247.5" y="298.5552">GoogleCloud</text><rect fill="#FEFECE" filter="url(#fv8znk1glpl9q)" height="36.4883" style="stroke: #A80036; stroke-width: 1.5;" width="88" x="889" y="307.02"/><rect fill="#FEFECE" height="5" style="stroke: #A80036; stroke-width: 1.5;" width="10" x="884" y="312.02"/><rect fill="#FEFECE" height="5" style="stroke: #A80036; stroke-width: 1.5;" width="10" x="884" y="333.5083"/><text fill="#000000" font-family="sans-serif" font-size="14" lengthAdjust="spacingAndGlyphs" textLength="68" x="899" y="330.5552">Transport</text><rect fill="#FEFECE" filter="url(#fv8znk1glpl9q)" height="36.4883" style="stroke: #A80036; stroke-width: 1.5;" width="60" x="1148" y="512.51"/><rect fill="#FEFECE" height="5" style="stroke: #A80036; stroke-width: 1.5;" width="10" x="1143" y="517.51"/><rect fill="#FEFECE" height="5" style="stroke: #A80036; stroke-width: 1.5;" width="10" x="1143" y="538.9983"/><text fill="#000000" font-family="sans-serif" font-size="14" lengthAdjust="spacingAndGlyphs" textLength="40" x="1158" y="536.0452">Stripe</text><rect fill="#FEFECE" filter="url(#fv8znk1glpl9q)" height="36.4883" style="stroke: #A80036; stroke-width: 1.5;" width="83" x="677.5" y="165.54"/><rect fill="#FEFECE" height="5" style="stroke: #A80036; stroke-width: 1.5;" width="10" x="672.5" y="170.54"/><rect fill="#FEFECE" height="5" style="stroke: #A80036; stroke-width: 1.5;" width="10" x="672.5" y="192.0283"/><text fill="#000000" font-family="sans-serif" font-size="14" lengthAdjust="spacingAndGlyphs" textLength="63" x="687.5" y="189.0752">Bookings</text><rect fill="#FEFECE" filter="url(#fv8znk1glpl9q)" height="36.4883" style="stroke: #A80036; stroke-width: 1.5;" width="58" x="584" y="165.54"/><rect fill="#FEFECE" height="5" style="stroke: #A80036; stroke-width: 1.5;" width="10" x="579" y="170.54"/><rect fill="#FEFECE" height="5" style="stroke: #A80036; stroke-width: 1.5;" width="10" x="579" y="192.0283"/><text fill="#000000" font-family="sans-serif" font-size="14" lengthAdjust="spacingAndGlyphs" textLength="38" x="594" y="189.0752">Mode</text><rect fill="#FEFECE" filter="url(#fv8znk1glpl9q)" height="36.4883" style="stroke: #A80036; stroke-width: 1.5;" width="66" x="351" y="165.54"/><rect fill="#FEFECE" height="5" style="stroke: #A80036; stroke-width: 1.5;" width="10" x="346" y="170.54"/><rect fill="#FEFECE" height="5" style="stroke: #A80036; stroke-width: 1.5;" width="10" x="346" y="192.0283"/><text fill="#000000" font-family="sans-serif" font-size="14" lengthAdjust="spacingAndGlyphs" textLength="46" x="361" y="189.0752">Search</text><rect fill="#FEFECE" filter="url(#fv8znk1glpl9q)" height="36.4883" style="stroke: #A80036; stroke-width: 1.5;" width="77" x="451.5" y="165.54"/><rect fill="#FEFECE" height="5" style="stroke: #A80036; stroke-width: 1.5;" width="10" x="446.5" y="170.54"/><rect fill="#FEFECE" height="5" style="stroke: #A80036; stroke-width: 1.5;" width="10" x="446.5" y="192.0283"/><text fill="#000000" font-family="sans-serif" font-size="14" lengthAdjust="spacingAndGlyphs" textLength="57" x="461.5" y="189.0752">Filtering</text><rect fill="#FEFECE" filter="url(#fv8znk1glpl9q)" height="36.4883" style="stroke: #A80036; stroke-width: 1.5;" width="47" x="360.5" y="307.02"/><rect fill="#FEFECE" height="5" style="stroke: #A80036; stroke-width: 1.5;" width="10" x="355.5" y="312.02"/><rect fill="#FEFECE" height="5" style="stroke: #A80036; stroke-width: 1.5;" width="10" x="355.5" y="333.5083"/><text fill="#000000" font-family="sans-serif" font-size="14" lengthAdjust="spacingAndGlyphs" textLength="27" x="370.5" y="330.5552">Info</text><rect fill="#FEFECE" filter="url(#fv8znk1glpl9q)" height="36.4883" style="stroke: #A80036; stroke-width: 1.5;" width="78" x="442" y="307.02"/><rect fill="#FEFECE" height="5" style="stroke: #A80036; stroke-width: 1.5;" width="10" x="437" y="312.02"/><rect fill="#FEFECE" height="5" style="stroke: #A80036; stroke-width: 1.5;" width="10" x="437" y="333.5083"/><text fill="#000000" font-family="sans-serif" font-size="14" lengthAdjust="spacingAndGlyphs" textLength="58" x="452" y="330.5552">Location</text><rect fill="#FEFECE" filter="url(#fv8znk1glpl9q)" height="36.4883" style="stroke: #A80036; stroke-width: 1.5;" width="58" x="102" y="165.54"/><rect fill="#FEFECE" height="5" style="stroke: #A80036; stroke-width: 1.5;" width="10" x="97" y="170.54"/><rect fill="#FEFECE" height="5" style="stroke: #A80036; stroke-width: 1.5;" width="10" x="97" y="192.0283"/><text fill="#000000" font-family="sans-serif" font-size="14" lengthAdjust="spacingAndGlyphs" textLength="38" x="112" y="189.0752">Login</text><rect fill="#FEFECE" filter="url(#fv8znk1glpl9q)" height="36.4883" style="stroke: #A80036; stroke-width: 1.5;" width="100" x="195" y="165.54"/><rect fill="#FEFECE" height="5" style="stroke: #A80036; stroke-width: 1.5;" width="10" x="190" y="170.54"/><rect fill="#FEFECE" height="5" style="stroke: #A80036; stroke-width: 1.5;" width="10" x="190" y="192.0283"/><text fill="#000000" font-family="sans-serif" font-size="14" lengthAdjust="spacingAndGlyphs" textLength="80" x="205" y="189.0752">Preferences</text><rect fill="#FEFECE" filter="url(#fv8znk1glpl9q)" height="36.4883" style="stroke: #A80036; stroke-width: 1.5;" width="113" x="101.5" y="307.02"/><rect fill="#FEFECE" height="5" style="stroke: #A80036; stroke-width: 1.5;" width="10" x="96.5" y="312.02"/><rect fill="#FEFECE" height="5" style="stroke: #A80036; stroke-width: 1.5;" width="10" x="96.5" y="333.5083"/><text fill="#000000" font-family="sans-serif" font-size="14" lengthAdjust="spacingAndGlyphs" textLength="93" x="111.5" y="330.5552">Subscriptions</text><rect fill="#FEFECE" filter="url(#fv8znk1glpl9q)" height="36.4883" style="stroke: #A80036; stroke-width: 1.5;" width="78" x="1339" y="307.02"/><rect fill="#FEFECE" height="5" style="stroke: #A80036; stroke-width: 1.5;" width="10" x="1334" y="312.02"/><rect fill="#FEFECE" height="5" style="stroke: #A80036; stroke-width: 1.5;" width="10" x="1334" y="333.5083"/><text fill="#000000" font-family="sans-serif" font-size="14" lengthAdjust="spacingAndGlyphs" textLength="58" x="1349" y="330.5552">Firebase</text><rect fill="#FEFECE" filter="url(#fv8znk1glpl9q)" height="36.4883" style="stroke: #A80036; stroke-width: 1.5;" width="134" x="1170" y="307.02"/><rect fill="#FEFECE" height="5" style="stroke: #A80036; stroke-width: 1.5;" width="10" x="1165" y="312.02"/><rect fill="#FEFECE" height="5" style="stroke: #A80036; stroke-width: 1.5;" width="10" x="1165" y="333.5083"/><text fill="#000000" font-family="sans-serif" font-size="14" lengthAdjust="spacingAndGlyphs" textLength="114" x="1180" y="330.5552">FirebaseConsole</text><path d="M841.1295,185.2526 C842.0885,185.3106 843.1276,185.374 844.2443,185.4428 C846.4775,185.5803 849.0208,185.7394 851.8537,185.9204 C863.1852,186.6445 879.1498,187.7187 898.4359,189.1617 C937.0081,192.0478 988.8663,196.4094 1043.5175,202.3963 C1152.82,214.37 1273.295,232.845 1321,259.02 C1341.31,270.17 1357.81,291.51 1367.74,306.76 " fill="none" id="a-f" style="stroke: #A80036; stroke-width: 1.0;"/><text fill="#000000" font-family="sans-serif" font-size="13" lengthAdjust="spacingAndGlyphs" textLength="40" x="1301" y="247.5884">HTTPS</text><path d="M841.2188,196.2484 C841.3915,196.4893 841.5665,196.7334 841.7437,196.9806 C842.4526,197.9695 843.1976,199.0086 843.9758,200.0941 C850.2016,208.7781 858.5581,220.4337 867.6663,233.1375 C885.8825,258.545 907.105,288.145 920.3,306.55 " fill="none" id="a-b" style="stroke: #A80036; stroke-width: 1.0;"/><text fill="#000000" font-family="sans-serif" font-size="13" lengthAdjust="spacingAndGlyphs" textLength="40" x="882" y="247.5884">HTTPS</text><path d="M841.2911,186.9219 C841.4084,186.9537 841.5268,186.9859 841.6463,187.0184 C841.8853,187.0834 842.1288,187.1499 842.3767,187.2178 C842.8725,187.3536 843.3858,187.4951 843.9161,187.6424 C846.0375,188.2315 848.4317,188.9125 851.0658,189.6863 C861.6022,192.7813 875.9781,197.36 892.0988,203.475 C924.34,215.705 963.56,234.08 993,259.02 C998.86,263.99 1126.54,453.31 1166.29,512.36 " fill="none" id="a-s" style="stroke: #A80036; stroke-width: 1.0;"/><text fill="#000000" font-family="sans-serif" font-size="13" lengthAdjust="spacingAndGlyphs" textLength="40" x="1110" y="330.3384">HTTPS</text><path d="M1371.49,343.86 C1362.62,366.12 1345.04,404.79 1321,431.51 C1288.37,467.79 1239.77,497.49 1208.48,514.42 " fill="none" id="f-s" style="stroke: #A80036; stroke-width: 1.0;"/><text fill="#000000" font-family="sans-serif" font-size="13" lengthAdjust="spacingAndGlyphs" textLength="40" x="1312" y="453.0784">HTTPS</text></g></svg>