<?xml version="1.0" encoding="UTF-8" standalone="no"?><svg xmlns="http://www.w3.org/2000/svg" xmlns:xlink="http://www.w3.org/1999/xlink" contentScriptType="application/ecmascript" contentStyleType="text/css" height="1517px" preserveAspectRatio="none" style="width:2440px;height:1517px;" version="1.1" viewBox="0 0 2440 1517" width="2440px" zoomAndPan="magnify"><defs/><g><rect fill="#DDDDDD" height="1502.3047" style="stroke: #383838; stroke-width: 1.0;" width="1078" x="4" y="4"/><text fill="#000000" font-family="Courier" font-size="13" font-weight="bold" lengthAdjust="spacingAndGlyphs" textLength="112" x="487" y="16.0669">User Interface</text><rect fill="#DDDDDD" height="1502.3047" style="stroke: #383838; stroke-width: 1.0;" width="486" x="1702" y="4"/><text fill="#000000" font-family="Courier" font-size="13" font-weight="bold" lengthAdjust="spacingAndGlyphs" textLength="24" x="1933" y="16.0669">API</text><line style="stroke: #383838; stroke-width: 1.0; stroke-dasharray: 5.0,5.0;" x1="27" x2="27" y1="102.4297" y2="1424.0078"/><line style="stroke: #383838; stroke-width: 1.0; stroke-dasharray: 5.0,5.0;" x1="355" x2="355" y1="102.4297" y2="1424.0078"/><line style="stroke: #383838; stroke-width: 1.0; stroke-dasharray: 5.0,5.0;" x1="423" x2="423" y1="102.4297" y2="1424.0078"/><line style="stroke: #383838; stroke-width: 1.0; stroke-dasharray: 5.0,5.0;" x1="507" x2="507" y1="102.4297" y2="1424.0078"/><line style="stroke: #383838; stroke-width: 1.0; stroke-dasharray: 5.0,5.0;" x1="583" x2="583" y1="102.4297" y2="1424.0078"/><line style="stroke: #383838; stroke-width: 1.0; stroke-dasharray: 5.0,5.0;" x1="655" x2="655" y1="102.4297" y2="1424.0078"/><line style="stroke: #383838; stroke-width: 1.0; stroke-dasharray: 5.0,5.0;" x1="763" x2="763" y1="102.4297" y2="1424.0078"/><line style="stroke: #383838; stroke-width: 1.0; stroke-dasharray: 5.0,5.0;" x1="883" x2="883" y1="102.4297" y2="1424.0078"/><line style="stroke: #383838; stroke-width: 1.0; stroke-dasharray: 5.0,5.0;" x1="983" x2="983" y1="102.4297" y2="1424.0078"/><line style="stroke: #383838; stroke-width: 1.0; stroke-dasharray: 5.0,5.0;" x1="1055" x2="1055" y1="102.4297" y2="1424.0078"/><line style="stroke: #383838; stroke-width: 1.0; stroke-dasharray: 5.0,5.0;" x1="1119" x2="1119" y1="102.4297" y2="1424.0078"/><line style="stroke: #383838; stroke-width: 1.0; stroke-dasharray: 5.0,5.0;" x1="1203" x2="1203" y1="102.4297" y2="1424.0078"/><line style="stroke: #383838; stroke-width: 1.0; stroke-dasharray: 5.0,5.0;" x1="1311" x2="1311" y1="102.4297" y2="1424.0078"/><line style="stroke: #383838; stroke-width: 1.0; stroke-dasharray: 5.0,5.0;" x1="1551" x2="1551" y1="102.4297" y2="1424.0078"/><line style="stroke: #383838; stroke-width: 1.0; stroke-dasharray: 5.0,5.0;" x1="1741" x2="1741" y1="102.4297" y2="1424.0078"/><line style="stroke: #383838; stroke-width: 1.0; stroke-dasharray: 5.0,5.0;" x1="1829" x2="1829" y1="102.4297" y2="1424.0078"/><line style="stroke: #383838; stroke-width: 1.0; stroke-dasharray: 5.0,5.0;" x1="1925" x2="1925" y1="102.4297" y2="1424.0078"/><line style="stroke: #383838; stroke-width: 1.0; stroke-dasharray: 5.0,5.0;" x1="2033" x2="2033" y1="102.4297" y2="1424.0078"/><line style="stroke: #383838; stroke-width: 1.0; stroke-dasharray: 5.0,5.0;" x1="2141" x2="2141" y1="102.4297" y2="1424.0078"/><line style="stroke: #383838; stroke-width: 1.0; stroke-dasharray: 5.0,5.0;" x1="2229" x2="2229" y1="102.4297" y2="1424.0078"/><text fill="#000000" font-family="Courier" font-size="14" lengthAdjust="spacingAndGlyphs" textLength="32" x="8" y="99.1279">user</text><ellipse cx="27" cy="33.1328" fill="#F8F8F8" rx="8" ry="8" style="stroke: #383838; stroke-width: 2.0;"/><path d="M27,41.1328 L27,68.1328 M14,49.1328 L40,49.1328 M27,68.1328 L14,83.1328 M27,68.1328 L40,83.1328 " fill="none" style="stroke: #383838; stroke-width: 2.0;"/><text fill="#000000" font-family="Courier" font-size="14" lengthAdjust="spacingAndGlyphs" textLength="32" x="8" y="1436.0029">user</text><ellipse cx="27" cy="1449.3047" fill="#F8F8F8" rx="8" ry="8" style="stroke: #383838; stroke-width: 2.0;"/><path d="M27,1457.3047 L27,1484.3047 M14,1465.3047 L40,1465.3047 M27,1484.3047 L14,1499.3047 M27,1484.3047 L40,1499.3047 " fill="none" style="stroke: #383838; stroke-width: 2.0;"/><rect fill="#F8F8F8" height="30.2969" style="stroke: #383838; stroke-width: 1.5;" width="54" x="328" y="71.1328"/><text fill="#000000" font-family="Courier" font-size="14" lengthAdjust="spacingAndGlyphs" textLength="40" x="335" y="91.1279">Login</text><rect fill="#F8F8F8" height="30.2969" style="stroke: #383838; stroke-width: 1.5;" width="54" x="328" y="1423.0078"/><text fill="#000000" font-family="Courier" font-size="14" lengthAdjust="spacingAndGlyphs" textLength="40" x="335" y="1443.0029">Login</text><rect fill="#F8F8F8" height="30.2969" style="stroke: #383838; stroke-width: 1.5;" width="62" x="392" y="71.1328"/><text fill="#000000" font-family="Courier" font-size="14" lengthAdjust="spacingAndGlyphs" textLength="48" x="399" y="91.1279">Search</text><rect fill="#F8F8F8" height="30.2969" style="stroke: #383838; stroke-width: 1.5;" width="62" x="392" y="1423.0078"/><text fill="#000000" font-family="Courier" font-size="14" lengthAdjust="spacingAndGlyphs" textLength="48" x="399" y="1443.0029">Search</text><rect fill="#F8F8F8" height="30.2969" style="stroke: #383838; stroke-width: 1.5;" width="86" x="464" y="71.1328"/><text fill="#000000" font-family="Courier" font-size="14" lengthAdjust="spacingAndGlyphs" textLength="72" x="471" y="91.1279">Filtering</text><rect fill="#F8F8F8" height="30.2969" style="stroke: #383838; stroke-width: 1.5;" width="86" x="464" y="1423.0078"/><text fill="#000000" font-family="Courier" font-size="14" lengthAdjust="spacingAndGlyphs" textLength="72" x="471" y="1443.0029">Filtering</text><rect fill="#F8F8F8" height="30.2969" style="stroke: #383838; stroke-width: 1.5;" width="46" x="560" y="71.1328"/><text fill="#000000" font-family="Courier" font-size="14" lengthAdjust="spacingAndGlyphs" textLength="32" x="567" y="91.1279">Info</text><rect fill="#F8F8F8" height="30.2969" style="stroke: #383838; stroke-width: 1.5;" width="46" x="560" y="1423.0078"/><text fill="#000000" font-family="Courier" font-size="14" lengthAdjust="spacingAndGlyphs" textLength="32" x="567" y="1443.0029">Info</text><rect fill="#F8F8F8" height="30.2969" style="stroke: #383838; stroke-width: 1.5;" width="78" x="616" y="71.1328"/><text fill="#000000" font-family="Courier" font-size="14" lengthAdjust="spacingAndGlyphs" textLength="64" x="623" y="91.1279">Location</text><rect fill="#F8F8F8" height="30.2969" style="stroke: #383838; stroke-width: 1.5;" width="78" x="616" y="1423.0078"/><text fill="#000000" font-family="Courier" font-size="14" lengthAdjust="spacingAndGlyphs" textLength="64" x="623" y="1443.0029">Location</text><rect fill="#F8F8F8" height="30.2969" style="stroke: #383838; stroke-width: 1.5;" width="118" x="704" y="71.1328"/><text fill="#000000" font-family="Courier" font-size="14" lengthAdjust="spacingAndGlyphs" textLength="104" x="711" y="91.1279">Subscriptions</text><rect fill="#F8F8F8" height="30.2969" style="stroke: #383838; stroke-width: 1.5;" width="118" x="704" y="1423.0078"/><text fill="#000000" font-family="Courier" font-size="14" lengthAdjust="spacingAndGlyphs" textLength="104" x="711" y="1443.0029">Subscriptions</text><rect fill="#F8F8F8" height="30.2969" style="stroke: #383838; stroke-width: 1.5;" width="102" x="832" y="71.1328"/><text fill="#000000" font-family="Courier" font-size="14" lengthAdjust="spacingAndGlyphs" textLength="88" x="839" y="91.1279">Preferences</text><rect fill="#F8F8F8" height="30.2969" style="stroke: #383838; stroke-width: 1.5;" width="102" x="832" y="1423.0078"/><text fill="#000000" font-family="Courier" font-size="14" lengthAdjust="spacingAndGlyphs" textLength="88" x="839" y="1443.0029">Preferences</text><rect fill="#F8F8F8" height="30.2969" style="stroke: #383838; stroke-width: 1.5;" width="78" x="944" y="71.1328"/><text fill="#000000" font-family="Courier" font-size="14" lengthAdjust="spacingAndGlyphs" textLength="64" x="951" y="91.1279">Bookings</text><rect fill="#F8F8F8" height="30.2969" style="stroke: #383838; stroke-width: 1.5;" width="78" x="944" y="1423.0078"/><text fill="#000000" font-family="Courier" font-size="14" lengthAdjust="spacingAndGlyphs" textLength="64" x="951" y="1443.0029">Bookings</text><rect fill="#F8F8F8" height="30.2969" style="stroke: #383838; stroke-width: 1.5;" width="46" x="1032" y="71.1328"/><text fill="#000000" font-family="Courier" font-size="14" lengthAdjust="spacingAndGlyphs" textLength="32" x="1039" y="91.1279">Mode</text><rect fill="#F8F8F8" height="30.2969" style="stroke: #383838; stroke-width: 1.5;" width="46" x="1032" y="1423.0078"/><text fill="#000000" font-family="Courier" font-size="14" lengthAdjust="spacingAndGlyphs" textLength="32" x="1039" y="1443.0029">Mode</text><rect fill="#F8F8F8" height="30.2969" style="stroke: #383838; stroke-width: 1.5;" width="62" x="1088" y="71.1328"/><text fill="#000000" font-family="Courier" font-size="14" lengthAdjust="spacingAndGlyphs" textLength="48" x="1095" y="91.1279">Stripe</text><rect fill="#F8F8F8" height="30.2969" style="stroke: #383838; stroke-width: 1.5;" width="62" x="1088" y="1423.0078"/><text fill="#000000" font-family="Courier" font-size="14" lengthAdjust="spacingAndGlyphs" textLength="48" x="1095" y="1443.0029">Stripe</text><rect fill="#F8F8F8" height="30.2969" style="stroke: #383838; stroke-width: 1.5;" width="86" x="1160" y="71.1328"/><text fill="#000000" font-family="Courier" font-size="14" lengthAdjust="spacingAndGlyphs" textLength="72" x="1167" y="91.1279">Transport</text><rect fill="#F8F8F8" height="30.2969" style="stroke: #383838; stroke-width: 1.5;" width="86" x="1160" y="1423.0078"/><text fill="#000000" font-family="Courier" font-size="14" lengthAdjust="spacingAndGlyphs" textLength="72" x="1167" y="1443.0029">Transport</text><rect fill="#F8F8F8" height="30.2969" style="stroke: #383838; stroke-width: 1.5;" width="110" x="1256" y="71.1328"/><text fill="#000000" font-family="Courier" font-size="14" lengthAdjust="spacingAndGlyphs" textLength="96" x="1263" y="91.1279">LoadBalancer</text><rect fill="#F8F8F8" height="30.2969" style="stroke: #383838; stroke-width: 1.5;" width="110" x="1256" y="1423.0078"/><text fill="#000000" font-family="Courier" font-size="14" lengthAdjust="spacingAndGlyphs" textLength="96" x="1263" y="1443.0029">LoadBalancer</text><rect fill="#F8F8F8" height="30.2969" style="stroke: #383838; stroke-width: 1.5;" width="86" x="1508" y="71.1328"/><text fill="#000000" font-family="Courier" font-size="14" lengthAdjust="spacingAndGlyphs" textLength="72" x="1515" y="91.1279">Directory</text><rect fill="#F8F8F8" height="30.2969" style="stroke: #383838; stroke-width: 1.5;" width="86" x="1508" y="1423.0078"/><text fill="#000000" font-family="Courier" font-size="14" lengthAdjust="spacingAndGlyphs" textLength="72" x="1515" y="1443.0029">Directory</text><rect fill="#F8F8F8" height="30.2969" style="stroke: #383838; stroke-width: 1.5;" width="70" x="1706" y="71.1328"/><text fill="#000000" font-family="Courier" font-size="14" lengthAdjust="spacingAndGlyphs" textLength="56" x="1713" y="91.1279">MapsAPI</text><rect fill="#F8F8F8" height="30.2969" style="stroke: #383838; stroke-width: 1.5;" width="70" x="1706" y="1423.0078"/><text fill="#000000" font-family="Courier" font-size="14" lengthAdjust="spacingAndGlyphs" textLength="56" x="1713" y="1443.0029">MapsAPI</text><rect fill="#F8F8F8" height="30.2969" style="stroke: #383838; stroke-width: 1.5;" width="86" x="1786" y="71.1328"/><text fill="#000000" font-family="Courier" font-size="14" lengthAdjust="spacingAndGlyphs" textLength="72" x="1793" y="91.1279">PlacesAPI</text><rect fill="#F8F8F8" height="30.2969" style="stroke: #383838; stroke-width: 1.5;" width="86" x="1786" y="1423.0078"/><text fill="#000000" font-family="Courier" font-size="14" lengthAdjust="spacingAndGlyphs" textLength="72" x="1793" y="1443.0029">PlacesAPI</text><rect fill="#F8F8F8" height="30.2969" style="stroke: #383838; stroke-width: 1.5;" width="86" x="1882" y="71.1328"/><text fill="#000000" font-family="Courier" font-size="14" lengthAdjust="spacingAndGlyphs" textLength="72" x="1889" y="91.1279">HotelsAPI</text><rect fill="#F8F8F8" height="30.2969" style="stroke: #383838; stroke-width: 1.5;" width="86" x="1882" y="1423.0078"/><text fill="#000000" font-family="Courier" font-size="14" lengthAdjust="spacingAndGlyphs" textLength="72" x="1889" y="1443.0029">HotelsAPI</text><rect fill="#F8F8F8" height="30.2969" style="stroke: #383838; stroke-width: 1.5;" width="110" x="1978" y="71.1328"/><text fill="#000000" font-family="Courier" font-size="14" lengthAdjust="spacingAndGlyphs" textLength="96" x="1985" y="91.1279">TransportAPI</text><rect fill="#F8F8F8" height="30.2969" style="stroke: #383838; stroke-width: 1.5;" width="110" x="1978" y="1423.0078"/><text fill="#000000" font-family="Courier" font-size="14" lengthAdjust="spacingAndGlyphs" textLength="96" x="1985" y="1443.0029">TransportAPI</text><rect fill="#F8F8F8" height="30.2969" style="stroke: #383838; stroke-width: 1.5;" width="86" x="2098" y="71.1328"/><text fill="#000000" font-family="Courier" font-size="14" lengthAdjust="spacingAndGlyphs" textLength="72" x="2105" y="91.1279">StripeAPI</text><rect fill="#F8F8F8" height="30.2969" style="stroke: #383838; stroke-width: 1.5;" width="86" x="2098" y="1423.0078"/><text fill="#000000" font-family="Courier" font-size="14" lengthAdjust="spacingAndGlyphs" textLength="72" x="2105" y="1443.0029">StripeAPI</text><text fill="#000000" font-family="Courier" font-size="14" lengthAdjust="spacingAndGlyphs" textLength="64" x="2194" y="99.1279">Firebase</text><path d="M2211,50.1328 C2211,40.1328 2229,40.1328 2229,40.1328 C2229,40.1328 2247,40.1328 2247,50.1328 L2247,76.1328 C2247,86.1328 2229,86.1328 2229,86.1328 C2229,86.1328 2211,86.1328 2211,76.1328 L2211,50.1328 " fill="#7F7F7F" style="stroke: #000000; stroke-width: 1.5;"/><path d="M2211,50.1328 C2211,60.1328 2229,60.1328 2229,60.1328 C2229,60.1328 2247,60.1328 2247,50.1328 " fill="none" style="stroke: #000000; stroke-width: 1.5;"/><text fill="#000000" font-family="Courier" font-size="14" lengthAdjust="spacingAndGlyphs" textLength="64" x="2194" y="1436.0029">Firebase</text><path d="M2211,1449.3047 C2211,1439.3047 2229,1439.3047 2229,1439.3047 C2229,1439.3047 2247,1439.3047 2247,1449.3047 L2247,1475.3047 C2247,1485.3047 2229,1485.3047 2229,1485.3047 C2229,1485.3047 2211,1485.3047 2211,1475.3047 L2211,1449.3047 " fill="#7F7F7F" style="stroke: #000000; stroke-width: 1.5;"/><path d="M2211,1449.3047 C2211,1459.3047 2229,1459.3047 2229,1459.3047 C2229,1459.3047 2247,1459.3047 2247,1449.3047 " fill="none" style="stroke: #000000; stroke-width: 1.5;"/><polygon fill="#383838" points="343,129.5625,353,133.5625,343,137.5625,347,133.5625" style="stroke: #383838; stroke-width: 1.0;"/><line style="stroke: #383838; stroke-width: 1.0;" x1="27" x2="349" y1="133.5625" y2="133.5625"/><text fill="#000000" font-family="Courier" font-size="13" lengthAdjust="spacingAndGlyphs" textLength="304" x="34" y="128.4966">User inputs authentication credentials</text><polygon fill="#383838" points="2217,158.6953,2227,162.6953,2217,166.6953,2221,162.6953" style="stroke: #383838; stroke-width: 1.0;"/><line style="stroke: #383838; stroke-width: 1.0;" x1="355" x2="2223" y1="162.6953" y2="162.6953"/><text fill="#000000" font-family="Courier" font-size="13" lengthAdjust="spacingAndGlyphs" textLength="160" x="362" y="157.6294">Begin Authentication</text><polygon fill="#383838" points="366,187.8281,356,191.8281,366,195.8281,362,191.8281" style="stroke: #383838; stroke-width: 1.0;"/><line style="stroke: #383838; stroke-width: 1.0;" x1="360" x2="2228" y1="191.8281" y2="191.8281"/><text fill="#000000" font-family="Courier" font-size="13" lengthAdjust="spacingAndGlyphs" textLength="248" x="372" y="186.7622">User successfully authenticated</text><polygon fill="#383838" points="971,216.9609,981,220.9609,971,224.9609,975,220.9609" style="stroke: #383838; stroke-width: 1.0;"/><line style="stroke: #383838; stroke-width: 1.0;" x1="27" x2="977" y1="220.9609" y2="220.9609"/><text fill="#000000" font-family="Courier" font-size="13" lengthAdjust="spacingAndGlyphs" textLength="312" x="34" y="215.895">User sends request for tour information</text><polygon fill="#383838" points="1299,246.0938,1309,250.0938,1299,254.0938,1303,250.0938" style="stroke: #383838; stroke-width: 1.0;"/><line style="stroke: #383838; stroke-width: 1.0;" x1="983" x2="1305" y1="250.0938" y2="250.0938"/><text fill="#000000" font-family="Courier" font-size="13" lengthAdjust="spacingAndGlyphs" textLength="296" x="990" y="245.0278">Request forwaded to the load balancer</text><polygon fill="#383838" points="1539,275.2266,1549,279.2266,1539,283.2266,1543,279.2266" style="stroke: #383838; stroke-width: 1.0;"/><line style="stroke: #383838; stroke-width: 1.0;" x1="1311" x2="1545" y1="279.2266" y2="279.2266"/><text fill="#000000" font-family="Courier" font-size="13" lengthAdjust="spacingAndGlyphs" textLength="144" x="1318" y="274.1606">Find active server</text><line style="stroke: #383838; stroke-width: 1.0;" x1="1551" x2="1593" y1="308.3594" y2="308.3594"/><line style="stroke: #383838; stroke-width: 1.0;" x1="1593" x2="1593" y1="308.3594" y2="321.3594"/><line style="stroke: #383838; stroke-width: 1.0;" x1="1552" x2="1593" y1="321.3594" y2="321.3594"/><polygon fill="#383838" points="1562,317.3594,1552,321.3594,1562,325.3594,1558,321.3594" style="stroke: #383838; stroke-width: 1.0;"/><text fill="#000000" font-family="Courier" font-size="13" lengthAdjust="spacingAndGlyphs" textLength="176" x="1558" y="303.2935">Get server information</text><polygon fill="#383838" points="1322,346.4922,1312,350.4922,1322,354.4922,1318,350.4922" style="stroke: #383838; stroke-width: 1.0;"/><line style="stroke: #383838; stroke-width: 1.0; stroke-dasharray: 2.0,2.0;" x1="1316" x2="1550" y1="350.4922" y2="350.4922"/><text fill="#000000" font-family="Courier" font-size="13" lengthAdjust="spacingAndGlyphs" textLength="216" x="1328" y="345.4263">Send server info and status</text><polygon fill="#383838" points="1817,375.625,1827,379.625,1817,383.625,1821,379.625" style="stroke: #383838; stroke-width: 1.0;"/><line style="stroke: #383838; stroke-width: 1.0;" x1="1311" x2="1823" y1="379.625" y2="379.625"/><text fill="#000000" font-family="Courier" font-size="13" lengthAdjust="spacingAndGlyphs" textLength="112" x="1318" y="374.5591">Get Tourinfo()</text><polygon fill="#383838" points="2217,404.7578,2227,408.7578,2217,412.7578,2221,408.7578" style="stroke: #383838; stroke-width: 1.0;"/><line style="stroke: #383838; stroke-width: 1.0;" x1="1829" x2="2223" y1="408.7578" y2="408.7578"/><text fill="#000000" font-family="Courier" font-size="13" lengthAdjust="spacingAndGlyphs" textLength="264" x="1836" y="403.6919">Retrieve Tourinfo() from database</text><polygon fill="#383838" points="1840,433.8906,1830,437.8906,1840,441.8906,1836,437.8906" style="stroke: #383838; stroke-width: 1.0;"/><line style="stroke: #383838; stroke-width: 1.0; stroke-dasharray: 2.0,2.0;" x1="1834" x2="2228" y1="437.8906" y2="437.8906"/><text fill="#000000" font-family="Courier" font-size="13" lengthAdjust="spacingAndGlyphs" textLength="144" x="1846" y="432.8247">Send relevant info</text><polygon fill="#383838" points="38,463.0234,28,467.0234,38,471.0234,34,467.0234" style="stroke: #383838; stroke-width: 1.0;"/><line style="stroke: #383838; stroke-width: 1.0;" x1="32" x2="1828" y1="467.0234" y2="467.0234"/><text fill="#000000" font-family="Courier" font-size="13" lengthAdjust="spacingAndGlyphs" textLength="216" x="44" y="461.9575">Display information to user</text><polygon fill="#383838" points="643,492.1563,653,496.1563,643,500.1563,647,496.1563" style="stroke: #383838; stroke-width: 1.0;"/><line style="stroke: #383838; stroke-width: 1.0;" x1="27" x2="649" y1="496.1563" y2="496.1563"/><text fill="#000000" font-family="Courier" font-size="13" lengthAdjust="spacingAndGlyphs" textLength="288" x="34" y="491.0903">User clicks on directions for a shop</text><polygon fill="#383838" points="1299,521.2891,1309,525.2891,1299,529.2891,1303,525.2891" style="stroke: #383838; stroke-width: 1.0;"/><line style="stroke: #383838; stroke-width: 1.0;" x1="655" x2="1305" y1="525.2891" y2="525.2891"/><text fill="#000000" font-family="Courier" font-size="13" lengthAdjust="spacingAndGlyphs" textLength="296" x="662" y="520.2231">Request forwaded to the load balancer</text><polygon fill="#383838" points="1539,550.4219,1549,554.4219,1539,558.4219,1543,554.4219" style="stroke: #383838; stroke-width: 1.0;"/><line style="stroke: #383838; stroke-width: 1.0;" x1="1311" x2="1545" y1="554.4219" y2="554.4219"/><text fill="#000000" font-family="Courier" font-size="13" lengthAdjust="spacingAndGlyphs" textLength="144" x="1318" y="549.356">Find active server</text><line style="stroke: #383838; stroke-width: 1.0;" x1="1551" x2="1593" y1="583.5547" y2="583.5547"/><line style="stroke: #383838; stroke-width: 1.0;" x1="1593" x2="1593" y1="583.5547" y2="596.5547"/><line style="stroke: #383838; stroke-width: 1.0;" x1="1552" x2="1593" y1="596.5547" y2="596.5547"/><polygon fill="#383838" points="1562,592.5547,1552,596.5547,1562,600.5547,1558,596.5547" style="stroke: #383838; stroke-width: 1.0;"/><text fill="#000000" font-family="Courier" font-size="13" lengthAdjust="spacingAndGlyphs" textLength="176" x="1558" y="578.4888">Get server information</text><polygon fill="#383838" points="1322,621.6875,1312,625.6875,1322,629.6875,1318,625.6875" style="stroke: #383838; stroke-width: 1.0;"/><line style="stroke: #383838; stroke-width: 1.0; stroke-dasharray: 2.0,2.0;" x1="1316" x2="1550" y1="625.6875" y2="625.6875"/><text fill="#000000" font-family="Courier" font-size="13" lengthAdjust="spacingAndGlyphs" textLength="216" x="1328" y="620.6216">Send server info and status</text><polygon fill="#383838" points="1729,650.8203,1739,654.8203,1729,658.8203,1733,654.8203" style="stroke: #383838; stroke-width: 1.0;"/><line style="stroke: #383838; stroke-width: 1.0;" x1="1311" x2="1735" y1="654.8203" y2="654.8203"/><text fill="#000000" font-family="Courier" font-size="13" lengthAdjust="spacingAndGlyphs" textLength="112" x="1318" y="649.7544">Get Location()</text><polygon fill="#383838" points="2217,679.9531,2227,683.9531,2217,687.9531,2221,683.9531" style="stroke: #383838; stroke-width: 1.0;"/><line style="stroke: #383838; stroke-width: 1.0;" x1="1741" x2="2223" y1="683.9531" y2="683.9531"/><text fill="#000000" font-family="Courier" font-size="13" lengthAdjust="spacingAndGlyphs" textLength="152" x="1748" y="678.8872">Retrieve Location()</text><line style="stroke: #383838; stroke-width: 1.0;" x1="2229" x2="2271" y1="713.0859" y2="713.0859"/><line style="stroke: #383838; stroke-width: 1.0;" x1="2271" x2="2271" y1="713.0859" y2="726.0859"/><line style="stroke: #383838; stroke-width: 1.0;" x1="2230" x2="2271" y1="726.0859" y2="726.0859"/><polygon fill="#383838" points="2240,722.0859,2230,726.0859,2240,730.0859,2236,726.0859" style="stroke: #383838; stroke-width: 1.0;"/><text fill="#000000" font-family="Courier" font-size="13" lengthAdjust="spacingAndGlyphs" textLength="192" x="2236" y="708.02">Map Location() to shopid</text><polygon fill="#383838" points="1752,751.2188,1742,755.2188,1752,759.2188,1748,755.2188" style="stroke: #383838; stroke-width: 1.0;"/><line style="stroke: #383838; stroke-width: 1.0; stroke-dasharray: 2.0,2.0;" x1="1746" x2="2228" y1="755.2188" y2="755.2188"/><text fill="#000000" font-family="Courier" font-size="13" lengthAdjust="spacingAndGlyphs" textLength="144" x="1758" y="750.1528">Send shop location</text><polygon fill="#383838" points="38,780.3516,28,784.3516,38,788.3516,34,784.3516" style="stroke: #383838; stroke-width: 1.0;"/><line style="stroke: #383838; stroke-width: 1.0;" x1="32" x2="1740" y1="784.3516" y2="784.3516"/><text fill="#000000" font-family="Courier" font-size="13" lengthAdjust="spacingAndGlyphs" textLength="192" x="44" y="779.2856">Display location to user</text><polygon fill="#383838" points="571,809.4844,581,813.4844,571,817.4844,575,813.4844" style="stroke: #383838; stroke-width: 1.0;"/><line style="stroke: #383838; stroke-width: 1.0;" x1="27" x2="577" y1="813.4844" y2="813.4844"/><text fill="#000000" font-family="Courier" font-size="13" lengthAdjust="spacingAndGlyphs" textLength="480" x="34" y="808.4185">User sends request for train connections between two cantons</text><polygon fill="#383838" points="1299,838.6172,1309,842.6172,1299,846.6172,1303,842.6172" style="stroke: #383838; stroke-width: 1.0;"/><line style="stroke: #383838; stroke-width: 1.0;" x1="583" x2="1305" y1="842.6172" y2="842.6172"/><text fill="#000000" font-family="Courier" font-size="13" lengthAdjust="spacingAndGlyphs" textLength="296" x="590" y="837.5513">Request forwaded to the load balancer</text><polygon fill="#383838" points="1539,867.75,1549,871.75,1539,875.75,1543,871.75" style="stroke: #383838; stroke-width: 1.0;"/><line style="stroke: #383838; stroke-width: 1.0;" x1="1311" x2="1545" y1="871.75" y2="871.75"/><text fill="#000000" font-family="Courier" font-size="13" lengthAdjust="spacingAndGlyphs" textLength="144" x="1318" y="866.6841">Find active server</text><line style="stroke: #383838; stroke-width: 1.0;" x1="1551" x2="1593" y1="900.8828" y2="900.8828"/><line style="stroke: #383838; stroke-width: 1.0;" x1="1593" x2="1593" y1="900.8828" y2="913.8828"/><line style="stroke: #383838; stroke-width: 1.0;" x1="1552" x2="1593" y1="913.8828" y2="913.8828"/><polygon fill="#383838" points="1562,909.8828,1552,913.8828,1562,917.8828,1558,913.8828" style="stroke: #383838; stroke-width: 1.0;"/><text fill="#000000" font-family="Courier" font-size="13" lengthAdjust="spacingAndGlyphs" textLength="176" x="1558" y="895.8169">Get server information</text><polygon fill="#383838" points="1322,939.0156,1312,943.0156,1322,947.0156,1318,943.0156" style="stroke: #383838; stroke-width: 1.0;"/><line style="stroke: #383838; stroke-width: 1.0; stroke-dasharray: 2.0,2.0;" x1="1316" x2="1550" y1="943.0156" y2="943.0156"/><text fill="#000000" font-family="Courier" font-size="13" lengthAdjust="spacingAndGlyphs" textLength="216" x="1328" y="937.9497">Send server info and status</text><polygon fill="#383838" points="2021,968.1484,2031,972.1484,2021,976.1484,2025,972.1484" style="stroke: #383838; stroke-width: 1.0;"/><line style="stroke: #383838; stroke-width: 1.0;" x1="1311" x2="2027" y1="972.1484" y2="972.1484"/><text fill="#000000" font-family="Courier" font-size="13" lengthAdjust="spacingAndGlyphs" textLength="136" x="1318" y="967.0825">Get connections()</text><polygon fill="#383838" points="1214,997.2813,1204,1001.2813,1214,1005.2813,1210,1001.2813" style="stroke: #383838; stroke-width: 1.0;"/><line style="stroke: #383838; stroke-width: 1.0;" x1="1208" x2="2032" y1="1001.2813" y2="1001.2813"/><text fill="#000000" font-family="Courier" font-size="13" lengthAdjust="spacingAndGlyphs" textLength="568" x="1220" y="996.2153">GET http://transport.opendata.ch/v1/connections?from=Lausanne&amp;to=Genève</text><polygon fill="#383838" points="2021,1026.4141,2031,1030.4141,2021,1034.4141,2025,1030.4141" style="stroke: #383838; stroke-width: 1.0;"/><line style="stroke: #383838; stroke-width: 1.0;" x1="1203" x2="2027" y1="1030.4141" y2="1030.4141"/><text fill="#000000" font-family="Courier" font-size="13" lengthAdjust="spacingAndGlyphs" textLength="184" x="1210" y="1025.3481">Return /v1 /connections</text><polygon fill="#383838" points="38,1055.5469,28,1059.5469,38,1063.5469,34,1059.5469" style="stroke: #383838; stroke-width: 1.0;"/><line style="stroke: #383838; stroke-width: 1.0;" x1="32" x2="2032" y1="1059.5469" y2="1059.5469"/><text fill="#000000" font-family="Courier" font-size="13" lengthAdjust="spacingAndGlyphs" textLength="216" x="44" y="1054.481">Display connections to user</text><polygon fill="#383838" points="751,1084.6797,761,1088.6797,751,1092.6797,755,1088.6797" style="stroke: #383838; stroke-width: 1.0;"/><line style="stroke: #383838; stroke-width: 1.0;" x1="27" x2="757" y1="1088.6797" y2="1088.6797"/><text fill="#000000" font-family="Courier" font-size="13" lengthAdjust="spacingAndGlyphs" textLength="312" x="34" y="1083.6138">User clicks on buy premium subscription</text><polygon fill="#383838" points="1299,1113.8125,1309,1117.8125,1299,1121.8125,1303,1117.8125" style="stroke: #383838; stroke-width: 1.0;"/><line style="stroke: #383838; stroke-width: 1.0;" x1="763" x2="1305" y1="1117.8125" y2="1117.8125"/><text fill="#000000" font-family="Courier" font-size="13" lengthAdjust="spacingAndGlyphs" textLength="296" x="770" y="1112.7466">Request forwaded to the load balancer</text><polygon fill="#383838" points="1539,1142.9453,1549,1146.9453,1539,1150.9453,1543,1146.9453" style="stroke: #383838; stroke-width: 1.0;"/><line style="stroke: #383838; stroke-width: 1.0;" x1="1311" x2="1545" y1="1146.9453" y2="1146.9453"/><text fill="#000000" font-family="Courier" font-size="13" lengthAdjust="spacingAndGlyphs" textLength="144" x="1318" y="1141.8794">Find active server</text><line style="stroke: #383838; stroke-width: 1.0;" x1="1551" x2="1593" y1="1176.0781" y2="1176.0781"/><line style="stroke: #383838; stroke-width: 1.0;" x1="1593" x2="1593" y1="1176.0781" y2="1189.0781"/><line style="stroke: #383838; stroke-width: 1.0;" x1="1552" x2="1593" y1="1189.0781" y2="1189.0781"/><polygon fill="#383838" points="1562,1185.0781,1552,1189.0781,1562,1193.0781,1558,1189.0781" style="stroke: #383838; stroke-width: 1.0;"/><text fill="#000000" font-family="Courier" font-size="13" lengthAdjust="spacingAndGlyphs" textLength="176" x="1558" y="1171.0122">Get server information</text><polygon fill="#383838" points="1322,1214.2109,1312,1218.2109,1322,1222.2109,1318,1218.2109" style="stroke: #383838; stroke-width: 1.0;"/><line style="stroke: #383838; stroke-width: 1.0; stroke-dasharray: 2.0,2.0;" x1="1316" x2="1550" y1="1218.2109" y2="1218.2109"/><text fill="#000000" font-family="Courier" font-size="13" lengthAdjust="spacingAndGlyphs" textLength="216" x="1328" y="1213.145">Send server info and status</text><polygon fill="#383838" points="2129,1243.3438,2139,1247.3438,2129,1251.3438,2133,1247.3438" style="stroke: #383838; stroke-width: 1.0;"/><line style="stroke: #383838; stroke-width: 1.0;" x1="1311" x2="2135" y1="1247.3438" y2="1247.3438"/><text fill="#000000" font-family="Courier" font-size="13" lengthAdjust="spacingAndGlyphs" textLength="320" x="1318" y="1242.2778">Requests the link for payment processing</text><polygon fill="#383838" points="1130,1272.4766,1120,1276.4766,1130,1280.4766,1126,1276.4766" style="stroke: #383838; stroke-width: 1.0;"/><line style="stroke: #383838; stroke-width: 1.0; stroke-dasharray: 2.0,2.0;" x1="1124" x2="2140" y1="1276.4766" y2="1276.4766"/><text fill="#000000" font-family="Courier" font-size="13" lengthAdjust="spacingAndGlyphs" textLength="200" x="1136" y="1271.4106">Connects with the gateway</text><polygon fill="#383838" points="38,1301.6094,28,1305.6094,38,1309.6094,34,1305.6094" style="stroke: #383838; stroke-width: 1.0;"/><line style="stroke: #383838; stroke-width: 1.0;" x1="32" x2="1118" y1="1305.6094" y2="1305.6094"/><text fill="#000000" font-family="Courier" font-size="13" lengthAdjust="spacingAndGlyphs" textLength="312" x="44" y="1300.5435">Payment page displayed for user details</text><line style="stroke: #383838; stroke-width: 1.0;" x1="27" x2="69" y1="1334.7422" y2="1334.7422"/><line style="stroke: #383838; stroke-width: 1.0;" x1="69" x2="69" y1="1334.7422" y2="1347.7422"/><line style="stroke: #383838; stroke-width: 1.0;" x1="28" x2="69" y1="1347.7422" y2="1347.7422"/><polygon fill="#383838" points="38,1343.7422,28,1347.7422,38,1351.7422,34,1347.7422" style="stroke: #383838; stroke-width: 1.0;"/><text fill="#000000" font-family="Courier" font-size="13" lengthAdjust="spacingAndGlyphs" textLength="168" x="34" y="1329.6763">Transaction succesful</text><polygon fill="#383838" points="2217,1372.875,2227,1376.875,2217,1380.875,2221,1376.875" style="stroke: #383838; stroke-width: 1.0;"/><line style="stroke: #383838; stroke-width: 1.0;" x1="1119" x2="2223" y1="1376.875" y2="1376.875"/><text fill="#000000" font-family="Courier" font-size="13" lengthAdjust="spacingAndGlyphs" textLength="232" x="1126" y="1371.8091">Transaction details are saved</text><polygon fill="#383838" points="38,1402.0078,28,1406.0078,38,1410.0078,34,1406.0078" style="stroke: #383838; stroke-width: 1.0;"/><line style="stroke: #383838; stroke-width: 1.0; stroke-dasharray: 2.0,2.0;" x1="32" x2="1118" y1="1406.0078" y2="1406.0078"/><text fill="#000000" font-family="Courier" font-size="13" lengthAdjust="spacingAndGlyphs" textLength="240" x="44" y="1400.9419">Confirmation message displayed</text></g></svg>