<?xml version="1.0" encoding="UTF-8" standalone="no"?><svg xmlns="http://www.w3.org/2000/svg" xmlns:xlink="http://www.w3.org/1999/xlink" contentScriptType="application/ecmascript" contentStyleType="text/css" height="362px" preserveAspectRatio="none" style="width:2567px;height:362px;" version="1.1" viewBox="0 0 2567 362" width="2567px" zoomAndPan="magnify"><defs/><g><rect fill="#F8F8F8" height="36.2969" style="stroke: #000000; stroke-width: 1.5;" width="156" x="634.83" y="105.11"/><text fill="#000000" font-family="Courier" font-size="14" lengthAdjust="spacingAndGlyphs" textLength="136" x="644.83" y="128.1051">Personalize (app)</text><rect fill="#F8F8F8" height="36.2969" style="stroke: #000000; stroke-width: 1.5;" width="148" x="788.83" y="218.41"/><text fill="#000000" font-family="Courier" font-size="14" lengthAdjust="spacingAndGlyphs" textLength="128" x="798.83" y="241.4051">Sync preferences</text><rect fill="#F8F8F8" height="36.2969" style="stroke: #000000; stroke-width: 1.5;" width="84" x="414.83" y="218.41"/><text fill="#000000" font-family="Courier" font-size="14" lengthAdjust="spacingAndGlyphs" textLength="64" x="424.83" y="241.4051">Wishlist</text><rect fill="#F8F8F8" height="36.2969" style="stroke: #000000; stroke-width: 1.5;" width="220" x="533.83" y="218.41"/><text fill="#000000" font-family="Courier" font-size="14" lengthAdjust="spacingAndGlyphs" textLength="200" x="543.83" y="241.4051">Connect with Social media</text><rect fill="#F8F8F8" height="36.2969" style="stroke: #000000; stroke-width: 1.5;" width="68" x="1246.83" y="105.11"/><text fill="#000000" font-family="Courier" font-size="14" lengthAdjust="spacingAndGlyphs" textLength="48" x="1256.83" y="128.1051">Browse</text><rect fill="#F8F8F8" height="36.2969" style="stroke: #000000; stroke-width: 1.5;" width="68" x="971.83" y="218.41"/><text fill="#000000" font-family="Courier" font-size="14" lengthAdjust="spacingAndGlyphs" textLength="48" x="981.83" y="241.4051">Search</text><rect fill="#F8F8F8" height="36.2969" style="stroke: #000000; stroke-width: 1.5;" width="140" x="738.83" y="315.7"/><text fill="#000000" font-family="Courier" font-size="14" lengthAdjust="spacingAndGlyphs" textLength="120" x="748.83" y="338.6951">Select Category</text><rect fill="#F8F8F8" height="36.2969" style="stroke: #000000; stroke-width: 1.5;" width="92" x="1131.83" y="218.41"/><text fill="#000000" font-family="Courier" font-size="14" lengthAdjust="spacingAndGlyphs" textLength="72" x="1141.83" y="241.4051">Filtering</text><rect fill="#F8F8F8" height="36.2969" style="stroke: #000000; stroke-width: 1.5;" width="84" x="1524.83" y="315.7"/><text fill="#000000" font-family="Courier" font-size="14" lengthAdjust="spacingAndGlyphs" textLength="64" x="1534.83" y="338.6951">Distance</text><rect fill="#F8F8F8" height="36.2969" style="stroke: #000000; stroke-width: 1.5;" width="60" x="913.83" y="315.7"/><text fill="#000000" font-family="Courier" font-size="14" lengthAdjust="spacingAndGlyphs" textLength="40" x="923.83" y="338.6951">Price</text><rect fill="#F8F8F8" height="36.2969" style="stroke: #000000; stroke-width: 1.5;" width="76" x="1008.83" y="315.7"/><text fill="#000000" font-family="Courier" font-size="14" lengthAdjust="spacingAndGlyphs" textLength="56" x="1018.83" y="338.6951">Ratings</text><rect fill="#F8F8F8" height="36.2969" style="stroke: #000000; stroke-width: 1.5;" width="116" x="1119.83" y="315.7"/><text fill="#000000" font-family="Courier" font-size="14" lengthAdjust="spacingAndGlyphs" textLength="96" x="1129.83" y="338.6951">Most Popular</text><rect fill="#F8F8F8" height="36.2969" style="stroke: #000000; stroke-width: 1.5;" width="84" x="1270.83" y="315.7"/><text fill="#000000" font-family="Courier" font-size="14" lengthAdjust="spacingAndGlyphs" textLength="64" x="1280.83" y="338.6951">Services</text><rect fill="#F8F8F8" height="36.2969" style="stroke: #000000; stroke-width: 1.5;" width="100" x="1389.83" y="315.7"/><text fill="#000000" font-family="Courier" font-size="14" lengthAdjust="spacingAndGlyphs" textLength="80" x="1399.83" y="338.6951">Incentives</text><rect fill="#F8F8F8" height="36.2969" style="stroke: #000000; stroke-width: 1.5;" width="140" x="1258.83" y="218.41"/><text fill="#000000" font-family="Courier" font-size="14" lengthAdjust="spacingAndGlyphs" textLength="120" x="1268.83" y="241.4051">Additional Info</text><rect fill="#F8F8F8" height="36.2969" style="stroke: #000000; stroke-width: 1.5;" width="44" x="192.83" y="105.11"/><text fill="#000000" font-family="Courier" font-size="14" lengthAdjust="spacingAndGlyphs" textLength="24" x="202.83" y="128.1051">GPS</text><path d="M6,110.69 L6,135.8228 A0,0 0 0 0 6,135.8228 L157.6667,135.8228 A0,0 0 0 0 157.6667,135.8228 L157.6667,128.69 L192.61,123.26 L157.6667,120.69 L157.6667,120.69 L147.6667,110.69 L6,110.69 A0,0 0 0 0 6,110.69 " fill="#ECECEC" style="stroke: #383838; stroke-width: 1.0;"/><path d="M147.6667,110.69 L147.6667,120.69 L157.6667,120.69 L147.6667,110.69 " fill="#ECECEC" style="stroke: #383838; stroke-width: 1.0;"/><text fill="#000000" font-family="Courier" font-size="13" lengthAdjust="spacingAndGlyphs" textLength="112" x="12" y="127.7569">Implemented by</text><path d="M137.3333,118.9061 C135.535,118.9061 134.0833,120.3578 134.0833,122.1561 C134.0833,124.3228 137.3333,127.5728 137.3333,127.5728 C137.3333,127.5728 140.5833,124.3228 140.5833,122.1561 C140.5833,120.3578 139.1317,118.9061 137.3333,118.9061 M137.3333,119.9895 C138.525,119.9895 139.5,120.9645 139.5,122.1561 C139.5,123.3478 138.525,124.3228 137.3333,124.3228 C136.1417,124.3228 135.1667,123.3478 135.1667,122.1561 C135.1667,120.9645 136.1417,119.9895 137.3333,119.9895 " fill="#000000" style="stroke: ; stroke-width: 0.0; stroke-dasharray: ;"/><rect fill="#F8F8F8" height="36.2969" style="stroke: #000000; stroke-width: 1.5;" width="84" x="1457.83" y="105.11"/><text fill="#000000" font-family="Courier" font-size="14" lengthAdjust="spacingAndGlyphs" textLength="64" x="1467.83" y="128.1051">Security</text><rect fill="#F8F8F8" height="36.2969" style="stroke: #000000; stroke-width: 1.5;" width="188" x="1512.83" y="218.41"/><text fill="#000000" font-family="Courier" font-size="14" lengthAdjust="spacingAndGlyphs" textLength="168" x="1522.83" y="241.4051">Google Authentication</text><rect fill="#F8F8F8" height="36.2969" style="stroke: #000000; stroke-width: 1.5;" width="44" x="1433.83" y="218.41"/><text fill="#000000" font-family="Courier" font-size="14" lengthAdjust="spacingAndGlyphs" textLength="24" x="1443.83" y="241.4051">OTP</text><rect fill="#F8F8F8" height="36.2969" style="stroke: #000000; stroke-width: 1.5;" width="52" x="1663.83" y="105.11"/><text fill="#000000" font-family="Courier" font-size="14" lengthAdjust="spacingAndGlyphs" textLength="32" x="1673.83" y="128.1051">Mode</text><rect fill="#F8F8F8" height="36.2969" style="stroke: #000000; stroke-width: 1.5;" width="84" x="1846.83" y="218.41"/><text fill="#000000" font-family="Courier" font-size="14" lengthAdjust="spacingAndGlyphs" textLength="64" x="1856.83" y="241.4051">Traveler</text><rect fill="#F8F8F8" height="36.2969" style="stroke: #000000; stroke-width: 1.5;" width="76" x="1735.83" y="218.41"/><text fill="#000000" font-family="Courier" font-size="14" lengthAdjust="spacingAndGlyphs" textLength="56" x="1745.83" y="241.4051">Settler</text><rect fill="#F8F8F8" height="36.2969" style="stroke: #000000; stroke-width: 1.5;" width="76" x="1750.83" y="105.11"/><text fill="#000000" font-family="Courier" font-size="14" lengthAdjust="spacingAndGlyphs" textLength="56" x="1760.83" y="128.1051">Reviews</text><rect fill="#F8F8F8" height="36.2969" style="stroke: #000000; stroke-width: 1.5;" width="92" x="271.83" y="105.11"/><text fill="#000000" font-family="Courier" font-size="14" lengthAdjust="spacingAndGlyphs" textLength="72" x="281.83" y="128.1051">Purchases</text><rect fill="#F8F8F8" height="36.2969" style="stroke: #000000; stroke-width: 1.5;" width="52" x="168.83" y="218.41"/><text fill="#000000" font-family="Courier" font-size="14" lengthAdjust="spacingAndGlyphs" textLength="32" x="178.83" y="241.4051">View</text><rect fill="#F8F8F8" height="36.2969" style="stroke: #000000; stroke-width: 1.5;" width="116" x="17.83" y="218.41"/><text fill="#000000" font-family="Courier" font-size="14" lengthAdjust="spacingAndGlyphs" textLength="96" x="27.83" y="241.4051">Avail Offers</text><rect fill="#F8F8F8" height="36.2969" style="stroke: #000000; stroke-width: 1.5;" width="124" x="255.83" y="218.41"/><text fill="#000000" font-family="Courier" font-size="14" lengthAdjust="spacingAndGlyphs" textLength="104" x="265.83" y="241.4051">Subscriptions</text><rect fill="#F8F8F8" height="36.2969" style="stroke: #000000; stroke-width: 1.5;" width="164" x="1965.83" y="105.11"/><text fill="#000000" font-family="Courier" font-size="14" lengthAdjust="spacingAndGlyphs" textLength="144" x="1975.83" y="128.1051">Transport Services</text><rect fill="#F8F8F8" height="36.2969" style="stroke: #000000; stroke-width: 1.5;" width="44" x="2171.83" y="218.41"/><text fill="#000000" font-family="Courier" font-size="14" lengthAdjust="spacingAndGlyphs" textLength="24" x="2181.83" y="241.4051">Bus</text><rect fill="#F8F8F8" height="36.2969" style="stroke: #000000; stroke-width: 1.5;" width="60" x="1965.83" y="218.41"/><text fill="#000000" font-family="Courier" font-size="14" lengthAdjust="spacingAndGlyphs" textLength="40" x="1975.83" y="241.4051">Train</text><rect fill="#F8F8F8" height="36.2969" style="stroke: #000000; stroke-width: 1.5;" width="76" x="2060.83" y="218.41"/><text fill="#000000" font-family="Courier" font-size="14" lengthAdjust="spacingAndGlyphs" textLength="56" x="2070.83" y="241.4051">Bicycle</text><rect fill="#F8F8F8" height="36.2969" style="stroke: #000000; stroke-width: 1.5;" width="84" x="2301.83" y="105.11"/><text fill="#000000" font-family="Courier" font-size="14" lengthAdjust="spacingAndGlyphs" textLength="64" x="2311.83" y="128.1051">Bookings</text><rect fill="#F8F8F8" height="36.2969" style="stroke: #000000; stroke-width: 1.5;" width="68" x="2488.83" y="218.41"/><text fill="#000000" font-family="Courier" font-size="14" lengthAdjust="spacingAndGlyphs" textLength="48" x="2498.83" y="241.4051">Hotels</text><rect fill="#F8F8F8" height="36.2969" style="stroke: #000000; stroke-width: 1.5;" width="60" x="2250.83" y="218.41"/><text fill="#000000" font-family="Courier" font-size="14" lengthAdjust="spacingAndGlyphs" textLength="40" x="2260.83" y="241.4051">Tours</text><rect fill="#F8F8F8" height="36.2969" style="stroke: #000000; stroke-width: 1.5;" width="108" x="2345.83" y="218.41"/><text fill="#000000" font-family="Courier" font-size="14" lengthAdjust="spacingAndGlyphs" textLength="88" x="2355.83" y="241.4051">Restaurants</text><rect fill="#F8F8F8" height="36.2969" style="stroke: #000000; stroke-width: 1.5;" width="108" x="1445.83" y="7.81"/><text fill="#000000" font-family="Courier" font-size="14" lengthAdjust="spacingAndGlyphs" textLength="88" x="1455.83" y="30.8051">Local Guide</text><path d="M747.55,150.01 C775.67,170.88 814.53,199.72 839.18,218 " fill="none" id="A&lt;-B" style="stroke: #383838; stroke-width: 1.0;"/><polygon fill="#383838" points="737.6,141.89,740.0329,148.6783,747.2347,149.0435,744.8019,142.2552,737.6,141.89" style="stroke: #383838; stroke-width: 1.0;"/><path d="M659.57,147.42 C611.24,168.43 541.04,198.95 497.21,218 " fill="none" id="A&lt;-C" style="stroke: #383838; stroke-width: 1.0;"/><polygon fill="#383838" points="671.27,141.89,664.1727,140.6138,660.2649,146.6742,667.3622,147.9505,671.27,141.89" style="stroke: #383838; stroke-width: 1.0;"/><path d="M694.74,153.45 C682.04,173.92 665.49,200.62 654.77,217.92 " fill="none" id="A&lt;-Z" style="stroke: #383838; stroke-width: 1.0;"/><polygon fill="#383838" points="702.05,142.65,695.4912,145.647,695.7351,152.854,702.2939,149.857,702.05,142.65" style="stroke: #383838; stroke-width: 1.0;"/><path d="M971.52,254.15 C936.13,271.27 881.17,297.86 845.09,315.31 " fill="none" id="DQ-DQA" style="stroke: #383838; stroke-width: 1.0;"/><path d="M1237.79,253.69 C1239.15,254.03 1240.5,254.37 1241.83,254.7 C1359.54,283.96 1390.44,285.21 1507.83,315.7 C1513.2,317.1 1518.82,318.63 1524.37,320.19 " fill="none" id="E&lt;-EA" style="stroke: #383838; stroke-width: 1.0;"/><polygon fill="#383838" points="1225.27,250.21,1230.0822,255.5806,1236.8905,253.2041,1232.0783,247.8336,1225.27,250.21" style="stroke: #383838; stroke-width: 1.0;"/><path d="M1121.78,260.38 C1075.44,279.26 1011.4,305.34 974.12,320.52 " fill="none" id="E&lt;-ED" style="stroke: #383838; stroke-width: 1.0;"/><polygon fill="#383838" points="1133.64,255.14,1126.5749,253.6962,1122.5248,259.6625,1129.5899,261.1063,1133.64,255.14" style="stroke: #383838; stroke-width: 1.0;"/><path d="M1142.55,263.22 C1119.79,279.78 1090.79,300.87 1070.71,315.48 " fill="none" id="E&lt;-EB" style="stroke: #383838; stroke-width: 1.0;"/><polygon fill="#383838" points="1152.81,255.03,1145.6048,255.3223,1143.1035,262.0857,1150.3086,261.7934,1152.81,255.03" style="stroke: #383838; stroke-width: 1.0;"/><path d="M1177.83,268.84 C1177.83,284.35 1177.83,302.48 1177.83,315.48 " fill="none" id="E&lt;-EC" style="stroke: #383838; stroke-width: 1.0;"/><polygon fill="#383838" points="1177.83,256.03,1173.83,262.03,1177.83,268.03,1181.83,262.03,1177.83,256.03" style="stroke: #383838; stroke-width: 1.0;"/><path d="M1213.87,262.99 C1237.38,279.59 1267.44,300.81 1288.23,315.48 " fill="none" id="E&lt;-ET" style="stroke: #383838; stroke-width: 1.0;"/><polygon fill="#383838" points="1203.59,255.03,1206.1861,261.7576,1213.3947,261.9486,1210.7986,255.2211,1203.59,255.03" style="stroke: #383838; stroke-width: 1.0;"/><path d="M1237.02,259.08 C1283.64,276.04 1347.81,299.38 1391.4,315.23 " fill="none" id="E&lt;-EW" style="stroke: #383838; stroke-width: 1.0;"/><polygon fill="#383838" points="1225.07,254.37,1229.3412,260.18,1236.3471,258.472,1232.0759,252.6619,1225.07,254.37" style="stroke: #383838; stroke-width: 1.0;"/><path d="M1233.69,143.34 C1178.65,165.62 1088.92,201.93 1040.11,221.68 " fill="none" id="H&lt;-DQ" style="stroke: #383838; stroke-width: 1.0;"/><polygon fill="#383838" points="1245.56,138.13,1238.4964,136.679,1234.4402,142.6412,1241.5039,144.0922,1245.56,138.13" style="stroke: #383838; stroke-width: 1.0;"/><path d="M1255.41,151.73 C1236.28,172.4 1210.62,200.13 1194.15,217.92 " fill="none" id="H&lt;-E" style="stroke: #383838; stroke-width: 1.0;"/><polygon fill="#383838" points="1263.74,142.65,1256.7292,144.3379,1255.5908,151.4585,1262.6016,149.7707,1263.74,142.65" style="stroke: #383838; stroke-width: 1.0;"/><path d="M1293.8,154.32 C1302.58,174.67 1313.87,200.86 1321.23,217.92 " fill="none" id="H&lt;-F" style="stroke: #383838; stroke-width: 1.0;"/><polygon fill="#383838" points="1288.33,142.65,1287.0364,149.7441,1293.0872,153.6667,1294.3809,146.5726,1288.33,142.65" style="stroke: #383838; stroke-width: 1.0;"/><path d="M1526.24,151.73 C1546.12,172.4 1572.77,200.13 1589.88,217.92 " fill="none" id="K&lt;-Y" style="stroke: #383838; stroke-width: 1.0;"/><polygon fill="#FFFFFF" points="1517.55,142.65,1518.821,149.7482,1525.862,151.3051,1524.591,144.2069,1517.55,142.65" style="stroke: #383838; stroke-width: 1.0;"/><path d="M1487.83,154.62 C1479.8,174.92 1469.52,200.94 1462.81,217.92 " fill="none" id="K&lt;-U" style="stroke: #383838; stroke-width: 1.0;"/><polygon fill="#FFFFFF" points="1492.96,142.65,1487.032,146.7559,1488.542,153.8071,1494.47,149.7012,1492.96,142.65" style="stroke: #383838; stroke-width: 1.0;"/><path d="M1728.22,145.73 C1765.8,166.74 1822.37,198.38 1857.37,217.96 " fill="none" id="M&lt;-T" style="stroke: #383838; stroke-width: 1.0;"/><polygon fill="#FFFFFF" points="1717.26,139.04,1720.5384,145.4628,1727.728,144.9069,1724.4496,138.4841,1717.26,139.04" style="stroke: #383838; stroke-width: 1.0;"/><path d="M1711.21,152.58 C1726.74,173.16 1747.28,200.37 1760.52,217.92 " fill="none" id="M&lt;-S" style="stroke: #383838; stroke-width: 1.0;"/><polygon fill="#FFFFFF" points="1702.96,142.65,1703.3885,149.8484,1710.1979,152.2214,1709.7694,145.0231,1702.96,142.65" style="stroke: #383838; stroke-width: 1.0;"/><path d="M288.13,151.14 C265.18,171.9 234.08,200.04 214.23,218 " fill="none" id="P&lt;-J" style="stroke: #383838; stroke-width: 1.0;"/><polygon fill="#383838" points="297.34,142.89,290.2074,143.951,288.4434,150.943,295.5761,149.882,297.34,142.89" style="stroke: #383838; stroke-width: 1.0;"/><path d="M266.89,147.69 C221.23,168.69 155.26,199.03 114,218 " fill="none" id="P&lt;-W" style="stroke: #383838; stroke-width: 1.0;"/><polygon fill="#383838" points="278.49,141.89,271.3679,140.7605,267.586,146.9003,274.7081,148.0298,278.49,141.89" style="stroke: #383838; stroke-width: 1.0;"/><path d="M317.83,155.5 C317.83,175.67 317.83,201.19 317.83,217.92 " fill="none" id="P&lt;-D" style="stroke: #383838; stroke-width: 1.0;"/><polygon fill="#383838" points="317.83,142.65,313.83,148.65,317.83,154.65,321.83,148.65,317.83,142.65" style="stroke: #383838; stroke-width: 1.0;"/><path d="M2081.75,150.12 C2109.48,171.25 2147.87,200.52 2171.76,218.73 " fill="none" id="L&lt;-FD" style="stroke: #383838; stroke-width: 1.0;"/><polygon fill="#383838" points="2071.97,141.89,2074.3176,148.7083,2081.5143,149.1637,2079.1667,142.3454,2071.97,141.89" style="stroke: #383838; stroke-width: 1.0;"/><path d="M2033.79,154.32 C2024.28,174.67 2012.04,200.86 2004.07,217.92 " fill="none" id="L&lt;-DW" style="stroke: #383838; stroke-width: 1.0;"/><polygon fill="#383838" points="2039.71,142.65,2033.548,146.3956,2034.6354,153.5242,2040.7974,149.7786,2039.71,142.65" style="stroke: #383838; stroke-width: 1.0;"/><path d="M2061.61,154.32 C2070.94,174.67 2082.94,200.86 2090.75,217.92 " fill="none" id="L&lt;-DE" style="stroke: #383838; stroke-width: 1.0;"/><polygon fill="#383838" points="2055.8,142.65,2054.6634,149.771,2060.7994,153.559,2061.936,146.438,2055.8,142.65" style="stroke: #383838; stroke-width: 1.0;"/><path d="M2383.92,149.18 C2417.58,170.11 2464.8,199.47 2494.6,218 " fill="none" id="X&lt;-XA" style="stroke: #383838; stroke-width: 1.0;"/><polygon fill="#383838" points="2373.2,141.89,2376.181,148.4561,2383.3885,148.2298,2380.4076,141.6637,2373.2,141.89" style="stroke: #383838; stroke-width: 1.0;"/><path d="M2327.14,153.74 C2315.58,174.17 2300.56,200.7 2290.82,217.92 " fill="none" id="X&lt;-XB" style="stroke: #383838; stroke-width: 1.0;"/><polygon fill="#383838" points="2333.99,142.65,2327.5543,145.903,2328.0818,153.0948,2334.5175,149.8418,2333.99,142.65" style="stroke: #383838; stroke-width: 1.0;"/><path d="M2358.81,154.03 C2369.07,174.42 2382.34,200.78 2390.96,217.92 " fill="none" id="X&lt;-XC" style="stroke: #383838; stroke-width: 1.0;"/><polygon fill="#383838" points="2352.58,142.65,2351.7032,149.8076,2357.9729,153.3699,2358.8498,146.2123,2352.58,142.65" style="stroke: #383838; stroke-width: 1.0;"/><path d="M1040.23,236.55 C1064.66,236.55 1097.92,236.55 1125.62,236.55 " fill="none" id="DQ-&gt;E" style="stroke: #383838; stroke-width: 1.0; stroke-dasharray: 1.0,3.0;"/><polygon fill="#383838" points="1130.44,236.55,1121.44,232.55,1125.44,236.55,1121.44,240.55,1130.44,236.55" style="stroke: #383838; stroke-width: 1.0;"/><text fill="#000000" font-family="Courier" font-size="13" lengthAdjust="spacingAndGlyphs" textLength="56" x="1057.83" y="229.6169">require</text><path d="M134.15,221.6 C140.09,220.38 146.07,219.29 151.83,218.41 C392.73,181.63 455.29,189.2 698.83,180.85 C724.6,179.96 731.81,174.67 756.83,180.85 C783.63,187.46 811.14,202.19 831.41,214.85 " fill="none" id="W-&gt;B" style="stroke: #383838; stroke-width: 1.0; stroke-dasharray: 1.0,3.0;"/><polygon fill="#383838" points="835.41,218.01,829.9376,209.8214,831.1829,215.3395,825.6648,216.5848,835.41,218.01" style="stroke: #383838; stroke-width: 1.0;"/><text fill="#000000" font-family="Courier" font-size="13" lengthAdjust="spacingAndGlyphs" textLength="56" x="699.83" y="184.4769">require</text><path d="M1445.43,33.55 C1310.38,49.9 959.06,92.44 796.99,112.07 " fill="none" id="R-&gt;A" style="stroke: #383838; stroke-width: 1.0;"/><ellipse cx="798.2665" cy="112.039" fill="#383838" rx="6" ry="6" style="stroke: #383838; stroke-width: 1.5;"/><path d="M1459.41,44.55 C1419.79,61.79 1359.76,87.91 1320.43,105.03 " fill="none" id="R-&gt;H" style="stroke: #383838; stroke-width: 1.0;"/><ellipse cx="1321.766" cy="104.8958" fill="#383838" rx="6" ry="6" style="stroke: #383838; stroke-width: 1.5;"/><path d="M1445.52,27.84 C1236.63,31.62 485.11,48.89 253.83,105.11 C250.07,106.02 246.21,107.28 242.45,108.71 " fill="none" id="R-&gt;Q" style="stroke: #383838; stroke-width: 1.0;"/><ellipse cx="243.6125" cy="108.641" fill="#383838" rx="6" ry="6" style="stroke: #383838; stroke-width: 1.5;"/><path d="M1499.83,44.44 C1499.83,59.75 1499.83,82.13 1499.83,98.96 " fill="none" id="R-&gt;K" style="stroke: #383838; stroke-width: 1.0;"/><ellipse cx="1499.83" cy="97.89" fill="#383838" rx="6" ry="6" style="stroke: #383838; stroke-width: 1.5;"/><path d="M1553.18,44.55 C1608.41,62.76 1693.68,90.88 1745.08,107.83 " fill="none" id="R-&gt;N" style="stroke: #383838; stroke-width: 1.0;"/><ellipse cx="1743.8594" cy="107.7684" fill="#383838" rx="6" ry="6" style="stroke: #383838; stroke-width: 1.5;"/><path d="M1554.13,36.4 C1648.92,52.89 1845.37,87.05 1959.82,106.95 " fill="none" id="R-&gt;L" style="stroke: #383838; stroke-width: 1.0;"/><ellipse cx="1958.6387" cy="106.922" fill="#FFFFFF" rx="6" ry="6" style="stroke: #383838; stroke-width: 1.5;"/><path d="M1554.24,33.1 C1708.85,50.56 2149.12,100.27 2295.7,116.82 " fill="none" id="R-&gt;X" style="stroke: #383838; stroke-width: 1.0;"/><ellipse cx="2294.6573" cy="116.8218" fill="#FFFFFF" rx="6" ry="6" style="stroke: #383838; stroke-width: 1.5;"/><path d="M1445.58,31.33 C1247.49,47.31 564.6,102.36 369.98,118.05 " fill="none" id="R-&gt;P" style="stroke: #383838; stroke-width: 1.0;"/><ellipse cx="371.0708" cy="118.0502" fill="#FFFFFF" rx="6" ry="6" style="stroke: #383838; stroke-width: 1.5;"/><path d="M1534.68,44.44 C1569.97,62.14 1624.07,89.27 1658.17,106.37 " fill="none" id="R-&gt;M" style="stroke: #383838; stroke-width: 1.0;"/><ellipse cx="1657.0969" cy="106.3399" fill="#FFFFFF" rx="6" ry="6" style="stroke: #383838; stroke-width: 1.5;"/></g></svg>