<?xml version="1.0" encoding="UTF-8" standalone="no"?><svg xmlns="http://www.w3.org/2000/svg" xmlns:xlink="http://www.w3.org/1999/xlink" contentScriptType="application/ecmascript" contentStyleType="text/css" height="433px" preserveAspectRatio="none" style="width:555px;height:433px;" version="1.1" viewBox="0 0 555 433" width="555px" zoomAndPan="magnify"><defs/><g><rect fill="#FFFFFF" height="62.9766" style="stroke: #444444; stroke-width: 1.0; stroke-dasharray: 7.0,7.0;" width="98" x="179" y="201.05"/><text fill="#000000" font-family="sans-serif" font-size="0" font-style="italic" lengthAdjust="spacingAndGlyphs" textLength="0" x="228" y="211.05">«boundary»</text><text fill="#444444" font-family="sans-serif" font-size="16" font-weight="bold" lengthAdjust="spacingAndGlyphs" textLength="78" x="189" y="236.5188">Realm DB</text><text fill="#444444" font-family="sans-serif" font-size="12" lengthAdjust="spacingAndGlyphs" textLength="48" x="204" y="251.4953">[System]</text><rect fill="#08427B" height="85.9531" style="stroke: #073B6F; stroke-width: 1.5;" width="72" x="6" y="8.09"/><text fill="#FFFFFF" font-family="sans-serif" font-size="12" font-style="italic" lengthAdjust="spacingAndGlyphs" textLength="52" x="16" y="29.6916">«person»</text><text fill="#FFFFFF" font-family="sans-serif" font-size="16" font-weight="bold" lengthAdjust="spacingAndGlyphs" textLength="37" x="23.5" y="47.6916">User</text><text fill="#FFFFFF" font-family="sans-serif" font-size="14" lengthAdjust="spacingAndGlyphs" textLength="0" x="44" y="64.6017"/><text fill="#FFFFFF" font-family="sans-serif" font-size="14" lengthAdjust="spacingAndGlyphs" textLength="0" x="44" y="81.09"/><rect fill="#08427B" height="85.9531" style="stroke: #073B6F; stroke-width: 1.5;" width="126" x="165" y="8.09"/><text fill="#FFFFFF" font-family="sans-serif" font-size="12" font-style="italic" lengthAdjust="spacingAndGlyphs" textLength="52" x="202" y="29.6916">«person»</text><text fill="#FFFFFF" font-family="sans-serif" font-size="16" font-weight="bold" lengthAdjust="spacingAndGlyphs" textLength="106" x="175" y="47.6916">Shop owners</text><text fill="#FFFFFF" font-family="sans-serif" font-size="14" lengthAdjust="spacingAndGlyphs" textLength="0" x="230" y="64.6017"/><text fill="#FFFFFF" font-family="sans-serif" font-size="14" lengthAdjust="spacingAndGlyphs" textLength="0" x="230" y="81.09"/><rect fill="#08427B" height="85.9531" style="stroke: #073B6F; stroke-width: 1.5;" width="111" x="356.5" y="8.09"/><text fill="#FFFFFF" font-family="sans-serif" font-size="12" font-style="italic" lengthAdjust="spacingAndGlyphs" textLength="52" x="386" y="29.6916">«person»</text><text fill="#FFFFFF" font-family="sans-serif" font-size="16" font-weight="bold" lengthAdjust="spacingAndGlyphs" textLength="91" x="366.5" y="47.6916">Developers</text><text fill="#FFFFFF" font-family="sans-serif" font-size="14" lengthAdjust="spacingAndGlyphs" textLength="0" x="414" y="64.6017"/><text fill="#FFFFFF" font-family="sans-serif" font-size="14" lengthAdjust="spacingAndGlyphs" textLength="0" x="414" y="81.09"/><rect fill="#999999" height="52.9766" style="stroke: #8A8A8A; stroke-width: 1.5;" width="125" x="85.5" y="370.02"/><text fill="#FFFFFF" font-family="sans-serif" font-size="12" font-style="italic" lengthAdjust="spacingAndGlyphs" textLength="105" x="95.5" y="391.6216">«external_system»</text><text fill="#FFFFFF" font-family="sans-serif" font-size="16" font-weight="bold" lengthAdjust="spacingAndGlyphs" textLength="105" x="95.5" y="409.6216">“application"</text><rect fill="#999999" height="52.9766" style="stroke: #8A8A8A; stroke-width: 1.5;" width="125" x="245.5" y="370.02"/><text fill="#FFFFFF" font-family="sans-serif" font-size="12" font-style="italic" lengthAdjust="spacingAndGlyphs" textLength="105" x="255.5" y="391.6216">«external_system»</text><text fill="#FFFFFF" font-family="sans-serif" font-size="16" font-weight="bold" lengthAdjust="spacingAndGlyphs" textLength="27" x="294.5" y="409.6216">API</text><path d="M42.43,94.5 C44.81,119.45 51.71,150.11 70,171.05 C96.14,200.96 138.77,216.15 173.16,223.83 " fill="none" id="user_s-&gt;boundary" style="stroke: #666666; stroke-width: 1.0;"/><polygon fill="#666666" points="177.61,224.99,169.656,219.1819,172.7225,223.9355,167.9688,227.002,177.61,224.99" style="stroke: #666666; stroke-width: 1.0;"/><text fill="#666666" font-family="sans-serif" font-size="13" font-weight="bold" lengthAdjust="spacingAndGlyphs" textLength="140" x="71" y="145.1184">Browses through the</text><text fill="#666666" font-family="sans-serif" font-size="13" font-weight="bold" lengthAdjust="spacingAndGlyphs" textLength="75" x="105.5" y="160.4289">application</text><path d="M225.95,94.31 C225.55,104.07 225.2,114.42 225,124.05 C224.56,144.93 224.48,150.16 225,171.05 C225.19,178.75 225.52,187.01 225.89,194.86 " fill="none" id="user_p-&gt;boundary" style="stroke: #666666; stroke-width: 1.0;"/><polygon fill="#666666" points="226.18,199.77,229.7111,190.5759,225.9225,194.7766,221.7217,190.988,226.18,199.77" style="stroke: #666666; stroke-width: 1.0;"/><text fill="#666666" font-family="sans-serif" font-size="13" font-weight="bold" lengthAdjust="spacingAndGlyphs" textLength="138" x="226" y="145.1184">Provides all relevant</text><text fill="#666666" font-family="sans-serif" font-size="13" font-weight="bold" lengthAdjust="spacingAndGlyphs" textLength="79" x="257.5" y="160.4289">information</text><path d="M407.01,94.51 C402.09,119.47 392.33,150.14 373,171.05 C349.38,196.6 313.3,211.7 283.04,220.43 " fill="none" id="user_d-&gt;boundary" style="stroke: #666666; stroke-width: 1.0;"/><polygon fill="#666666" points="278.46,221.98,288.2077,223.388,283.2724,220.6234,286.0371,215.6881,278.46,221.98" style="stroke: #666666; stroke-width: 1.0;"/><text fill="#666666" font-family="sans-serif" font-size="13" font-weight="bold" lengthAdjust="spacingAndGlyphs" textLength="139" x="400" y="137.6184">Updates information</text><text fill="#666666" font-family="sans-serif" font-size="13" font-weight="bold" lengthAdjust="spacingAndGlyphs" textLength="82" x="428.5" y="152.9289">for different</text><text fill="#666666" font-family="sans-serif" font-size="13" font-weight="bold" lengthAdjust="spacingAndGlyphs" textLength="70" x="436.5" y="168.2395">categories</text><path d="M191.41,264.34 C182.92,273.13 174.71,283.27 169,294.02 C157.55,315.57 152.34,342.77 149.97,363.58 " fill="none" id="boundary-&gt;application" style="stroke: #666666; stroke-width: 1.0;"/><polygon fill="#666666" points="149.35,368.55,154.2549,360.0094,149.8645,363.5765,146.2973,359.1862,149.35,368.55" style="stroke: #666666; stroke-width: 1.0;"/><text fill="#666666" font-family="sans-serif" font-size="13" font-weight="bold" lengthAdjust="spacingAndGlyphs" textLength="94" x="170" y="315.0884">Sync Changes</text><text fill="#666666" font-family="sans-serif" font-size="12" font-style="italic" lengthAdjust="spacingAndGlyphs" textLength="73" x="180.5" y="329.4321">[Information]</text><path d="M250.91,264.4 C257.23,273.65 263.77,284.02 269,294.02 C280.82,316.66 291.04,343.71 298.05,364.19 " fill="none" id="boundary-&gt;API" style="stroke: #666666; stroke-width: 1.0;"/><polygon fill="#666666" points="299.94,368.79,300.8443,358.9827,298.3374,364.0538,293.2664,361.5469,299.94,368.79" style="stroke: #666666; stroke-width: 1.0;"/><text fill="#666666" font-family="sans-serif" font-size="13" font-weight="bold" lengthAdjust="spacingAndGlyphs" textLength="147" x="289" y="307.5884">Location and external</text><text fill="#666666" font-family="sans-serif" font-size="13" font-weight="bold" lengthAdjust="spacingAndGlyphs" textLength="100" x="312.5" y="322.8989">browser usage</text><text fill="#666666" font-family="sans-serif" font-size="12" font-style="italic" lengthAdjust="spacingAndGlyphs" textLength="50" x="337.5" y="337.2427">[content]</text></g></svg>