<?xml version="1.0" encoding="UTF-8" standalone="no"?><svg xmlns="http://www.w3.org/2000/svg" xmlns:xlink="http://www.w3.org/1999/xlink" contentScriptType="application/ecmascript" contentStyleType="text/css" height="743px" preserveAspectRatio="none" style="width:2216px;height:743px;" version="1.1" viewBox="0 0 2216 743" width="2216px" zoomAndPan="magnify"><defs/><g><rect fill="#DDDDDD" height="728.7188" style="stroke: #383838; stroke-width: 1.0;" width="1190" x="4" y="4"/><text fill="#000000" font-family="Courier" font-size="13" font-weight="bold" lengthAdjust="spacingAndGlyphs" textLength="112" x="543" y="16.0669">User Interface</text><line style="stroke: #383838; stroke-width: 1.0; stroke-dasharray: 5.0,5.0;" x1="27" x2="27" y1="102.4297" y2="650.4219"/><line style="stroke: #383838; stroke-width: 1.0; stroke-dasharray: 5.0,5.0;" x1="355" x2="355" y1="102.4297" y2="650.4219"/><line style="stroke: #383838; stroke-width: 1.0; stroke-dasharray: 5.0,5.0;" x1="423" x2="423" y1="102.4297" y2="650.4219"/><line style="stroke: #383838; stroke-width: 1.0; stroke-dasharray: 5.0,5.0;" x1="507" x2="507" y1="102.4297" y2="650.4219"/><line style="stroke: #383838; stroke-width: 1.0; stroke-dasharray: 5.0,5.0;" x1="583" x2="583" y1="102.4297" y2="650.4219"/><line style="stroke: #383838; stroke-width: 1.0; stroke-dasharray: 5.0,5.0;" x1="655" x2="655" y1="102.4297" y2="650.4219"/><line style="stroke: #383838; stroke-width: 1.0; stroke-dasharray: 5.0,5.0;" x1="763" x2="763" y1="102.4297" y2="650.4219"/><line style="stroke: #383838; stroke-width: 1.0; stroke-dasharray: 5.0,5.0;" x1="883" x2="883" y1="102.4297" y2="650.4219"/><line style="stroke: #383838; stroke-width: 1.0; stroke-dasharray: 5.0,5.0;" x1="983" x2="983" y1="102.4297" y2="650.4219"/><line style="stroke: #383838; stroke-width: 1.0; stroke-dasharray: 5.0,5.0;" x1="1055" x2="1055" y1="102.4297" y2="650.4219"/><line style="stroke: #383838; stroke-width: 1.0; stroke-dasharray: 5.0,5.0;" x1="1139" x2="1139" y1="102.4297" y2="650.4219"/><line style="stroke: #383838; stroke-width: 1.0; stroke-dasharray: 5.0,5.0;" x1="1721" x2="1721" y1="102.4297" y2="650.4219"/><line style="stroke: #383838; stroke-width: 1.0; stroke-dasharray: 5.0,5.0;" x1="1805" x2="1805" y1="102.4297" y2="650.4219"/><line style="stroke: #383838; stroke-width: 1.0; stroke-dasharray: 5.0,5.0;" x1="1893" x2="1893" y1="102.4297" y2="650.4219"/><text fill="#000000" font-family="Courier" font-size="14" lengthAdjust="spacingAndGlyphs" textLength="32" x="8" y="99.1279">user</text><ellipse cx="27" cy="33.1328" fill="#F8F8F8" rx="8" ry="8" style="stroke: #383838; stroke-width: 2.0;"/><path d="M27,41.1328 L27,68.1328 M14,49.1328 L40,49.1328 M27,68.1328 L14,83.1328 M27,68.1328 L40,83.1328 " fill="none" style="stroke: #383838; stroke-width: 2.0;"/><text fill="#000000" font-family="Courier" font-size="14" lengthAdjust="spacingAndGlyphs" textLength="32" x="8" y="662.417">user</text><ellipse cx="27" cy="675.7188" fill="#F8F8F8" rx="8" ry="8" style="stroke: #383838; stroke-width: 2.0;"/><path d="M27,683.7188 L27,710.7188 M14,691.7188 L40,691.7188 M27,710.7188 L14,725.7188 M27,710.7188 L40,725.7188 " fill="none" style="stroke: #383838; stroke-width: 2.0;"/><rect fill="#F8F8F8" height="30.2969" style="stroke: #383838; stroke-width: 1.5;" width="54" x="328" y="71.1328"/><text fill="#000000" font-family="Courier" font-size="14" lengthAdjust="spacingAndGlyphs" textLength="40" x="335" y="91.1279">Login</text><rect fill="#F8F8F8" height="30.2969" style="stroke: #383838; stroke-width: 1.5;" width="54" x="328" y="649.4219"/><text fill="#000000" font-family="Courier" font-size="14" lengthAdjust="spacingAndGlyphs" textLength="40" x="335" y="669.417">Login</text><rect fill="#F8F8F8" height="30.2969" style="stroke: #383838; stroke-width: 1.5;" width="62" x="392" y="71.1328"/><text fill="#000000" font-family="Courier" font-size="14" lengthAdjust="spacingAndGlyphs" textLength="48" x="399" y="91.1279">Search</text><rect fill="#F8F8F8" height="30.2969" style="stroke: #383838; stroke-width: 1.5;" width="62" x="392" y="649.4219"/><text fill="#000000" font-family="Courier" font-size="14" lengthAdjust="spacingAndGlyphs" textLength="48" x="399" y="669.417">Search</text><rect fill="#F8F8F8" height="30.2969" style="stroke: #383838; stroke-width: 1.5;" width="86" x="464" y="71.1328"/><text fill="#000000" font-family="Courier" font-size="14" lengthAdjust="spacingAndGlyphs" textLength="72" x="471" y="91.1279">Filtering</text><rect fill="#F8F8F8" height="30.2969" style="stroke: #383838; stroke-width: 1.5;" width="86" x="464" y="649.4219"/><text fill="#000000" font-family="Courier" font-size="14" lengthAdjust="spacingAndGlyphs" textLength="72" x="471" y="669.417">Filtering</text><rect fill="#F8F8F8" height="30.2969" style="stroke: #383838; stroke-width: 1.5;" width="46" x="560" y="71.1328"/><text fill="#000000" font-family="Courier" font-size="14" lengthAdjust="spacingAndGlyphs" textLength="32" x="567" y="91.1279">Info</text><rect fill="#F8F8F8" height="30.2969" style="stroke: #383838; stroke-width: 1.5;" width="46" x="560" y="649.4219"/><text fill="#000000" font-family="Courier" font-size="14" lengthAdjust="spacingAndGlyphs" textLength="32" x="567" y="669.417">Info</text><rect fill="#F8F8F8" height="30.2969" style="stroke: #383838; stroke-width: 1.5;" width="78" x="616" y="71.1328"/><text fill="#000000" font-family="Courier" font-size="14" lengthAdjust="spacingAndGlyphs" textLength="64" x="623" y="91.1279">Location</text><rect fill="#F8F8F8" height="30.2969" style="stroke: #383838; stroke-width: 1.5;" width="78" x="616" y="649.4219"/><text fill="#000000" font-family="Courier" font-size="14" lengthAdjust="spacingAndGlyphs" textLength="64" x="623" y="669.417">Location</text><rect fill="#F8F8F8" height="30.2969" style="stroke: #383838; stroke-width: 1.5;" width="118" x="704" y="71.1328"/><text fill="#000000" font-family="Courier" font-size="14" lengthAdjust="spacingAndGlyphs" textLength="104" x="711" y="91.1279">Subscriptions</text><rect fill="#F8F8F8" height="30.2969" style="stroke: #383838; stroke-width: 1.5;" width="118" x="704" y="649.4219"/><text fill="#000000" font-family="Courier" font-size="14" lengthAdjust="spacingAndGlyphs" textLength="104" x="711" y="669.417">Subscriptions</text><rect fill="#F8F8F8" height="30.2969" style="stroke: #383838; stroke-width: 1.5;" width="102" x="832" y="71.1328"/><text fill="#000000" font-family="Courier" font-size="14" lengthAdjust="spacingAndGlyphs" textLength="88" x="839" y="91.1279">Preferences</text><rect fill="#F8F8F8" height="30.2969" style="stroke: #383838; stroke-width: 1.5;" width="102" x="832" y="649.4219"/><text fill="#000000" font-family="Courier" font-size="14" lengthAdjust="spacingAndGlyphs" textLength="88" x="839" y="669.417">Preferences</text><rect fill="#F8F8F8" height="30.2969" style="stroke: #383838; stroke-width: 1.5;" width="78" x="944" y="71.1328"/><text fill="#000000" font-family="Courier" font-size="14" lengthAdjust="spacingAndGlyphs" textLength="64" x="951" y="91.1279">Bookings</text><rect fill="#F8F8F8" height="30.2969" style="stroke: #383838; stroke-width: 1.5;" width="78" x="944" y="649.4219"/><text fill="#000000" font-family="Courier" font-size="14" lengthAdjust="spacingAndGlyphs" textLength="64" x="951" y="669.417">Bookings</text><rect fill="#F8F8F8" height="30.2969" style="stroke: #383838; stroke-width: 1.5;" width="46" x="1032" y="71.1328"/><text fill="#000000" font-family="Courier" font-size="14" lengthAdjust="spacingAndGlyphs" textLength="32" x="1039" y="91.1279">Mode</text><rect fill="#F8F8F8" height="30.2969" style="stroke: #383838; stroke-width: 1.5;" width="46" x="1032" y="649.4219"/><text fill="#000000" font-family="Courier" font-size="14" lengthAdjust="spacingAndGlyphs" textLength="32" x="1039" y="669.417">Mode</text><rect fill="#F8F8F8" height="30.2969" style="stroke: #383838; stroke-width: 1.5;" width="102" x="1088" y="71.1328"/><text fill="#000000" font-family="Courier" font-size="14" lengthAdjust="spacingAndGlyphs" textLength="88" x="1095" y="91.1279">Translation</text><rect fill="#F8F8F8" height="30.2969" style="stroke: #383838; stroke-width: 1.5;" width="102" x="1088" y="649.4219"/><text fill="#000000" font-family="Courier" font-size="14" lengthAdjust="spacingAndGlyphs" textLength="88" x="1095" y="669.417">Translation</text><rect fill="#F8F8F8" height="30.2969" style="stroke: #383838; stroke-width: 1.5;" width="62" x="1690" y="71.1328"/><text fill="#000000" font-family="Courier" font-size="14" lengthAdjust="spacingAndGlyphs" textLength="48" x="1697" y="91.1279">Stripe</text><rect fill="#F8F8F8" height="30.2969" style="stroke: #383838; stroke-width: 1.5;" width="62" x="1690" y="649.4219"/><text fill="#000000" font-family="Courier" font-size="14" lengthAdjust="spacingAndGlyphs" textLength="48" x="1697" y="669.417">Stripe</text><rect fill="#F8F8F8" height="30.2969" style="stroke: #383838; stroke-width: 1.5;" width="86" x="1762" y="71.1328"/><text fill="#000000" font-family="Courier" font-size="14" lengthAdjust="spacingAndGlyphs" textLength="72" x="1769" y="91.1279">Transport</text><rect fill="#F8F8F8" height="30.2969" style="stroke: #383838; stroke-width: 1.5;" width="86" x="1762" y="649.4219"/><text fill="#000000" font-family="Courier" font-size="14" lengthAdjust="spacingAndGlyphs" textLength="72" x="1769" y="669.417">Transport</text><text fill="#000000" font-family="Courier" font-size="14" lengthAdjust="spacingAndGlyphs" textLength="64" x="1858" y="99.1279">Firebase</text><path d="M1875,50.1328 C1875,40.1328 1893,40.1328 1893,40.1328 C1893,40.1328 1911,40.1328 1911,50.1328 L1911,76.1328 C1911,86.1328 1893,86.1328 1893,86.1328 C1893,86.1328 1875,86.1328 1875,76.1328 L1875,50.1328 " fill="#7F7F7F" style="stroke: #000000; stroke-width: 1.5;"/><path d="M1875,50.1328 C1875,60.1328 1893,60.1328 1893,60.1328 C1893,60.1328 1911,60.1328 1911,50.1328 " fill="none" style="stroke: #000000; stroke-width: 1.5;"/><text fill="#000000" font-family="Courier" font-size="14" lengthAdjust="spacingAndGlyphs" textLength="64" x="1858" y="662.417">Firebase</text><path d="M1875,675.7188 C1875,665.7188 1893,665.7188 1893,665.7188 C1893,665.7188 1911,665.7188 1911,675.7188 L1911,701.7188 C1911,711.7188 1893,711.7188 1893,711.7188 C1893,711.7188 1875,711.7188 1875,701.7188 L1875,675.7188 " fill="#7F7F7F" style="stroke: #000000; stroke-width: 1.5;"/><path d="M1875,675.7188 C1875,685.7188 1893,685.7188 1893,685.7188 C1893,685.7188 1911,685.7188 1911,675.7188 " fill="none" style="stroke: #000000; stroke-width: 1.5;"/><polygon fill="#383838" points="343,129.5625,353,133.5625,343,137.5625,347,133.5625" style="stroke: #383838; stroke-width: 1.0;"/><line style="stroke: #383838; stroke-width: 1.0;" x1="27" x2="349" y1="133.5625" y2="133.5625"/><text fill="#000000" font-family="Courier" font-size="13" lengthAdjust="spacingAndGlyphs" textLength="304" x="34" y="128.4966">User inputs authentication credentials</text><polygon fill="#383838" points="1881,158.6953,1891,162.6953,1881,166.6953,1885,162.6953" style="stroke: #383838; stroke-width: 1.0;"/><line style="stroke: #383838; stroke-width: 1.0;" x1="355" x2="1887" y1="162.6953" y2="162.6953"/><text fill="#000000" font-family="Courier" font-size="13" lengthAdjust="spacingAndGlyphs" textLength="160" x="362" y="157.6294">Begin Authentication</text><polygon fill="#383838" points="366,187.8281,356,191.8281,366,195.8281,362,191.8281" style="stroke: #383838; stroke-width: 1.0;"/><line style="stroke: #383838; stroke-width: 1.0;" x1="360" x2="1892" y1="191.8281" y2="191.8281"/><text fill="#000000" font-family="Courier" font-size="13" lengthAdjust="spacingAndGlyphs" textLength="248" x="372" y="186.7622">User successfully authenticated</text><polygon fill="#383838" points="1043,216.9609,1053,220.9609,1043,224.9609,1047,220.9609" style="stroke: #383838; stroke-width: 1.0;"/><line style="stroke: #383838; stroke-width: 1.0;" x1="27" x2="1049" y1="220.9609" y2="220.9609"/><text fill="#000000" font-family="Courier" font-size="13" lengthAdjust="spacingAndGlyphs" textLength="160" x="34" y="215.895">Selects settler mode</text><polygon fill="#383838" points="1881,246.0938,1891,250.0938,1881,254.0938,1885,250.0938" style="stroke: #383838; stroke-width: 1.0;"/><line style="stroke: #383838; stroke-width: 1.0;" x1="1055" x2="1887" y1="250.0938" y2="250.0938"/><text fill="#000000" font-family="Courier" font-size="13" lengthAdjust="spacingAndGlyphs" textLength="192" x="1062" y="245.0278">Request send to database</text><line style="stroke: #383838; stroke-width: 1.0;" x1="1893" x2="1935" y1="279.2266" y2="279.2266"/><line style="stroke: #383838; stroke-width: 1.0;" x1="1935" x2="1935" y1="279.2266" y2="292.2266"/><line style="stroke: #383838; stroke-width: 1.0;" x1="1894" x2="1935" y1="292.2266" y2="292.2266"/><polygon fill="#383838" points="1904,288.2266,1894,292.2266,1904,296.2266,1900,292.2266" style="stroke: #383838; stroke-width: 1.0;"/><text fill="#000000" font-family="Courier" font-size="13" lengthAdjust="spacingAndGlyphs" textLength="304" x="1900" y="274.1606">Add user mode to relevant column in db</text><line style="stroke: #383838; stroke-width: 1.0;" x1="1893" x2="1935" y1="321.3594" y2="321.3594"/><line style="stroke: #383838; stroke-width: 1.0;" x1="1935" x2="1935" y1="321.3594" y2="334.3594"/><line style="stroke: #383838; stroke-width: 1.0;" x1="1894" x2="1935" y1="334.3594" y2="334.3594"/><polygon fill="#383838" points="1904,330.3594,1894,334.3594,1904,338.3594,1900,334.3594" style="stroke: #383838; stroke-width: 1.0;"/><text fill="#000000" font-family="Courier" font-size="13" lengthAdjust="spacingAndGlyphs" textLength="184" x="1900" y="316.2935">Save column information</text><polygon fill="#383838" points="38,359.4922,28,363.4922,38,367.4922,34,363.4922" style="stroke: #383838; stroke-width: 1.0;"/><line style="stroke: #383838; stroke-width: 1.0;" x1="32" x2="1892" y1="363.4922" y2="363.4922"/><text fill="#000000" font-family="Courier" font-size="13" lengthAdjust="spacingAndGlyphs" textLength="256" x="44" y="358.4263">Display relevant screens to user</text><polygon fill="#383838" points="1127,388.625,1137,392.625,1127,396.625,1131,392.625" style="stroke: #383838; stroke-width: 1.0;"/><line style="stroke: #383838; stroke-width: 1.0;" x1="27" x2="1133" y1="392.625" y2="392.625"/><text fill="#000000" font-family="Courier" font-size="13" lengthAdjust="spacingAndGlyphs" textLength="272" x="34" y="387.5591">user navigates to translation page</text><line style="stroke: #383838; stroke-width: 1.0;" x1="27" x2="69" y1="421.7578" y2="421.7578"/><line style="stroke: #383838; stroke-width: 1.0;" x1="69" x2="69" y1="421.7578" y2="434.7578"/><line style="stroke: #383838; stroke-width: 1.0;" x1="28" x2="69" y1="434.7578" y2="434.7578"/><polygon fill="#383838" points="38,430.7578,28,434.7578,38,438.7578,34,434.7578" style="stroke: #383838; stroke-width: 1.0;"/><text fill="#000000" font-family="Courier" font-size="13" lengthAdjust="spacingAndGlyphs" textLength="248" x="34" y="416.6919">user types in text to translate</text><line style="stroke: #383838; stroke-width: 1.0;" x1="27" x2="69" y1="463.8906" y2="463.8906"/><line style="stroke: #383838; stroke-width: 1.0;" x1="69" x2="69" y1="463.8906" y2="476.8906"/><line style="stroke: #383838; stroke-width: 1.0;" x1="28" x2="69" y1="476.8906" y2="476.8906"/><polygon fill="#383838" points="38,472.8906,28,476.8906,38,480.8906,34,476.8906" style="stroke: #383838; stroke-width: 1.0;"/><text fill="#000000" font-family="Courier" font-size="13" lengthAdjust="spacingAndGlyphs" textLength="168" x="34" y="458.8247">Enter source_language</text><line style="stroke: #383838; stroke-width: 1.0;" x1="27" x2="69" y1="506.0234" y2="506.0234"/><line style="stroke: #383838; stroke-width: 1.0;" x1="69" x2="69" y1="506.0234" y2="519.0234"/><line style="stroke: #383838; stroke-width: 1.0;" x1="28" x2="69" y1="519.0234" y2="519.0234"/><polygon fill="#383838" points="38,515.0234,28,519.0234,38,523.0234,34,519.0234" style="stroke: #383838; stroke-width: 1.0;"/><text fill="#000000" font-family="Courier" font-size="13" lengthAdjust="spacingAndGlyphs" textLength="168" x="34" y="500.9575">Enter target_language</text><line style="stroke: #383838; stroke-width: 1.0;" x1="1139" x2="1181" y1="548.1563" y2="548.1563"/><line style="stroke: #383838; stroke-width: 1.0;" x1="1181" x2="1181" y1="548.1563" y2="561.1563"/><line style="stroke: #383838; stroke-width: 1.0;" x1="1140" x2="1181" y1="561.1563" y2="561.1563"/><polygon fill="#383838" points="1150,557.1563,1140,561.1563,1150,565.1563,1146,561.1563" style="stroke: #383838; stroke-width: 1.0;"/><text fill="#000000" font-family="Courier" font-size="13" lengthAdjust="spacingAndGlyphs" textLength="272" x="1146" y="543.0903">requests.get(url, timeout=timeout)</text><line style="stroke: #383838; stroke-width: 1.0;" x1="1139" x2="1181" y1="590.2891" y2="590.2891"/><line style="stroke: #383838; stroke-width: 1.0;" x1="1181" x2="1181" y1="590.2891" y2="603.2891"/><line style="stroke: #383838; stroke-width: 1.0;" x1="1140" x2="1181" y1="603.2891" y2="603.2891"/><polygon fill="#383838" points="1150,599.2891,1140,603.2891,1150,607.2891,1146,603.2891" style="stroke: #383838; stroke-width: 1.0;"/><text fill="#000000" font-family="Courier" font-size="13" lengthAdjust="spacingAndGlyphs" textLength="568" x="1146" y="585.2231">translator.translate(text='Hello,how are you.', target_language=['de'])</text><polygon fill="#383838" points="38,628.4219,28,632.4219,38,636.4219,34,632.4219" style="stroke: #383838; stroke-width: 1.0;"/><line style="stroke: #383838; stroke-width: 1.0;" x1="32" x2="1138" y1="632.4219" y2="632.4219"/><text fill="#000000" font-family="Courier" font-size="13" lengthAdjust="spacingAndGlyphs" textLength="120" x="44" y="627.356">display(result)</text></g></svg>