<?xml version="1.0" encoding="UTF-8" standalone="no"?><svg xmlns="http://www.w3.org/2000/svg" xmlns:xlink="http://www.w3.org/1999/xlink" contentScriptType="application/ecmascript" contentStyleType="text/css" height="310px" preserveAspectRatio="none" style="width:1380px;height:310px;" version="1.1" viewBox="0 0 1380 310" width="1380px" zoomAndPan="magnify"><defs><filter height="300%" id="f1kf68m6agkpnh" width="300%" x="-1" y="-1"><feGaussianBlur result="blurOut" stdDeviation="2.0"/><feColorMatrix in="blurOut" result="blurOut2" type="matrix" values="0 0 0 0 0 0 0 0 0 0 0 0 0 0 0 0 0 0 .4 0"/><feOffset dx="4.0" dy="4.0" in="blurOut2" result="blurOut3"/><feBlend in="SourceGraphic" in2="blurOut3" mode="normal"/></filter></defs><g><rect fill="#FFFFFF" filter="url(#f1kf68m6agkpnh)" height="266.98" style="stroke: #000000; stroke-width: 1.5;" width="763" x="406" y="32.02"/><rect fill="#FFFFFF" height="10" style="stroke: #000000; stroke-width: 1.5;" width="15" x="1149" y="37.02"/><rect fill="#FFFFFF" height="2" style="stroke: #000000; stroke-width: 1.5;" width="4" x="1147" y="39.02"/><rect fill="#FFFFFF" height="2" style="stroke: #000000; stroke-width: 1.5;" width="4" x="1147" y="43.02"/><text fill="#000000" font-family="sans-serif" font-size="14" font-weight="bold" lengthAdjust="spacingAndGlyphs" textLength="95" x="740" y="58.5552">UserInterface</text><rect fill="#FFFFFF" filter="url(#f1kf68m6agkpnh)" height="87.49" style="stroke: #000000; stroke-width: 1.5;" width="209" x="446" y="83.02"/><rect fill="#FFFFFF" height="10" style="stroke: #000000; stroke-width: 1.5;" width="15" x="635" y="88.02"/><rect fill="#FFFFFF" height="2" style="stroke: #000000; stroke-width: 1.5;" width="4" x="633" y="90.02"/><rect fill="#FFFFFF" height="2" style="stroke: #000000; stroke-width: 1.5;" width="4" x="633" y="94.02"/><text fill="#000000" font-family="sans-serif" font-size="14" font-weight="bold" lengthAdjust="spacingAndGlyphs" textLength="58" x="521.5" y="109.5552">Services</text><rect fill="#FFFFFF" filter="url(#f1kf68m6agkpnh)" height="183.98" style="stroke: #000000; stroke-width: 1.5;" width="209" x="928" y="83.02"/><rect fill="#FFFFFF" height="10" style="stroke: #000000; stroke-width: 1.5;" width="15" x="1117" y="88.02"/><rect fill="#FFFFFF" height="2" style="stroke: #000000; stroke-width: 1.5;" width="4" x="1115" y="90.02"/><rect fill="#FFFFFF" height="2" style="stroke: #000000; stroke-width: 1.5;" width="4" x="1115" y="94.02"/><text fill="#000000" font-family="sans-serif" font-size="14" font-weight="bold" lengthAdjust="spacingAndGlyphs" textLength="67" x="999" y="109.5552">Browsing</text><rect fill="#FFFFFF" filter="url(#f1kf68m6agkpnh)" height="183.98" style="stroke: #000000; stroke-width: 1.5;" width="225" x="679" y="83.02"/><rect fill="#FFFFFF" height="10" style="stroke: #000000; stroke-width: 1.5;" width="15" x="884" y="88.02"/><rect fill="#FFFFFF" height="2" style="stroke: #000000; stroke-width: 1.5;" width="4" x="882" y="90.02"/><rect fill="#FFFFFF" height="2" style="stroke: #000000; stroke-width: 1.5;" width="4" x="882" y="94.02"/><text fill="#000000" font-family="sans-serif" font-size="14" font-weight="bold" lengthAdjust="spacingAndGlyphs" textLength="83" x="750" y="109.5552">Personalize</text><rect fill="#F8F8F8" filter="url(#f1kf68m6agkpnh)" height="36.4883" style="stroke: #383838; stroke-width: 1.5;" width="83" x="555.5" y="118.02"/><rect fill="#F8F8F8" height="5" style="stroke: #383838; stroke-width: 1.5;" width="10" x="550.5" y="123.02"/><rect fill="#F8F8F8" height="5" style="stroke: #383838; stroke-width: 1.5;" width="10" x="550.5" y="144.5083"/><text fill="#000000" font-family="sans-serif" font-size="14" lengthAdjust="spacingAndGlyphs" textLength="63" x="565.5" y="141.5552">Bookings</text><rect fill="#F8F8F8" filter="url(#f1kf68m6agkpnh)" height="36.4883" style="stroke: #383838; stroke-width: 1.5;" width="58" x="462" y="118.02"/><rect fill="#F8F8F8" height="5" style="stroke: #383838; stroke-width: 1.5;" width="10" x="457" y="123.02"/><rect fill="#F8F8F8" height="5" style="stroke: #383838; stroke-width: 1.5;" width="10" x="457" y="144.5083"/><text fill="#000000" font-family="sans-serif" font-size="14" lengthAdjust="spacingAndGlyphs" textLength="38" x="472" y="141.5552">Mode</text><rect fill="#F8F8F8" filter="url(#f1kf68m6agkpnh)" height="36.4883" style="stroke: #383838; stroke-width: 1.5;" width="66" x="944" y="118.02"/><rect fill="#F8F8F8" height="5" style="stroke: #383838; stroke-width: 1.5;" width="10" x="939" y="123.02"/><rect fill="#F8F8F8" height="5" style="stroke: #383838; stroke-width: 1.5;" width="10" x="939" y="144.5083"/><text fill="#000000" font-family="sans-serif" font-size="14" lengthAdjust="spacingAndGlyphs" textLength="46" x="954" y="141.5552">Search</text><rect fill="#F8F8F8" filter="url(#f1kf68m6agkpnh)" height="36.4883" style="stroke: #383838; stroke-width: 1.5;" width="77" x="1044.5" y="118.02"/><rect fill="#F8F8F8" height="5" style="stroke: #383838; stroke-width: 1.5;" width="10" x="1039.5" y="123.02"/><rect fill="#F8F8F8" height="5" style="stroke: #383838; stroke-width: 1.5;" width="10" x="1039.5" y="144.5083"/><text fill="#000000" font-family="sans-serif" font-size="14" lengthAdjust="spacingAndGlyphs" textLength="57" x="1054.5" y="141.5552">Filtering</text><rect fill="#F8F8F8" filter="url(#f1kf68m6agkpnh)" height="36.4883" style="stroke: #383838; stroke-width: 1.5;" width="47" x="953.5" y="214.51"/><rect fill="#F8F8F8" height="5" style="stroke: #383838; stroke-width: 1.5;" width="10" x="948.5" y="219.51"/><rect fill="#F8F8F8" height="5" style="stroke: #383838; stroke-width: 1.5;" width="10" x="948.5" y="240.9983"/><text fill="#000000" font-family="sans-serif" font-size="14" lengthAdjust="spacingAndGlyphs" textLength="27" x="963.5" y="238.0452">Info</text><rect fill="#F8F8F8" filter="url(#f1kf68m6agkpnh)" height="36.4883" style="stroke: #383838; stroke-width: 1.5;" width="78" x="1035" y="214.51"/><rect fill="#F8F8F8" height="5" style="stroke: #383838; stroke-width: 1.5;" width="10" x="1030" y="219.51"/><rect fill="#F8F8F8" height="5" style="stroke: #383838; stroke-width: 1.5;" width="10" x="1030" y="240.9983"/><text fill="#000000" font-family="sans-serif" font-size="14" lengthAdjust="spacingAndGlyphs" textLength="58" x="1045" y="238.0452">Location</text><rect fill="#F8F8F8" filter="url(#f1kf68m6agkpnh)" height="36.4883" style="stroke: #383838; stroke-width: 1.5;" width="58" x="695" y="118.02"/><rect fill="#F8F8F8" height="5" style="stroke: #383838; stroke-width: 1.5;" width="10" x="690" y="123.02"/><rect fill="#F8F8F8" height="5" style="stroke: #383838; stroke-width: 1.5;" width="10" x="690" y="144.5083"/><text fill="#000000" font-family="sans-serif" font-size="14" lengthAdjust="spacingAndGlyphs" textLength="38" x="705" y="141.5552">Login</text><rect fill="#F8F8F8" filter="url(#f1kf68m6agkpnh)" height="36.4883" style="stroke: #383838; stroke-width: 1.5;" width="100" x="788" y="118.02"/><rect fill="#F8F8F8" height="5" style="stroke: #383838; stroke-width: 1.5;" width="10" x="783" y="123.02"/><rect fill="#F8F8F8" height="5" style="stroke: #383838; stroke-width: 1.5;" width="10" x="783" y="144.5083"/><text fill="#000000" font-family="sans-serif" font-size="14" lengthAdjust="spacingAndGlyphs" textLength="80" x="798" y="141.5552">Preferences</text><rect fill="#F8F8F8" filter="url(#f1kf68m6agkpnh)" height="36.4883" style="stroke: #383838; stroke-width: 1.5;" width="113" x="694.5" y="214.51"/><rect fill="#F8F8F8" height="5" style="stroke: #383838; stroke-width: 1.5;" width="10" x="689.5" y="219.51"/><rect fill="#F8F8F8" height="5" style="stroke: #383838; stroke-width: 1.5;" width="10" x="689.5" y="240.9983"/><text fill="#000000" font-family="sans-serif" font-size="14" lengthAdjust="spacingAndGlyphs" textLength="93" x="704.5" y="238.0452">Subscriptions</text><rect fill="#F8F8F8" filter="url(#f1kf68m6agkpnh)" height="36.4883" style="stroke: #383838; stroke-width: 1.5;" width="78" x="37" y="214.51"/><rect fill="#F8F8F8" height="5" style="stroke: #383838; stroke-width: 1.5;" width="10" x="32" y="219.51"/><rect fill="#F8F8F8" height="5" style="stroke: #383838; stroke-width: 1.5;" width="10" x="32" y="240.9983"/><text fill="#000000" font-family="sans-serif" font-size="14" lengthAdjust="spacingAndGlyphs" textLength="58" x="47" y="238.0452">Firebase</text><rect fill="#F8F8F8" filter="url(#f1kf68m6agkpnh)" height="36.4883" style="stroke: #383838; stroke-width: 1.5;" width="88" x="1193" y="214.51"/><rect fill="#F8F8F8" height="5" style="stroke: #383838; stroke-width: 1.5;" width="10" x="1188" y="219.51"/><rect fill="#F8F8F8" height="5" style="stroke: #383838; stroke-width: 1.5;" width="10" x="1188" y="240.9983"/><text fill="#000000" font-family="sans-serif" font-size="14" lengthAdjust="spacingAndGlyphs" textLength="68" x="1203" y="238.0452">Transport</text><rect fill="#F8F8F8" filter="url(#f1kf68m6agkpnh)" height="36.4883" style="stroke: #383838; stroke-width: 1.5;" width="60" x="129" y="118.02"/><rect fill="#F8F8F8" height="5" style="stroke: #383838; stroke-width: 1.5;" width="10" x="124" y="123.02"/><rect fill="#F8F8F8" height="5" style="stroke: #383838; stroke-width: 1.5;" width="10" x="124" y="144.5083"/><text fill="#000000" font-family="sans-serif" font-size="14" lengthAdjust="spacingAndGlyphs" textLength="40" x="139" y="141.5552">Stripe</text><rect fill="#F8F8F8" filter="url(#f1kf68m6agkpnh)" height="36.4883" style="stroke: #383838; stroke-width: 1.5;" width="88" x="6" y="118.02"/><rect fill="#F8F8F8" height="5" style="stroke: #383838; stroke-width: 1.5;" width="10" x="1" y="123.02"/><rect fill="#F8F8F8" height="5" style="stroke: #383838; stroke-width: 1.5;" width="10" x="1" y="144.5083"/><text fill="#000000" font-family="sans-serif" font-size="14" lengthAdjust="spacingAndGlyphs" textLength="68" x="16" y="141.5552">Watchdog</text><rect fill="#F8F8F8" filter="url(#f1kf68m6agkpnh)" height="36.4883" style="stroke: #383838; stroke-width: 1.5;" width="88" x="1281" y="118.02"/><rect fill="#F8F8F8" height="5" style="stroke: #383838; stroke-width: 1.5;" width="10" x="1276" y="123.02"/><rect fill="#F8F8F8" height="5" style="stroke: #383838; stroke-width: 1.5;" width="10" x="1276" y="144.5083"/><text fill="#000000" font-family="sans-serif" font-size="14" lengthAdjust="spacingAndGlyphs" textLength="68" x="1291" y="141.5552">Watchdog</text><rect fill="#F8F8F8" filter="url(#f1kf68m6agkpnh)" height="36.4883" style="stroke: #383838; stroke-width: 1.5;" width="155" x="223.5" y="118.02"/><rect fill="#F8F8F8" height="5" style="stroke: #383838; stroke-width: 1.5;" width="10" x="218.5" y="123.02"/><rect fill="#F8F8F8" height="5" style="stroke: #383838; stroke-width: 1.5;" width="10" x="218.5" y="144.5083"/><text fill="#000000" font-family="sans-serif" font-size="14" lengthAdjust="spacingAndGlyphs" textLength="135" x="233.5" y="141.5552">«Adapter» StripeAPI</text><ellipse cx="1325" cy="232.76" fill="#F8F8F8" filter="url(#f1kf68m6agkpnh)" rx="8" ry="8" style="stroke: #383838; stroke-width: 2.0;"/><ellipse cx="159" cy="232.76" fill="#F8F8F8" filter="url(#f1kf68m6agkpnh)" rx="8" ry="8" style="stroke: #383838; stroke-width: 2.0;"/><path d="M189.23,136.27 C200.58,136.27 211.93,136.27 223.29,136.27 " fill="none" id="Stripe-AD" style="stroke: #383838; stroke-width: 1.0;"/><path d="M378.69,136.27 C384.435,136.27 390.1825,136.27 395.93,136.27 C398.8038,136.27 401.6775,136.27 404.5509,136.27 C404.9101,136.27 405.2693,136.27 405.6285,136.27 C405.7183,136.27 405.808,136.27 405.8978,136.27 " fill="none" id="AD-UserInterface" style="stroke: #383838; stroke-width: 1.0;"/><path d="M1169.9413,197.5822 C1171.0229,197.6156 1172.1015,197.6505 1173.1769,197.6869 C1175.3277,197.7598 1177.4661,197.8388 1179.5916,197.9241 C1183.8428,198.0946 1188.0429,198.2903 1192.1894,198.5126 C1200.4824,198.957 1208.5609,199.5076 1216.4051,200.1753 C1247.7817,202.8459 1275.4075,207.39 1298,214.51 C1300.88,215.42 1303.76,216.72 1306.5,218.21 " fill="none" id="UserInterface-&gt;w" style="stroke: #383838; stroke-width: 1.0;"/><path d="M1316.5899,215.246 A9,9 0 0 0 1307.4824 229.4991" fill="none" style="stroke: #383838; stroke-width: 1.5;"/><path d="M1281.34,232.76 C1292.83,232.76 1304.31,232.76 1315.79,232.76 " fill="none" id="Transport-w" style="stroke: #383838; stroke-width: 1.0;"/><path d="M115.23,232.76 C126.74,232.76 138.26,232.76 149.77,232.76 " fill="none" id="Firebase-f" style="stroke: #383838; stroke-width: 1.0;"/><path d="M405.9534,165.4861 C405.6754,166.0323 405.388,166.5751 405.0913,167.1133 C402.7169,171.4188 399.735,175.4275 396,178.51 C362.58,206.11 230.03,223.71 179.09,229.58 " fill="none" id="UserInterface-&gt;f" style="stroke: #383838; stroke-width: 1.0;"/><path d="M173.2509,238.8518 A9,9 0 0 0 171.3671 222.0426" fill="none" style="stroke: #383838; stroke-width: 1.5;"/><path d="M159,154.6 C159,171.06 159,195.76 159,212.75 " fill="none" id="Stripe-&gt;f" style="stroke: #383838; stroke-width: 1.0;"/><path d="M167.4572,219.4618 A9,9 0 0 0 150.5428 219.4618" fill="none" style="stroke: #383838; stroke-width: 1.5;"/><path d="M70.25,154.82 C90.66,172.51 121.84,199.55 141.3,216.41 " fill="none" id="t-&gt;f" style="stroke: #383838; stroke-width: 1.0;"/><path d="M151.7785,215.1713 A9,9 0 0 0 140.7072 227.959" fill="none" style="stroke: #383838; stroke-width: 1.5;"/><path d="M1325,154.6 C1325,171.06 1325,195.76 1325,212.75 " fill="none" id="q-&gt;w" style="stroke: #383838; stroke-width: 1.0;"/><path d="M1333.4572,219.4618 A9,9 0 0 0 1316.5428 219.4618" fill="none" style="stroke: #383838; stroke-width: 1.5;"/></g></svg>