<?xml version="1.0" encoding="UTF-8" standalone="no"?><svg xmlns="http://www.w3.org/2000/svg" xmlns:xlink="http://www.w3.org/1999/xlink" contentScriptType="application/ecmascript" contentStyleType="text/css" height="873px" preserveAspectRatio="none" style="width:1937px;height:873px;" version="1.1" viewBox="0 0 1937 873" width="1937px" zoomAndPan="magnify"><defs><filter height="300%" id="f16hvo7zzi6p8c" width="300%" x="-1" y="-1"><feGaussianBlur result="blurOut" stdDeviation="2.0"/><feColorMatrix in="blurOut" result="blurOut2" type="matrix" values="0 0 0 0 0 0 0 0 0 0 0 0 0 0 0 0 0 0 .4 0"/><feOffset dx="4.0" dy="4.0" in="blurOut2" result="blurOut3"/><feBlend in="SourceGraphic" in2="blurOut3" mode="normal"/></filter></defs><g><polygon fill="#FFFFFF" filter="url(#f16hvo7zzi6p8c)" points="1612,734.01,1622,724.01,1827,724.01,1827,806.5,1817,816.5,1612,816.5,1612,734.01" style="stroke: #000000; stroke-width: 1.5;"/><line style="stroke: #000000; stroke-width: 1.5;" x1="1817" x2="1826" y1="734.01" y2="725.01"/><line style="stroke: #000000; stroke-width: 1.5;" x1="1612" x2="1817" y1="734.01" y2="734.01"/><line style="stroke: #000000; stroke-width: 1.5;" x1="1817" x2="1817" y1="734.01" y2="816.5"/><text fill="#000000" font-family="sans-serif" font-size="14" font-weight="bold" lengthAdjust="spacingAndGlyphs" textLength="79" x="1676" y="750.5452">Web Server</text><polygon fill="#FFFFFF" filter="url(#f16hvo7zzi6p8c)" points="259,181.54,269,171.54,1110,171.54,1110,657.01,1100,667.01,259,667.01,259,181.54" style="stroke: #000000; stroke-width: 1.5;"/><line style="stroke: #000000; stroke-width: 1.5;" x1="1100" x2="1109" y1="181.54" y2="172.54"/><line style="stroke: #000000; stroke-width: 1.5;" x1="259" x2="1100" y1="181.54" y2="181.54"/><line style="stroke: #000000; stroke-width: 1.5;" x1="1100" x2="1100" y1="181.54" y2="667.01"/><text fill="#000000" font-family="sans-serif" font-size="14" font-weight="bold" lengthAdjust="spacingAndGlyphs" textLength="93" x="634" y="198.0752">Web Browser</text><rect fill="#FFFFFF" filter="url(#f16hvo7zzi6p8c)" height="391.47" style="stroke: #000000; stroke-width: 1.5;" width="763" x="299" y="235.54"/><rect fill="#FFFFFF" height="10" style="stroke: #000000; stroke-width: 1.5;" width="15" x="1042" y="240.54"/><rect fill="#FFFFFF" height="2" style="stroke: #000000; stroke-width: 1.5;" width="4" x="1040" y="242.54"/><rect fill="#FFFFFF" height="2" style="stroke: #000000; stroke-width: 1.5;" width="4" x="1040" y="246.54"/><text fill="#000000" font-family="sans-serif" font-size="14" font-weight="bold" lengthAdjust="spacingAndGlyphs" textLength="95" x="633" y="262.0752">UserInterface</text><rect fill="#FFFFFF" filter="url(#f16hvo7zzi6p8c)" height="87.48" style="stroke: #000000; stroke-width: 1.5;" width="209" x="821" y="286.54"/><rect fill="#FFFFFF" height="10" style="stroke: #000000; stroke-width: 1.5;" width="15" x="1010" y="291.54"/><rect fill="#FFFFFF" height="2" style="stroke: #000000; stroke-width: 1.5;" width="4" x="1008" y="293.54"/><rect fill="#FFFFFF" height="2" style="stroke: #000000; stroke-width: 1.5;" width="4" x="1008" y="297.54"/><text fill="#000000" font-family="sans-serif" font-size="14" font-weight="bold" lengthAdjust="spacingAndGlyphs" textLength="58" x="896.5" y="313.0752">Services</text><rect fill="#FFFFFF" filter="url(#f16hvo7zzi6p8c)" height="308.47" style="stroke: #000000; stroke-width: 1.5;" width="209" x="588" y="286.54"/><rect fill="#FFFFFF" height="10" style="stroke: #000000; stroke-width: 1.5;" width="15" x="777" y="291.54"/><rect fill="#FFFFFF" height="2" style="stroke: #000000; stroke-width: 1.5;" width="4" x="775" y="293.54"/><rect fill="#FFFFFF" height="2" style="stroke: #000000; stroke-width: 1.5;" width="4" x="775" y="297.54"/><text fill="#000000" font-family="sans-serif" font-size="14" font-weight="bold" lengthAdjust="spacingAndGlyphs" textLength="67" x="659" y="313.0752">Browsing</text><rect fill="#FFFFFF" filter="url(#f16hvo7zzi6p8c)" height="308.47" style="stroke: #000000; stroke-width: 1.5;" width="225" x="339" y="286.54"/><rect fill="#FFFFFF" height="10" style="stroke: #000000; stroke-width: 1.5;" width="15" x="544" y="291.54"/><rect fill="#FFFFFF" height="2" style="stroke: #000000; stroke-width: 1.5;" width="4" x="542" y="293.54"/><rect fill="#FFFFFF" height="2" style="stroke: #000000; stroke-width: 1.5;" width="4" x="542" y="297.54"/><text fill="#000000" font-family="sans-serif" font-size="14" font-weight="bold" lengthAdjust="spacingAndGlyphs" textLength="83" x="410" y="313.0752">Personalize</text><polygon fill="#FFFFFF" filter="url(#f16hvo7zzi6p8c)" points="1142,449.02,1152,439.02,1588,439.02,1588,851,1578,861,1142,861,1142,449.02" style="stroke: #000000; stroke-width: 1.5;"/><line style="stroke: #000000; stroke-width: 1.5;" x1="1578" x2="1587" y1="449.02" y2="440.02"/><line style="stroke: #000000; stroke-width: 1.5;" x1="1142" x2="1578" y1="449.02" y2="449.02"/><line style="stroke: #000000; stroke-width: 1.5;" x1="1578" x2="1578" y1="449.02" y2="861"/><text fill="#000000" font-family="sans-serif" font-size="14" font-weight="bold" lengthAdjust="spacingAndGlyphs" textLength="97" x="1312.5" y="465.5552">Google Cloud</text><rect fill="#FFFFFF" filter="url(#f16hvo7zzi6p8c)" height="333.98" style="stroke: #000000; stroke-width: 1.5;" width="240" x="1316" y="495.02"/><rect fill="#FFFFFF" height="10" style="stroke: #000000; stroke-width: 1.5;" width="15" x="1536" y="500.02"/><rect fill="#FFFFFF" height="2" style="stroke: #000000; stroke-width: 1.5;" width="4" x="1534" y="502.02"/><rect fill="#FFFFFF" height="2" style="stroke: #000000; stroke-width: 1.5;" width="4" x="1534" y="506.02"/><text fill="#000000" font-family="sans-serif" font-size="14" font-weight="bold" lengthAdjust="spacingAndGlyphs" textLength="60" x="1406" y="521.5552">Firebase</text><polygon fill="#FFFFFF" filter="url(#f16hvo7zzi6p8c)" points="30,42.05,40,32.05,219,32.05,219,372.02,209,382.02,30,382.02,30,42.05" style="stroke: #000000; stroke-width: 1.5;"/><line style="stroke: #000000; stroke-width: 1.5;" x1="209" x2="218" y1="42.05" y2="33.05"/><line style="stroke: #000000; stroke-width: 1.5;" x1="30" x2="209" y1="42.05" y2="42.05"/><line style="stroke: #000000; stroke-width: 1.5;" x1="209" x2="209" y1="42.05" y2="382.02"/><text fill="#000000" font-family="sans-serif" font-size="14" font-weight="bold" lengthAdjust="spacingAndGlyphs" textLength="113" x="64" y="58.5852">Virtual Machine</text><rect fill="#FEFECE" filter="url(#f16hvo7zzi6p8c)" height="36.4883" style="stroke: #A80036; stroke-width: 1.5;" width="88" x="1723" y="764.01"/><rect fill="#FEFECE" height="5" style="stroke: #A80036; stroke-width: 1.5;" width="10" x="1718" y="769.01"/><rect fill="#FEFECE" height="5" style="stroke: #A80036; stroke-width: 1.5;" width="10" x="1718" y="790.4983"/><text fill="#000000" font-family="sans-serif" font-size="14" lengthAdjust="spacingAndGlyphs" textLength="68" x="1733" y="787.5452">Transport</text><rect fill="#FEFECE" filter="url(#f16hvo7zzi6p8c)" height="36.4883" style="stroke: #A80036; stroke-width: 1.5;" width="60" x="1628" y="764.01"/><rect fill="#FEFECE" height="5" style="stroke: #A80036; stroke-width: 1.5;" width="10" x="1623" y="769.01"/><rect fill="#FEFECE" height="5" style="stroke: #A80036; stroke-width: 1.5;" width="10" x="1623" y="790.4983"/><text fill="#000000" font-family="sans-serif" font-size="14" lengthAdjust="spacingAndGlyphs" textLength="40" x="1638" y="787.5452">Stripe</text><rect fill="#FEFECE" filter="url(#f16hvo7zzi6p8c)" height="36.4883" style="stroke: #A80036; stroke-width: 1.5;" width="83" x="930.5" y="321.54"/><rect fill="#FEFECE" height="5" style="stroke: #A80036; stroke-width: 1.5;" width="10" x="925.5" y="326.54"/><rect fill="#FEFECE" height="5" style="stroke: #A80036; stroke-width: 1.5;" width="10" x="925.5" y="348.0283"/><text fill="#000000" font-family="sans-serif" font-size="14" lengthAdjust="spacingAndGlyphs" textLength="63" x="940.5" y="345.0752">Bookings</text><rect fill="#FEFECE" filter="url(#f16hvo7zzi6p8c)" height="36.4883" style="stroke: #A80036; stroke-width: 1.5;" width="58" x="837" y="321.54"/><rect fill="#FEFECE" height="5" style="stroke: #A80036; stroke-width: 1.5;" width="10" x="832" y="326.54"/><rect fill="#FEFECE" height="5" style="stroke: #A80036; stroke-width: 1.5;" width="10" x="832" y="348.0283"/><text fill="#000000" font-family="sans-serif" font-size="14" lengthAdjust="spacingAndGlyphs" textLength="38" x="847" y="345.0752">Mode</text><rect fill="#FEFECE" filter="url(#f16hvo7zzi6p8c)" height="36.4883" style="stroke: #A80036; stroke-width: 1.5;" width="66" x="604" y="321.54"/><rect fill="#FEFECE" height="5" style="stroke: #A80036; stroke-width: 1.5;" width="10" x="599" y="326.54"/><rect fill="#FEFECE" height="5" style="stroke: #A80036; stroke-width: 1.5;" width="10" x="599" y="348.0283"/><text fill="#000000" font-family="sans-serif" font-size="14" lengthAdjust="spacingAndGlyphs" textLength="46" x="614" y="345.0752">Search</text><rect fill="#FEFECE" filter="url(#f16hvo7zzi6p8c)" height="36.4883" style="stroke: #A80036; stroke-width: 1.5;" width="77" x="704.5" y="321.54"/><rect fill="#FEFECE" height="5" style="stroke: #A80036; stroke-width: 1.5;" width="10" x="699.5" y="326.54"/><rect fill="#FEFECE" height="5" style="stroke: #A80036; stroke-width: 1.5;" width="10" x="699.5" y="348.0283"/><text fill="#000000" font-family="sans-serif" font-size="14" lengthAdjust="spacingAndGlyphs" textLength="57" x="714.5" y="345.0752">Filtering</text><rect fill="#FEFECE" filter="url(#f16hvo7zzi6p8c)" height="36.4883" style="stroke: #A80036; stroke-width: 1.5;" width="47" x="613.5" y="542.52"/><rect fill="#FEFECE" height="5" style="stroke: #A80036; stroke-width: 1.5;" width="10" x="608.5" y="547.52"/><rect fill="#FEFECE" height="5" style="stroke: #A80036; stroke-width: 1.5;" width="10" x="608.5" y="569.0083"/><text fill="#000000" font-family="sans-serif" font-size="14" lengthAdjust="spacingAndGlyphs" textLength="27" x="623.5" y="566.0552">Info</text><rect fill="#FEFECE" filter="url(#f16hvo7zzi6p8c)" height="36.4883" style="stroke: #A80036; stroke-width: 1.5;" width="78" x="695" y="542.52"/><rect fill="#FEFECE" height="5" style="stroke: #A80036; stroke-width: 1.5;" width="10" x="690" y="547.52"/><rect fill="#FEFECE" height="5" style="stroke: #A80036; stroke-width: 1.5;" width="10" x="690" y="569.0083"/><text fill="#000000" font-family="sans-serif" font-size="14" lengthAdjust="spacingAndGlyphs" textLength="58" x="705" y="566.0552">Location</text><rect fill="#FEFECE" filter="url(#f16hvo7zzi6p8c)" height="36.4883" style="stroke: #A80036; stroke-width: 1.5;" width="58" x="355" y="321.54"/><rect fill="#FEFECE" height="5" style="stroke: #A80036; stroke-width: 1.5;" width="10" x="350" y="326.54"/><rect fill="#FEFECE" height="5" style="stroke: #A80036; stroke-width: 1.5;" width="10" x="350" y="348.0283"/><text fill="#000000" font-family="sans-serif" font-size="14" lengthAdjust="spacingAndGlyphs" textLength="38" x="365" y="345.0752">Login</text><rect fill="#FEFECE" filter="url(#f16hvo7zzi6p8c)" height="36.4883" style="stroke: #A80036; stroke-width: 1.5;" width="100" x="448" y="321.54"/><rect fill="#FEFECE" height="5" style="stroke: #A80036; stroke-width: 1.5;" width="10" x="443" y="326.54"/><rect fill="#FEFECE" height="5" style="stroke: #A80036; stroke-width: 1.5;" width="10" x="443" y="348.0283"/><text fill="#000000" font-family="sans-serif" font-size="14" lengthAdjust="spacingAndGlyphs" textLength="80" x="458" y="345.0752">Preferences</text><rect fill="#FEFECE" filter="url(#f16hvo7zzi6p8c)" height="36.4883" style="stroke: #A80036; stroke-width: 1.5;" width="113" x="354.5" y="542.52"/><rect fill="#FEFECE" height="5" style="stroke: #A80036; stroke-width: 1.5;" width="10" x="349.5" y="547.52"/><rect fill="#FEFECE" height="5" style="stroke: #A80036; stroke-width: 1.5;" width="10" x="349.5" y="569.0083"/><text fill="#000000" font-family="sans-serif" font-size="14" lengthAdjust="spacingAndGlyphs" textLength="93" x="364.5" y="566.0552">Subscriptions</text><rect fill="#FEFECE" filter="url(#f16hvo7zzi6p8c)" height="36.4883" style="stroke: #A80036; stroke-width: 1.5;" width="134" x="1158" y="542.52"/><rect fill="#FEFECE" height="5" style="stroke: #A80036; stroke-width: 1.5;" width="10" x="1153" y="547.52"/><rect fill="#FEFECE" height="5" style="stroke: #A80036; stroke-width: 1.5;" width="10" x="1153" y="569.0083"/><text fill="#000000" font-family="sans-serif" font-size="14" lengthAdjust="spacingAndGlyphs" textLength="114" x="1168" y="566.0552">FirebaseConsole</text><path d="M1339.5,548.02 C1339.5,538.02 1374,538.02 1374,538.02 C1374,538.02 1408.5,538.02 1408.5,548.02 L1408.5,573.5083 C1408.5,583.5083 1374,583.5083 1374,583.5083 C1374,583.5083 1339.5,583.5083 1339.5,573.5083 L1339.5,548.02 " fill="#FEFECE" filter="url(#f16hvo7zzi6p8c)" style="stroke: #000000; stroke-width: 1.5;"/><path d="M1339.5,548.02 C1339.5,558.02 1374,558.02 1374,558.02 C1374,558.02 1408.5,558.02 1408.5,548.02 " fill="none" style="stroke: #000000; stroke-width: 1.5;"/><text fill="#000000" font-family="sans-serif" font-size="14" lengthAdjust="spacingAndGlyphs" textLength="49" x="1349.5" y="575.5552">Shard1</text><path d="M1443.5,548.02 C1443.5,538.02 1478,538.02 1478,538.02 C1478,538.02 1512.5,538.02 1512.5,548.02 L1512.5,573.5083 C1512.5,583.5083 1478,583.5083 1478,583.5083 C1478,583.5083 1443.5,583.5083 1443.5,573.5083 L1443.5,548.02 " fill="#FEFECE" filter="url(#f16hvo7zzi6p8c)" style="stroke: #000000; stroke-width: 1.5;"/><path d="M1443.5,548.02 C1443.5,558.02 1478,558.02 1478,558.02 C1478,558.02 1512.5,558.02 1512.5,548.02 " fill="none" style="stroke: #000000; stroke-width: 1.5;"/><text fill="#000000" font-family="sans-serif" font-size="14" lengthAdjust="spacingAndGlyphs" textLength="49" x="1453.5" y="575.5552">Shard2</text><path d="M1339.5,769.51 C1339.5,759.51 1374,759.51 1374,759.51 C1374,759.51 1408.5,759.51 1408.5,769.51 L1408.5,794.9983 C1408.5,804.9983 1374,804.9983 1374,804.9983 C1374,804.9983 1339.5,804.9983 1339.5,794.9983 L1339.5,769.51 " fill="#FEFECE" filter="url(#f16hvo7zzi6p8c)" style="stroke: #000000; stroke-width: 1.5;"/><path d="M1339.5,769.51 C1339.5,779.51 1374,779.51 1374,779.51 C1374,779.51 1408.5,779.51 1408.5,769.51 " fill="none" style="stroke: #000000; stroke-width: 1.5;"/><text fill="#000000" font-family="sans-serif" font-size="14" lengthAdjust="spacingAndGlyphs" textLength="49" x="1349.5" y="797.0452">Shard3</text><path d="M1443.5,769.51 C1443.5,759.51 1478,759.51 1478,759.51 C1478,759.51 1512.5,759.51 1512.5,769.51 L1512.5,794.9983 C1512.5,804.9983 1478,804.9983 1478,804.9983 C1478,804.9983 1443.5,804.9983 1443.5,794.9983 L1443.5,769.51 " fill="#FEFECE" filter="url(#f16hvo7zzi6p8c)" style="stroke: #000000; stroke-width: 1.5;"/><path d="M1443.5,769.51 C1443.5,779.51 1478,779.51 1478,779.51 C1478,779.51 1512.5,779.51 1512.5,769.51 " fill="none" style="stroke: #000000; stroke-width: 1.5;"/><text fill="#000000" font-family="sans-serif" font-size="14" lengthAdjust="spacingAndGlyphs" textLength="49" x="1453.5" y="797.0452">Shard4</text><rect fill="#FEFECE" filter="url(#f16hvo7zzi6p8c)" height="36.4883" style="stroke: #A80036; stroke-width: 1.5;" width="111" x="59.5" y="80.05"/><rect fill="#FEFECE" height="5" style="stroke: #A80036; stroke-width: 1.5;" width="10" x="54.5" y="85.05"/><rect fill="#FEFECE" height="5" style="stroke: #A80036; stroke-width: 1.5;" width="10" x="54.5" y="106.5383"/><text fill="#000000" font-family="sans-serif" font-size="14" lengthAdjust="spacingAndGlyphs" textLength="91" x="69.5" y="103.5852">LoadBalancer</text><rect fill="#FEFECE" filter="url(#f16hvo7zzi6p8c)" height="36.4883" style="stroke: #A80036; stroke-width: 1.5;" width="82" x="74" y="321.54"/><rect fill="#FEFECE" height="5" style="stroke: #A80036; stroke-width: 1.5;" width="10" x="69" y="326.54"/><rect fill="#FEFECE" height="5" style="stroke: #A80036; stroke-width: 1.5;" width="10" x="69" y="348.0283"/><text fill="#000000" font-family="sans-serif" font-size="14" lengthAdjust="spacingAndGlyphs" textLength="62" x="84" y="345.0752">Directory</text><path d="M1110.1217,341.2744 C1110.3501,341.2891 1110.5831,341.3042 1110.8205,341.3196 C1111.2954,341.3505 1111.7882,341.3827 1112.2987,341.4163 C1114.3406,341.5507 1116.6648,341.7073 1119.252,341.8869 C1129.6005,342.6054 1144.1553,343.6926 1161.6719,345.2064 C1196.705,348.2341 1243.585,352.9681 1292.355,359.8713 C1389.895,373.6775 1494.995,396.16 1528,431.02 C1537.7975,441.37 1543.9838,454.4231 1547.7428,468.222 C1549.6223,475.1215 1550.8951,482.2074 1551.709,489.2351 C1551.9125,490.992 1552.0873,492.7453 1552.2358,494.4911 " fill="none" id="a-f" style="stroke: #A80036; stroke-width: 1.0;"/><text fill="#000000" font-family="sans-serif" font-size="13" lengthAdjust="spacingAndGlyphs" textLength="40" x="1519" y="419.5884">HTTPS</text><path d="M1110.0342,340.6692 C1110.3094,340.6661 1110.5913,340.663 1110.8799,340.6599 C1111.4571,340.6537 1112.0609,340.6475 1112.691,340.6412 C1113.9511,340.6288 1115.316,340.6164 1116.7823,340.6046 C1119.7148,340.5811 1123.0527,340.5597 1126.768,340.544 C1141.6291,340.4815 1162.5283,340.5112 1187.6741,340.8611 C1237.9656,341.5609 1305.2437,343.5419 1375.1775,348.6287 C1515.045,358.8025 1665.535,381.4 1712,431.02 C1802.02,527.17 1779.97,707.31 1770.31,763.83 " fill="none" id="a-b" style="stroke: #A80036; stroke-width: 1.0;"/><text fill="#000000" font-family="sans-serif" font-size="13" lengthAdjust="spacingAndGlyphs" textLength="40" x="1780" y="565.8384">HTTPS</text><path d="M1110.0517,340.7192 C1111.0007,340.7149 1112.0288,340.7109 1113.1333,340.7077 C1115.3424,340.7014 1117.8572,340.698 1120.6569,340.6999 C1131.8557,340.7076 1147.6127,340.8008 1166.593,341.1328 C1204.5534,341.7969 1255.4069,343.4163 1308.4738,347.2175 C1414.6075,354.82 1529.595,371.15 1568,406.02 C1675.13,503.3 1665.55,703.56 1659.94,763.76 " fill="none" id="a-s" style="stroke: #A80036; stroke-width: 1.0;"/><text fill="#000000" font-family="sans-serif" font-size="13" lengthAdjust="spacingAndGlyphs" textLength="40" x="1663" y="565.8384">HTTPS</text><path d="M1556.1979,670.8051 C1556.4702,671.8069 1556.75,672.807 1557.0374,673.8048 C1558.1871,677.7961 1559.4588,681.7519 1560.8644,685.6441 C1563.6756,693.4286 1567.0225,700.9588 1571,708.01 C1584.29,731.57 1608.27,750.89 1627.69,763.76 " fill="none" id="f-s" style="stroke: #A80036; stroke-width: 1.0;"/><text fill="#000000" font-family="sans-serif" font-size="13" lengthAdjust="spacingAndGlyphs" textLength="40" x="1572" y="704.5784">HTTPS</text><path d="M115,116.9 C115,161.19 115,276.83 115,321.14 " fill="none" id="l-v" style="stroke: #A80036; stroke-width: 1.0;"/><path d="M219.2851,119.9558 C219.3944,120.2286 219.5047,120.5038 219.6159,120.7812 C219.8382,121.3359 220.0642,121.8996 220.2936,122.472 C222.129,127.0513 224.1879,132.1882 226.4258,137.7714 C235.3772,160.1041 247.1906,189.5756 259.0037,219.0463 C270.8169,248.5169 282.6297,277.9866 291.5798,300.3155 C293.8174,305.8977 295.876,311.0336 297.711,315.6117 C297.9404,316.184 298.1662,316.7475 298.3885,317.3021 C298.4997,317.5794 298.6099,317.8545 298.7193,318.1273 C298.774,318.2637 298.8284,318.3995 298.8826,318.5348 " fill="none" id="qw-ds" style="stroke: #A80036; stroke-width: 1.0;"/><path d="M219.4626,99.3734 C221.1698,99.3909 223.1265,99.4113 225.3246,99.4347 C234.1168,99.5281 246.7707,99.6688 262.7694,99.8625 C294.7668,100.25 340.1434,100.8501 394.7636,101.7102 C504.0041,103.4303 650.2194,106.1906 800.3263,110.3712 C1100.54,118.7325 1416.32,132.775 1483,155.54 C1684.18,224.22 1776.12,242.32 1874,431.02 C1925.57,530.44 1919.05,580.48 1874,683.01 C1858.43,718.45 1823.06,746.71 1797.23,763.66 " fill="none" id="qw-b" style="stroke: #A80036; stroke-width: 1.0;"/><path d="M219.9111,99.4596 C220.2533,99.4664 220.605,99.4735 220.9661,99.4807 C226.7432,99.5968 234.9215,99.7668 245.2096,99.995 C265.7859,100.4514 294.8011,101.1406 329.9234,102.0969 C400.1681,104.0094 494.8413,106.99 595.2875,111.3125 C796.18,119.9575 1020.165,133.97 1118,155.54 C1446.92,228.05 1633.99,152.92 1824,431.02 C1887.18,523.5 1891.69,593.79 1824,683.01 C1791.08,726.4 1750.8,685.06 1706,716.01 C1688.41,728.16 1674.79,748.88 1666.62,763.72 " fill="none" id="qw-s" style="stroke: #A80036; stroke-width: 1.0;"/></g></svg>