<?xml version="1.0" encoding="UTF-8" standalone="no"?><svg xmlns="http://www.w3.org/2000/svg" xmlns:xlink="http://www.w3.org/1999/xlink" contentScriptType="application/ecmascript" contentStyleType="text/css" height="692px" preserveAspectRatio="none" style="width:1838px;height:692px;" version="1.1" viewBox="0 0 1838 692" width="1838px" zoomAndPan="magnify"><defs><filter height="300%" id="fwxsnui0utehz" width="300%" x="-1" y="-1"><feGaussianBlur result="blurOut" stdDeviation="2.0"/><feColorMatrix in="blurOut" result="blurOut2" type="matrix" values="0 0 0 0 0 0 0 0 0 0 0 0 0 0 0 0 0 0 .4 0"/><feOffset dx="4.0" dy="4.0" in="blurOut2" result="blurOut3"/><feBlend in="SourceGraphic" in2="blurOut3" mode="normal"/></filter></defs><g><rect fill="#FFFFFF" filter="url(#fwxsnui0utehz)" height="302.47" style="stroke: #000000; stroke-width: 1.5;" width="763" x="784.24" y="285.04"/><rect fill="#FFFFFF" height="10" style="stroke: #000000; stroke-width: 1.5;" width="15" x="1527.24" y="290.04"/><rect fill="#FFFFFF" height="2" style="stroke: #000000; stroke-width: 1.5;" width="4" x="1525.24" y="292.04"/><rect fill="#FFFFFF" height="2" style="stroke: #000000; stroke-width: 1.5;" width="4" x="1525.24" y="296.04"/><text fill="#000000" font-family="sans-serif" font-size="14" font-weight="bold" lengthAdjust="spacingAndGlyphs" textLength="95" x="1118.24" y="311.5752">UserInterface</text><rect fill="#FFFFFF" filter="url(#fwxsnui0utehz)" height="87.48" style="stroke: #000000; stroke-width: 1.5;" width="209" x="1306.24" y="336.04"/><rect fill="#FFFFFF" height="10" style="stroke: #000000; stroke-width: 1.5;" width="15" x="1495.24" y="341.04"/><rect fill="#FFFFFF" height="2" style="stroke: #000000; stroke-width: 1.5;" width="4" x="1493.24" y="343.04"/><rect fill="#FFFFFF" height="2" style="stroke: #000000; stroke-width: 1.5;" width="4" x="1493.24" y="347.04"/><text fill="#000000" font-family="sans-serif" font-size="14" font-weight="bold" lengthAdjust="spacingAndGlyphs" textLength="58" x="1381.74" y="362.5752">Services</text><rect fill="#FFFFFF" filter="url(#fwxsnui0utehz)" height="219.47" style="stroke: #000000; stroke-width: 1.5;" width="209" x="1073.24" y="336.04"/><rect fill="#FFFFFF" height="10" style="stroke: #000000; stroke-width: 1.5;" width="15" x="1262.24" y="341.04"/><rect fill="#FFFFFF" height="2" style="stroke: #000000; stroke-width: 1.5;" width="4" x="1260.24" y="343.04"/><rect fill="#FFFFFF" height="2" style="stroke: #000000; stroke-width: 1.5;" width="4" x="1260.24" y="347.04"/><text fill="#000000" font-family="sans-serif" font-size="14" font-weight="bold" lengthAdjust="spacingAndGlyphs" textLength="67" x="1144.24" y="362.5752">Browsing</text><rect fill="#FFFFFF" filter="url(#fwxsnui0utehz)" height="219.47" style="stroke: #000000; stroke-width: 1.5;" width="225" x="824.24" y="336.04"/><rect fill="#FFFFFF" height="10" style="stroke: #000000; stroke-width: 1.5;" width="15" x="1029.24" y="341.04"/><rect fill="#FFFFFF" height="2" style="stroke: #000000; stroke-width: 1.5;" width="4" x="1027.24" y="343.04"/><rect fill="#FFFFFF" height="2" style="stroke: #000000; stroke-width: 1.5;" width="4" x="1027.24" y="347.04"/><text fill="#000000" font-family="sans-serif" font-size="14" font-weight="bold" lengthAdjust="spacingAndGlyphs" textLength="83" x="895.24" y="362.5752">Personalize</text><rect fill="#FFFFFF" filter="url(#fwxsnui0utehz)" height="225.48" style="stroke: #000000; stroke-width: 1.5;" width="240" x="1587.24" y="455.52"/><rect fill="#FFFFFF" height="10" style="stroke: #000000; stroke-width: 1.5;" width="15" x="1807.24" y="460.52"/><rect fill="#FFFFFF" height="2" style="stroke: #000000; stroke-width: 1.5;" width="4" x="1805.24" y="462.52"/><rect fill="#FFFFFF" height="2" style="stroke: #000000; stroke-width: 1.5;" width="4" x="1805.24" y="466.52"/><text fill="#000000" font-family="sans-serif" font-size="14" font-weight="bold" lengthAdjust="spacingAndGlyphs" textLength="60" x="1677.24" y="482.0552">Firebase</text><rect fill="#FFFFFF" filter="url(#fwxsnui0utehz)" height="87.49" style="stroke: #000000; stroke-width: 1.5;" width="784" x="22.24" y="165.55"/><rect fill="#FFFFFF" height="10" style="stroke: #000000; stroke-width: 1.5;" width="15" x="786.24" y="170.55"/><rect fill="#FFFFFF" height="2" style="stroke: #000000; stroke-width: 1.5;" width="4" x="784.24" y="172.55"/><rect fill="#FFFFFF" height="2" style="stroke: #000000; stroke-width: 1.5;" width="4" x="784.24" y="176.55"/><text fill="#000000" font-family="sans-serif" font-size="14" font-weight="bold" lengthAdjust="spacingAndGlyphs" textLength="24" x="402.24" y="192.0852">API</text><rect fill="#F8F8F8" filter="url(#fwxsnui0utehz)" height="36.4883" style="stroke: #383838; stroke-width: 1.5;" width="83" x="1415.74" y="371.04"/><rect fill="#F8F8F8" height="5" style="stroke: #383838; stroke-width: 1.5;" width="10" x="1410.74" y="376.04"/><rect fill="#F8F8F8" height="5" style="stroke: #383838; stroke-width: 1.5;" width="10" x="1410.74" y="397.5283"/><text fill="#000000" font-family="sans-serif" font-size="14" lengthAdjust="spacingAndGlyphs" textLength="63" x="1425.74" y="394.5752">Bookings</text><rect fill="#F8F8F8" filter="url(#fwxsnui0utehz)" height="36.4883" style="stroke: #383838; stroke-width: 1.5;" width="58" x="1322.24" y="371.04"/><rect fill="#F8F8F8" height="5" style="stroke: #383838; stroke-width: 1.5;" width="10" x="1317.24" y="376.04"/><rect fill="#F8F8F8" height="5" style="stroke: #383838; stroke-width: 1.5;" width="10" x="1317.24" y="397.5283"/><text fill="#000000" font-family="sans-serif" font-size="14" lengthAdjust="spacingAndGlyphs" textLength="38" x="1332.24" y="394.5752">Mode</text><rect fill="#F8F8F8" filter="url(#fwxsnui0utehz)" height="36.4883" style="stroke: #383838; stroke-width: 1.5;" width="66" x="1089.24" y="371.04"/><rect fill="#F8F8F8" height="5" style="stroke: #383838; stroke-width: 1.5;" width="10" x="1084.24" y="376.04"/><rect fill="#F8F8F8" height="5" style="stroke: #383838; stroke-width: 1.5;" width="10" x="1084.24" y="397.5283"/><text fill="#000000" font-family="sans-serif" font-size="14" lengthAdjust="spacingAndGlyphs" textLength="46" x="1099.24" y="394.5752">Search</text><rect fill="#F8F8F8" filter="url(#fwxsnui0utehz)" height="36.4883" style="stroke: #383838; stroke-width: 1.5;" width="77" x="1189.74" y="371.04"/><rect fill="#F8F8F8" height="5" style="stroke: #383838; stroke-width: 1.5;" width="10" x="1184.74" y="376.04"/><rect fill="#F8F8F8" height="5" style="stroke: #383838; stroke-width: 1.5;" width="10" x="1184.74" y="397.5283"/><text fill="#000000" font-family="sans-serif" font-size="14" lengthAdjust="spacingAndGlyphs" textLength="57" x="1199.74" y="394.5752">Filtering</text><rect fill="#F8F8F8" filter="url(#fwxsnui0utehz)" height="36.4883" style="stroke: #383838; stroke-width: 1.5;" width="47" x="1098.74" y="503.02"/><rect fill="#F8F8F8" height="5" style="stroke: #383838; stroke-width: 1.5;" width="10" x="1093.74" y="508.02"/><rect fill="#F8F8F8" height="5" style="stroke: #383838; stroke-width: 1.5;" width="10" x="1093.74" y="529.5083"/><text fill="#000000" font-family="sans-serif" font-size="14" lengthAdjust="spacingAndGlyphs" textLength="27" x="1108.74" y="526.5552">Info</text><rect fill="#F8F8F8" filter="url(#fwxsnui0utehz)" height="36.4883" style="stroke: #383838; stroke-width: 1.5;" width="78" x="1180.24" y="503.02"/><rect fill="#F8F8F8" height="5" style="stroke: #383838; stroke-width: 1.5;" width="10" x="1175.24" y="508.02"/><rect fill="#F8F8F8" height="5" style="stroke: #383838; stroke-width: 1.5;" width="10" x="1175.24" y="529.5083"/><text fill="#000000" font-family="sans-serif" font-size="14" lengthAdjust="spacingAndGlyphs" textLength="58" x="1190.24" y="526.5552">Location</text><rect fill="#F8F8F8" filter="url(#fwxsnui0utehz)" height="36.4883" style="stroke: #383838; stroke-width: 1.5;" width="58" x="840.24" y="371.04"/><rect fill="#F8F8F8" height="5" style="stroke: #383838; stroke-width: 1.5;" width="10" x="835.24" y="376.04"/><rect fill="#F8F8F8" height="5" style="stroke: #383838; stroke-width: 1.5;" width="10" x="835.24" y="397.5283"/><text fill="#000000" font-family="sans-serif" font-size="14" lengthAdjust="spacingAndGlyphs" textLength="38" x="850.24" y="394.5752">Login</text><rect fill="#F8F8F8" filter="url(#fwxsnui0utehz)" height="36.4883" style="stroke: #383838; stroke-width: 1.5;" width="100" x="933.24" y="371.04"/><rect fill="#F8F8F8" height="5" style="stroke: #383838; stroke-width: 1.5;" width="10" x="928.24" y="376.04"/><rect fill="#F8F8F8" height="5" style="stroke: #383838; stroke-width: 1.5;" width="10" x="928.24" y="397.5283"/><text fill="#000000" font-family="sans-serif" font-size="14" lengthAdjust="spacingAndGlyphs" textLength="80" x="943.24" y="394.5752">Preferences</text><rect fill="#F8F8F8" filter="url(#fwxsnui0utehz)" height="36.4883" style="stroke: #383838; stroke-width: 1.5;" width="113" x="839.74" y="503.02"/><rect fill="#F8F8F8" height="5" style="stroke: #383838; stroke-width: 1.5;" width="10" x="834.74" y="508.02"/><rect fill="#F8F8F8" height="5" style="stroke: #383838; stroke-width: 1.5;" width="10" x="834.74" y="529.5083"/><text fill="#000000" font-family="sans-serif" font-size="14" lengthAdjust="spacingAndGlyphs" textLength="93" x="849.74" y="526.5552">Subscriptions</text><path d="M1630.74,508.52 C1630.74,498.52 1665.24,498.52 1665.24,498.52 C1665.24,498.52 1699.74,498.52 1699.74,508.52 L1699.74,534.0083 C1699.74,544.0083 1665.24,544.0083 1665.24,544.0083 C1665.24,544.0083 1630.74,544.0083 1630.74,534.0083 L1630.74,508.52 " fill="#F8F8F8" filter="url(#fwxsnui0utehz)" style="stroke: #000000; stroke-width: 1.5;"/><path d="M1630.74,508.52 C1630.74,518.52 1665.24,518.52 1665.24,518.52 C1665.24,518.52 1699.74,518.52 1699.74,508.52 " fill="none" style="stroke: #000000; stroke-width: 1.5;"/><text fill="#000000" font-family="sans-serif" font-size="14" lengthAdjust="spacingAndGlyphs" textLength="49" x="1640.74" y="536.0552">Shard1</text><path d="M1734.74,508.52 C1734.74,498.52 1769.24,498.52 1769.24,498.52 C1769.24,498.52 1803.74,498.52 1803.74,508.52 L1803.74,534.0083 C1803.74,544.0083 1769.24,544.0083 1769.24,544.0083 C1769.24,544.0083 1734.74,544.0083 1734.74,534.0083 L1734.74,508.52 " fill="#F8F8F8" filter="url(#fwxsnui0utehz)" style="stroke: #000000; stroke-width: 1.5;"/><path d="M1734.74,508.52 C1734.74,518.52 1769.24,518.52 1769.24,518.52 C1769.24,518.52 1803.74,518.52 1803.74,508.52 " fill="none" style="stroke: #000000; stroke-width: 1.5;"/><text fill="#000000" font-family="sans-serif" font-size="14" lengthAdjust="spacingAndGlyphs" textLength="49" x="1744.74" y="536.0552">Shard2</text><path d="M1630.74,621.51 C1630.74,611.51 1665.24,611.51 1665.24,611.51 C1665.24,611.51 1699.74,611.51 1699.74,621.51 L1699.74,646.9983 C1699.74,656.9983 1665.24,656.9983 1665.24,656.9983 C1665.24,656.9983 1630.74,656.9983 1630.74,646.9983 L1630.74,621.51 " fill="#F8F8F8" filter="url(#fwxsnui0utehz)" style="stroke: #000000; stroke-width: 1.5;"/><path d="M1630.74,621.51 C1630.74,631.51 1665.24,631.51 1665.24,631.51 C1665.24,631.51 1699.74,631.51 1699.74,621.51 " fill="none" style="stroke: #000000; stroke-width: 1.5;"/><text fill="#000000" font-family="sans-serif" font-size="14" lengthAdjust="spacingAndGlyphs" textLength="49" x="1640.74" y="649.0452">Shard3</text><path d="M1734.74,621.51 C1734.74,611.51 1769.24,611.51 1769.24,611.51 C1769.24,611.51 1803.74,611.51 1803.74,621.51 L1803.74,646.9983 C1803.74,656.9983 1769.24,656.9983 1769.24,656.9983 C1769.24,656.9983 1734.74,656.9983 1734.74,646.9983 L1734.74,621.51 " fill="#F8F8F8" filter="url(#fwxsnui0utehz)" style="stroke: #000000; stroke-width: 1.5;"/><path d="M1734.74,621.51 C1734.74,631.51 1769.24,631.51 1769.24,631.51 C1769.24,631.51 1803.74,631.51 1803.74,621.51 " fill="none" style="stroke: #000000; stroke-width: 1.5;"/><text fill="#000000" font-family="sans-serif" font-size="14" lengthAdjust="spacingAndGlyphs" textLength="49" x="1744.74" y="649.0452">Shard4</text><rect fill="#F8F8F8" filter="url(#fwxsnui0utehz)" height="36.4883" style="stroke: #383838; stroke-width: 1.5;" width="136" x="392.24" y="200.55"/><rect fill="#F8F8F8" height="5" style="stroke: #383838; stroke-width: 1.5;" width="10" x="387.24" y="205.55"/><rect fill="#F8F8F8" height="5" style="stroke: #383838; stroke-width: 1.5;" width="10" x="387.24" y="227.0383"/><text fill="#000000" font-family="sans-serif" font-size="14" lengthAdjust="spacingAndGlyphs" textLength="116" x="402.24" y="224.0852">FirebaseMapsAPI</text><rect fill="#F8F8F8" filter="url(#fwxsnui0utehz)" height="36.4883" style="stroke: #383838; stroke-width: 1.5;" width="142" x="215.24" y="200.55"/><rect fill="#F8F8F8" height="5" style="stroke: #383838; stroke-width: 1.5;" width="10" x="210.24" y="205.55"/><rect fill="#F8F8F8" height="5" style="stroke: #383838; stroke-width: 1.5;" width="10" x="210.24" y="227.0383"/><text fill="#000000" font-family="sans-serif" font-size="14" lengthAdjust="spacingAndGlyphs" textLength="122" x="225.24" y="224.0852">FirebasePlacesAPI</text><rect fill="#F8F8F8" filter="url(#fwxsnui0utehz)" height="36.4883" style="stroke: #383838; stroke-width: 1.5;" width="143" x="37.74" y="200.55"/><rect fill="#F8F8F8" height="5" style="stroke: #383838; stroke-width: 1.5;" width="10" x="32.74" y="205.55"/><rect fill="#F8F8F8" height="5" style="stroke: #383838; stroke-width: 1.5;" width="10" x="32.74" y="227.0383"/><text fill="#000000" font-family="sans-serif" font-size="14" lengthAdjust="spacingAndGlyphs" textLength="123" x="47.74" y="224.0852">FirebaseHotelsAPI</text><rect fill="#F8F8F8" filter="url(#fwxsnui0utehz)" height="36.4883" style="stroke: #383838; stroke-width: 1.5;" width="110" x="563.24" y="200.55"/><rect fill="#F8F8F8" height="5" style="stroke: #383838; stroke-width: 1.5;" width="10" x="558.24" y="205.55"/><rect fill="#F8F8F8" height="5" style="stroke: #383838; stroke-width: 1.5;" width="10" x="558.24" y="227.0383"/><text fill="#000000" font-family="sans-serif" font-size="14" lengthAdjust="spacingAndGlyphs" textLength="90" x="573.24" y="224.0852">TransportAPI</text><rect fill="#F8F8F8" filter="url(#fwxsnui0utehz)" height="36.4883" style="stroke: #383838; stroke-width: 1.5;" width="82" x="708.24" y="200.55"/><rect fill="#F8F8F8" height="5" style="stroke: #383838; stroke-width: 1.5;" width="10" x="703.24" y="205.55"/><rect fill="#F8F8F8" height="5" style="stroke: #383838; stroke-width: 1.5;" width="10" x="703.24" y="227.0383"/><text fill="#000000" font-family="sans-serif" font-size="14" lengthAdjust="spacingAndGlyphs" textLength="62" x="718.24" y="224.0852">StripeAPI</text><rect fill="#F8F8F8" filter="url(#fwxsnui0utehz)" height="36.4883" style="stroke: #383838; stroke-width: 1.5;" width="88" x="574.24" y="371.04"/><rect fill="#F8F8F8" height="5" style="stroke: #383838; stroke-width: 1.5;" width="10" x="569.24" y="376.04"/><rect fill="#F8F8F8" height="5" style="stroke: #383838; stroke-width: 1.5;" width="10" x="569.24" y="397.5283"/><text fill="#000000" font-family="sans-serif" font-size="14" lengthAdjust="spacingAndGlyphs" textLength="68" x="584.24" y="394.5752">Transport</text><rect fill="#F8F8F8" filter="url(#fwxsnui0utehz)" height="36.4883" style="stroke: #383838; stroke-width: 1.5;" width="60" x="697.24" y="371.04"/><rect fill="#F8F8F8" height="5" style="stroke: #383838; stroke-width: 1.5;" width="10" x="692.24" y="376.04"/><rect fill="#F8F8F8" height="5" style="stroke: #383838; stroke-width: 1.5;" width="10" x="692.24" y="397.5283"/><text fill="#000000" font-family="sans-serif" font-size="14" lengthAdjust="spacingAndGlyphs" textLength="40" x="707.24" y="394.5752">Stripe</text><rect fill="#F8F8F8" filter="url(#fwxsnui0utehz)" height="36.4883" style="stroke: #383838; stroke-width: 1.5;" width="111" x="79.74" y="7.57"/><rect fill="#F8F8F8" height="5" style="stroke: #383838; stroke-width: 1.5;" width="10" x="74.74" y="12.57"/><rect fill="#F8F8F8" height="5" style="stroke: #383838; stroke-width: 1.5;" width="10" x="74.74" y="34.0583"/><text fill="#000000" font-family="sans-serif" font-size="14" lengthAdjust="spacingAndGlyphs" textLength="91" x="89.74" y="31.1052">LoadBalancer</text><rect fill="#F8F8F8" filter="url(#fwxsnui0utehz)" height="36.4883" style="stroke: #383838; stroke-width: 1.5;" width="82" x="332.24" y="104.06"/><rect fill="#F8F8F8" height="5" style="stroke: #383838; stroke-width: 1.5;" width="10" x="327.24" y="109.06"/><rect fill="#F8F8F8" height="5" style="stroke: #383838; stroke-width: 1.5;" width="10" x="327.24" y="130.5483"/><text fill="#000000" font-family="sans-serif" font-size="14" lengthAdjust="spacingAndGlyphs" textLength="62" x="342.24" y="127.5952">Directory</text><ellipse cx="658.24" cy="521.27" fill="#F8F8F8" filter="url(#fwxsnui0utehz)" rx="8" ry="8" style="stroke: #383838; stroke-width: 2.0;"/><ellipse cx="739.24" cy="521.27" fill="#F8F8F8" filter="url(#fwxsnui0utehz)" rx="8" ry="8" style="stroke: #383838; stroke-width: 2.0;"/><path d="M112.54,44.18 C85.07,66.8 40.24,109.19 22.24,157.55 C6.19,200.65 -3.42,222.86 22.24,261.04 C178.24,493.08 582.1,517.53 648.84,520 " fill="none" id="LoadBalancer-l" style="stroke: #383838; stroke-width: 1.0;"/><path d="M1587.0131,519.016 C1585.7722,518.6777 1584.3991,518.3036 1582.8994,517.8954 C1576.9007,516.2625 1568.8765,514.0834 1559.1855,511.4638 C1539.8034,506.2244 1513.7544,499.2225 1483.9088,491.3025 C1424.2175,475.4625 1349.34,455.95 1282.24,439.52 C1274.49,437.63 1272.67,436.42 1264.74,435.52 C1218.04,430.25 888.45,430.25 841.74,435.52 C833.81,436.42 831.26,435.73 824.24,439.52 C789.66,458.21 759.14,494.85 746.04,512 " fill="none" id="Firebase-f" style="stroke: #383838; stroke-width: 1.0;"/><path d="M717.94,407.81 C704.8,432.56 680.94,477.5 667.71,502.42 " fill="none" id="Stripe-&gt;l" style="stroke: #383838; stroke-width: 1.0;"/><path d="M671.5234,512.2858 A9,9 0 0 0 656.5828 504.3562" fill="none" style="stroke: #383838; stroke-width: 1.5;"/><path d="M623.64,407.81 C631.18,432.34 644.83,476.7 652.54,501.75 " fill="none" id="Transport-&gt;l" style="stroke: #383838; stroke-width: 1.0;"/><path d="M662.8869,505.6093 A9,9 0 0 0 646.7214 510.587" fill="none" style="stroke: #383838; stroke-width: 1.5;"/><path d="M784.2264,419.212 C784.1551,419.3473 784.0831,419.4823 784.0106,419.617 C783.8654,419.8864 783.7178,420.1546 783.5677,420.4214 C781.165,424.6906 778.1125,428.61 774.24,431.52 C752.39,447.96 736.53,425.19 713.24,439.52 C689.68,454.02 673.82,482.81 665.41,501.81 " fill="none" id="er-&gt;l" style="stroke: #383838; stroke-width: 1.0;"/><path d="M670.2112,511.3075 A9,9 0 0 0 654.5879 504.826" fill="none" style="stroke: #383838; stroke-width: 1.5;"/><path d="M728.86,407.81 C731.11,432.23 735.18,476.3 737.5,501.4 " fill="none" id="Stripe-&gt;f" style="stroke: #383838; stroke-width: 1.0;"/><path d="M746.6203,507.2014 A9,9 0 0 0 729.7767 508.748" fill="none" style="stroke: #383838; stroke-width: 1.5;"/><path d="M179.73,44.48 C223.32,61.78 289.23,87.95 331.76,104.83 " fill="none" id="LoadBalancer-Directory" style="stroke: #383838; stroke-width: 1.0;"/><path d="M252.1794,65.6313 A10,10 0 0 0 246.9613 78.7756" fill="#FFFFFF" style="stroke: #383838; stroke-width: 1.5;"/><ellipse cx="256.1425" cy="74.8125" fill="#FFFFFF" rx="6" ry="6" style="stroke: #383838; stroke-width: 1.5;"/><path d="M357.28,140.63 C341.68,157.58 318.06,183.24 302.39,200.25 " fill="none" id="Directory-FirebasePlacesAPI" style="stroke: #383838; stroke-width: 1.0;"/><path d="M339.8527,170.0045 A10,10 0 0 0 329.4483 160.426" fill="#FFFFFF" style="stroke: #383838; stroke-width: 1.5;"/><ellipse cx="329.8613" cy="170.4175" fill="#FFFFFF" rx="6" ry="6" style="stroke: #383838; stroke-width: 1.5;"/><path d="M331.93,126.68 C295.59,130.73 241.83,139.42 198.24,157.55 C172.92,168.08 147.33,186.38 130.13,200.05 " fill="none" id="Directory-FirebaseHotelsAPI" style="stroke: #383838; stroke-width: 1.0;"/><path d="M207.4844,161.3634 A10,10 0 0 0 202.0534 148.3056" fill="#FFFFFF" style="stroke: #383838; stroke-width: 1.5;"/><ellipse cx="198.24" cy="157.55" fill="#FFFFFF" rx="6" ry="6" style="stroke: #383838; stroke-width: 1.5;"/><path d="M389.2,140.63 C404.8,157.58 428.43,183.24 444.09,200.25 " fill="none" id="Directory-FirebaseMapsAPI" style="stroke: #383838; stroke-width: 1.0;"/><path d="M417.0348,160.426 A10,10 0 0 0 406.631 170.0052" fill="#FFFFFF" style="stroke: #383838; stroke-width: 1.5;"/><ellipse cx="416.6225" cy="170.4175" fill="#FFFFFF" rx="6" ry="6" style="stroke: #383838; stroke-width: 1.5;"/><path d="M414.55,125.69 C450.79,129.11 504.12,137.4 546.24,157.55 C568,167.95 588.67,186.46 602.23,200.23 " fill="none" id="Directory-TransportAPI" style="stroke: #383838; stroke-width: 1.0;"/><path d="M542.9128,148.1197 A10,10 0 0 0 536.8097 160.8772" fill="#FFFFFF" style="stroke: #383838; stroke-width: 1.5;"/><ellipse cx="546.24" cy="157.55" fill="#FFFFFF" rx="6" ry="6" style="stroke: #383838; stroke-width: 1.5;"/><path d="M414.54,124.27 C489.24,126.59 643.5,134.14 691.24,157.55 C710.8,167.13 727.35,186.17 737.7,200.29 " fill="none" id="Directory-StripeAPI" style="stroke: #383838; stroke-width: 1.0;"/><path d="M556.6274,125.2948 A10,10 0 0 0 555.2935 139.3739" fill="#FFFFFF" style="stroke: #383838; stroke-width: 1.5;"/><ellipse cx="563" cy="133.0013" fill="#FFFFFF" rx="6" ry="6" style="stroke: #383838; stroke-width: 1.5;"/><path d="M746.93,237.5 C742.7,269.86 733.78,338.18 729.56,370.55 " fill="none" id="StripeAPI-Stripe" style="stroke: #383838; stroke-width: 1.0;"/><path d="M746.1682,297.9251 A10,10 0 0 0 732.1451 296.0943" fill="#FFFFFF" style="stroke: #383838; stroke-width: 1.5;"/><ellipse cx="738.2413" cy="304.0213" fill="#FFFFFF" rx="6" ry="6" style="stroke: #383838; stroke-width: 1.5;"/><path d="M618.24,237.5 C618.24,269.86 618.24,338.18 618.24,370.55 " fill="none" id="TransportAPI-Transport" style="stroke: #383838; stroke-width: 1.0;"/><path d="M625.3111,296.9502 A10,10 0 0 0 611.1689 296.9502" fill="#FFFFFF" style="stroke: #383838; stroke-width: 1.5;"/><ellipse cx="618.24" cy="304.0213" fill="#FFFFFF" rx="6" ry="6" style="stroke: #383838; stroke-width: 1.5;"/></g></svg>