<?xml version="1.0" encoding="UTF-8" standalone="no"?><svg xmlns="http://www.w3.org/2000/svg" xmlns:xlink="http://www.w3.org/1999/xlink" contentScriptType="application/ecmascript" contentStyleType="text/css" height="713px" preserveAspectRatio="none" style="width:1632px;height:713px;" version="1.1" viewBox="0 0 1632 713" width="1632px" zoomAndPan="magnify"><defs/><g><text fill="#000000" font-family="Courier" font-size="14" font-weight="bold" lengthAdjust="spacingAndGlyphs" textLength="264" x="685" y="22.9951">User purchases tickets for a tour</text><rect fill="#DDDDDD" height="667.8516" style="stroke: #383838; stroke-width: 1.0;" width="1146" x="4" y="34.2969"/><text fill="#000000" font-family="Courier" font-size="13" font-weight="bold" lengthAdjust="spacingAndGlyphs" textLength="112" x="521" y="46.3638">User Interface</text><line style="stroke: #383838; stroke-width: 1.0; stroke-dasharray: 5.0,5.0;" x1="71" x2="71" y1="95.5938" y2="636.8516"/><line style="stroke: #383838; stroke-width: 1.0; stroke-dasharray: 5.0,5.0;" x1="487" x2="487" y1="95.5938" y2="636.8516"/><line style="stroke: #383838; stroke-width: 1.0; stroke-dasharray: 5.0,5.0;" x1="871" x2="871" y1="95.5938" y2="636.8516"/><line style="stroke: #383838; stroke-width: 1.0; stroke-dasharray: 5.0,5.0;" x1="947" x2="947" y1="95.5938" y2="636.8516"/><line style="stroke: #383838; stroke-width: 1.0; stroke-dasharray: 5.0,5.0;" x1="1019" x2="1019" y1="95.5938" y2="636.8516"/><line style="stroke: #383838; stroke-width: 1.0; stroke-dasharray: 5.0,5.0;" x1="1107" x2="1107" y1="95.5938" y2="636.8516"/><line style="stroke: #383838; stroke-width: 1.0; stroke-dasharray: 5.0,5.0;" x1="1195" x2="1195" y1="95.5938" y2="636.8516"/><line style="stroke: #383838; stroke-width: 1.0; stroke-dasharray: 5.0,5.0;" x1="1311" x2="1311" y1="95.5938" y2="636.8516"/><line style="stroke: #383838; stroke-width: 1.0; stroke-dasharray: 5.0,5.0;" x1="1535" x2="1535" y1="95.5938" y2="636.8516"/><line style="stroke: #383838; stroke-width: 1.0; stroke-dasharray: 5.0,5.0;" x1="1595" x2="1595" y1="95.5938" y2="636.8516"/><rect fill="#F8F8F8" height="30.2969" style="stroke: #383838; stroke-width: 1.5;" width="126" x="8" y="64.2969"/><text fill="#000000" font-family="Courier" font-size="14" lengthAdjust="spacingAndGlyphs" textLength="112" x="15" y="84.292">User Interface</text><rect fill="#F8F8F8" height="30.2969" style="stroke: #383838; stroke-width: 1.5;" width="126" x="8" y="635.8516"/><text fill="#000000" font-family="Courier" font-size="14" lengthAdjust="spacingAndGlyphs" textLength="112" x="15" y="655.8467">User Interface</text><rect fill="#F8F8F8" height="30.2969" style="stroke: #383838; stroke-width: 1.5;" width="62" x="456" y="64.2969"/><text fill="#000000" font-family="Courier" font-size="14" lengthAdjust="spacingAndGlyphs" textLength="48" x="463" y="84.292">Search</text><rect fill="#F8F8F8" height="30.2969" style="stroke: #383838; stroke-width: 1.5;" width="62" x="456" y="635.8516"/><text fill="#000000" font-family="Courier" font-size="14" lengthAdjust="spacingAndGlyphs" textLength="48" x="463" y="655.8467">Search</text><rect fill="#F8F8F8" height="30.2969" style="stroke: #383838; stroke-width: 1.5;" width="86" x="828" y="64.2969"/><text fill="#000000" font-family="Courier" font-size="14" lengthAdjust="spacingAndGlyphs" textLength="72" x="835" y="84.292">Filtering</text><rect fill="#F8F8F8" height="30.2969" style="stroke: #383838; stroke-width: 1.5;" width="86" x="828" y="635.8516"/><text fill="#000000" font-family="Courier" font-size="14" lengthAdjust="spacingAndGlyphs" textLength="72" x="835" y="655.8467">Filtering</text><rect fill="#F8F8F8" height="30.2969" style="stroke: #383838; stroke-width: 1.5;" width="46" x="924" y="64.2969"/><text fill="#000000" font-family="Courier" font-size="14" lengthAdjust="spacingAndGlyphs" textLength="32" x="931" y="84.292">Info</text><rect fill="#F8F8F8" height="30.2969" style="stroke: #383838; stroke-width: 1.5;" width="46" x="924" y="635.8516"/><text fill="#000000" font-family="Courier" font-size="14" lengthAdjust="spacingAndGlyphs" textLength="32" x="931" y="655.8467">Info</text><rect fill="#F8F8F8" height="30.2969" style="stroke: #383838; stroke-width: 1.5;" width="78" x="980" y="64.2969"/><text fill="#000000" font-family="Courier" font-size="14" lengthAdjust="spacingAndGlyphs" textLength="64" x="987" y="84.292">Location</text><rect fill="#F8F8F8" height="30.2969" style="stroke: #383838; stroke-width: 1.5;" width="78" x="980" y="635.8516"/><text fill="#000000" font-family="Courier" font-size="14" lengthAdjust="spacingAndGlyphs" textLength="64" x="987" y="655.8467">Location</text><rect fill="#F8F8F8" height="30.2969" style="stroke: #383838; stroke-width: 1.5;" width="78" x="1068" y="64.2969"/><text fill="#000000" font-family="Courier" font-size="14" lengthAdjust="spacingAndGlyphs" textLength="64" x="1075" y="84.292">Services</text><rect fill="#F8F8F8" height="30.2969" style="stroke: #383838; stroke-width: 1.5;" width="78" x="1068" y="635.8516"/><text fill="#000000" font-family="Courier" font-size="14" lengthAdjust="spacingAndGlyphs" textLength="64" x="1075" y="655.8467">Services</text><rect fill="#F8F8F8" height="30.2969" style="stroke: #383838; stroke-width: 1.5;" width="78" x="1156" y="64.2969"/><text fill="#000000" font-family="Courier" font-size="14" lengthAdjust="spacingAndGlyphs" textLength="64" x="1163" y="84.292">Security</text><rect fill="#F8F8F8" height="30.2969" style="stroke: #383838; stroke-width: 1.5;" width="78" x="1156" y="635.8516"/><text fill="#000000" font-family="Courier" font-size="14" lengthAdjust="spacingAndGlyphs" textLength="64" x="1163" y="655.8467">Security</text><rect fill="#F8F8F8" height="30.2969" style="stroke: #383838; stroke-width: 1.5;" width="134" x="1244" y="64.2969"/><text fill="#000000" font-family="Courier" font-size="14" lengthAdjust="spacingAndGlyphs" textLength="120" x="1251" y="84.292">Payment Gateway</text><rect fill="#F8F8F8" height="30.2969" style="stroke: #383838; stroke-width: 1.5;" width="134" x="1244" y="635.8516"/><text fill="#000000" font-family="Courier" font-size="14" lengthAdjust="spacingAndGlyphs" textLength="120" x="1251" y="655.8467">Payment Gateway</text><rect fill="#F8F8F8" height="30.2969" style="stroke: #383838; stroke-width: 1.5;" width="38" x="1516" y="64.2969"/><text fill="#000000" font-family="Courier" font-size="14" lengthAdjust="spacingAndGlyphs" textLength="24" x="1523" y="84.292">API</text><rect fill="#F8F8F8" height="30.2969" style="stroke: #383838; stroke-width: 1.5;" width="38" x="1516" y="635.8516"/><text fill="#000000" font-family="Courier" font-size="14" lengthAdjust="spacingAndGlyphs" textLength="24" x="1523" y="655.8467">API</text><text fill="#000000" font-family="Courier" font-size="14" lengthAdjust="spacingAndGlyphs" textLength="56" x="1564" y="92.292">RealmDB</text><path d="M1577,43.2969 C1577,33.2969 1595,33.2969 1595,33.2969 C1595,33.2969 1613,33.2969 1613,43.2969 L1613,69.2969 C1613,79.2969 1595,79.2969 1595,79.2969 C1595,79.2969 1577,79.2969 1577,69.2969 L1577,43.2969 " fill="#7F7F7F" style="stroke: #000000; stroke-width: 1.5;"/><path d="M1577,43.2969 C1577,53.2969 1595,53.2969 1595,53.2969 C1595,53.2969 1613,53.2969 1613,43.2969 " fill="none" style="stroke: #000000; stroke-width: 1.5;"/><text fill="#000000" font-family="Courier" font-size="14" lengthAdjust="spacingAndGlyphs" textLength="56" x="1564" y="648.8467">RealmDB</text><path d="M1577,662.1484 C1577,652.1484 1595,652.1484 1595,652.1484 C1595,652.1484 1613,652.1484 1613,662.1484 L1613,688.1484 C1613,698.1484 1595,698.1484 1595,698.1484 C1595,698.1484 1577,698.1484 1577,688.1484 L1577,662.1484 " fill="#7F7F7F" style="stroke: #000000; stroke-width: 1.5;"/><path d="M1577,662.1484 C1577,672.1484 1595,672.1484 1595,672.1484 C1595,672.1484 1613,672.1484 1613,662.1484 " fill="none" style="stroke: #000000; stroke-width: 1.5;"/><polygon fill="#383838" points="1183,122.7266,1193,126.7266,1183,130.7266,1187,126.7266" style="stroke: #383838; stroke-width: 1.0;"/><line style="stroke: #383838; stroke-width: 1.0;" x1="71" x2="1189" y1="126.7266" y2="126.7266"/><text fill="#000000" font-family="Courier" font-size="13" lengthAdjust="spacingAndGlyphs" textLength="160" x="78" y="121.6606">User logins into app</text><polygon fill="#383838" points="82,151.8594,72,155.8594,82,159.8594,78,155.8594" style="stroke: #383838; stroke-width: 1.0;"/><line style="stroke: #383838; stroke-width: 1.0; stroke-dasharray: 2.0,2.0;" x1="76" x2="1594" y1="155.8594" y2="155.8594"/><text fill="#000000" font-family="Courier" font-size="13" lengthAdjust="spacingAndGlyphs" textLength="144" x="88" y="150.7935">User authenticated</text><line style="stroke: #383838; stroke-width: 1.0;" x1="71" x2="113" y1="184.9922" y2="184.9922"/><line style="stroke: #383838; stroke-width: 1.0;" x1="113" x2="113" y1="184.9922" y2="197.9922"/><line style="stroke: #383838; stroke-width: 1.0;" x1="72" x2="113" y1="197.9922" y2="197.9922"/><polygon fill="#383838" points="82,193.9922,72,197.9922,82,201.9922,78,197.9922" style="stroke: #383838; stroke-width: 1.0;"/><text fill="#000000" font-family="Courier" font-size="13" lengthAdjust="spacingAndGlyphs" textLength="240" x="78" y="179.9263">User opens the browsing screen</text><polygon fill="#383838" points="475,223.125,485,227.125,475,231.125,479,227.125" style="stroke: #383838; stroke-width: 1.0;"/><line style="stroke: #383838; stroke-width: 1.0;" x1="71" x2="481" y1="227.125" y2="227.125"/><text fill="#000000" font-family="Courier" font-size="13" lengthAdjust="spacingAndGlyphs" textLength="256" x="78" y="222.0591">User searches for transportation</text><polygon fill="#383838" points="82,252.2578,72,256.2578,82,260.2578,78,256.2578" style="stroke: #383838; stroke-width: 1.0;"/><line style="stroke: #383838; stroke-width: 1.0; stroke-dasharray: 2.0,2.0;" x1="76" x2="486" y1="256.2578" y2="256.2578"/><text fill="#000000" font-family="Courier" font-size="13" lengthAdjust="spacingAndGlyphs" textLength="392" x="88" y="251.1919">Search displays sub categories for transportation</text><polygon fill="#383838" points="475,281.3906,485,285.3906,475,289.3906,479,285.3906" style="stroke: #383838; stroke-width: 1.0;"/><line style="stroke: #383838; stroke-width: 1.0;" x1="71" x2="481" y1="285.3906" y2="285.3906"/><text fill="#000000" font-family="Courier" font-size="13" lengthAdjust="spacingAndGlyphs" textLength="336" x="78" y="280.3247">User selects the filtering option of price</text><polygon fill="#383838" points="859,310.5234,869,314.5234,859,318.5234,863,314.5234" style="stroke: #383838; stroke-width: 1.0;"/><line style="stroke: #383838; stroke-width: 1.0;" x1="487" x2="865" y1="314.5234" y2="314.5234"/><text fill="#000000" font-family="Courier" font-size="13" lengthAdjust="spacingAndGlyphs" textLength="360" x="494" y="309.4575">Search calls the filtering to display options</text><polygon fill="#383838" points="1583,339.6563,1593,343.6563,1583,347.6563,1587,343.6563" style="stroke: #383838; stroke-width: 1.0;"/><line style="stroke: #383838; stroke-width: 1.0;" x1="871" x2="1589" y1="343.6563" y2="343.6563"/><text fill="#000000" font-family="Courier" font-size="13" lengthAdjust="spacingAndGlyphs" textLength="304" x="878" y="338.5903">Requests the results from the database</text><polygon fill="#383838" points="882,368.7891,872,372.7891,882,376.7891,878,372.7891" style="stroke: #383838; stroke-width: 1.0;"/><line style="stroke: #383838; stroke-width: 1.0; stroke-dasharray: 2.0,2.0;" x1="876" x2="1594" y1="372.7891" y2="372.7891"/><text fill="#000000" font-family="Courier" font-size="13" lengthAdjust="spacingAndGlyphs" textLength="456" x="888" y="367.7231">Results are fetched back as response to filtering request</text><polygon fill="#383838" points="82,397.9219,72,401.9219,82,405.9219,78,401.9219" style="stroke: #383838; stroke-width: 1.0;"/><line style="stroke: #383838; stroke-width: 1.0; stroke-dasharray: 2.0,2.0;" x1="76" x2="870" y1="401.9219" y2="401.9219"/><text fill="#000000" font-family="Courier" font-size="13" lengthAdjust="spacingAndGlyphs" textLength="424" x="88" y="396.856">The transport options with filter price are displayed</text><polygon fill="#383838" points="1095,427.0547,1105,431.0547,1095,435.0547,1099,431.0547" style="stroke: #383838; stroke-width: 1.0;"/><line style="stroke: #383838; stroke-width: 1.0;" x1="71" x2="1101" y1="431.0547" y2="431.0547"/><text fill="#000000" font-family="Courier" font-size="13" lengthAdjust="spacingAndGlyphs" textLength="416" x="78" y="425.9888">User clicks on buy daily pass under sub category bus</text><polygon fill="#383838" points="1523,456.1875,1533,460.1875,1523,464.1875,1527,460.1875" style="stroke: #383838; stroke-width: 1.0;"/><line style="stroke: #383838; stroke-width: 1.0;" x1="1107" x2="1529" y1="460.1875" y2="460.1875"/><text fill="#000000" font-family="Courier" font-size="13" lengthAdjust="spacingAndGlyphs" textLength="320" x="1114" y="455.1216">Requests the link for payment processing</text><polygon fill="#383838" points="1322,485.3203,1312,489.3203,1322,493.3203,1318,489.3203" style="stroke: #383838; stroke-width: 1.0;"/><line style="stroke: #383838; stroke-width: 1.0;" x1="1316" x2="1534" y1="489.3203" y2="489.3203"/><text fill="#000000" font-family="Courier" font-size="13" lengthAdjust="spacingAndGlyphs" textLength="200" x="1328" y="484.2544">Connects with the gateway</text><polygon fill="#383838" points="82,514.4531,72,518.4531,82,522.4531,78,518.4531" style="stroke: #383838; stroke-width: 1.0;"/><line style="stroke: #383838; stroke-width: 1.0;" x1="76" x2="1310" y1="518.4531" y2="518.4531"/><text fill="#000000" font-family="Courier" font-size="13" lengthAdjust="spacingAndGlyphs" textLength="312" x="88" y="513.3872">Payment page displayed for user details</text><line style="stroke: #383838; stroke-width: 1.0;" x1="71" x2="113" y1="547.5859" y2="547.5859"/><line style="stroke: #383838; stroke-width: 1.0;" x1="113" x2="113" y1="547.5859" y2="560.5859"/><line style="stroke: #383838; stroke-width: 1.0;" x1="72" x2="113" y1="560.5859" y2="560.5859"/><polygon fill="#383838" points="82,556.5859,72,560.5859,82,564.5859,78,560.5859" style="stroke: #383838; stroke-width: 1.0;"/><text fill="#000000" font-family="Courier" font-size="13" lengthAdjust="spacingAndGlyphs" textLength="128" x="78" y="542.52">Transaction made</text><polygon fill="#383838" points="1583,585.7188,1593,589.7188,1583,593.7188,1587,589.7188" style="stroke: #383838; stroke-width: 1.0;"/><line style="stroke: #383838; stroke-width: 1.0;" x1="1311" x2="1589" y1="589.7188" y2="589.7188"/><text fill="#000000" font-family="Courier" font-size="13" lengthAdjust="spacingAndGlyphs" textLength="232" x="1318" y="584.6528">Transaction details are saved</text><polygon fill="#383838" points="82,614.8516,72,618.8516,82,622.8516,78,618.8516" style="stroke: #383838; stroke-width: 1.0;"/><line style="stroke: #383838; stroke-width: 1.0; stroke-dasharray: 2.0,2.0;" x1="76" x2="1310" y1="618.8516" y2="618.8516"/><text fill="#000000" font-family="Courier" font-size="13" lengthAdjust="spacingAndGlyphs" textLength="240" x="88" y="613.7856">Confirmation message displayed</text></g></svg>