<?xml version="1.0" encoding="UTF-8" standalone="no"?><svg xmlns="http://www.w3.org/2000/svg" xmlns:xlink="http://www.w3.org/1999/xlink" contentScriptType="application/ecmascript" contentStyleType="text/css" height="736px" preserveAspectRatio="none" style="width:1902px;height:736px;" version="1.1" viewBox="0 0 1902 736" width="1902px" zoomAndPan="magnify"><defs/><g><rect fill="#DDDDDD" height="721.9844" style="stroke: #383838; stroke-width: 1.0;" width="1366" x="4" y="4"/><text fill="#000000" font-family="Courier" font-size="13" font-weight="bold" lengthAdjust="spacingAndGlyphs" textLength="112" x="631" y="16.0669">User Interface</text><line style="stroke: #383838; stroke-width: 1.0; stroke-dasharray: 5.0,5.0;" x1="27" x2="27" y1="102.4297" y2="643.6875"/><line style="stroke: #383838; stroke-width: 1.0; stroke-dasharray: 5.0,5.0;" x1="355" x2="355" y1="102.4297" y2="643.6875"/><line style="stroke: #383838; stroke-width: 1.0; stroke-dasharray: 5.0,5.0;" x1="423" x2="423" y1="102.4297" y2="643.6875"/><line style="stroke: #383838; stroke-width: 1.0; stroke-dasharray: 5.0,5.0;" x1="507" x2="507" y1="102.4297" y2="643.6875"/><line style="stroke: #383838; stroke-width: 1.0; stroke-dasharray: 5.0,5.0;" x1="583" x2="583" y1="102.4297" y2="643.6875"/><line style="stroke: #383838; stroke-width: 1.0; stroke-dasharray: 5.0,5.0;" x1="655" x2="655" y1="102.4297" y2="643.6875"/><line style="stroke: #383838; stroke-width: 1.0; stroke-dasharray: 5.0,5.0;" x1="763" x2="763" y1="102.4297" y2="643.6875"/><line style="stroke: #383838; stroke-width: 1.0; stroke-dasharray: 5.0,5.0;" x1="883" x2="883" y1="102.4297" y2="643.6875"/><line style="stroke: #383838; stroke-width: 1.0; stroke-dasharray: 5.0,5.0;" x1="983" x2="983" y1="102.4297" y2="643.6875"/><line style="stroke: #383838; stroke-width: 1.0; stroke-dasharray: 5.0,5.0;" x1="1055" x2="1055" y1="102.4297" y2="643.6875"/><line style="stroke: #383838; stroke-width: 1.0; stroke-dasharray: 5.0,5.0;" x1="1159" x2="1159" y1="102.4297" y2="643.6875"/><line style="stroke: #383838; stroke-width: 1.0; stroke-dasharray: 5.0,5.0;" x1="1303" x2="1303" y1="102.4297" y2="643.6875"/><line style="stroke: #383838; stroke-width: 1.0; stroke-dasharray: 5.0,5.0;" x1="1407" x2="1407" y1="102.4297" y2="643.6875"/><line style="stroke: #383838; stroke-width: 1.0; stroke-dasharray: 5.0,5.0;" x1="1491" x2="1491" y1="102.4297" y2="643.6875"/><line style="stroke: #383838; stroke-width: 1.0; stroke-dasharray: 5.0,5.0;" x1="1579" x2="1579" y1="102.4297" y2="643.6875"/><text fill="#000000" font-family="Courier" font-size="14" lengthAdjust="spacingAndGlyphs" textLength="32" x="8" y="99.1279">user</text><ellipse cx="27" cy="33.1328" fill="#F8F8F8" rx="8" ry="8" style="stroke: #383838; stroke-width: 2.0;"/><path d="M27,41.1328 L27,68.1328 M14,49.1328 L40,49.1328 M27,68.1328 L14,83.1328 M27,68.1328 L40,83.1328 " fill="none" style="stroke: #383838; stroke-width: 2.0;"/><text fill="#000000" font-family="Courier" font-size="14" lengthAdjust="spacingAndGlyphs" textLength="32" x="8" y="655.6826">user</text><ellipse cx="27" cy="668.9844" fill="#F8F8F8" rx="8" ry="8" style="stroke: #383838; stroke-width: 2.0;"/><path d="M27,676.9844 L27,703.9844 M14,684.9844 L40,684.9844 M27,703.9844 L14,718.9844 M27,703.9844 L40,718.9844 " fill="none" style="stroke: #383838; stroke-width: 2.0;"/><rect fill="#F8F8F8" height="30.2969" style="stroke: #383838; stroke-width: 1.5;" width="54" x="328" y="71.1328"/><text fill="#000000" font-family="Courier" font-size="14" lengthAdjust="spacingAndGlyphs" textLength="40" x="335" y="91.1279">Login</text><rect fill="#F8F8F8" height="30.2969" style="stroke: #383838; stroke-width: 1.5;" width="54" x="328" y="642.6875"/><text fill="#000000" font-family="Courier" font-size="14" lengthAdjust="spacingAndGlyphs" textLength="40" x="335" y="662.6826">Login</text><rect fill="#F8F8F8" height="30.2969" style="stroke: #383838; stroke-width: 1.5;" width="62" x="392" y="71.1328"/><text fill="#000000" font-family="Courier" font-size="14" lengthAdjust="spacingAndGlyphs" textLength="48" x="399" y="91.1279">Search</text><rect fill="#F8F8F8" height="30.2969" style="stroke: #383838; stroke-width: 1.5;" width="62" x="392" y="642.6875"/><text fill="#000000" font-family="Courier" font-size="14" lengthAdjust="spacingAndGlyphs" textLength="48" x="399" y="662.6826">Search</text><rect fill="#F8F8F8" height="30.2969" style="stroke: #383838; stroke-width: 1.5;" width="86" x="464" y="71.1328"/><text fill="#000000" font-family="Courier" font-size="14" lengthAdjust="spacingAndGlyphs" textLength="72" x="471" y="91.1279">Filtering</text><rect fill="#F8F8F8" height="30.2969" style="stroke: #383838; stroke-width: 1.5;" width="86" x="464" y="642.6875"/><text fill="#000000" font-family="Courier" font-size="14" lengthAdjust="spacingAndGlyphs" textLength="72" x="471" y="662.6826">Filtering</text><rect fill="#F8F8F8" height="30.2969" style="stroke: #383838; stroke-width: 1.5;" width="46" x="560" y="71.1328"/><text fill="#000000" font-family="Courier" font-size="14" lengthAdjust="spacingAndGlyphs" textLength="32" x="567" y="91.1279">Info</text><rect fill="#F8F8F8" height="30.2969" style="stroke: #383838; stroke-width: 1.5;" width="46" x="560" y="642.6875"/><text fill="#000000" font-family="Courier" font-size="14" lengthAdjust="spacingAndGlyphs" textLength="32" x="567" y="662.6826">Info</text><rect fill="#F8F8F8" height="30.2969" style="stroke: #383838; stroke-width: 1.5;" width="78" x="616" y="71.1328"/><text fill="#000000" font-family="Courier" font-size="14" lengthAdjust="spacingAndGlyphs" textLength="64" x="623" y="91.1279">Location</text><rect fill="#F8F8F8" height="30.2969" style="stroke: #383838; stroke-width: 1.5;" width="78" x="616" y="642.6875"/><text fill="#000000" font-family="Courier" font-size="14" lengthAdjust="spacingAndGlyphs" textLength="64" x="623" y="662.6826">Location</text><rect fill="#F8F8F8" height="30.2969" style="stroke: #383838; stroke-width: 1.5;" width="118" x="704" y="71.1328"/><text fill="#000000" font-family="Courier" font-size="14" lengthAdjust="spacingAndGlyphs" textLength="104" x="711" y="91.1279">Subscriptions</text><rect fill="#F8F8F8" height="30.2969" style="stroke: #383838; stroke-width: 1.5;" width="118" x="704" y="642.6875"/><text fill="#000000" font-family="Courier" font-size="14" lengthAdjust="spacingAndGlyphs" textLength="104" x="711" y="662.6826">Subscriptions</text><rect fill="#F8F8F8" height="30.2969" style="stroke: #383838; stroke-width: 1.5;" width="102" x="832" y="71.1328"/><text fill="#000000" font-family="Courier" font-size="14" lengthAdjust="spacingAndGlyphs" textLength="88" x="839" y="91.1279">Preferences</text><rect fill="#F8F8F8" height="30.2969" style="stroke: #383838; stroke-width: 1.5;" width="102" x="832" y="642.6875"/><text fill="#000000" font-family="Courier" font-size="14" lengthAdjust="spacingAndGlyphs" textLength="88" x="839" y="662.6826">Preferences</text><rect fill="#F8F8F8" height="30.2969" style="stroke: #383838; stroke-width: 1.5;" width="78" x="944" y="71.1328"/><text fill="#000000" font-family="Courier" font-size="14" lengthAdjust="spacingAndGlyphs" textLength="64" x="951" y="91.1279">Bookings</text><rect fill="#F8F8F8" height="30.2969" style="stroke: #383838; stroke-width: 1.5;" width="78" x="944" y="642.6875"/><text fill="#000000" font-family="Courier" font-size="14" lengthAdjust="spacingAndGlyphs" textLength="64" x="951" y="662.6826">Bookings</text><rect fill="#F8F8F8" height="30.2969" style="stroke: #383838; stroke-width: 1.5;" width="46" x="1032" y="71.1328"/><text fill="#000000" font-family="Courier" font-size="14" lengthAdjust="spacingAndGlyphs" textLength="32" x="1039" y="91.1279">Mode</text><rect fill="#F8F8F8" height="30.2969" style="stroke: #383838; stroke-width: 1.5;" width="46" x="1032" y="642.6875"/><text fill="#000000" font-family="Courier" font-size="14" lengthAdjust="spacingAndGlyphs" textLength="32" x="1039" y="662.6826">Mode</text><rect fill="#F8F8F8" height="30.2969" style="stroke: #383838; stroke-width: 1.5;" width="142" x="1088" y="71.1328"/><text fill="#000000" font-family="Courier" font-size="14" lengthAdjust="spacingAndGlyphs" textLength="128" x="1095" y="91.1279">TravellerReviews</text><rect fill="#F8F8F8" height="30.2969" style="stroke: #383838; stroke-width: 1.5;" width="142" x="1088" y="642.6875"/><text fill="#000000" font-family="Courier" font-size="14" lengthAdjust="spacingAndGlyphs" textLength="128" x="1095" y="662.6826">TravellerReviews</text><rect fill="#F8F8F8" height="30.2969" style="stroke: #383838; stroke-width: 1.5;" width="126" x="1240" y="71.1328"/><text fill="#000000" font-family="Courier" font-size="14" lengthAdjust="spacingAndGlyphs" textLength="112" x="1247" y="91.1279">SettlerReviews</text><rect fill="#F8F8F8" height="30.2969" style="stroke: #383838; stroke-width: 1.5;" width="126" x="1240" y="642.6875"/><text fill="#000000" font-family="Courier" font-size="14" lengthAdjust="spacingAndGlyphs" textLength="112" x="1247" y="662.6826">SettlerReviews</text><rect fill="#F8F8F8" height="30.2969" style="stroke: #383838; stroke-width: 1.5;" width="62" x="1376" y="71.1328"/><text fill="#000000" font-family="Courier" font-size="14" lengthAdjust="spacingAndGlyphs" textLength="48" x="1383" y="91.1279">Stripe</text><rect fill="#F8F8F8" height="30.2969" style="stroke: #383838; stroke-width: 1.5;" width="62" x="1376" y="642.6875"/><text fill="#000000" font-family="Courier" font-size="14" lengthAdjust="spacingAndGlyphs" textLength="48" x="1383" y="662.6826">Stripe</text><rect fill="#F8F8F8" height="30.2969" style="stroke: #383838; stroke-width: 1.5;" width="86" x="1448" y="71.1328"/><text fill="#000000" font-family="Courier" font-size="14" lengthAdjust="spacingAndGlyphs" textLength="72" x="1455" y="91.1279">Transport</text><rect fill="#F8F8F8" height="30.2969" style="stroke: #383838; stroke-width: 1.5;" width="86" x="1448" y="642.6875"/><text fill="#000000" font-family="Courier" font-size="14" lengthAdjust="spacingAndGlyphs" textLength="72" x="1455" y="662.6826">Transport</text><text fill="#000000" font-family="Courier" font-size="14" lengthAdjust="spacingAndGlyphs" textLength="64" x="1544" y="99.1279">Firebase</text><path d="M1561,50.1328 C1561,40.1328 1579,40.1328 1579,40.1328 C1579,40.1328 1597,40.1328 1597,50.1328 L1597,76.1328 C1597,86.1328 1579,86.1328 1579,86.1328 C1579,86.1328 1561,86.1328 1561,76.1328 L1561,50.1328 " fill="#7F7F7F" style="stroke: #000000; stroke-width: 1.5;"/><path d="M1561,50.1328 C1561,60.1328 1579,60.1328 1579,60.1328 C1579,60.1328 1597,60.1328 1597,50.1328 " fill="none" style="stroke: #000000; stroke-width: 1.5;"/><text fill="#000000" font-family="Courier" font-size="14" lengthAdjust="spacingAndGlyphs" textLength="64" x="1544" y="655.6826">Firebase</text><path d="M1561,668.9844 C1561,658.9844 1579,658.9844 1579,658.9844 C1579,658.9844 1597,658.9844 1597,668.9844 L1597,694.9844 C1597,704.9844 1579,704.9844 1579,704.9844 C1579,704.9844 1561,704.9844 1561,694.9844 L1561,668.9844 " fill="#7F7F7F" style="stroke: #000000; stroke-width: 1.5;"/><path d="M1561,668.9844 C1561,678.9844 1579,678.9844 1579,678.9844 C1579,678.9844 1597,678.9844 1597,668.9844 " fill="none" style="stroke: #000000; stroke-width: 1.5;"/><polygon fill="#383838" points="343,129.5625,353,133.5625,343,137.5625,347,133.5625" style="stroke: #383838; stroke-width: 1.0;"/><line style="stroke: #383838; stroke-width: 1.0;" x1="27" x2="349" y1="133.5625" y2="133.5625"/><text fill="#000000" font-family="Courier" font-size="13" lengthAdjust="spacingAndGlyphs" textLength="304" x="34" y="128.4966">User inputs authentication credentials</text><polygon fill="#383838" points="1567,158.6953,1577,162.6953,1567,166.6953,1571,162.6953" style="stroke: #383838; stroke-width: 1.0;"/><line style="stroke: #383838; stroke-width: 1.0;" x1="355" x2="1573" y1="162.6953" y2="162.6953"/><text fill="#000000" font-family="Courier" font-size="13" lengthAdjust="spacingAndGlyphs" textLength="160" x="362" y="157.6294">Begin Authentication</text><polygon fill="#383838" points="366,187.8281,356,191.8281,366,195.8281,362,191.8281" style="stroke: #383838; stroke-width: 1.0;"/><line style="stroke: #383838; stroke-width: 1.0;" x1="360" x2="1578" y1="191.8281" y2="191.8281"/><text fill="#000000" font-family="Courier" font-size="13" lengthAdjust="spacingAndGlyphs" textLength="248" x="372" y="186.7622">User successfully authenticated</text><polygon fill="#383838" points="1043,216.9609,1053,220.9609,1043,224.9609,1047,220.9609" style="stroke: #383838; stroke-width: 1.0;"/><line style="stroke: #383838; stroke-width: 1.0;" x1="27" x2="1049" y1="220.9609" y2="220.9609"/><text fill="#000000" font-family="Courier" font-size="13" lengthAdjust="spacingAndGlyphs" textLength="176" x="34" y="215.895">Selects traveller mode</text><polygon fill="#383838" points="1567,246.0938,1577,250.0938,1567,254.0938,1571,250.0938" style="stroke: #383838; stroke-width: 1.0;"/><line style="stroke: #383838; stroke-width: 1.0;" x1="1055" x2="1573" y1="250.0938" y2="250.0938"/><text fill="#000000" font-family="Courier" font-size="13" lengthAdjust="spacingAndGlyphs" textLength="192" x="1062" y="245.0278">Request send to database</text><line style="stroke: #383838; stroke-width: 1.0;" x1="1579" x2="1621" y1="279.2266" y2="279.2266"/><line style="stroke: #383838; stroke-width: 1.0;" x1="1621" x2="1621" y1="279.2266" y2="292.2266"/><line style="stroke: #383838; stroke-width: 1.0;" x1="1580" x2="1621" y1="292.2266" y2="292.2266"/><polygon fill="#383838" points="1590,288.2266,1580,292.2266,1590,296.2266,1586,292.2266" style="stroke: #383838; stroke-width: 1.0;"/><text fill="#000000" font-family="Courier" font-size="13" lengthAdjust="spacingAndGlyphs" textLength="304" x="1586" y="274.1606">Add user mode to relevant column in db</text><line style="stroke: #383838; stroke-width: 1.0;" x1="1579" x2="1621" y1="321.3594" y2="321.3594"/><line style="stroke: #383838; stroke-width: 1.0;" x1="1621" x2="1621" y1="321.3594" y2="334.3594"/><line style="stroke: #383838; stroke-width: 1.0;" x1="1580" x2="1621" y1="334.3594" y2="334.3594"/><polygon fill="#383838" points="1590,330.3594,1580,334.3594,1590,338.3594,1586,334.3594" style="stroke: #383838; stroke-width: 1.0;"/><text fill="#000000" font-family="Courier" font-size="13" lengthAdjust="spacingAndGlyphs" textLength="184" x="1586" y="316.2935">Save column information</text><polygon fill="#383838" points="38,359.4922,28,363.4922,38,367.4922,34,363.4922" style="stroke: #383838; stroke-width: 1.0;"/><line style="stroke: #383838; stroke-width: 1.0;" x1="32" x2="1578" y1="363.4922" y2="363.4922"/><text fill="#000000" font-family="Courier" font-size="13" lengthAdjust="spacingAndGlyphs" textLength="256" x="44" y="358.4263">Display relevant screens to user</text><polygon fill="#383838" points="411,388.625,421,392.625,411,396.625,415,392.625" style="stroke: #383838; stroke-width: 1.0;"/><line style="stroke: #383838; stroke-width: 1.0;" x1="27" x2="417" y1="392.625" y2="392.625"/><text fill="#000000" font-family="Courier" font-size="13" lengthAdjust="spacingAndGlyphs" textLength="264" x="34" y="387.5591">user searches for furniture shops</text><polygon fill="#383838" points="495,417.7578,505,421.7578,495,425.7578,499,421.7578" style="stroke: #383838; stroke-width: 1.0;"/><line style="stroke: #383838; stroke-width: 1.0;" x1="27" x2="501" y1="421.7578" y2="421.7578"/><text fill="#000000" font-family="Courier" font-size="13" lengthAdjust="spacingAndGlyphs" textLength="256" x="34" y="416.6919">user adds filter for second hand</text><polygon fill="#383838" points="1567,446.8906,1577,450.8906,1567,454.8906,1571,450.8906" style="stroke: #383838; stroke-width: 1.0;"/><line style="stroke: #383838; stroke-width: 1.0;" x1="507" x2="1573" y1="450.8906" y2="450.8906"/><text fill="#000000" font-family="Courier" font-size="13" lengthAdjust="spacingAndGlyphs" textLength="120" x="514" y="445.8247">request results</text><polygon fill="#383838" points="518,476.0234,508,480.0234,518,484.0234,514,480.0234" style="stroke: #383838; stroke-width: 1.0;"/><line style="stroke: #383838; stroke-width: 1.0; stroke-dasharray: 2.0,2.0;" x1="512" x2="1578" y1="480.0234" y2="480.0234"/><text fill="#000000" font-family="Courier" font-size="13" lengthAdjust="spacingAndGlyphs" textLength="192" x="524" y="474.9575">Results sent as response</text><polygon fill="#383838" points="38,505.1563,28,509.1563,38,513.1563,34,509.1563" style="stroke: #383838; stroke-width: 1.0;"/><line style="stroke: #383838; stroke-width: 1.0;" x1="32" x2="506" y1="509.1563" y2="509.1563"/><text fill="#000000" font-family="Courier" font-size="13" lengthAdjust="spacingAndGlyphs" textLength="176" x="44" y="504.0903">Display screen to user</text><polygon fill="#383838" points="1147,534.2891,1157,538.2891,1147,542.2891,1151,538.2891" style="stroke: #383838; stroke-width: 1.0;"/><line style="stroke: #383838; stroke-width: 1.0;" x1="27" x2="1153" y1="538.2891" y2="538.2891"/><text fill="#000000" font-family="Courier" font-size="13" lengthAdjust="spacingAndGlyphs" textLength="200" x="34" y="533.2231">user clicks on add review</text><polygon fill="#383838" points="1567,563.4219,1577,567.4219,1567,571.4219,1571,567.4219" style="stroke: #383838; stroke-width: 1.0;"/><line style="stroke: #383838; stroke-width: 1.0;" x1="1159" x2="1573" y1="567.4219" y2="567.4219"/><text fill="#000000" font-family="Courier" font-size="13" lengthAdjust="spacingAndGlyphs" textLength="232" x="1166" y="562.356">getlink() for relevant shopid</text><polygon fill="#383838" points="1170,592.5547,1160,596.5547,1170,600.5547,1166,596.5547" style="stroke: #383838; stroke-width: 1.0;"/><line style="stroke: #383838; stroke-width: 1.0;" x1="1164" x2="1578" y1="596.5547" y2="596.5547"/><text fill="#000000" font-family="Courier" font-size="13" lengthAdjust="spacingAndGlyphs" textLength="224" x="1176" y="591.4888">Send the request review link</text><polygon fill="#383838" points="38,621.6875,28,625.6875,38,629.6875,34,625.6875" style="stroke: #383838; stroke-width: 1.0;"/><line style="stroke: #383838; stroke-width: 1.0;" x1="32" x2="1158" y1="625.6875" y2="625.6875"/><text fill="#000000" font-family="Courier" font-size="13" lengthAdjust="spacingAndGlyphs" textLength="360" x="44" y="620.6216">direct user to reviewlink in external browser</text></g></svg>