<?xml version="1.0" encoding="UTF-8" standalone="no"?><svg xmlns="http://www.w3.org/2000/svg" xmlns:xlink="http://www.w3.org/1999/xlink" contentScriptType="application/ecmascript" contentStyleType="text/css" height="281px" preserveAspectRatio="none" style="width:375px;height:281px;" version="1.1" viewBox="0 0 375 281" width="375px" zoomAndPan="magnify"><defs><filter height="300%" id="fndcjt8xskt44" width="300%" x="-1" y="-1"><feGaussianBlur result="blurOut" stdDeviation="2.0"/><feColorMatrix in="blurOut" result="blurOut2" type="matrix" values="0 0 0 0 0 0 0 0 0 0 0 0 0 0 0 0 0 0 .4 0"/><feOffset dx="4.0" dy="4.0" in="blurOut2" result="blurOut3"/><feBlend in="SourceGraphic" in2="blurOut3" mode="normal"/></filter></defs><g><polygon fill="#FEFECE" filter="url(#fndcjt8xskt44)" points="28,17.54,38,7.54,222,7.54,222,44.0283,212,54.0283,28,54.0283,28,17.54" style="stroke: #000000; stroke-width: 1.5;"/><line style="stroke: #000000; stroke-width: 1.5;" x1="212" x2="221" y1="17.54" y2="8.54"/><line style="stroke: #000000; stroke-width: 1.5;" x1="28" x2="212" y1="17.54" y2="17.54"/><line style="stroke: #000000; stroke-width: 1.5;" x1="212" x2="212" y1="17.54" y2="54.0283"/><text fill="#000000" font-family="sans-serif" font-size="14" lengthAdjust="spacingAndGlyphs" textLength="154" x="43" y="41.0752">Android Mobile Device</text><path d="M15.6267,229.3035 C19.6169,222.1761 24.224,221.7464 28.7997,228.758 C31.8235,223.7602 36.7254,222.527 40.032,228.4676 C44.4047,221.9044 49.5871,221.1324 54.0802,228.3448 C56.489,220.2002 63.2846,220.5177 67.9759,226.0208 C73.3071,219.4267 77.4315,219.9618 81.0079,227.6249 C84.7075,222.6026 88.947,223.2415 92.2199,228.1086 C96.699,221.7864 101.3274,220.8404 105.9629,227.9485 C111.3891,221.7296 115.8543,223.5031 119.7586,229.6468 C127.7927,229.8444 132.4573,236.5246 128.3515,243.9933 C133.4538,252.0721 128.5961,259.5437 119.6906,260.0814 C115.9332,267.4119 109.2577,267.0364 105.5287,260.0534 C101.7728,266.3238 96.9095,266.2552 92.2654,261.0831 C89.5676,266.3539 84.543,267.7226 80.4531,262.677 C77.0299,269.2255 71.4205,269.1086 67.7316,262.9429 C63.3984,268.496 57.1778,267.5174 53.9375,261.6256 C49.0921,267.8404 44.8518,267.276 40.6976,260.8989 C36.8966,266.2035 31.4871,266.9099 28.4698,260.1074 C24.8595,266.6574 18.5588,265.7617 15.6528,259.4078 C8.0757,256.756 7.0802,251.046 11.6766,245.0281 C4.3678,238.4997 7.1698,231.8715 15.6267,229.3035 " fill="#FEFECE" style="stroke: #000000; stroke-width: 1.5;"/><text fill="#000000" font-family="sans-serif" font-size="14" lengthAdjust="spacingAndGlyphs" textLength="90" x="21" y="249.0452">GoogleCloud</text><polygon fill="#FEFECE" filter="url(#fndcjt8xskt44)" points="60.5,124.02,70.5,114.02,189.5,114.02,189.5,150.5083,179.5,160.5083,60.5,160.5083,60.5,124.02" style="stroke: #000000; stroke-width: 1.5;"/><line style="stroke: #000000; stroke-width: 1.5;" x1="179.5" x2="188.5" y1="124.02" y2="115.02"/><line style="stroke: #000000; stroke-width: 1.5;" x1="60.5" x2="179.5" y1="124.02" y2="124.02"/><line style="stroke: #000000; stroke-width: 1.5;" x1="179.5" x2="179.5" y1="124.02" y2="160.5083"/><text fill="#000000" font-family="sans-serif" font-size="14" lengthAdjust="spacingAndGlyphs" textLength="89" x="75.5" y="147.5552">Web Server 1</text><polygon fill="#FEFECE" filter="url(#fndcjt8xskt44)" points="224.5,124.02,234.5,114.02,353.5,114.02,353.5,150.5083,343.5,160.5083,224.5,160.5083,224.5,124.02" style="stroke: #000000; stroke-width: 1.5;"/><line style="stroke: #000000; stroke-width: 1.5;" x1="343.5" x2="352.5" y1="124.02" y2="115.02"/><line style="stroke: #000000; stroke-width: 1.5;" x1="224.5" x2="343.5" y1="124.02" y2="124.02"/><line style="stroke: #000000; stroke-width: 1.5;" x1="343.5" x2="343.5" y1="124.02" y2="160.5083"/><text fill="#000000" font-family="sans-serif" font-size="14" lengthAdjust="spacingAndGlyphs" textLength="89" x="239.5" y="147.5552">Web Server 2</text><path d="M92.24,54.33 C74,68.97 53.01,89.8 43,114.02 C28.43,149.27 42.89,193.7 54.55,220.07 " fill="none" id="a1-w" style="stroke: #A80036; stroke-width: 1.0;"/><path d="M125,54.45 C125,71.98 125,96.12 125,113.64 " fill="none" id="a1-e" style="stroke: #A80036; stroke-width: 1.0;"/><path d="M160.59,54.45 C188.09,71.98 225.99,96.12 253.48,113.64 " fill="none" id="a1-f" style="stroke: #A80036; stroke-width: 1.0;"/><path d="M112.2,160.94 C102.3,178.47 88.67,202.61 78.78,220.13 " fill="none" id="e-w" style="stroke: #A80036; stroke-width: 1.0;"/></g></svg>