<?xml version="1.0" encoding="UTF-8" standalone="no"?><svg xmlns="http://www.w3.org/2000/svg" xmlns:xlink="http://www.w3.org/1999/xlink" contentScriptType="application/ecmascript" contentStyleType="text/css" height="685px" preserveAspectRatio="none" style="width:1093px;height:685px;" version="1.1" viewBox="0 0 1093 685" width="1093px" zoomAndPan="magnify"><defs><filter height="300%" id="f9ioh5q7yajci" width="300%" x="-1" y="-1"><feGaussianBlur result="blurOut" stdDeviation="2.0"/><feColorMatrix in="blurOut" result="blurOut2" type="matrix" values="0 0 0 0 0 0 0 0 0 0 0 0 0 0 0 0 0 0 .4 0"/><feOffset dx="4.0" dy="4.0" in="blurOut2" result="blurOut3"/><feBlend in="SourceGraphic" in2="blurOut3" mode="normal"/></filter></defs><g><polygon fill="#FFFFFF" filter="url(#f9ioh5q7yajci)" points="624,435.02,634,425.02,839,425.02,839,507.51,829,517.51,624,517.51,624,435.02" style="stroke: #000000; stroke-width: 1.5;"/><line style="stroke: #000000; stroke-width: 1.5;" x1="829" x2="838" y1="435.02" y2="426.02"/><line style="stroke: #000000; stroke-width: 1.5;" x1="624" x2="829" y1="435.02" y2="435.02"/><line style="stroke: #000000; stroke-width: 1.5;" x1="829" x2="829" y1="435.02" y2="517.51"/><text fill="#000000" font-family="sans-serif" font-size="14" font-weight="bold" lengthAdjust="spacingAndGlyphs" textLength="79" x="688" y="451.5552">Web Server</text><polygon fill="#FFFFFF" filter="url(#f9ioh5q7yajci)" points="30,60.05,40,50.05,592,50.05,592,663,582,673,30,673,30,60.05" style="stroke: #000000; stroke-width: 1.5;"/><line style="stroke: #000000; stroke-width: 1.5;" x1="582" x2="591" y1="60.05" y2="51.05"/><line style="stroke: #000000; stroke-width: 1.5;" x1="30" x2="582" y1="60.05" y2="60.05"/><line style="stroke: #000000; stroke-width: 1.5;" x1="582" x2="582" y1="60.05" y2="673"/><text fill="#000000" font-family="sans-serif" font-size="14" font-weight="bold" lengthAdjust="spacingAndGlyphs" textLength="58" x="278" y="76.5852">Browser</text><rect fill="#FFFFFF" filter="url(#f9ioh5q7yajci)" height="534.95" style="stroke: #000000; stroke-width: 1.5;" width="490" x="62" y="106.05"/><rect fill="#FFFFFF" height="10" style="stroke: #000000; stroke-width: 1.5;" width="15" x="532" y="111.05"/><rect fill="#FFFFFF" height="2" style="stroke: #000000; stroke-width: 1.5;" width="4" x="530" y="113.05"/><rect fill="#FFFFFF" height="2" style="stroke: #000000; stroke-width: 1.5;" width="4" x="530" y="117.05"/><text fill="#000000" font-family="sans-serif" font-size="14" font-weight="bold" lengthAdjust="spacingAndGlyphs" textLength="95" x="259.5" y="132.5852">UserInterface</text><rect fill="#FFFFFF" filter="url(#f9ioh5q7yajci)" height="226.97" style="stroke: #000000; stroke-width: 1.5;" width="209" x="319" y="149.05"/><rect fill="#FFFFFF" height="10" style="stroke: #000000; stroke-width: 1.5;" width="15" x="508" y="154.05"/><rect fill="#FFFFFF" height="2" style="stroke: #000000; stroke-width: 1.5;" width="4" x="506" y="156.05"/><rect fill="#FFFFFF" height="2" style="stroke: #000000; stroke-width: 1.5;" width="4" x="506" y="160.05"/><text fill="#000000" font-family="sans-serif" font-size="14" font-weight="bold" lengthAdjust="spacingAndGlyphs" textLength="58" x="394.5" y="175.5852">Services</text><rect fill="#FFFFFF" filter="url(#f9ioh5q7yajci)" height="226.97" style="stroke: #000000; stroke-width: 1.5;" width="209" x="86" y="149.05"/><rect fill="#FFFFFF" height="10" style="stroke: #000000; stroke-width: 1.5;" width="15" x="275" y="154.05"/><rect fill="#FFFFFF" height="2" style="stroke: #000000; stroke-width: 1.5;" width="4" x="273" y="156.05"/><rect fill="#FFFFFF" height="2" style="stroke: #000000; stroke-width: 1.5;" width="4" x="273" y="160.05"/><text fill="#000000" font-family="sans-serif" font-size="14" font-weight="bold" lengthAdjust="spacingAndGlyphs" textLength="67" x="157" y="175.5852">Browsing</text><rect fill="#FFFFFF" filter="url(#f9ioh5q7yajci)" height="186.98" style="stroke: #000000; stroke-width: 1.5;" width="225" x="303" y="430.02"/><rect fill="#FFFFFF" height="10" style="stroke: #000000; stroke-width: 1.5;" width="15" x="508" y="435.02"/><rect fill="#FFFFFF" height="2" style="stroke: #000000; stroke-width: 1.5;" width="4" x="506" y="437.02"/><rect fill="#FFFFFF" height="2" style="stroke: #000000; stroke-width: 1.5;" width="4" x="506" y="441.02"/><text fill="#000000" font-family="sans-serif" font-size="14" font-weight="bold" lengthAdjust="spacingAndGlyphs" textLength="83" x="374" y="456.5552">Personalize</text><polygon fill="#FFFFFF" filter="url(#f9ioh5q7yajci)" points="792,293.54,802,283.54,1071,283.54,1071,366.02,1061,376.02,792,376.02,792,293.54" style="stroke: #000000; stroke-width: 1.5;"/><line style="stroke: #000000; stroke-width: 1.5;" x1="1061" x2="1070" y1="293.54" y2="284.54"/><line style="stroke: #000000; stroke-width: 1.5;" x1="792" x2="1061" y1="293.54" y2="293.54"/><line style="stroke: #000000; stroke-width: 1.5;" x1="1061" x2="1061" y1="293.54" y2="376.02"/><text fill="#000000" font-family="sans-serif" font-size="14" font-weight="bold" lengthAdjust="spacingAndGlyphs" textLength="97" x="879" y="310.0752">Google Cloud</text><rect fill="#FEFECE" filter="url(#f9ioh5q7yajci)" height="36.4883" style="stroke: #A80036; stroke-width: 1.5;" width="88" x="640" y="465.02"/><rect fill="#FEFECE" height="5" style="stroke: #A80036; stroke-width: 1.5;" width="10" x="635" y="470.02"/><rect fill="#FEFECE" height="5" style="stroke: #A80036; stroke-width: 1.5;" width="10" x="635" y="491.5083"/><text fill="#000000" font-family="sans-serif" font-size="14" lengthAdjust="spacingAndGlyphs" textLength="68" x="650" y="488.5552">Transport</text><rect fill="#FEFECE" filter="url(#f9ioh5q7yajci)" height="36.4883" style="stroke: #A80036; stroke-width: 1.5;" width="60" x="763" y="465.02"/><rect fill="#FEFECE" height="5" style="stroke: #A80036; stroke-width: 1.5;" width="10" x="758" y="470.02"/><rect fill="#FEFECE" height="5" style="stroke: #A80036; stroke-width: 1.5;" width="10" x="758" y="491.5083"/><text fill="#000000" font-family="sans-serif" font-size="14" lengthAdjust="spacingAndGlyphs" textLength="40" x="773" y="488.5552">Stripe</text><rect fill="#FEFECE" filter="url(#f9ioh5q7yajci)" height="36.4883" style="stroke: #A80036; stroke-width: 1.5;" width="83" x="335.5" y="184.05"/><rect fill="#FEFECE" height="5" style="stroke: #A80036; stroke-width: 1.5;" width="10" x="330.5" y="189.05"/><rect fill="#FEFECE" height="5" style="stroke: #A80036; stroke-width: 1.5;" width="10" x="330.5" y="210.5383"/><text fill="#000000" font-family="sans-serif" font-size="14" lengthAdjust="spacingAndGlyphs" textLength="63" x="345.5" y="207.5852">Bookings</text><rect fill="#FEFECE" filter="url(#f9ioh5q7yajci)" height="36.4883" style="stroke: #A80036; stroke-width: 1.5;" width="58" x="454" y="184.05"/><rect fill="#FEFECE" height="5" style="stroke: #A80036; stroke-width: 1.5;" width="10" x="449" y="189.05"/><rect fill="#FEFECE" height="5" style="stroke: #A80036; stroke-width: 1.5;" width="10" x="449" y="210.5383"/><text fill="#000000" font-family="sans-serif" font-size="14" lengthAdjust="spacingAndGlyphs" textLength="38" x="464" y="207.5852">Mode</text><rect fill="#FEFECE" filter="url(#f9ioh5q7yajci)" height="36.4883" style="stroke: #A80036; stroke-width: 1.5;" width="98" x="335" y="323.54"/><rect fill="#FEFECE" height="5" style="stroke: #A80036; stroke-width: 1.5;" width="10" x="330" y="328.54"/><rect fill="#FEFECE" height="5" style="stroke: #A80036; stroke-width: 1.5;" width="10" x="330" y="350.0283"/><text fill="#000000" font-family="sans-serif" font-size="14" lengthAdjust="spacingAndGlyphs" textLength="78" x="345" y="347.0752">Translation</text><rect fill="#FEFECE" filter="url(#f9ioh5q7yajci)" height="36.4883" style="stroke: #A80036; stroke-width: 1.5;" width="66" x="102" y="184.05"/><rect fill="#FEFECE" height="5" style="stroke: #A80036; stroke-width: 1.5;" width="10" x="97" y="189.05"/><rect fill="#FEFECE" height="5" style="stroke: #A80036; stroke-width: 1.5;" width="10" x="97" y="210.5383"/><text fill="#000000" font-family="sans-serif" font-size="14" lengthAdjust="spacingAndGlyphs" textLength="46" x="112" y="207.5852">Search</text><rect fill="#FEFECE" filter="url(#f9ioh5q7yajci)" height="36.4883" style="stroke: #A80036; stroke-width: 1.5;" width="77" x="202.5" y="184.05"/><rect fill="#FEFECE" height="5" style="stroke: #A80036; stroke-width: 1.5;" width="10" x="197.5" y="189.05"/><rect fill="#FEFECE" height="5" style="stroke: #A80036; stroke-width: 1.5;" width="10" x="197.5" y="210.5383"/><text fill="#000000" font-family="sans-serif" font-size="14" lengthAdjust="spacingAndGlyphs" textLength="57" x="212.5" y="207.5852">Filtering</text><rect fill="#FEFECE" filter="url(#f9ioh5q7yajci)" height="36.4883" style="stroke: #A80036; stroke-width: 1.5;" width="47" x="111.5" y="323.54"/><rect fill="#FEFECE" height="5" style="stroke: #A80036; stroke-width: 1.5;" width="10" x="106.5" y="328.54"/><rect fill="#FEFECE" height="5" style="stroke: #A80036; stroke-width: 1.5;" width="10" x="106.5" y="350.0283"/><text fill="#000000" font-family="sans-serif" font-size="14" lengthAdjust="spacingAndGlyphs" textLength="27" x="121.5" y="347.0752">Info</text><rect fill="#FEFECE" filter="url(#f9ioh5q7yajci)" height="36.4883" style="stroke: #A80036; stroke-width: 1.5;" width="78" x="193" y="323.54"/><rect fill="#FEFECE" height="5" style="stroke: #A80036; stroke-width: 1.5;" width="10" x="188" y="328.54"/><rect fill="#FEFECE" height="5" style="stroke: #A80036; stroke-width: 1.5;" width="10" x="188" y="350.0283"/><text fill="#000000" font-family="sans-serif" font-size="14" lengthAdjust="spacingAndGlyphs" textLength="58" x="203" y="347.0752">Location</text><rect fill="#FEFECE" filter="url(#f9ioh5q7yajci)" height="36.4883" style="stroke: #A80036; stroke-width: 1.5;" width="58" x="319" y="465.02"/><rect fill="#FEFECE" height="5" style="stroke: #A80036; stroke-width: 1.5;" width="10" x="314" y="470.02"/><rect fill="#FEFECE" height="5" style="stroke: #A80036; stroke-width: 1.5;" width="10" x="314" y="491.5083"/><text fill="#000000" font-family="sans-serif" font-size="14" lengthAdjust="spacingAndGlyphs" textLength="38" x="329" y="488.5552">Login</text><rect fill="#FEFECE" filter="url(#f9ioh5q7yajci)" height="36.4883" style="stroke: #A80036; stroke-width: 1.5;" width="100" x="412" y="465.02"/><rect fill="#FEFECE" height="5" style="stroke: #A80036; stroke-width: 1.5;" width="10" x="407" y="470.02"/><rect fill="#FEFECE" height="5" style="stroke: #A80036; stroke-width: 1.5;" width="10" x="407" y="491.5083"/><text fill="#000000" font-family="sans-serif" font-size="14" lengthAdjust="spacingAndGlyphs" textLength="80" x="422" y="488.5552">Preferences</text><rect fill="#FEFECE" filter="url(#f9ioh5q7yajci)" height="36.4883" style="stroke: #A80036; stroke-width: 1.5;" width="113" x="318.5" y="564.51"/><rect fill="#FEFECE" height="5" style="stroke: #A80036; stroke-width: 1.5;" width="10" x="313.5" y="569.51"/><rect fill="#FEFECE" height="5" style="stroke: #A80036; stroke-width: 1.5;" width="10" x="313.5" y="590.9983"/><text fill="#000000" font-family="sans-serif" font-size="14" lengthAdjust="spacingAndGlyphs" textLength="93" x="328.5" y="588.0452">Subscriptions</text><rect fill="#FEFECE" filter="url(#f9ioh5q7yajci)" height="36.4883" style="stroke: #A80036; stroke-width: 1.5;" width="78" x="977" y="323.54"/><rect fill="#FEFECE" height="5" style="stroke: #A80036; stroke-width: 1.5;" width="10" x="972" y="328.54"/><rect fill="#FEFECE" height="5" style="stroke: #A80036; stroke-width: 1.5;" width="10" x="972" y="350.0283"/><text fill="#000000" font-family="sans-serif" font-size="14" lengthAdjust="spacingAndGlyphs" textLength="58" x="987" y="347.0752">Firebase</text><rect fill="#FEFECE" filter="url(#f9ioh5q7yajci)" height="36.4883" style="stroke: #A80036; stroke-width: 1.5;" width="134" x="808" y="323.54"/><rect fill="#FEFECE" height="5" style="stroke: #A80036; stroke-width: 1.5;" width="10" x="803" y="328.54"/><rect fill="#FEFECE" height="5" style="stroke: #A80036; stroke-width: 1.5;" width="10" x="803" y="350.0283"/><text fill="#000000" font-family="sans-serif" font-size="14" lengthAdjust="spacingAndGlyphs" textLength="114" x="818" y="347.0752">FirebaseConsole</text><path d="M592.1089,202.9803 C592.2899,202.975 592.4737,202.9697 592.6604,202.9644 C593.0338,202.9537 593.4185,202.9431 593.8144,202.9325 C594.6063,202.9114 595.4431,202.8905 596.3237,202.8703 C603.3684,202.7087 613.2148,202.5899 625.2884,202.7173 C649.4356,202.9722 682.4913,204.2119 719.8575,208.0638 C794.59,215.7675 886.565,233.92 959,275.54 C978.95,287 995.42,308.07 1005.43,323.16 " fill="none" id="a-f" style="stroke: #A80036; stroke-width: 1.0;"/><text fill="#000000" font-family="sans-serif" font-size="13" lengthAdjust="spacingAndGlyphs" textLength="40" x="941" y="264.1084">HTTPS</text><path d="M592.0902,227.8493 C592.1541,228.042 592.2183,228.2355 592.2828,228.43 C592.5409,229.2081 592.8041,230.0011 593.0722,230.8087 C594.1449,234.039 595.2972,237.5021 596.5205,241.1693 C598.9672,248.5038 601.6981,256.6553 604.645,265.3963 C616.4325,300.36 631.675,344.755 646,384.02 C656.34,412.37 669.14,444.99 676.93,464.6 " fill="none" id="a-b" style="stroke: #A80036; stroke-width: 1.0;"/><text fill="#000000" font-family="sans-serif" font-size="13" lengthAdjust="spacingAndGlyphs" textLength="40" x="647" y="346.8484">HTTPS</text><path d="M592.1602,206.8904 C592.3502,206.9777 592.5431,207.0665 592.7387,207.1568 C593.1301,207.3374 593.5329,207.5242 593.9466,207.7169 C594.774,208.1025 595.6454,208.5122 596.5578,208.9456 C603.8569,212.4131 613.7788,217.4 624.8025,223.6975 C646.85,236.2925 673.305,254.13 692,275.54 C705.66,291.18 763.8,417.88 785.12,464.84 " fill="none" id="a-s" style="stroke: #A80036; stroke-width: 1.0;"/><text fill="#000000" font-family="sans-serif" font-size="13" lengthAdjust="spacingAndGlyphs" textLength="40" x="748" y="346.8484">HTTPS</text><path d="M992.77,360.33 C982.56,367.85 970.34,376.59 959,384.02 C912.79,414.32 857.19,446.38 823.5,465.34 " fill="none" id="f-s" style="stroke: #A80036; stroke-width: 1.0;"/><text fill="#000000" font-family="sans-serif" font-size="13" lengthAdjust="spacingAndGlyphs" textLength="40" x="946" y="405.5884">HTTPS</text></g></svg>