<?xml version="1.0" encoding="UTF-8" standalone="no"?><svg xmlns="http://www.w3.org/2000/svg" xmlns:xlink="http://www.w3.org/1999/xlink" contentScriptType="application/ecmascript" contentStyleType="text/css" height="122px" preserveAspectRatio="none" style="width:1127px;height:122px;" version="1.1" viewBox="0 0 1127 122" width="1127px" zoomAndPan="magnify"><defs/><g><rect fill="#FFFFFF" height="87.49" style="stroke: #000000; stroke-width: 1.5;" width="1094" x="22" y="23.51"/><text fill="#000000" font-family="sans-serif" font-size="14" font-weight="bold" lengthAdjust="spacingAndGlyphs" textLength="184" x="477" y="39.0452">Under Normal Conditions</text><rect fill="#F8F8F8" height="36.4883" style="stroke: #000000; stroke-width: 1.5;" width="89" x="37.5" y="58.51"/><text fill="#000000" font-family="sans-serif" font-size="14" lengthAdjust="spacingAndGlyphs" textLength="69" x="47.5" y="82.0452">Developer</text><rect fill="#F8F8F8" height="36.4883" style="stroke: #000000; stroke-width: 1.5;" width="246" x="854" y="58.51"/><text fill="#000000" font-family="sans-serif" font-size="14" lengthAdjust="spacingAndGlyphs" textLength="226" x="864" y="82.0452">Process takes less than one week</text><rect fill="#F8F8F8" height="36.4883" style="stroke: #383838; stroke-width: 1.5;" width="68" x="606" y="58.51"/><rect fill="#F8F8F8" height="5" style="stroke: #383838; stroke-width: 1.5;" width="10" x="601" y="63.51"/><rect fill="#F8F8F8" height="5" style="stroke: #383838; stroke-width: 1.5;" width="10" x="601" y="84.9983"/><text fill="#000000" font-family="sans-serif" font-size="14" lengthAdjust="spacingAndGlyphs" textLength="48" x="616" y="82.0452">System</text><path d="M126.72,76.76 C232.84,76.76 498.53,76.76 599.87,76.76 " fill="none" id="Source-&gt;System" style="stroke: #383838; stroke-width: 1.0;"/><polygon fill="#383838" points="604.73,76.76,595.73,72.76,599.73,76.76,595.73,80.76,604.73,76.76" style="stroke: #383838; stroke-width: 1.0;"/><text fill="#000000" font-family="sans-serif" font-size="13" lengthAdjust="spacingAndGlyphs" textLength="433" x="149.75" y="70.3284">Change the billing process to accommodate new credit card provider</text><path d="M674.48,76.76 C715.27,76.76 785.55,76.76 848.11,76.76 " fill="none" id="System-&gt;Measure" style="stroke: #383838; stroke-width: 1.0;"/><polygon fill="#383838" points="852.75,76.76,843.75,72.76,847.75,76.76,843.75,80.76,852.75,76.76" style="stroke: #383838; stroke-width: 1.0;"/><text fill="#000000" font-family="sans-serif" font-size="13" lengthAdjust="spacingAndGlyphs" textLength="130" x="697" y="70.3284">Change in code base</text></g></svg>