<?xml version="1.0" encoding="UTF-8" standalone="no"?><svg xmlns="http://www.w3.org/2000/svg" xmlns:xlink="http://www.w3.org/1999/xlink" contentScriptType="application/ecmascript" contentStyleType="text/css" height="122px" preserveAspectRatio="none" style="width:736px;height:122px;" version="1.1" viewBox="0 0 736 122" width="736px" zoomAndPan="magnify"><defs/><g><rect fill="#FFFFFF" height="87.49" style="stroke: #000000; stroke-width: 1.5;" width="703" x="22" y="23.51"/><text fill="#000000" font-family="sans-serif" font-size="14" font-weight="bold" lengthAdjust="spacingAndGlyphs" textLength="240" x="253.5" y="39.0452">If Network Connection Interrupts</text><rect fill="#F8F8F8" height="36.4883" style="stroke: #000000; stroke-width: 1.5;" width="98" x="38" y="58.51"/><text fill="#000000" font-family="sans-serif" font-size="14" lengthAdjust="spacingAndGlyphs" textLength="78" x="48" y="82.0452">Application</text><rect fill="#F8F8F8" height="36.4883" style="stroke: #000000; stroke-width: 1.5;" width="173" x="535.5" y="58.51"/><text fill="#000000" font-family="sans-serif" font-size="14" lengthAdjust="spacingAndGlyphs" textLength="153" x="545.5" y="82.0452">Display UI and content</text><rect fill="#F8F8F8" height="36.4883" style="stroke: #383838; stroke-width: 1.5;" width="84" x="252" y="58.51"/><rect fill="#F8F8F8" height="5" style="stroke: #383838; stroke-width: 1.5;" width="10" x="247" y="63.51"/><rect fill="#F8F8F8" height="5" style="stroke: #383838; stroke-width: 1.5;" width="10" x="247" y="84.9983"/><text fill="#000000" font-family="sans-serif" font-size="14" lengthAdjust="spacingAndGlyphs" textLength="64" x="262" y="82.0452">Realm DB</text><path d="M136.32,76.76 C169.55,76.76 213.17,76.76 246.1,76.76 " fill="none" id="Source-&gt;Realm DB" style="stroke: #383838; stroke-width: 1.0;"/><polygon fill="#383838" points="250.71,76.76,241.71,72.76,245.71,76.76,241.71,80.76,250.71,76.76" style="stroke: #383838; stroke-width: 1.0;"/><text fill="#000000" font-family="sans-serif" font-size="13" lengthAdjust="spacingAndGlyphs" textLength="79" x="154.5" y="70.3284">Fetches data</text><path d="M336.21,76.76 C384.75,76.76 465.89,76.76 529.34,76.76 " fill="none" id="Realm DB-&gt;Measure" style="stroke: #383838; stroke-width: 1.0;"/><polygon fill="#383838" points="534.04,76.76,525.04,72.76,529.04,76.76,525.04,80.76,534.04,76.76" style="stroke: #383838; stroke-width: 1.0;"/><text fill="#000000" font-family="sans-serif" font-size="13" lengthAdjust="spacingAndGlyphs" textLength="163" x="354.25" y="70.3284">Sync data from DB with UI</text></g></svg>