<?xml version="1.0" encoding="UTF-8" standalone="no"?><svg xmlns="http://www.w3.org/2000/svg" xmlns:xlink="http://www.w3.org/1999/xlink" contentScriptType="application/ecmascript" contentStyleType="text/css" height="377px" preserveAspectRatio="none" style="width:1309px;height:377px;" version="1.1" viewBox="0 0 1309 377" width="1309px" zoomAndPan="magnify"><defs><filter height="300%" id="fdvx9o68gfxik" width="300%" x="-1" y="-1"><feGaussianBlur result="blurOut" stdDeviation="2.0"/><feColorMatrix in="blurOut" result="blurOut2" type="matrix" values="0 0 0 0 0 0 0 0 0 0 0 0 0 0 0 0 0 0 .4 0"/><feOffset dx="4.0" dy="4.0" in="blurOut2" result="blurOut3"/><feBlend in="SourceGraphic" in2="blurOut3" mode="normal"/></filter></defs><g><rect fill="#FFFFFF" filter="url(#fdvx9o68gfxik)" height="333.98" style="stroke: #000000; stroke-width: 1.5;" width="920" x="171" y="32.02"/><rect fill="#FFFFFF" height="10" style="stroke: #000000; stroke-width: 1.5;" width="15" x="1071" y="37.02"/><rect fill="#FFFFFF" height="2" style="stroke: #000000; stroke-width: 1.5;" width="4" x="1069" y="39.02"/><rect fill="#FFFFFF" height="2" style="stroke: #000000; stroke-width: 1.5;" width="4" x="1069" y="43.02"/><text fill="#000000" font-family="sans-serif" font-size="14" font-weight="bold" lengthAdjust="spacingAndGlyphs" textLength="95" x="583.5" y="58.5552">UserInterface</text><rect fill="#FFFFFF" filter="url(#fdvx9o68gfxik)" height="250.98" style="stroke: #000000; stroke-width: 1.5;" width="366" x="685" y="83.02"/><rect fill="#FFFFFF" height="10" style="stroke: #000000; stroke-width: 1.5;" width="15" x="1031" y="88.02"/><rect fill="#FFFFFF" height="2" style="stroke: #000000; stroke-width: 1.5;" width="4" x="1029" y="90.02"/><rect fill="#FFFFFF" height="2" style="stroke: #000000; stroke-width: 1.5;" width="4" x="1029" y="94.02"/><text fill="#000000" font-family="sans-serif" font-size="14" font-weight="bold" lengthAdjust="spacingAndGlyphs" textLength="58" x="839" y="109.5552">Services</text><rect fill="#FFFFFF" filter="url(#fdvx9o68gfxik)" height="183.98" style="stroke: #000000; stroke-width: 1.5;" width="116" x="911" y="126.02"/><text fill="#000000" font-family="sans-serif" font-size="14" font-weight="bold" lengthAdjust="spacingAndGlyphs" textLength="59" x="939.5" y="141.5552">Booking</text><rect fill="#FFFFFF" filter="url(#fdvx9o68gfxik)" height="183.98" style="stroke: #000000; stroke-width: 1.5;" width="209" x="452" y="126.02"/><rect fill="#FFFFFF" height="10" style="stroke: #000000; stroke-width: 1.5;" width="15" x="641" y="131.02"/><rect fill="#FFFFFF" height="2" style="stroke: #000000; stroke-width: 1.5;" width="4" x="639" y="133.02"/><rect fill="#FFFFFF" height="2" style="stroke: #000000; stroke-width: 1.5;" width="4" x="639" y="137.02"/><text fill="#000000" font-family="sans-serif" font-size="14" font-weight="bold" lengthAdjust="spacingAndGlyphs" textLength="67" x="523" y="152.5552">Browsing</text><rect fill="#FFFFFF" filter="url(#fdvx9o68gfxik)" height="183.98" style="stroke: #000000; stroke-width: 1.5;" width="225" x="203" y="126.02"/><rect fill="#FFFFFF" height="10" style="stroke: #000000; stroke-width: 1.5;" width="15" x="408" y="131.02"/><rect fill="#FFFFFF" height="2" style="stroke: #000000; stroke-width: 1.5;" width="4" x="406" y="133.02"/><rect fill="#FFFFFF" height="2" style="stroke: #000000; stroke-width: 1.5;" width="4" x="406" y="137.02"/><text fill="#000000" font-family="sans-serif" font-size="14" font-weight="bold" lengthAdjust="spacingAndGlyphs" textLength="83" x="274" y="152.5552">Personalize</text><rect fill="#F8F8F8" filter="url(#fdvx9o68gfxik)" height="36.4883" style="stroke: #383838; stroke-width: 1.5;" width="58" x="834" y="161.02"/><rect fill="#F8F8F8" height="5" style="stroke: #383838; stroke-width: 1.5;" width="10" x="829" y="166.02"/><rect fill="#F8F8F8" height="5" style="stroke: #383838; stroke-width: 1.5;" width="10" x="829" y="187.5083"/><text fill="#000000" font-family="sans-serif" font-size="14" lengthAdjust="spacingAndGlyphs" textLength="38" x="844" y="184.5552">Mode</text><rect fill="#F8F8F8" filter="url(#fdvx9o68gfxik)" height="36.4883" style="stroke: #383838; stroke-width: 1.5;" width="98" x="701" y="161.02"/><rect fill="#F8F8F8" height="5" style="stroke: #383838; stroke-width: 1.5;" width="10" x="696" y="166.02"/><rect fill="#F8F8F8" height="5" style="stroke: #383838; stroke-width: 1.5;" width="10" x="696" y="187.5083"/><text fill="#000000" font-family="sans-serif" font-size="14" lengthAdjust="spacingAndGlyphs" textLength="78" x="711" y="184.5552">Translation</text><rect fill="#F8F8F8" filter="url(#fdvx9o68gfxik)" height="36.4883" style="stroke: #383838; stroke-width: 1.5;" width="83" x="927.5" y="161.02"/><rect fill="#F8F8F8" height="5" style="stroke: #383838; stroke-width: 1.5;" width="10" x="922.5" y="166.02"/><rect fill="#F8F8F8" height="5" style="stroke: #383838; stroke-width: 1.5;" width="10" x="922.5" y="187.5083"/><text fill="#000000" font-family="sans-serif" font-size="14" lengthAdjust="spacingAndGlyphs" textLength="63" x="937.5" y="184.5552">Bookings</text><rect fill="#F8F8F8" filter="url(#fdvx9o68gfxik)" height="36.4883" style="stroke: #383838; stroke-width: 1.5;" width="83" x="927.5" y="257.51"/><rect fill="#F8F8F8" height="5" style="stroke: #383838; stroke-width: 1.5;" width="10" x="922.5" y="262.51"/><rect fill="#F8F8F8" height="5" style="stroke: #383838; stroke-width: 1.5;" width="10" x="922.5" y="283.9983"/><text fill="#000000" font-family="sans-serif" font-size="14" lengthAdjust="spacingAndGlyphs" textLength="63" x="937.5" y="281.0452">WPPlugin</text><rect fill="#F8F8F8" filter="url(#fdvx9o68gfxik)" height="36.4883" style="stroke: #383838; stroke-width: 1.5;" width="66" x="468" y="161.02"/><rect fill="#F8F8F8" height="5" style="stroke: #383838; stroke-width: 1.5;" width="10" x="463" y="166.02"/><rect fill="#F8F8F8" height="5" style="stroke: #383838; stroke-width: 1.5;" width="10" x="463" y="187.5083"/><text fill="#000000" font-family="sans-serif" font-size="14" lengthAdjust="spacingAndGlyphs" textLength="46" x="478" y="184.5552">Search</text><rect fill="#F8F8F8" filter="url(#fdvx9o68gfxik)" height="36.4883" style="stroke: #383838; stroke-width: 1.5;" width="77" x="568.5" y="161.02"/><rect fill="#F8F8F8" height="5" style="stroke: #383838; stroke-width: 1.5;" width="10" x="563.5" y="166.02"/><rect fill="#F8F8F8" height="5" style="stroke: #383838; stroke-width: 1.5;" width="10" x="563.5" y="187.5083"/><text fill="#000000" font-family="sans-serif" font-size="14" lengthAdjust="spacingAndGlyphs" textLength="57" x="578.5" y="184.5552">Filtering</text><rect fill="#F8F8F8" filter="url(#fdvx9o68gfxik)" height="36.4883" style="stroke: #383838; stroke-width: 1.5;" width="47" x="477.5" y="257.51"/><rect fill="#F8F8F8" height="5" style="stroke: #383838; stroke-width: 1.5;" width="10" x="472.5" y="262.51"/><rect fill="#F8F8F8" height="5" style="stroke: #383838; stroke-width: 1.5;" width="10" x="472.5" y="283.9983"/><text fill="#000000" font-family="sans-serif" font-size="14" lengthAdjust="spacingAndGlyphs" textLength="27" x="487.5" y="281.0452">Info</text><rect fill="#F8F8F8" filter="url(#fdvx9o68gfxik)" height="36.4883" style="stroke: #383838; stroke-width: 1.5;" width="78" x="559" y="257.51"/><rect fill="#F8F8F8" height="5" style="stroke: #383838; stroke-width: 1.5;" width="10" x="554" y="262.51"/><rect fill="#F8F8F8" height="5" style="stroke: #383838; stroke-width: 1.5;" width="10" x="554" y="283.9983"/><text fill="#000000" font-family="sans-serif" font-size="14" lengthAdjust="spacingAndGlyphs" textLength="58" x="569" y="281.0452">Location</text><rect fill="#F8F8F8" filter="url(#fdvx9o68gfxik)" height="36.4883" style="stroke: #383838; stroke-width: 1.5;" width="58" x="219" y="161.02"/><rect fill="#F8F8F8" height="5" style="stroke: #383838; stroke-width: 1.5;" width="10" x="214" y="166.02"/><rect fill="#F8F8F8" height="5" style="stroke: #383838; stroke-width: 1.5;" width="10" x="214" y="187.5083"/><text fill="#000000" font-family="sans-serif" font-size="14" lengthAdjust="spacingAndGlyphs" textLength="38" x="229" y="184.5552">Login</text><rect fill="#F8F8F8" filter="url(#fdvx9o68gfxik)" height="36.4883" style="stroke: #383838; stroke-width: 1.5;" width="100" x="312" y="161.02"/><rect fill="#F8F8F8" height="5" style="stroke: #383838; stroke-width: 1.5;" width="10" x="307" y="166.02"/><rect fill="#F8F8F8" height="5" style="stroke: #383838; stroke-width: 1.5;" width="10" x="307" y="187.5083"/><text fill="#000000" font-family="sans-serif" font-size="14" lengthAdjust="spacingAndGlyphs" textLength="80" x="322" y="184.5552">Preferences</text><rect fill="#F8F8F8" filter="url(#fdvx9o68gfxik)" height="36.4883" style="stroke: #383838; stroke-width: 1.5;" width="113" x="218.5" y="257.51"/><rect fill="#F8F8F8" height="5" style="stroke: #383838; stroke-width: 1.5;" width="10" x="213.5" y="262.51"/><rect fill="#F8F8F8" height="5" style="stroke: #383838; stroke-width: 1.5;" width="10" x="213.5" y="283.9983"/><text fill="#000000" font-family="sans-serif" font-size="14" lengthAdjust="spacingAndGlyphs" textLength="93" x="228.5" y="281.0452">Subscriptions</text><rect fill="#F8F8F8" filter="url(#fdvx9o68gfxik)" height="36.4883" style="stroke: #383838; stroke-width: 1.5;" width="78" x="1115" y="257.51"/><rect fill="#F8F8F8" height="5" style="stroke: #383838; stroke-width: 1.5;" width="10" x="1110" y="262.51"/><rect fill="#F8F8F8" height="5" style="stroke: #383838; stroke-width: 1.5;" width="10" x="1110" y="283.9983"/><text fill="#000000" font-family="sans-serif" font-size="14" lengthAdjust="spacingAndGlyphs" textLength="58" x="1125" y="281.0452">Firebase</text><rect fill="#F8F8F8" filter="url(#fdvx9o68gfxik)" height="36.4883" style="stroke: #383838; stroke-width: 1.5;" width="88" x="6" y="257.51"/><rect fill="#F8F8F8" height="5" style="stroke: #383838; stroke-width: 1.5;" width="10" x="1" y="262.51"/><rect fill="#F8F8F8" height="5" style="stroke: #383838; stroke-width: 1.5;" width="10" x="1" y="283.9983"/><text fill="#000000" font-family="sans-serif" font-size="14" lengthAdjust="spacingAndGlyphs" textLength="68" x="16" y="281.0452">Transport</text><rect fill="#F8F8F8" filter="url(#fdvx9o68gfxik)" height="36.4883" style="stroke: #383838; stroke-width: 1.5;" width="60" x="1233" y="161.02"/><rect fill="#F8F8F8" height="5" style="stroke: #383838; stroke-width: 1.5;" width="10" x="1228" y="166.02"/><rect fill="#F8F8F8" height="5" style="stroke: #383838; stroke-width: 1.5;" width="10" x="1228" y="187.5083"/><text fill="#000000" font-family="sans-serif" font-size="14" lengthAdjust="spacingAndGlyphs" textLength="40" x="1243" y="184.5552">Stripe</text><ellipse cx="138" cy="275.76" fill="#F8F8F8" filter="url(#fdvx9o68gfxik)" rx="8" ry="8" style="stroke: #383838; stroke-width: 2.0;"/><ellipse cx="1290" cy="275.76" fill="#F8F8F8" filter="url(#fdvx9o68gfxik)" rx="8" ry="8" style="stroke: #383838; stroke-width: 2.0;"/><ellipse cx="1237" cy="275.76" fill="#F8F8F8" filter="url(#fdvx9o68gfxik)" rx="8" ry="8" style="stroke: #383838; stroke-width: 2.0;"/><path d="M969,197.6 C969,214.54 969,240.2 969,257.22 " fill="none" id="Bookings-WPPlugin" style="stroke: #383838; stroke-width: 1.0;"/><path d="M976.0711,220.3089 A10,10 0 0 0 961.9289 220.3089" fill="#FFFFFF" style="stroke: #383838; stroke-width: 1.5;"/><ellipse cx="969" cy="227.38" fill="#FFFFFF" rx="6" ry="6" style="stroke: #383838; stroke-width: 1.5;"/><path d="M170.9421,264.7377 C170.825,264.7693 170.708,264.8009 170.5912,264.8325 C169.6567,265.0856 168.732,265.3389 167.8184,265.5917 C164.1644,266.6031 160.69,267.6075 157.49,268.56 " fill="none" id="UserInterface-&gt;w" style="stroke: #383838; stroke-width: 1.0;"/><path d="M153.5707,278.9269 A9,9 0 0 0 148.593 262.7614" fill="none" style="stroke: #383838; stroke-width: 1.5;"/><path d="M94.34,275.76 C105.83,275.76 117.31,275.76 128.79,275.76 " fill="none" id="Transport-w" style="stroke: #383838; stroke-width: 1.0;"/><path d="M1175.46,257.07 C1189.51,246.11 1208.85,233.32 1228.5,227.51 C1236.17,225.24 1239.19,224.26 1246.5,227.51 C1264.43,235.49 1278.08,254.91 1284.99,266.53 " fill="none" id="Firebase-f" style="stroke: #383838; stroke-width: 1.0;"/><path d="M1091.3221,183.1986 C1092.2905,183.5448 1093.3364,183.92 1094.4558,184.3233 C1096.6947,185.1299 1099.228,186.0491 1102.0253,187.0738 C1113.2144,191.1725 1128.6262,196.96 1146.3075,203.99 C1181.67,218.05 1226.11,237.08 1264,257.51 C1266.5,258.86 1269.07,260.38 1271.58,261.95 " fill="none" id="UserInterface-&gt;f" style="stroke: #383838; stroke-width: 1.0;"/><path d="M1281.7254,259.1873 A9,9 0 0 0 1272.3987 273.2981" fill="none" style="stroke: #383838; stroke-width: 1.5;"/><path d="M1267.95,197.6 C1272.7,214.22 1279.85,239.24 1284.71,256.24 " fill="none" id="Stripe-&gt;f" style="stroke: #383838; stroke-width: 1.0;"/><path d="M1294.9383,260.2597 A9,9 0 0 0 1278.6728 264.9001" fill="none" style="stroke: #383838; stroke-width: 1.5;"/><path d="M1258.23,197.6 C1252.6,218.06 1243.47,251.23 1239.26,266.54 " fill="none" id="Stripe-z" style="stroke: #383838; stroke-width: 1.0;"/><path d="M1091.1286,185.1303 C1091.2262,185.1888 1091.3245,185.2477 1091.4237,185.307 C1091.622,185.4258 1091.8234,185.5464 1092.0279,185.6689 C1092.437,185.9139 1092.8585,186.1664 1093.2921,186.4261 C1094.1592,186.9457 1095.0747,187.4944 1096.0361,188.0708 C1103.7272,192.6822 1114.3544,199.0681 1126.6388,206.4888 C1151.2075,221.33 1182.405,240.31 1210,257.51 C1212.74,259.22 1215.63,261.04 1218.46,262.84 " fill="none" id="UserInterface-&gt;z" style="stroke: #383838; stroke-width: 1.0;"/><path d="M1228.5067,259.8575 A9,9 0 0 0 1219.3882 274.1036" fill="none" style="stroke: #383838; stroke-width: 1.5;"/></g></svg>